<svg width="22" height="22" viewBox="0 0 22 22" fill="none" xmlns="http://www.w3.org/2000/svg">
<path d="M19.6291 12.737V3.34003C19.6291 2.32934 18.8067 1.507 17.796 1.507H15.934V0.612204C15.934 0.27531 15.6623 0 15.3218 0C14.9849 0 14.7096 0.271667 14.7096 0.612204V1.51059H4.91773V0.615846C4.91773 0.278952 4.64601 0.0036424 4.30553 0.0036424C3.96505 0.0036424 3.69327 0.27531 3.69327 0.615846V1.51064H1.83486C0.824173 1.51064 0.00183105 2.33299 0.00183105 3.34367V17.776C0.00183105 18.7867 0.824173 19.6091 1.83486 19.6091H12.7208C13.6047 21.0436 15.1841 22 16.9846 22C19.7486 22 21.9982 19.754 21.9982 16.9863C21.9982 15.1931 21.0491 13.621 19.6291 12.737ZM1.22265 3.34003C1.22265 3.00313 1.49432 2.72782 1.83486 2.72782H3.69685V3.72405C3.69685 4.06094 3.96858 4.33625 4.30906 4.33625C4.64595 4.33625 4.92126 4.06459 4.92126 3.72405V2.72782H14.7204V3.72405C14.7204 4.06094 14.9921 4.33625 15.3326 4.33625C15.6695 4.33625 15.9448 4.06459 15.9448 3.72405V2.72782H17.8068C18.1437 2.72782 18.419 2.99955 18.419 3.34003V5.55707H1.22265V3.34003ZM12.1774 18.3919L1.8385 18.3882C1.5016 18.3882 1.22629 18.1166 1.22629 17.776V6.78512H18.4119V12.1864C17.9627 12.0524 17.4809 11.9799 16.9882 11.9799C14.2242 11.9799 11.9745 14.2259 11.9745 16.9936C11.9745 17.479 12.047 17.9499 12.1774 18.3919ZM16.9846 20.7792C14.8943 20.7792 13.1917 19.0766 13.1917 16.9863C13.1917 14.8961 14.8943 13.1935 16.9846 13.1935C19.0748 13.1935 20.7774 14.8961 20.7774 16.9863C20.7774 19.0766 19.0748 20.7792 16.9846 20.7792Z" fill="black"/>
</svg>
