<svg width="20" height="20" viewBox="0 0 20 20" fill="none" xmlns="http://www.w3.org/2000/svg">
<g clip-path="url(#clip0)">
<path d="M15.6464 11.3536C15.8417 11.5488 16.1583 11.5488 16.3536 11.3536L19.5355 8.17157C19.7308 7.97631 19.7308 7.65973 19.5355 7.46447C19.3403 7.2692 19.0237 7.2692 18.8284 7.46447L16 10.2929L13.1716 7.46447C12.9763 7.2692 12.6597 7.2692 12.4645 7.46447C12.2692 7.65973 12.2692 7.97631 12.4645 8.17157L15.6464 11.3536ZM15.5 0V11H16.5V0H15.5Z" fill="black"/>
<rect y="20" width="20" height="1" transform="rotate(-90 0 20)" fill="black"/>
<rect x="3" y="20" width="16" height="1" transform="rotate(-90 3 20)" fill="black"/>
<rect x="6" y="20" width="12" height="1" transform="rotate(-90 6 20)" fill="black"/>
<rect x="9" y="20" width="9" height="1" transform="rotate(-90 9 20)" fill="black"/>
<rect x="12" y="20" width="7" height="1" transform="rotate(-90 12 20)" fill="black"/>
<rect x="15" y="20" width="5" height="1" transform="rotate(-90 15 20)" fill="black"/>
<rect x="18" y="20" width="3" height="1" transform="rotate(-90 18 20)" fill="black"/>
</g>
<defs>
<clipPath id="clip0">
<rect width="20" height="20" fill="white" transform="translate(0 20) rotate(-90)"/>
</clipPath>
</defs>
</svg>
