<svg width="30" height="33" viewBox="0 0 30 33" fill="none" xmlns="http://www.w3.org/2000/svg">
<path d="M15.0317 3.22077e-05C23.2677 0.0168582 29.9964 6.69887 30 14.8638C30.0016 18.513 28.6771 21.8552 26.4782 24.4435C25.5464 25.5403 25.3576 27.0797 25.9953 28.3668L27.628 31.6619C27.7621 31.9325 27.4934 32.2265 27.2085 32.1208L20.2667 29.5449C19.6108 29.3015 18.898 29.25 18.2138 29.3982C17.0869 29.6424 15.9128 29.7612 14.7067 29.7383C6.56214 29.5836 -0.0119026 22.9242 1.61811e-05 14.8483C0.0122211 6.63534 6.74035 -0.0168883 15.0317 3.22077e-05Z" fill="#FF5219"/>
<path d="M13.504 16.344C13.504 15.8107 13.6213 15.3733 13.856 15.032C14.0907 14.68 14.432 14.296 14.88 13.88C15.1893 13.592 15.4187 13.352 15.568 13.16C15.7173 12.9573 15.792 12.744 15.792 12.52C15.792 12.2107 15.6587 11.9653 15.392 11.784C15.136 11.592 14.8 11.496 14.384 11.496C13.9573 11.496 13.568 11.5973 13.216 11.8C12.8747 12.0027 12.5973 12.2853 12.384 12.648L10 11.368C10.4373 10.6213 11.056 10.04 11.856 9.624C12.656 9.208 13.6213 9 14.752 9C16.0213 9 17.04 9.26667 17.808 9.8C18.5867 10.3227 18.976 11.0587 18.976 12.008C18.976 12.4453 18.9013 12.8347 18.752 13.176C18.6027 13.5067 18.4213 13.7893 18.208 14.024C18.0053 14.248 17.7387 14.504 17.408 14.792C17.0453 15.1013 16.7787 15.368 16.608 15.592C16.4373 15.8053 16.352 16.056 16.352 16.344H13.504ZM14.928 20.568C14.4053 20.568 13.9733 20.408 13.632 20.088C13.2907 19.7573 13.12 19.3573 13.12 18.888C13.12 18.408 13.2853 18.0133 13.616 17.704C13.9573 17.3947 14.3947 17.24 14.928 17.24C15.4613 17.24 15.8987 17.3947 16.24 17.704C16.5813 18.0133 16.752 18.408 16.752 18.888C16.752 19.3573 16.5813 19.7573 16.24 20.088C15.8987 20.408 15.4613 20.568 14.928 20.568Z" fill="white"/>
</svg>
