<svg width="22" height="22" viewBox="0 0 22 22" fill="none" xmlns="http://www.w3.org/2000/svg">
<path d="M14.2136 4H7.89283C5.74632 4 4 5.73319 4 7.86346V14.1364C4 16.2668 5.74632 17.9999 7.89283 17.9999H14.2136C16.3603 17.9999 18.1066 16.2667 18.1066 14.1364V7.86346C18.1067 5.73319 16.3603 4 14.2136 4ZM16.8551 14.1364C16.8551 15.5818 15.6701 16.7577 14.2137 16.7577H7.89283C6.43646 16.7578 5.25161 15.5818 5.25161 14.1364V7.86346C5.25161 6.41811 6.43646 5.24214 7.89283 5.24214H14.2136C15.67 5.24214 16.855 6.41811 16.855 7.86346V14.1364H16.8551Z" fill="black"/>
<path d="M11.0532 7.39258C9.04893 7.39258 7.41833 9.01083 7.41833 11C7.41833 12.9891 9.04893 14.6072 11.0532 14.6072C13.0576 14.6072 14.6882 12.9891 14.6882 11C14.6882 9.01083 13.0576 7.39258 11.0532 7.39258ZM11.0532 13.365C9.73914 13.365 8.66994 12.3041 8.66994 10.9999C8.66994 9.69566 9.73906 8.63463 11.0532 8.63463C12.3674 8.63463 13.4366 9.69566 13.4366 10.9999C13.4366 12.3041 12.3673 13.365 11.0532 13.365Z" fill="black"/>
<path d="M14.8407 6.33936C14.5996 6.33936 14.3627 6.43624 14.1924 6.606C14.0212 6.77493 13.9229 7.01011 13.9229 7.25026C13.9229 7.48966 14.0213 7.72475 14.1924 7.89451C14.3626 8.06344 14.5996 8.16115 14.8407 8.16115C15.0827 8.16115 15.3188 8.06344 15.4899 7.89451C15.6609 7.72475 15.7585 7.48957 15.7585 7.25026C15.7585 7.01011 15.6609 6.77493 15.4899 6.606C15.3196 6.43624 15.0827 6.33936 14.8407 6.33936Z" fill="black"/>
</svg>
