<svg width="465" height="291" viewBox="0 0 465 291" fill="none" xmlns="http://www.w3.org/2000/svg">
<path d="M0 97.0141L56.0526 64.6761V194.46L111.243 225.935V290.611L0 225.935V97.0141Z" fill="#FF5219"/>
<path d="M167.293 193.597L111.24 225.935V96.1519L56.05 64.6762V4.57764e-05L167.293 64.6762V193.597Z" fill="#6D6E72"/>
<path d="M188.856 268.449C188.424 267.932 187.907 267.932 187.476 268.363C182.992 272.071 178.335 273.278 172.471 273.278C164.882 273.278 159.536 269.139 157.897 263.189H194.806C195.496 263.189 195.841 262.758 195.841 261.982V258.532C195.841 244.476 186.01 234.3 172.04 234.3C157.984 234.3 147.463 244.476 147.463 258.532C147.463 272.416 157.725 282.678 172.471 282.678C179.37 282.678 186.7 280.695 192.909 275.434C193.34 275.003 193.426 274.486 192.995 274.054L188.856 268.449ZM172.04 243.7C178.852 243.7 184.975 247.839 185.665 253.876H157.811C159.191 247.925 165.055 243.7 172.04 243.7Z" fill="black"/>
<path d="M205.639 221.279C204.863 221.279 204.432 221.71 204.432 222.486V280.781C204.432 281.471 205.035 281.988 205.639 281.988H213.228C214.004 281.988 214.435 281.557 214.435 280.781V222.486C214.435 221.71 214.004 221.279 213.228 221.279H205.639Z" fill="black"/>
<path d="M264.48 268.449C264.048 267.932 263.531 267.932 263.1 268.363C258.616 272.071 253.959 273.278 248.095 273.278C240.506 273.278 235.16 269.139 233.521 263.189H270.43C271.12 263.189 271.465 262.758 271.465 261.982V258.532C271.465 244.476 261.634 234.3 247.664 234.3C233.607 234.3 223.087 244.476 223.087 258.532C223.087 272.416 233.349 282.678 248.095 282.678C254.994 282.678 262.324 280.695 268.533 275.434C268.964 275.003 269.05 274.486 268.619 274.054L264.48 268.449ZM247.664 243.7C254.476 243.7 260.599 247.839 261.289 253.876H233.435C234.815 247.925 240.679 243.7 247.664 243.7Z" fill="black"/>
<path d="M302.649 234.3C288.852 234.3 278.331 244.476 278.331 258.36C278.331 272.244 288.852 282.678 302.649 282.678C311.273 282.678 318.775 278.884 323.173 271.64C323.518 271.209 323.432 270.691 323.001 270.26L317.568 265.948C317.05 265.517 316.619 265.517 316.188 265.948C312.652 271.122 308.513 273.192 302.649 273.192C294.112 273.192 288.334 266.897 288.334 258.36C288.334 249.822 294.026 243.786 302.649 243.786C308.513 243.786 312.394 245.942 315.929 250.771C316.274 251.202 316.964 251.547 317.568 250.944L323.001 246.804C323.432 246.459 323.518 246.028 323.173 245.425C319.034 238.353 310.755 234.3 302.649 234.3Z" fill="black"/>
<path d="M335.216 235.163L329.611 235.68C328.921 235.766 328.576 236.197 328.576 236.801V243.096C328.576 243.872 329.007 244.303 329.784 244.303H335.13V266.897C335.13 276.124 339.614 282.678 349.962 282.678C354.36 282.678 357.637 281.729 360.828 279.66C361.604 279.229 361.777 278.711 361.432 277.935L359.103 272.416C358.845 271.812 358.327 271.467 357.379 271.899C355.568 272.847 353.498 273.278 351.17 273.278C347.462 273.278 345.133 271.036 345.133 266.638V244.303H357.896C358.672 244.303 359.103 243.872 359.103 243.096V236.197C359.103 235.421 358.672 234.99 357.896 234.99H345.133V225.849C345.133 225.073 344.53 224.642 343.926 224.642H337.372C336.682 224.642 336.251 225.073 336.165 225.849L335.216 235.163Z" fill="black"/>
<path d="M369.687 234.99C368.911 234.99 368.48 235.421 368.48 236.197V280.781C368.48 281.557 369.084 281.988 369.687 281.988H377.276C378.052 281.988 378.483 281.557 378.483 280.781V249.822C381.502 245.769 385.382 243.7 390.125 243.7C395.903 243.7 398.748 247.494 400.128 252.41C400.387 253.186 400.904 253.358 401.68 253.099L408.493 250.771C409.183 250.512 409.442 249.995 409.269 249.133C407.458 240.595 400.904 234.3 391.074 234.3C385.9 234.3 381.846 236.197 378.483 239.561H378.052L377.19 236.025C377.017 235.335 376.586 234.99 375.982 234.99H369.687Z" fill="black"/>
<path d="M439.338 243.7C447.875 243.7 453.912 249.822 453.912 258.532C453.912 267.069 447.875 273.278 439.338 273.278C430.715 273.278 424.678 267.069 424.678 258.532C424.678 249.822 430.715 243.7 439.338 243.7ZM414.589 258.532C414.589 272.416 425.713 282.678 439.338 282.678C452.877 282.678 464.001 272.416 464.001 258.532C464.001 244.735 452.877 234.3 439.338 234.3C425.713 234.3 414.589 244.735 414.589 258.532Z" fill="black"/>
<path d="M225.071 97.8665L182.816 73.2996V137.976L225.071 162.074V97.8665Z" fill="#FF5219"/>
</svg>
