<svg width="128" height="80" viewBox="0 0 128 80" fill="none" xmlns="http://www.w3.org/2000/svg">
<path d="M0 26.7062L15.4303 17.8042V53.5312L30.6231 62.1958V80L0 62.1958V26.7062Z" fill="#FF5219"/>
<path d="M46.0534 53.2938L30.6231 62.1958V26.4688L15.4302 17.8042V0L46.0534 17.8042V53.2938Z" fill="#6D6E72"/>
<path d="M51.9881 73.8992C51.8694 73.7567 51.727 73.7567 51.6083 73.8754C50.3739 74.8962 49.092 75.2285 47.4777 75.2285C45.3887 75.2285 43.9169 74.0891 43.4659 72.4511H53.6261C53.816 72.4511 53.911 72.3324 53.911 72.1187V71.1692C53.911 67.2997 51.2048 64.4986 47.3591 64.4986C43.4896 64.4986 40.5935 67.2997 40.5935 71.1692C40.5935 74.9911 43.4184 77.8161 47.4777 77.8161C49.3769 77.8161 51.3947 77.2701 53.1039 75.822C53.2226 75.7033 53.2463 75.5609 53.1276 75.4422L51.9881 73.8992ZM47.3591 67.0861C49.2344 67.0861 50.9199 68.2256 51.1098 69.8873H43.4421C43.822 68.2493 45.4362 67.0861 47.3591 67.0861Z" fill="black"/>
<path d="M56.6083 60.914C56.3947 60.914 56.276 61.0327 56.276 61.2463V77.2938C56.276 77.4837 56.4421 77.6262 56.6083 77.6262H58.6973C58.911 77.6262 59.0297 77.5075 59.0297 77.2938V61.2463C59.0297 61.0327 58.911 60.914 58.6973 60.914H56.6083Z" fill="black"/>
<path d="M72.806 73.8992C72.6873 73.7567 72.5449 73.7567 72.4262 73.8754C71.1918 74.8962 69.9099 75.2285 68.2956 75.2285C66.2066 75.2285 64.7348 74.0891 64.2838 72.4511H74.444C74.6339 72.4511 74.7289 72.3324 74.7289 72.1187V71.1692C74.7289 67.2997 72.0226 64.4986 68.1769 64.4986C64.3075 64.4986 61.4114 67.2997 61.4114 71.1692C61.4114 74.9911 64.2363 77.8161 68.2956 77.8161C70.1947 77.8161 72.2125 77.2701 73.9217 75.822C74.0404 75.7033 74.0642 75.5609 73.9455 75.4422L72.806 73.8992ZM68.1769 67.0861C70.0523 67.0861 71.7378 68.2256 71.9277 69.8873H64.26C64.6398 68.2493 66.2541 67.0861 68.1769 67.0861Z" fill="black"/>
<path d="M83.3134 64.4986C79.5152 64.4986 76.6191 67.2997 76.6191 71.1217C76.6191 74.9437 79.5152 77.8161 83.3134 77.8161C85.6873 77.8161 87.7526 76.7716 88.9633 74.7775C89.0582 74.6588 89.0345 74.5164 88.9158 74.3977L87.4203 73.2107C87.2778 73.092 87.1591 73.092 87.0404 73.2107C86.0671 74.6351 84.9277 75.2048 83.3134 75.2048C80.9633 75.2048 79.3728 73.4719 79.3728 71.1217C79.3728 68.7716 80.9395 67.1098 83.3134 67.1098C84.9277 67.1098 85.9959 67.7033 86.9692 69.0327C87.0642 69.1514 87.2541 69.2463 87.4203 69.0802L88.9158 67.9407C89.0345 67.8457 89.0582 67.727 88.9633 67.5609C87.8238 65.6143 85.5449 64.4986 83.3134 64.4986Z" fill="black"/>
<path d="M92.2786 64.7359L90.7355 64.8784C90.5456 64.9021 90.4507 65.0208 90.4507 65.187V66.9199C90.4507 67.1336 90.5694 67.2523 90.783 67.2523H92.2548V73.4719C92.2548 76.0119 93.4893 77.8161 96.3379 77.8161C97.5486 77.8161 98.4507 77.5549 99.329 76.9852C99.5427 76.8665 99.5901 76.7241 99.4952 76.5104L98.8542 74.9911C98.783 74.825 98.6406 74.73 98.3795 74.8487C97.8809 75.1098 97.3112 75.2285 96.6703 75.2285C95.6495 75.2285 95.0085 74.6113 95.0085 73.4006V67.2523H98.5219C98.7355 67.2523 98.8542 67.1336 98.8542 66.9199V65.0208C98.8542 64.8072 98.7355 64.6885 98.5219 64.6885H95.0085V62.1721C95.0085 61.9585 94.8424 61.8398 94.6762 61.8398H92.872C92.6821 61.8398 92.5634 61.9585 92.5397 62.1721L92.2786 64.7359Z" fill="black"/>
<path d="M101.768 64.6885C101.554 64.6885 101.435 64.8072 101.435 65.0208V77.2938C101.435 77.5075 101.602 77.6262 101.768 77.6262H103.857C104.07 77.6262 104.189 77.5075 104.189 77.2938V68.7716C105.02 67.6558 106.088 67.0861 107.394 67.0861C108.984 67.0861 109.768 68.1306 110.148 69.4837C110.219 69.6974 110.361 69.7448 110.575 69.6736L112.45 69.0327C112.64 68.9615 112.711 68.819 112.664 68.5816C112.165 66.2315 110.361 64.4986 107.655 64.4986C106.231 64.4986 105.115 65.0208 104.189 65.9466H104.07L103.833 64.9733C103.786 64.7834 103.667 64.6885 103.501 64.6885H101.768Z" fill="black"/>
<path d="M120.941 67.0861C123.292 67.0861 124.953 68.7716 124.953 71.1692C124.953 73.5193 123.292 75.2285 120.941 75.2285C118.568 75.2285 116.906 73.5193 116.906 71.1692C116.906 68.7716 118.568 67.0861 120.941 67.0861ZM114.128 71.1692C114.128 74.9911 117.191 77.8161 120.941 77.8161C124.668 77.8161 127.731 74.9911 127.731 71.1692C127.731 67.371 124.668 64.4986 120.941 64.4986C117.191 64.4986 114.128 67.371 114.128 71.1692Z" fill="black"/>
<path d="M61.9585 26.9409L50.3264 20.178V37.9822L61.9585 44.6161V26.9409Z" fill="#FF5219"/>
</svg>
