<svg width="22" height="22" viewBox="0 0 22 22" fill="none" xmlns="http://www.w3.org/2000/svg">
<path d="M16.3109 5.78191C15.0895 4.01409 13.1536 3 11.0002 3C8.84669 3 6.91084 4.01409 5.68937 5.78191C4.4739 7.54078 4.19325 9.76756 4.93712 11.7349C5.13609 12.2722 5.45237 12.7941 5.87494 13.2832L10.5742 18.8031C10.6805 18.928 10.8362 19 11.0002 19C11.1641 19 11.3198 18.928 11.4261 18.8031L16.1241 13.2847C16.5485 12.7928 16.8644 12.2714 17.0617 11.7385C17.8071 9.76756 17.5264 7.54078 16.3109 5.78191ZM16.0141 11.3467C15.8619 11.7578 15.6135 12.1644 15.2762 12.5554C15.2752 12.5563 15.2743 12.5573 15.2735 12.5584L11.0002 17.5777L6.72415 12.5553C6.387 12.1646 6.13859 11.7581 5.98494 11.3429C5.36975 9.71591 5.60322 7.87478 6.60965 6.41819C7.61925 4.95694 9.21962 4.11888 11.0002 4.11888C12.7807 4.11888 14.3808 4.95691 15.3905 6.41819C16.3971 7.87478 16.6307 9.71591 16.0141 11.3467Z" fill="black"/>
<path d="M11.0002 6.31934C9.27278 6.31934 7.86728 7.72466 7.86728 9.45222C7.86728 11.1798 9.27259 12.5851 11.0002 12.5851C12.7277 12.5851 14.133 11.1798 14.133 9.45222C14.133 7.72484 12.7275 6.31934 11.0002 6.31934ZM11.0002 11.4662C9.88965 11.4662 8.98615 10.5627 8.98615 9.45219C8.98615 8.34169 9.88965 7.43819 11.0002 7.43819C12.1107 7.43819 13.0142 8.34169 13.0142 9.45219C13.0142 10.5627 12.1107 11.4662 11.0002 11.4662Z" fill="black"/>
</svg>
