<svg width="30" height="30" viewBox="0 0 30 30" fill="none" xmlns="http://www.w3.org/2000/svg">
<g clip-path="url(#clip0)">
<path d="M30 15C30 19.9524 26 24 21 24C16.0476 24 12 19.9524 12 15C12 10.0476 16 6 20.9524 6C26 6 30 10.0476 30 15Z" fill="#FFB600"/>
<path d="M21 6C25.9524 6 30 10.0476 30 15C30 19.9524 26 24 21 24C16.0476 24 12 19.9524 12 15" fill="#F7981D"/>
<path d="M21 6C25.9524 6 30 10.0476 30 15C30 19.9524 26 24 21 24" fill="#FF8500"/>
<path d="M8.90476 6C4 6.04762 0 10.0476 0 15C0 19.9524 4 24 9 24C11.3333 24 13.4286 23.0952 15.0476 21.6667C15.381 21.381 15.6667 21.0476 15.9524 20.7143H14.0952C13.8571 20.4286 13.619 20.0952 13.4286 19.8095H16.619C16.8095 19.5238 17 19.1905 17.1429 18.8571H12.9048C12.7619 18.5714 12.619 18.2381 12.5238 17.9048H17.4762C17.7619 17 17.9524 16.0476 17.9524 15.0476C17.9524 14.381 17.8571 13.7619 17.7619 13.1429H12.2381C12.2857 12.8095 12.381 12.5238 12.4762 12.1905H17.4286C17.3333 11.8571 17.1905 11.5238 17.0476 11.2381H12.8571C13 10.9048 13.1905 10.619 13.381 10.2857H16.5714C16.381 9.95238 16.1429 9.61905 15.8571 9.33333H14.0952C14.381 9 14.6667 8.71429 15 8.42857C13.4286 6.95238 11.2857 6.09524 8.95238 6.09524C8.95238 6 8.95238 6 8.90476 6Z" fill="#FF5050"/>
<path d="M0 15C0 19.9524 4 24 9 24C11.3333 24 13.4286 23.0952 15.0476 21.6666C15.381 21.3809 15.6667 21.0476 15.9524 20.7143H14.0952C13.8571 20.4285 13.619 20.0952 13.4286 19.8095H16.619C16.8095 19.5238 17 19.1905 17.1429 18.8571H12.9048C12.7619 18.5714 12.619 18.2381 12.5238 17.9047H17.4762C17.7619 17 17.9524 16.0476 17.9524 15.0476C17.9524 14.3809 17.8571 13.7619 17.7619 13.1428H12.2381C12.2857 12.8095 12.381 12.5238 12.4762 12.1905H17.4286C17.3333 11.8571 17.1905 11.5238 17.0476 11.2381H12.8571C13 10.9047 13.1905 10.619 13.381 10.2857H16.5714C16.381 9.95236 16.1429 9.61902 15.8571 9.33331H14.0952C14.381 8.99998 14.6667 8.71426 15 8.42855C13.4286 6.95236 11.2857 6.09521 8.95238 6.09521H8.90476" fill="#E52836"/>
<path d="M9.00002 24C11.3334 24 13.4286 23.0952 15.0476 21.6666C15.381 21.3809 15.6667 21.0476 15.9524 20.7143H14.0953C13.8572 20.4285 13.6191 20.0952 13.4286 19.8095H16.6191C16.8095 19.5238 17 19.1905 17.1429 18.8571H12.9048C12.7619 18.5714 12.6191 18.2381 12.5238 17.9047H17.4762C17.7619 17 17.9524 16.0476 17.9524 15.0476C17.9524 14.3809 17.8572 13.7619 17.7619 13.1428H12.2381C12.2857 12.8095 12.381 12.5238 12.4762 12.1905H17.4286C17.3334 11.8571 17.1905 11.5238 17.0476 11.2381H12.8572C13 10.9047 13.1905 10.619 13.381 10.2857H16.5715C16.381 9.95236 16.1429 9.61902 15.8572 9.33331H14.0953C14.381 8.99998 14.6667 8.71426 15 8.42855C13.4286 6.95236 11.2857 6.09521 8.9524 6.09521H8.90479" fill="#CB2026"/>
<path d="M12.1904 17.2857L12.3333 16.4762C12.2856 16.4762 12.1904 16.5238 12.0952 16.5238C11.7618 16.5238 11.7142 16.3333 11.7618 16.2381L12.0475 14.5714H12.5714L12.7142 13.6666H12.238L12.3333 13.0952H11.3809C11.3809 13.0952 10.8094 16.2381 10.8094 16.619C10.8094 17.1905 11.1428 17.4285 11.5714 17.4285C11.8571 17.4285 12.0952 17.3333 12.1904 17.2857Z" fill="white"/>
<path d="M12.5238 15.7622C12.5238 17.0955 13.4286 17.4288 14.1905 17.4288C14.9048 17.4288 15.1905 17.286 15.1905 17.286L15.3809 16.3812C15.3809 16.3812 14.8571 16.6193 14.3809 16.6193C13.3333 16.6193 13.5238 15.8574 13.5238 15.8574H15.4762C15.4762 15.8574 15.619 15.2384 15.619 15.0003C15.619 14.3812 15.2857 13.6193 14.2381 13.6193C13.2381 13.5241 12.5238 14.5717 12.5238 15.7622ZM14.1905 14.3812C14.7143 14.3812 14.619 15.0003 14.619 15.0479H13.5714C13.5714 15.0003 13.6667 14.3812 14.1905 14.3812Z" fill="white"/>
<path d="M20.2382 17.286L20.4287 16.2384C20.4287 16.2384 19.9525 16.4765 19.6191 16.4765C18.9525 16.4765 18.6668 15.9527 18.6668 15.3813C18.6668 14.2384 19.2382 13.6194 19.9049 13.6194C20.381 13.6194 20.762 13.9051 20.762 13.9051L20.9049 12.9051C20.9049 12.9051 20.3334 12.667 19.8096 12.667C18.7144 12.667 17.6191 13.6194 17.6191 15.4289C17.6191 16.6194 18.1906 17.4289 19.3334 17.4289C19.7144 17.4289 20.2382 17.286 20.2382 17.286Z" fill="white"/>
<path d="M6.95246 13.5244C6.2858 13.5244 5.80961 13.7149 5.80961 13.7149L5.66675 14.5244C5.66675 14.5244 6.09532 14.3339 6.71437 14.3339C7.0477 14.3339 7.33342 14.3816 7.33342 14.6673C7.33342 14.8578 7.2858 14.9054 7.2858 14.9054C7.2858 14.9054 7.00008 14.9054 6.85723 14.9054C6.0477 14.9054 5.14294 15.2387 5.14294 16.3339C5.14294 17.1911 5.71437 17.3816 6.0477 17.3816C6.71437 17.3816 7.00008 16.953 7.0477 16.953L7.00008 17.334H7.85722L8.23817 14.7149C8.23817 13.572 7.2858 13.5244 6.95246 13.5244ZM7.14294 15.6673C7.14294 15.8101 7.0477 16.572 6.47627 16.572C6.19056 16.572 6.09532 16.3339 6.09532 16.1911C6.09532 15.953 6.23818 15.6197 6.95246 15.6197C7.09532 15.6673 7.14294 15.6673 7.14294 15.6673Z" fill="white"/>
<path d="M9.14285 17.3813C9.38094 17.3813 10.5714 17.4289 10.5714 16.1432C10.5714 14.9528 9.42856 15.1908 9.42856 14.7147C9.42856 14.4766 9.61904 14.3813 9.95237 14.3813C10.0952 14.3813 10.619 14.4289 10.619 14.4289L10.7619 13.5718C10.7619 13.5718 10.4286 13.4766 9.85713 13.4766C9.14285 13.4766 8.42856 13.7623 8.42856 14.7147C8.42856 15.8099 9.61904 15.7147 9.61904 16.1432C9.61904 16.4289 9.2857 16.4766 9.04761 16.4766C8.61904 16.4766 8.19047 16.3337 8.19047 16.3337L8.04761 17.1908C8.09523 17.2861 8.33332 17.3813 9.14285 17.3813Z" fill="white"/>
<path d="M28.1429 12.7622L27.9524 14.0479C27.9524 14.0479 27.5714 13.5717 27.0476 13.5717C26.1905 13.5717 25.4286 14.6194 25.4286 15.8574C25.4286 16.6194 25.8095 17.4289 26.6191 17.4289C27.1905 17.4289 27.5238 17.0479 27.5238 17.0479L27.4762 17.3813H28.4286L29.1429 12.8098L28.1429 12.7622ZM27.7143 15.286C27.7143 15.8098 27.4762 16.4765 26.9524 16.4765C26.6191 16.4765 26.4286 16.1908 26.4286 15.7146C26.4286 14.9527 26.7619 14.4765 27.1905 14.4765C27.5238 14.4765 27.7143 14.7146 27.7143 15.286Z" fill="white"/>
<path d="M1.76194 17.3336L2.33337 13.9051L2.42861 17.3336H3.09527L4.33337 13.9051L3.80956 17.3336H4.80956L5.57146 12.7622H4.00003L3.04765 15.5717L3.00004 12.7622H1.61908L0.857178 17.3336H1.76194Z" fill="white"/>
<path d="M16.5238 17.3334C16.8095 15.762 16.8571 14.4763 17.5238 14.7144C17.6191 14.0953 17.7619 13.8572 17.8571 13.6191C17.8571 13.6191 17.8095 13.6191 17.6667 13.6191C17.2381 13.6191 16.9048 14.1906 16.9048 14.1906L17 13.6668H16.0952L15.4762 17.3811H16.5238V17.3334Z" fill="white"/>
<path d="M22.4287 13.5244C21.762 13.5244 21.2858 13.7149 21.2858 13.7149L21.143 14.5244C21.143 14.5244 21.5715 14.3339 22.1906 14.3339C22.5239 14.3339 22.8096 14.3816 22.8096 14.6673C22.8096 14.8578 22.762 14.9054 22.762 14.9054C22.762 14.9054 22.4763 14.9054 22.3334 14.9054C21.5239 14.9054 20.6191 15.2387 20.6191 16.3339C20.6191 17.1911 21.1906 17.3816 21.5239 17.3816C22.1906 17.3816 22.4763 16.953 22.5239 16.953L22.4763 17.334H23.3334L23.7144 14.7149C23.762 13.572 22.762 13.5244 22.4287 13.5244ZM22.6668 15.6673C22.6668 15.8101 22.5715 16.572 22.0001 16.572C21.7144 16.572 21.6191 16.3339 21.6191 16.1911C21.6191 15.953 21.762 15.6197 22.4763 15.6197C22.6191 15.6673 22.6191 15.6673 22.6668 15.6673Z" fill="white"/>
<path d="M24.5238 17.3334C24.8095 15.762 24.8571 14.4763 25.5238 14.7144C25.6191 14.0953 25.7619 13.8572 25.8571 13.6191C25.8571 13.6191 25.8095 13.6191 25.6667 13.6191C25.2381 13.6191 24.9048 14.1906 24.9048 14.1906L25 13.6668H24.0952L23.4762 17.3811H24.5238V17.3334Z" fill="white"/>
<path d="M10.7144 16.619C10.7144 17.1905 11.0477 17.4285 11.4763 17.4285C11.8096 17.4285 12.0953 17.3333 12.1905 17.2857L12.3334 16.4762C12.2858 16.4762 12.1905 16.5238 12.0953 16.5238C11.762 16.5238 11.7144 16.3333 11.762 16.2381L12.0477 14.5714H12.5715L12.7144 13.6666H12.2382L12.3334 13.0952" fill="#DCE5E5"/>
<path d="M13 15.7622C13 17.0955 13.4286 17.4288 14.1905 17.4288C14.9048 17.4288 15.1905 17.286 15.1905 17.286L15.381 16.3812C15.381 16.3812 14.8571 16.6193 14.381 16.6193C13.3333 16.6193 13.5238 15.8574 13.5238 15.8574H15.4762C15.4762 15.8574 15.619 15.2384 15.619 15.0003C15.619 14.3812 15.2857 13.6193 14.2381 13.6193C13.2381 13.5241 13 14.5717 13 15.7622ZM14.1905 14.3812C14.7143 14.3812 14.8095 15.0003 14.8095 15.0479H13.5714C13.5714 15.0003 13.6667 14.3812 14.1905 14.3812Z" fill="#DCE5E5"/>
<path d="M20.2382 17.286L20.4287 16.2384C20.4287 16.2384 19.9525 16.4765 19.6191 16.4765C18.9525 16.4765 18.6668 15.9527 18.6668 15.3813C18.6668 14.2384 19.2382 13.6194 19.9049 13.6194C20.3811 13.6194 20.762 13.9051 20.762 13.9051L20.9049 12.9051C20.9049 12.9051 20.3334 12.667 19.8096 12.667C18.7144 12.667 18.0953 13.6194 18.0953 15.4289C18.0953 16.6194 18.1906 17.4289 19.3334 17.4289C19.7144 17.4289 20.2382 17.286 20.2382 17.286Z" fill="#DCE5E5"/>
<path d="M5.66675 14.5715C5.66675 14.5715 6.09532 14.381 6.71437 14.381C7.0477 14.381 7.33342 14.4287 7.33342 14.7144C7.33342 14.9049 7.2858 14.9525 7.2858 14.9525C7.2858 14.9525 7.00008 14.9525 6.85723 14.9525C6.0477 14.9525 5.14294 15.2858 5.14294 16.381C5.14294 17.2382 5.71437 17.4286 6.0477 17.4286C6.71437 17.4286 7.00008 17.0001 7.0477 17.0001L7.00008 17.381H7.85722L8.23817 14.762C8.23817 13.6668 7.2858 13.6191 6.90484 13.6191L5.66675 14.5715ZM7.61913 15.6668C7.61913 15.8096 7.0477 16.5715 6.47627 16.5715C6.19056 16.5715 6.09532 16.3334 6.09532 16.1906C6.09532 15.9525 6.23818 15.6191 6.95246 15.6191C7.09532 15.6668 7.61913 15.6668 7.61913 15.6668Z" fill="#DCE5E5"/>
<path d="M8.09534 17.2861C8.09534 17.2861 8.38105 17.3813 9.19057 17.3813C9.42867 17.3813 10.6191 17.4289 10.6191 16.1432C10.6191 14.9528 9.47629 15.1908 9.47629 14.7147C9.47629 14.4766 9.66677 14.3813 10.0001 14.3813C10.143 14.3813 10.6668 14.4289 10.6668 14.4289L10.8096 13.5718C10.8096 13.5718 10.4763 13.4766 9.90486 13.4766C9.19057 13.4766 8.95248 13.7623 8.95248 14.7147C8.95248 15.8099 9.66676 15.7147 9.66676 16.1432C9.66676 16.4289 9.33343 16.4766 9.09534 16.4766" fill="#DCE5E5"/>
<path d="M27.9524 14.0482C27.9524 14.0482 27.5715 13.572 27.0477 13.572C26.1905 13.572 25.9048 14.6196 25.9048 15.8577C25.9048 16.6196 25.8096 17.4291 26.6191 17.4291C27.1905 17.4291 27.5239 17.0481 27.5239 17.0481L27.4763 17.3815H28.4286L29.1429 12.8101L27.9524 14.0482ZM27.9048 15.2862C27.9048 15.81 27.4763 16.4767 26.9524 16.4767C26.6191 16.4767 26.4286 16.191 26.4286 15.7148C26.4286 14.9529 26.762 14.4767 27.1905 14.4767C27.5239 14.4767 27.9048 14.7148 27.9048 15.2862Z" fill="#DCE5E5"/>
<path d="M1.76194 17.3336L2.33337 13.9051L2.42861 17.3336H3.09527L4.33337 13.9051L3.80956 17.3336H4.80956L5.57146 12.7622H4.38099L3.04765 15.5717L3.00004 12.7622H2.47623L0.857178 17.3336H1.76194Z" fill="#DCE5E5"/>
<path d="M15.5238 17.3334H16.5238C16.8095 15.762 16.8571 14.4763 17.5238 14.7144C17.619 14.0953 17.7619 13.8572 17.8571 13.6191C17.8571 13.6191 17.8095 13.6191 17.6667 13.6191C17.2381 13.6191 16.9048 14.1906 16.9048 14.1906L17 13.6668" fill="#DCE5E5"/>
<path d="M21.143 14.5715C21.143 14.5715 21.5715 14.381 22.1906 14.381C22.5239 14.381 22.8096 14.4287 22.8096 14.7144C22.8096 14.9049 22.762 14.9525 22.762 14.9525C22.762 14.9525 22.4763 14.9525 22.3334 14.9525C21.5239 14.9525 20.6191 15.2858 20.6191 16.381C20.6191 17.2382 21.1906 17.4286 21.5239 17.4286C22.1906 17.4286 22.4763 17.0001 22.5239 17.0001L22.4763 17.381H23.3334L23.7144 14.762C23.7144 13.6668 22.762 13.6191 22.381 13.6191L21.143 14.5715ZM23.0953 15.6668C23.0953 15.8096 22.5239 16.5715 21.9525 16.5715C21.6668 16.5715 21.5715 16.3334 21.5715 16.1906C21.5715 15.9525 21.7144 15.6191 22.4287 15.6191C22.6191 15.6668 23.0953 15.6668 23.0953 15.6668Z" fill="#DCE5E5"/>
<path d="M23.5238 17.3334H24.5238C24.8095 15.762 24.8571 14.4763 25.5238 14.7144C25.619 14.0953 25.7619 13.8572 25.8571 13.6191C25.8571 13.6191 25.8095 13.6191 25.6667 13.6191C25.2381 13.6191 24.9048 14.1906 24.9048 14.1906L25 13.6668" fill="#DCE5E5"/>
</g>
<defs>
<clipPath id="clip0">
<rect width="30" height="30" fill="white"/>
</clipPath>
</defs>
</svg>
