<svg width="120" height="120" viewBox="0 0 120 120" fill="none" xmlns="http://www.w3.org/2000/svg">
<path d="M0.892578 29.9033C0.892578 19.3707 9.5068 10.85 20.0743 11.0021C30.3106 11.1493 38.634 19.5441 38.6987 29.7812C38.735 35.5142 36.2183 40.6594 32.2194 44.1495C31.7973 44.5177 31.8582 45.1899 32.3403 45.4751L35.9021 47.5826C36.478 47.9234 36.2363 48.8061 35.5672 48.8061L19.438 48.8021C9.1632 48.6111 0.892578 40.2235 0.892578 29.9033Z" fill="#CBCBCB"/>
<path d="M92.9975 68.6145H50.1149C39.4044 68.6145 33.5432 56.1326 40.3839 47.891L40.7642 47.4326C43.7778 43.8019 45.4274 39.2318 45.4274 34.5134V26.2439C45.4276 11.7497 57.1773 0 71.6715 0C86.1657 0 97.9154 11.7497 97.9154 26.2439V34.7925C97.9154 39.5604 99.5996 44.175 102.671 47.8221C109.597 56.0468 103.75 68.6145 92.9975 68.6145Z" fill="#C59191"/>
<path d="M115.54 89.8664V118.216H27.5742V90.0797C27.5742 83.7094 31.3922 77.9602 37.2609 75.4899L51.4617 69.3164L56.243 67.2375C59.8711 65.6602 62.2172 62.0813 62.2172 58.125V56.2899H80.8945V58.0313C80.8945 62.0039 83.2641 65.5969 86.918 67.1625L106.125 75.3961C111.848 77.932 115.54 83.6039 115.54 89.8664Z" fill="white"/>
<path d="M51.4606 76.0758C56.3073 77.524 63.4409 79.0685 72.1365 78.9164C80.2953 78.7739 86.9928 77.1874 91.6531 75.6989L93.9688 70.1847L86.9173 67.1625C83.2644 65.5966 80.8958 62.0048 80.8958 58.0303V56.2903H62.2184V58.125C62.2184 62.0808 59.8719 65.6594 56.2445 67.2368L50.5332 69.72L51.4606 76.0758Z" fill="#FFCEBF"/>
<path d="M106.124 75.3949L91.6559 69.1936L91.6533 69.1938V118.216H115.54V89.8666C115.54 83.6048 111.849 77.9318 106.124 75.3949Z" fill="#FF5219"/>
<path d="M51.4617 69.3164V118.216H27.5742V90.0797C27.5742 83.7094 31.3922 77.9602 37.2609 75.4898L51.4617 69.3164Z" fill="#FF5219"/>
<path d="M78.0317 66.5419C80.1804 66.5419 82.2279 66.1104 84.0943 65.3318C82.0922 63.4838 80.896 60.8541 80.896 58.0306V56.2906H62.2186V58.125C62.2186 59.554 61.9109 60.9333 61.3486 62.1872C64.1768 64.8833 68.003 66.5417 72.2187 66.5417H78.0317V66.5419Z" fill="#FFB09E"/>
<path d="M90.2244 28.1937V43.6449C90.2244 52.3495 83.1679 59.4059 74.4634 59.4059H68.6507C59.946 59.4059 52.8896 52.3493 52.8896 43.6449V28.1937C52.8896 22.531 57.4801 17.9402 63.1431 17.9402H79.9712C85.6339 17.9405 90.2244 22.531 90.2244 28.1937Z" fill="#FFCEBF"/>
<path d="M90.2249 36.2327C90.2179 36.2541 90.2092 36.2747 90.2029 36.2965C89.6331 38.2641 88.1378 41.9808 84.5242 44.7673C82.8417 46.065 80.9224 47.0025 78.82 47.5542C77.867 47.8043 77.2971 48.7795 77.5471 49.7325C77.7576 50.5338 78.4802 51.0642 79.2717 51.0642C79.4214 51.0642 79.5738 51.0452 79.7256 51.0054C82.2925 50.3318 84.64 49.1836 86.7032 47.5929C88.128 46.4941 89.2811 45.2805 90.2146 44.0604C90.2181 43.9221 90.2252 43.7845 90.2252 43.6453V36.2327H90.2249Z" fill="#7A6D79"/>
<path d="M76.8634 52.4857H72.6829C70.78 52.4857 69.2373 50.9431 69.2373 49.0402C69.2373 47.1373 70.78 45.5946 72.6829 45.5946H76.8634C78.7663 45.5946 80.309 47.1373 80.309 49.0402C80.3087 50.9433 78.7663 52.4857 76.8634 52.4857Z" fill="#685E68"/>
<path d="M75.2817 13.8508C75.682 8.80241 80.5153 5.45202 85.1411 3.71671C92.7932 8.30178 97.9162 16.6739 97.9162 26.2437V28.0479C97.4931 28.1367 97.0722 28.2145 96.656 28.2766C94.1076 28.6573 91.9375 28.4925 90.4549 28.2766C80.901 27.004 74.7981 19.9481 75.2817 13.8508Z" fill="#B98080"/>
<path d="M71.6724 0C77.5993 0 83.0668 1.96547 87.4601 5.2793C85.2685 9.09281 80.236 16.6327 70.7993 22.2145C63.7939 26.3585 57.1882 27.7509 53.1204 28.2766H45.4287V26.2437C45.4285 11.7497 57.1782 0 71.6724 0V0Z" fill="#C59191"/>
<path d="M101.008 118.216H43.9015L40.7517 88.503C40.5283 86.3955 42.1805 84.559 44.2997 84.559H100.61C102.729 84.559 104.381 86.3955 104.158 88.503L101.008 118.216Z" fill="#EFEDEF"/>
<path d="M100.61 84.559H93.4746C95.5938 84.559 97.2459 86.3955 97.0226 88.503L93.8728 118.216H101.009L104.158 88.503C104.382 86.3955 102.73 84.559 100.61 84.559Z" fill="#E5E1E5"/>
<path d="M118.242 120H1.75781C0.786797 120 0 119.213 0 118.242C0 117.271 0.786797 116.484 1.75781 116.484H118.242C119.213 116.484 120 117.271 120 118.242C120 119.213 119.213 120 118.242 120Z" fill="#C9BFC8"/>
<path d="M72.4559 106.383C75.2146 106.383 77.4509 104.146 77.4509 101.388C77.4509 98.6289 75.2146 96.3926 72.4559 96.3926C69.6973 96.3926 67.4609 98.6289 67.4609 101.388C67.4609 104.146 69.6973 106.383 72.4559 106.383Z" fill="#C9BFC8"/>
<path d="M12.6588 31.6869C13.644 31.6869 14.4427 30.8882 14.4427 29.9031C14.4427 28.9179 13.644 28.1192 12.6588 28.1192C11.6736 28.1192 10.875 28.9179 10.875 29.9031C10.875 30.8882 11.6736 31.6869 12.6588 31.6869Z" fill="white"/>
<path d="M19.7946 31.6869C20.7798 31.6869 21.5784 30.8882 21.5784 29.9031C21.5784 28.9179 20.7798 28.1192 19.7946 28.1192C18.8094 28.1192 18.0107 28.9179 18.0107 29.9031C18.0107 30.8882 18.8094 31.6869 19.7946 31.6869Z" fill="white"/>
<path d="M26.9303 31.6869C27.9155 31.6869 28.7141 30.8882 28.7141 29.9031C28.7141 28.9179 27.9155 28.1192 26.9303 28.1192C25.9451 28.1192 25.1465 28.9179 25.1465 29.9031C25.1465 30.8882 25.9451 31.6869 26.9303 31.6869Z" fill="white"/>
</svg>
