<svg width="120" height="120" viewBox="0 0 120 120" fill="none" xmlns="http://www.w3.org/2000/svg">
<g clip-path="url(#clip0)">
<path d="M83.2071 28.6029C103.452 28.6446 119.991 45.2121 120 65.4565C120.004 74.5043 116.748 82.7911 111.343 89.2085C109.053 91.928 108.589 95.7448 110.156 98.936L114.169 107.106C114.499 107.777 113.839 108.506 113.138 108.244L96.075 101.857C94.4628 101.254 92.7108 101.126 91.0289 101.493C88.2591 102.099 85.373 102.393 82.4084 102.337C62.3888 101.953 46.2295 85.4414 46.2588 65.4181C46.2888 45.0546 62.8268 28.561 83.2071 28.6029Z" fill="#FF5219"/>
<path d="M76.2891 68.2031C77.6482 68.2031 78.75 67.1013 78.75 65.7422C78.75 64.383 77.6482 63.2812 76.2891 63.2812C74.9299 63.2812 73.8281 64.383 73.8281 65.7422C73.8281 67.1013 74.9299 68.2031 76.2891 68.2031Z" fill="white"/>
<path d="M86.1328 68.2031C87.492 68.2031 88.5938 67.1013 88.5938 65.7422C88.5938 64.383 87.492 63.2812 86.1328 63.2812C84.7737 63.2812 83.6719 64.383 83.6719 65.7422C83.6719 67.1013 84.7737 68.2031 86.1328 68.2031Z" fill="white"/>
<path d="M95.7422 68.2031C97.1013 68.2031 98.2031 67.1013 98.2031 65.7422C98.2031 64.383 97.1013 63.2812 95.7422 63.2812C94.383 63.2812 93.2812 64.383 93.2812 65.7422C93.2812 67.1013 94.383 68.2031 95.7422 68.2031Z" fill="white"/>
<path d="M36.7927 11.7016C16.5483 11.7434 0.0089099 28.3109 3.65288e-06 48.5553C-0.00398072 57.6031 3.25172 65.8899 8.65664 72.3073C10.9472 75.0267 11.4113 78.8435 9.84375 82.0348L5.83055 90.2046C5.50079 90.8756 6.16125 91.6046 6.86157 91.3425L23.9248 84.9558C25.537 84.3523 27.289 84.2245 28.9709 84.592C31.7407 85.1974 34.6268 85.4921 37.5914 85.4353C57.611 85.0517 73.7702 68.5402 73.7409 48.5168C73.7109 28.1534 57.173 11.6595 36.7927 11.7016Z" fill="#EFEFEF"/>
<path d="M35.3967 41.2622L25.7524 31.6179C25.3212 31.1867 24.622 31.1867 24.191 31.6179L22.0223 33.7866C18.7842 37.0247 18.7842 42.2747 22.0223 45.5128L39.9305 63.421C43.1686 66.6591 48.4186 66.6591 51.6567 63.421L53.8254 61.2523C54.2566 60.821 54.2566 60.1219 53.8254 59.6909L44.1811 50.0466C43.7498 49.6153 43.0507 49.6153 42.6197 50.0466L40.676 51.9905C39.7472 52.9193 38.2413 52.9193 37.3127 51.9905L33.4535 48.1313C32.5247 47.2024 32.5247 45.6966 33.4535 44.768L35.3972 42.8243C35.8277 42.3924 35.8277 41.6932 35.3967 41.2622Z" fill="black"/>
</g>
<defs>
<clipPath id="clip0">
<rect width="120" height="120" fill="white"/>
</clipPath>
</defs>
</svg>
