<svg width="20" height="20" viewBox="0 0 20 20" fill="none" xmlns="http://www.w3.org/2000/svg">
<g clip-path="url(#clip0)">
<path d="M3.64645 0.646446C3.84171 0.451184 4.15829 0.451184 4.35355 0.646446L7.53553 3.82843C7.7308 4.02369 7.7308 4.34027 7.53553 4.53553C7.34027 4.7308 7.02369 4.7308 6.82843 4.53553L4 1.70711L1.17157 4.53553C0.976311 4.7308 0.659728 4.7308 0.464466 4.53553C0.269204 4.34027 0.269204 4.02369 0.464466 3.82843L3.64645 0.646446ZM3.5 12V1H4.5V12H3.5Z" fill="black"/>
<rect width="20" height="1" transform="matrix(-1.19249e-08 -1 -1 1.19249e-08 20 20)" fill="black"/>
<rect width="16" height="1" transform="matrix(-1.19249e-08 -1 -1 1.19249e-08 17 20)" fill="black"/>
<rect width="12" height="1" transform="matrix(-1.19249e-08 -1 -1 1.19249e-08 14 20)" fill="black"/>
<rect width="9" height="1" transform="matrix(-1.19249e-08 -1 -1 1.19249e-08 11 20)" fill="black"/>
<rect width="7" height="1" transform="matrix(-1.19249e-08 -1 -1 1.19249e-08 8 20)" fill="black"/>
<rect width="5" height="1" transform="matrix(-1.19249e-08 -1 -1 1.19249e-08 5 20)" fill="black"/>
<rect width="3" height="1" transform="matrix(-1.19249e-08 -1 -1 1.19249e-08 2 20)" fill="black"/>
</g>
<defs>
<clipPath id="clip0">
<rect width="20" height="20" fill="white" transform="matrix(-1.19249e-08 -1 -1 1.19249e-08 20 20)"/>
</clipPath>
</defs>
</svg>
