<svg width="30" height="30" viewBox="0 0 30 30" fill="none" xmlns="http://www.w3.org/2000/svg">
<path d="M15 2C7.8316 2 2 7.8316 2 15C2 22.1684 7.8316 28 15 28C22.1684 28 28 22.1684 28 15C28 7.8316 22.1684 2 15 2ZM14.9215 14.1383C13.7558 14.1383 12.8071 13.1896 12.8071 12.0238C12.8071 10.8581 13.7558 9.90939 14.9215 9.90939C16.0873 9.90939 17.036 10.8581 17.036 12.0238C17.036 13.1896 16.0873 14.1383 14.9215 14.1383ZM8.6567 21.7624C8.6567 19.5822 10.57 17.7408 12.8348 17.7408H17.1652C19.43 17.7408 21.3433 19.5822 21.3433 21.7624V23.5503C19.57 24.8692 17.3747 25.6511 15 25.6511C12.6253 25.6511 10.43 24.8692 8.6567 23.5503V21.7624ZM17.8066 15.4243C18.7707 14.6048 19.3853 13.3855 19.3853 12.0238C19.3853 9.56262 17.3827 7.56002 14.9215 7.56002C12.4603 7.56002 10.4577 9.56262 10.4577 12.0238C10.4577 13.3959 11.0808 14.6241 12.0581 15.4436C9.06408 15.8091 6.62403 18.2421 6.33835 21.1864C5.08848 19.4412 4.34937 17.3061 4.34937 15C4.34937 9.12705 9.12705 4.34937 15 4.34937C20.873 4.34937 25.6506 9.12705 25.6506 15C25.6506 17.3057 24.9115 19.4408 23.6617 21.1864C23.3717 18.1975 20.8626 15.7307 17.8066 15.4243Z" fill="#010002"/>
</svg>
