<svg width="30" height="30" viewBox="0 0 30 30" fill="none" xmlns="http://www.w3.org/2000/svg">
<path fill-rule="evenodd" clip-rule="evenodd" d="M24.76 18.0016L24.7534 18.0267C24.2433 20.0849 21.9441 22.2948 19.8325 22.7539L19.8087 22.7592C18.1015 23.085 16.381 23.2473 14.6618 23.2473C14.1557 23.2473 13.6496 23.2315 13.1435 23.2038L10.8113 25.6234C10.2338 26.2237 9.21898 25.8147 9.21898 24.9836V22.6853C7.18666 22.1061 5.05788 19.9978 4.56896 18.0267L4.56367 18.0016C3.93336 15.1268 3.93336 12.2111 4.56367 9.33625L4.56896 9.31119C5.08034 7.25303 7.37959 5.04314 9.48987 4.58401L9.51498 4.57874C12.9295 3.9283 16.3929 3.9283 19.8087 4.57874L19.8325 4.58401C21.9441 5.04314 24.2433 7.25303 24.7534 9.31119L24.76 9.33625C25.3903 12.2111 25.3903 15.1268 24.76 18.0016ZM19.4414 6.43108C16.27 5.82814 13.055 5.82814 9.88233 6.43108C8.49485 6.7398 6.74928 8.40876 6.40835 9.75184C5.84147 12.3509 5.84147 14.9843 6.40835 17.5834C6.74928 18.9265 8.49485 20.5968 9.88233 20.9042H9.88365C9.94575 20.916 9.99068 20.9701 9.99068 21.0322V24.8384C9.99068 25.0284 10.2232 25.1221 10.3554 24.9849L12.167 23.1286C12.167 23.1286 13.61 21.6496 13.8703 21.3831C13.8954 21.3567 13.9311 21.3435 13.9668 21.3435C15.7956 21.3936 17.6258 21.2472 19.4414 20.9015C20.8288 20.5928 22.5744 18.9239 22.9153 17.5808C23.4835 14.9817 23.4835 12.3483 22.9153 9.74921C22.5744 8.40612 20.8302 6.73585 19.4414 6.42844V6.43108ZM19.4903 17.7774C19.2128 18.3658 18.8097 18.8552 18.227 19.1666C18.0631 19.255 17.8662 19.2827 17.6813 19.3408C17.4685 19.2761 17.265 19.2326 17.076 19.1547C15.1204 18.3447 13.3206 17.2998 11.8948 15.6968C11.0835 14.7851 10.4492 13.7573 9.91272 12.6689C9.65769 12.153 9.44362 11.6161 9.22559 11.0831C9.02606 10.5975 9.31941 10.0949 9.62862 9.7281C9.918 9.38507 10.292 9.1212 10.6963 8.92726C11.0121 8.77554 11.3227 8.86261 11.5526 9.13044C12.0507 9.70699 12.508 10.3139 12.8779 10.9828C13.1052 11.3944 13.0431 11.8971 12.6308 12.1768C12.5304 12.2454 12.4392 12.3245 12.3454 12.4011C12.2635 12.4684 12.1869 12.537 12.13 12.628C12.027 12.7942 12.023 12.9921 12.0891 13.1729C12.5978 14.5701 13.4567 15.6559 14.864 16.2403C15.09 16.334 15.3159 16.4435 15.5749 16.4132C16.0097 16.363 16.1511 15.8867 16.455 15.6374C16.7523 15.3946 17.1329 15.3907 17.454 15.5939C17.7751 15.797 18.0856 16.0147 18.3948 16.2337C18.6987 16.4501 19 16.6612 19.2801 16.9066C19.5497 17.1428 19.6422 17.4541 19.4903 17.7747V17.7774ZM16.965 13.2257C16.8435 13.2283 16.8911 13.2257 16.9373 13.2243C16.7417 13.2177 16.6347 13.103 16.6136 12.9156C16.5977 12.7784 16.5858 12.6412 16.5541 12.5079C16.4893 12.2467 16.3506 12.0039 16.1299 11.843C16.0255 11.7678 15.9079 11.7124 15.7837 11.6768C15.6265 11.6319 15.4639 11.6438 15.3067 11.6055C15.1362 11.5646 15.0424 11.4261 15.0688 11.2664C15.0926 11.1213 15.234 11.0079 15.3926 11.0197C16.385 11.091 17.0932 11.6029 17.195 12.7692C17.2016 12.851 17.2108 12.938 17.1923 13.0172C17.1633 13.1452 17.0708 13.2111 16.9783 13.2243C16.9862 13.2243 16.9849 13.2257 16.9637 13.227L16.965 13.2257ZM16.348 10.5593C16.044 10.4102 15.715 10.3178 15.3807 10.2624C15.2353 10.2387 15.0873 10.2242 14.9407 10.2031C14.7636 10.178 14.6685 10.0658 14.6764 9.89037C14.6843 9.72678 14.8046 9.60936 14.9829 9.61859C15.5696 9.65158 16.1365 9.77823 16.6585 10.054C17.7196 10.6147 18.3261 11.5013 18.5032 12.6834C18.5111 12.7375 18.5243 12.7903 18.5283 12.8444C18.5388 12.9776 18.5441 13.1095 18.5547 13.285C18.5507 13.3167 18.5481 13.3919 18.5296 13.4631C18.4622 13.7191 18.0724 13.7521 17.9825 13.4935C17.9561 13.417 17.9521 13.3299 17.9521 13.2468C17.9508 12.7058 17.8332 12.1649 17.5597 11.6952C17.2782 11.211 16.8501 10.8047 16.3466 10.5593H16.348ZM19.6277 14.2152C19.4229 14.2178 19.3304 14.0463 19.3171 13.8629C19.2907 13.5001 19.2722 13.1346 19.222 12.7744C18.9577 10.872 17.4381 9.29799 15.5406 8.96024C15.2552 8.90879 14.9631 8.8956 14.6737 8.86525C14.4914 8.84546 14.2509 8.83491 14.2112 8.60798C14.1769 8.418 14.3381 8.26627 14.5191 8.25704C14.568 8.2544 14.6182 8.25704 14.6671 8.25704C17.1236 8.32564 14.8164 8.26232 14.6737 8.25704C17.2293 8.33092 19.3264 10.0263 19.777 12.5488C19.8536 12.9789 19.8814 13.4196 19.9157 13.8563C19.9303 14.0397 19.8259 14.2138 19.6277 14.2165V14.2152Z" fill="black"/>
</svg>
