<svg width="22" height="22" viewBox="0 0 22 22" fill="none" xmlns="http://www.w3.org/2000/svg">
<path d="M18.9905 9.59376C18.9843 9.2563 18.9572 8.82962 18.91 8.31413C18.8624 7.79834 18.7944 7.33738 18.7059 6.93123C18.6047 6.47504 18.3849 6.09062 18.0466 5.77812C17.7084 5.46555 17.3146 5.28436 16.8654 5.23429C15.4613 5.07815 13.3395 5 10.5 5C7.66039 5 5.53855 5.07815 4.13453 5.23429C3.68543 5.28433 3.29324 5.46555 2.95815 5.77812C2.62291 6.09052 2.40471 6.47494 2.3035 6.93123C2.20873 7.33751 2.13749 7.79843 2.09008 8.31413C2.04273 8.82962 2.01582 9.25613 2.00954 9.59376C2.00312 9.93125 2 10.4 2 11C2 11.6 2.00312 12.0688 2.00957 12.4062C2.01585 12.7439 2.04276 13.1704 2.09011 13.6858C2.13753 14.2016 2.20554 14.6626 2.2941 15.0688C2.39531 15.5251 2.61504 15.9094 2.95339 16.2218C3.29181 16.5343 3.68559 16.7155 4.13456 16.7656C5.53858 16.9219 7.66029 17 10.5 17C13.3398 17 15.4613 16.9219 16.8655 16.7656C17.3146 16.7156 17.7067 16.5343 18.0419 16.2218C18.3771 15.9094 18.5952 15.5249 18.6964 15.0688C18.7912 14.6626 18.8624 14.2016 18.91 13.6858C18.9572 13.1704 18.9841 12.7437 18.9905 12.4062C18.9968 12.0688 19 11.6 19 11C19 10.4 18.9968 9.93125 18.9905 9.59376ZM13.8583 11.5063L9.00121 14.5062C8.91263 14.5686 8.805 14.5999 8.67857 14.5999C8.58378 14.5999 8.48575 14.5748 8.38458 14.5248C8.17591 14.4124 8.07161 14.2374 8.07161 13.9999V8.00011C8.07161 7.76274 8.17594 7.58766 8.38458 7.4752C8.59966 7.36253 8.80514 7.36884 9.00121 7.49394L13.8583 10.4939C14.048 10.5999 14.1428 10.7688 14.1428 11C14.1428 11.2312 14.048 11.4001 13.8583 11.5063Z" fill="black"/>
</svg>
