<svg width="80" height="80" viewBox="0 0 80 80" fill="none" xmlns="http://www.w3.org/2000/svg">
<path d="M30.0771 78.2165C30.4165 78.2165 30.7397 78.2165 31.0549 78.2165C34.6589 78.2165 37.7377 76.5276 54.667 62.2327C56.5094 60.6758 58.3384 59.1081 60.1539 57.5297C64.0327 54.1923 68.0488 50.7337 72.1539 47.5175C77.471 43.3478 79.5801 40.3903 79.9034 36.5842C80.2589 32.5438 78.0205 29.9498 72.6306 23.6549L71.2246 22.0387C68.469 18.8064 66.1741 16.0428 64.3236 13.8206C57.0993 5.14985 54.9498 2.53975 50.6508 2.42661C48.3397 2.37813 46.6104 3.065 40.0973 7.54177C29.2852 15.0004 21.9963 21.3923 11.5478 31.2913C2.19022 40.1559 0.170023 42.4347 0.000325834 46.3701C0.000325834 47.6791 -0.201694 51.5741 9.45487 62.1115C19.1114 72.6488 23.8953 77.869 30.0771 78.2165ZM13.2124 33.0529C23.5801 23.2428 30.7882 16.8913 41.4953 9.52964C47.4589 5.40035 48.9215 4.85086 50.4165 4.85086H50.5862C53.665 4.93167 55.2811 6.75793 62.4327 15.3559C64.2832 17.5862 66.5943 20.3579 69.3579 23.5983L70.772 25.2145C75.8468 31.1458 77.7539 33.368 77.4872 36.3822C77.269 38.9519 76.0488 41.3923 70.6589 45.6105C66.5054 48.8428 62.4731 52.3337 58.5377 55.6953C56.7276 57.263 54.9094 58.8307 53.067 60.3741C34.5943 76.0428 33.3094 75.962 30.2145 75.8004C25.0185 75.5095 20.4124 70.4832 11.2407 60.4468C5.45487 54.1438 2.31952 49.1741 2.42457 46.467C2.54578 43.5741 3.95992 41.8206 13.2124 33.0529Z" fill="#A59F9A"/>
<path d="M23.0791 61.1981C22.929 61.0479 22.7508 60.9287 22.5546 60.8473C22.3584 60.766 22.1481 60.7241 21.9357 60.7241C21.7233 60.7241 21.513 60.766 21.3168 60.8473C21.1206 60.9287 20.9424 61.0479 20.7923 61.1981C20.5002 61.5072 20.3374 61.9163 20.3374 62.3416C20.3374 62.7668 20.5002 63.1759 20.7923 63.485C21.1953 63.9864 21.6444 64.449 22.1337 64.8668C22.4416 65.1448 22.8446 65.2938 23.2594 65.2829C23.6741 65.2719 24.0687 65.1019 24.3616 64.8081C24.6544 64.5142 24.823 64.1189 24.8325 63.7042C24.842 63.2894 24.6916 62.8869 24.4125 62.5799C23.9278 62.1599 23.4816 61.6975 23.0791 61.1981Z" fill="#A59F9A"/>
<path d="M25.8588 57.1903C25.6749 57.2972 25.514 57.4394 25.3852 57.6086C25.2564 57.7779 25.1623 57.9709 25.1082 58.1766C25.0542 58.3823 25.0413 58.5966 25.0702 58.8073C25.0992 59.018 25.1694 59.2209 25.277 59.4044L26.3032 60.8266C26.3996 61.0276 26.5365 61.2064 26.7053 61.3519C26.8741 61.4974 27.0712 61.6065 27.2842 61.6721C27.4972 61.7378 27.7214 61.7587 27.9429 61.7335C28.1643 61.7084 28.3782 61.6377 28.571 61.5259C28.7638 61.4141 28.9314 61.2637 29.0633 61.084C29.1952 60.9044 29.2885 60.6994 29.3373 60.4819C29.3861 60.2645 29.3895 60.0393 29.3471 59.8205C29.3047 59.6017 29.2176 59.394 29.0911 59.2105C28.7517 58.7337 28.4123 58.257 28.0648 57.7883C27.9592 57.6041 27.8184 57.4426 27.6504 57.3129C27.4824 57.1832 27.2905 57.0879 27.0856 57.0324C26.8808 56.9768 26.667 56.9622 26.4565 56.9893C26.246 57.0164 26.0429 57.0847 25.8588 57.1903Z" fill="#A59F9A"/>
<path d="M31.5154 57.2791C31.8182 57.5801 32.2279 57.7491 32.6548 57.7491C33.0818 57.7491 33.4914 57.5801 33.7942 57.2791C34.0952 56.9763 34.2642 56.5667 34.2642 56.1397C34.2642 55.7127 34.0952 55.3031 33.7942 55.0003L33.5195 54.7579L33.4225 54.669C33.3599 54.5857 33.3058 54.4964 33.2609 54.4023C33.2124 54.3215 33.0831 53.974 33.2205 54.3458C33.1058 53.9321 32.8316 53.581 32.458 53.3696C32.0844 53.1582 31.6422 53.1038 31.2286 53.2185C30.8149 53.3331 30.4638 53.6074 30.2524 53.981C30.041 54.3545 29.9866 54.7968 30.1013 55.2104C30.3791 56.0141 30.8674 56.7285 31.5154 57.2791Z" fill="#A59F9A"/>
<path d="M36.364 53.8531C36.5142 54.0033 36.6924 54.1224 36.8886 54.2037C37.0848 54.2849 37.2951 54.3267 37.5075 54.3267C37.7198 54.3267 37.9301 54.2849 38.1263 54.2037C38.3225 54.1224 38.5007 54.0033 38.6509 53.8531C38.8011 53.703 38.9202 53.5247 39.0014 53.3285C39.0827 53.1323 39.1245 52.922 39.1245 52.7097C39.1245 52.4973 39.0827 52.2871 39.0014 52.0909C38.9202 51.8947 38.8011 51.7164 38.6509 51.5663C38.1256 51.0572 37.6004 50.5481 37.0832 50.0309C36.9331 49.8776 36.7542 49.7553 36.5568 49.6711C36.3594 49.5869 36.1473 49.5424 35.9327 49.5401C35.7181 49.5379 35.5051 49.5779 35.306 49.658C35.1069 49.738 34.9254 49.8565 34.7721 50.0067C34.6188 50.1568 34.4965 50.3357 34.4123 50.5331C34.3281 50.7305 34.2836 50.9426 34.2813 51.1572C34.2791 51.3718 34.3191 51.5847 34.3992 51.7839C34.4792 51.983 34.5977 52.1644 34.7479 52.3178C35.2974 52.8349 35.8226 53.3359 36.364 53.8531Z" fill="#A59F9A"/>
<path d="M40.6551 49.7477C40.8052 49.898 40.9835 50.0172 41.1797 50.0985C41.3759 50.1798 41.5862 50.2217 41.7986 50.2217C42.0109 50.2217 42.2213 50.1798 42.4174 50.0985C42.6136 50.0172 42.7919 49.898 42.942 49.7477C43.2359 49.4396 43.3999 49.0301 43.3999 48.6043C43.3999 48.1784 43.2359 47.769 42.942 47.4608L41.8996 46.3134C41.7495 46.1631 41.5712 46.0439 41.375 45.9626C41.1788 45.8812 40.9685 45.8394 40.7561 45.8394C40.5437 45.8394 40.3334 45.8812 40.1372 45.9626C39.941 46.0439 39.7628 46.1631 39.6127 46.3134C39.3188 46.6215 39.1548 47.031 39.1548 47.4568C39.1548 47.8826 39.3188 48.2921 39.6127 48.6002L40.6551 49.7477Z" fill="#A59F9A"/>
<path d="M44.7034 46.0629C44.8535 46.2132 45.0317 46.3324 45.2279 46.4137C45.4241 46.495 45.6344 46.5369 45.8468 46.5369C46.0592 46.5369 46.2695 46.495 46.4657 46.4137C46.6619 46.3324 46.8401 46.2132 46.9902 46.0629C47.2823 45.7538 47.4451 45.3447 47.4451 44.9195C47.4451 44.4942 47.2823 44.0851 46.9902 43.776L46.1822 42.871C46.0321 42.7207 45.8538 42.6015 45.6576 42.5202C45.4614 42.4388 45.2511 42.397 45.0387 42.397C44.8263 42.397 44.616 42.4388 44.4198 42.5202C44.2236 42.6015 44.0454 42.7207 43.8953 42.871C43.6032 43.18 43.4404 43.5892 43.4404 44.0144C43.4404 44.4397 43.6032 44.8488 43.8953 45.1578L44.7034 46.0629Z" fill="#A59F9A"/>
<path d="M48.9945 42.5154C49.2177 42.8787 49.5725 43.1419 49.9849 43.2503C50.3973 43.3586 50.8356 43.3038 51.2086 43.0972C51.3918 42.9896 51.5519 42.8469 51.6799 42.6774C51.8079 42.5078 51.9012 42.3147 51.9545 42.1091C52.0078 41.9034 52.02 41.6893 51.9905 41.4789C51.9609 41.2685 51.8902 41.0661 51.7823 40.883L50.6187 39.3396C50.3903 38.9818 50.0333 38.7252 49.6213 38.623C49.2093 38.5207 48.7738 38.5806 48.4046 38.7901C48.0355 39.006 47.767 39.3595 47.6579 39.7729C47.5489 40.1864 47.6081 40.6263 47.8228 40.9962L48.9945 42.5154Z" fill="#A59F9A"/>
<path d="M53.576 38.7256C53.7262 38.8758 53.9044 38.9949 54.1006 39.0762C54.2968 39.1574 54.5071 39.1992 54.7194 39.1992C54.9318 39.1992 55.1421 39.1574 55.3383 39.0762C55.5345 38.9949 55.7127 38.8758 55.8629 38.7256C56.013 38.5755 56.1322 38.3972 56.2134 38.201C56.2947 38.0048 56.3365 37.7945 56.3365 37.5822C56.3365 37.3698 56.2947 37.1596 56.2134 36.9634C56.1322 36.7672 56.013 36.5889 55.8629 36.4388L54.6912 35.2832C54.541 35.133 54.3627 35.0139 54.1666 34.9327C53.9704 34.8514 53.7601 34.8096 53.5477 34.8096C53.3354 34.8096 53.1251 34.8514 52.9289 34.9327C52.7327 35.0139 52.5544 35.133 52.4043 35.2832C52.2541 35.4334 52.135 35.6116 52.0538 35.8078C51.9725 36.004 51.9307 36.2143 51.9307 36.4266C51.9307 36.639 51.9725 36.8493 52.0538 37.0455C52.135 37.2416 52.2541 37.4199 52.4043 37.5701L53.576 38.7256Z" fill="#A59F9A"/>
<path d="M58.1819 34.8794C58.4852 35.1827 58.8965 35.353 59.3254 35.353C59.7542 35.353 60.1655 35.1827 60.4688 34.8794C60.7721 34.5761 60.9424 34.1648 60.9424 33.736C60.9424 33.3071 60.7721 32.8958 60.4688 32.5925L60.1456 32.3259L60.1052 32.2855C59.9741 32.0827 59.8554 31.8722 59.7496 31.6552C59.6427 31.4713 59.5005 31.3104 59.3313 31.1816C59.162 31.0528 58.969 30.9587 58.7633 30.9046C58.5576 30.8506 58.3433 30.8377 58.1326 30.8666C57.9219 30.8956 57.719 30.9658 57.5355 31.0733C57.1751 31.2992 56.9148 31.6545 56.8081 32.0663C56.7014 32.478 56.7564 32.915 56.9617 33.2875C57.2551 33.8961 57.6704 34.438 58.1819 34.8794Z" fill="#A59F9A"/>
<path d="M63.1116 31.154C63.2617 31.3043 63.44 31.4235 63.6362 31.5048C63.8324 31.5861 64.0427 31.628 64.255 31.628C64.4674 31.628 64.6777 31.5861 64.8739 31.5048C65.0701 31.4235 65.2484 31.3043 65.3985 31.154C65.6924 30.8459 65.8564 30.4364 65.8564 30.0106C65.8564 29.5847 65.6924 29.1753 65.3985 28.8671L64.3722 27.7035C64.2221 27.5532 64.0439 27.434 63.8477 27.3527C63.6515 27.2714 63.4412 27.2295 63.2288 27.2295C63.0164 27.2295 62.8061 27.2714 62.6099 27.3527C62.4137 27.434 62.2355 27.5532 62.0854 27.7035C61.7914 28.0116 61.6274 28.4211 61.6274 28.8469C61.6274 29.2728 61.7914 29.6822 62.0854 29.9904L63.1116 31.154Z" fill="#A59F9A"/>
<path d="M17.7781 54.144C17.9476 54.156 18.1177 54.156 18.2872 54.144C19.9033 54.144 21.5195 53.1581 23.3862 51.7197C23.766 51.4126 24.1296 51.1379 24.4528 50.9116C26.8771 49.045 28.4932 47.8167 26.9256 43.8248C25.8104 40.9722 23.8145 39.3238 21.3094 39.1783C17.7377 38.9763 14.2549 41.7722 12.7922 44.5116C11.6609 46.6288 11.669 48.7136 12.7922 50.249C14.4973 52.4389 15.9195 53.8854 17.7781 54.144ZM14.9013 45.5945C15.968 43.6066 18.5377 41.5541 20.9134 41.5541H21.1397C22.6912 41.6429 23.871 42.6854 24.6468 44.6571C25.5518 46.952 25.2528 47.1783 22.9579 48.9399C22.6185 49.1985 22.2468 49.4813 21.8508 49.7965C20.0246 51.251 18.8932 51.8248 18.0609 51.7197C17.2286 51.6147 16.2508 50.75 14.7397 48.7379C13.972 47.6793 14.5458 46.3298 14.9013 45.5945Z" fill="#A59F9A"/>
<path d="M46.1096 52.9481C40.2672 58.338 34.15 63.5986 27.9358 68.5683C27.684 68.7697 27.5225 69.063 27.4869 69.3835C27.4513 69.704 27.5445 70.0255 27.7459 70.2773C27.9474 70.5292 28.2406 70.6906 28.5612 70.7263C28.8817 70.7619 29.2032 70.6687 29.455 70.4672C35.7096 65.4571 41.8672 60.1561 47.75 54.7258C47.8922 54.6277 48.0118 54.5002 48.1008 54.352C48.1897 54.2038 48.246 54.0384 48.2657 53.8667C48.2854 53.695 48.2682 53.521 48.2152 53.3565C48.1622 53.192 48.0747 53.0408 47.9584 52.9129C47.8421 52.785 47.6999 52.6834 47.5412 52.6151C47.3824 52.5467 47.2109 52.513 47.0381 52.5163C46.8653 52.5197 46.6952 52.5599 46.5393 52.6344C46.3833 52.7088 46.2451 52.8158 46.1338 52.9481H46.1096Z" fill="#A59F9A"/>
<path d="M57.7135 43.275C55.6098 44.7737 53.5943 46.3926 51.6771 48.1235C51.5587 48.2301 51.4624 48.359 51.3939 48.5028C51.3253 48.6466 51.2858 48.8025 51.2775 48.9616C51.2693 49.1208 51.2924 49.2799 51.3458 49.4301C51.3991 49.5802 51.4815 49.7184 51.5882 49.8366C51.7013 49.9623 51.8397 50.0625 51.9943 50.1308C52.1489 50.199 52.3162 50.2337 52.4852 50.2326C52.7831 50.233 53.0708 50.1237 53.2933 49.9255C55.1456 48.2599 57.0908 46.7005 59.1195 45.2548C59.2495 45.1625 59.3601 45.0455 59.4448 44.9104C59.5296 44.7754 59.587 44.625 59.6136 44.4678C59.6402 44.3106 59.6356 44.1497 59.6001 43.9942C59.5645 43.8388 59.4987 43.6919 59.4064 43.5619C59.3141 43.4319 59.1971 43.3214 59.062 43.2366C58.927 43.1518 58.7766 43.0945 58.6194 43.0678C58.4622 43.0412 58.3012 43.0458 58.1458 43.0813C57.9904 43.1169 57.8435 43.1827 57.7135 43.275Z" fill="#A59F9A"/>
<path d="M63.5237 37.982C63.3687 38.1575 63.2673 38.3739 63.2319 38.6053C63.1964 38.8368 63.2283 39.0735 63.3237 39.2874C63.4191 39.5012 63.574 39.6831 63.77 39.8113C63.9659 39.9395 64.1946 40.0086 64.4288 40.0103C64.5983 40.0099 64.7658 39.9737 64.9204 39.9041C65.075 39.8345 65.2131 39.733 65.3258 39.6063C66.5724 38.2204 67.9232 36.9318 69.3662 35.7517C69.5665 35.5402 69.684 35.2637 69.697 34.9726C69.7101 34.6816 69.618 34.3956 69.4374 34.167C69.2569 33.9383 69 33.7824 68.7139 33.7276C68.4277 33.6729 68.1315 33.7231 67.8793 33.8689C66.3264 35.1289 64.8705 36.5038 63.5237 37.982Z" fill="#A59F9A"/>
</svg>
