<svg width="80" height="80" viewBox="0 0 80 80" fill="none" xmlns="http://www.w3.org/2000/svg">
<path d="M64.6735 70.5714H59.7755C59.2228 70.5714 58.7755 70.1241 58.7755 69.5714C58.7755 67.0579 56.622 64.9339 54.0735 64.9339C51.511 64.9339 49.3461 67.0579 49.3461 69.5714C49.3461 70.1241 48.8988 70.5714 48.3461 70.5714H41.8155C41.2628 70.5714 40.8155 70.1241 40.8155 69.5714C40.8155 67.0163 38.6563 64.8571 36.1012 64.8571C33.5461 64.8571 31.3877 67.0163 31.3877 69.5714C31.3877 70.1241 30.9404 70.5714 30.3877 70.5714H23.0408C22.4882 70.5714 22.0408 70.1241 22.0408 69.5714C22.0408 66.9273 20.169 64.9339 17.6865 64.9339C15.2588 64.9339 13.4277 66.9273 13.4277 69.5714C13.4277 70.1241 12.9804 70.5714 12.4277 70.5714H5.89795C5.3453 70.5714 4.89795 70.1241 4.89795 69.5714V63.8571C4.89795 63.3118 5.3355 62.8661 5.88081 62.8571C8.4204 62.8147 10.649 60.5322 10.649 57.9714C10.649 55.5094 8.51019 53.471 5.88081 53.4277C5.33632 53.4196 4.89795 52.9739 4.89795 52.4286V45.0816C4.89795 44.5363 5.3355 44.0906 5.88081 44.0816C8.55428 44.0375 10.649 42.1469 10.649 39.7779C10.649 37.4057 8.55509 35.5126 5.88081 35.4686C5.33632 35.4604 4.89795 35.0147 4.89795 34.4694V27.1224C4.89795 26.5771 5.3355 26.1314 5.88081 26.1224C8.51019 26.0792 10.649 24.0432 10.649 21.5845C10.649 18.9608 8.2506 17.5486 5.88081 17.5094C5.33632 17.5012 4.89795 17.0555 4.89795 16.5102V10.7959C4.89795 10.2432 5.3453 9.7959 5.89795 9.7959H12.4286C12.9812 9.7959 13.4286 10.2432 13.4286 10.7959C13.4286 10.8155 13.4286 10.8359 13.4269 10.8555C13.4253 10.9567 13.4277 11.2637 13.4286 11.4539V11.6122C13.4286 14.0139 15.0604 15.5061 17.6873 15.5061C20.3322 15.5061 22.0416 13.9779 22.0416 11.6122V11.4539C22.0424 11.2637 22.0449 10.9567 22.0433 10.8555C22.0416 10.8359 22.0416 10.8163 22.0416 10.7959C22.0416 10.2432 22.489 9.7959 23.0416 9.7959H30.3886C30.9412 9.7959 31.3886 10.2432 31.3886 10.7959C31.3886 10.8155 31.3886 10.8359 31.3869 10.8555C31.3853 10.9567 31.3877 11.2637 31.3886 11.4539V11.6122C31.3886 14.302 33.6457 15.5061 35.8816 15.5061C38.2751 15.5061 40.818 14.1412 40.818 11.6122V11.4539C40.8188 11.2637 40.8212 10.9567 40.8196 10.8555C40.8179 10.8359 40.818 10.8163 40.818 10.7959C40.818 10.2432 41.2653 9.7959 41.8179 9.7959H48.3486C48.9012 9.7959 49.3486 10.2432 49.3486 10.7959C49.3486 10.8155 49.3486 10.8359 49.3469 10.8555C49.3453 10.9567 49.3477 11.2637 49.3486 11.4539V11.6122C49.3486 14.2873 51.7992 15.5061 54.0759 15.5061C56.3396 15.5061 58.778 14.2873 58.778 11.6122V11.4539C58.7788 11.2637 58.7812 10.9567 58.7796 10.8555C58.778 10.8359 58.778 10.8163 58.778 10.7959C58.778 10.2432 59.2253 9.7959 59.778 9.7959H64.6759C65.2286 9.7959 65.6759 10.2432 65.6759 10.7959V15.6939C65.6759 16.0857 65.4473 16.4416 65.0906 16.6041C64.9984 16.6465 64.902 16.6734 64.8033 16.6857C64.3698 16.7477 60.7771 17.3812 60.7771 21.4081C60.7771 23.653 62.1559 26.0359 64.7159 26.1175C64.7535 26.1151 64.7886 26.1143 64.8269 26.1167C65.3698 26.1404 65.8686 26.5975 65.8571 27.1412C65.8547 27.2669 65.8286 27.3861 65.7828 27.4963V30.9045C67.9363 30.7175 70.5192 30.0775 73.7731 28.7135C74.2857 28.4979 74.8694 28.7404 75.0824 29.249C75.2963 29.7583 75.0563 30.3445 74.5469 30.5583C71.0041 32.0424 68.1608 32.7249 65.7837 32.9126V33.8898C65.8228 33.991 65.8449 34.1004 65.8482 34.2147C65.8645 34.7559 65.382 35.2155 64.8416 35.2465C64.7943 35.2481 64.7486 35.2481 64.7012 35.2449C63.9755 35.2628 63.3282 35.4245 62.7796 35.7086C65.3657 36.0718 68.7061 35.7053 73.7747 33.5812C74.2873 33.3665 74.871 33.6081 75.0841 34.1167C75.298 34.6261 75.058 35.2122 74.5486 35.4261C68.1755 38.0963 64.1918 38.1722 61.16 37.4408C60.9118 37.9975 60.7796 38.6457 60.7796 39.3673C60.7796 39.6767 60.7926 39.9714 60.8163 40.2522C63.8441 41.0196 67.6302 41.0237 73.7755 38.449C74.2882 38.2334 74.8718 38.4759 75.0849 38.9845C75.2988 39.4939 75.0588 40.08 74.5494 40.2939C68.56 42.8032 64.5371 43.0179 61.3845 42.4302C62.0106 43.6449 63.12 44.2759 64.7061 44.3118C64.7616 44.3077 64.8204 44.3077 64.8767 44.3126C65.4057 44.3551 65.8735 44.8065 65.8596 45.3388C65.8563 45.4628 65.831 45.5812 65.7853 45.6898V52.0841C65.8245 52.1861 65.8473 52.2963 65.8506 52.4106C65.8653 52.9526 65.3796 53.4114 64.8392 53.44C64.7943 53.4424 64.7535 53.4416 64.7118 53.4392C62.1575 53.5192 60.7804 55.9004 60.7804 58.1428C60.7804 60.7543 62.9126 62.8571 64.6784 62.8571C65.231 62.8571 65.6931 63.3053 65.6931 63.8571C65.6931 63.9151 65.6873 63.9714 65.6775 64.0269V69.5714C65.6735 70.1241 65.2261 70.5714 64.6735 70.5714ZM60.6996 68.5714H63.6743V64.7453C61.0041 64.1502 58.7763 61.271 58.7763 58.1428C58.7763 54.7208 60.8645 52.0522 63.782 51.5298V46.2432C61.3037 45.9061 59.6604 44.3575 59.0457 41.8212C58.1143 41.5151 57.2482 41.1616 56.4057 40.8179C56.1967 40.733 55.9886 40.6481 55.7812 40.5641V59.1837C55.7812 59.7363 55.3339 60.1837 54.7812 60.1837H16.7812C16.2286 60.1837 15.7812 59.7363 15.7812 59.1837V21.4694C15.7812 20.9167 16.2286 20.4694 16.7812 20.4694H54.7812C55.3339 20.4694 55.7812 20.9167 55.7812 21.4694V28.6147C56.2988 28.813 56.8041 29.0228 57.3077 29.2318C59.2212 30.0269 61.1682 30.8351 63.782 30.9502V28.0245C60.8645 27.4979 58.7763 24.8286 58.7763 21.4073C58.7763 18.3379 60.3551 16.6686 61.68 15.809C62.3943 15.3453 63.1167 15.0637 63.6743 14.9004V11.7951H60.7731C60.6743 15.1151 57.8873 17.5053 54.0743 17.5053C50.2473 17.5053 47.4498 15.1151 47.3502 11.7951H42.8139C42.7012 15.5053 39.1894 17.5053 35.8808 17.5053C32.1257 17.5053 29.4833 15.1665 29.391 11.7951H24.0384C23.9486 15.1665 21.3624 17.5053 17.6873 17.5053C14.009 17.5053 11.5167 15.2188 11.431 11.7951H6.89795V15.5837C10.2375 16.0359 12.649 18.4816 12.649 21.5845C12.649 24.809 10.1477 27.5281 6.89795 28.0375V33.5486C10.1926 34.0286 12.649 36.6106 12.649 39.7779C12.649 42.942 10.1926 45.5224 6.89795 46.0024V51.5135C10.1469 52.0228 12.649 54.7445 12.649 57.9722C12.649 61.3094 10.1028 64.2171 6.89795 64.7657V68.5722H11.4931C11.9208 65.2963 14.4408 62.9347 17.6873 62.9347C20.9241 62.9347 23.5241 65.3412 23.9722 68.5722H29.4653C29.9649 65.3869 32.8016 62.8579 36.102 62.8579C39.4024 62.8579 42.2392 65.3869 42.7388 68.5722H47.4269C47.9322 65.4286 50.7714 62.9347 54.0743 62.9347C57.4261 62.9339 60.2114 65.3845 60.6996 68.5714ZM17.7812 58.1837H53.782V39.8286C50.7959 38.8841 47.4718 38.7232 41.6 41.5567C41.1028 41.7967 40.5045 41.5886 40.2645 41.0906C40.0245 40.5934 40.2335 39.9951 40.7306 39.7551C46.8237 36.8155 50.6408 36.8783 53.7812 37.7445V34.6759C51.2539 34.0228 48.2073 34.1763 43.0008 36.689C42.5045 36.929 41.9053 36.7208 41.6653 36.2228C41.4253 35.7257 41.6343 35.1273 42.1314 34.8873C47.5518 32.2726 51.0286 32.0326 53.7812 32.6212V30.0343C50.8955 29.1461 47.6253 29.0506 41.8792 31.8212C41.3812 32.0604 40.7837 31.853 40.5437 31.3551C40.3037 30.8579 40.5126 30.2596 41.0098 30.0196C46.9731 27.1437 50.7233 27.1412 53.7812 27.9551V22.4694H17.7812V58.1837ZM55.7804 38.4147C56.2465 38.5934 56.7045 38.7796 57.16 38.9657C57.6922 39.1828 58.2277 39.4008 58.7763 39.6057C58.7755 39.5265 58.7747 39.4473 58.7747 39.3673C58.7747 38.4481 58.9363 37.5992 59.2367 36.8457C58.4767 36.5608 57.7682 36.2432 57.0767 35.933C56.64 35.7379 56.2106 35.5453 55.7796 35.3665V38.4147H55.7804ZM55.7804 33.2155C56.5118 33.4873 57.2049 33.7983 57.8947 34.1077C58.6784 34.4588 59.4677 34.8122 60.3224 35.1069C61.1886 34.1616 62.3763 33.5306 63.7812 33.3208V32.9575C60.7926 32.8457 58.5943 31.933 56.5404 31.08C56.2849 30.9747 56.0326 30.8694 55.7804 30.7673V33.2155ZM30.2098 45.7837C24.6171 45.7837 20.0677 41.2335 20.0677 35.6416C20.0677 30.049 24.6171 25.4988 30.2098 25.4988C35.8024 25.4988 40.3518 30.049 40.3518 35.6416C40.3518 41.2343 35.8024 45.7837 30.2098 45.7837ZM30.2098 27.4988C25.72 27.4988 22.0669 31.1518 22.0669 35.6416C22.0669 40.1314 25.72 43.7837 30.2098 43.7837C34.6996 43.7837 38.3526 40.1314 38.3526 35.6416C38.3526 31.1518 34.6996 27.4988 30.2098 27.4988Z" fill="#A59F9A"/>
</svg>
