<svg width="127" height="164" viewBox="0 0 127 164" fill="none" xmlns="http://www.w3.org/2000/svg">
<path d="M55.131 85.1848C53.6781 84.0568 50.8288 81.2068 48.0529 76.9073M50.7546 131.539C50.5337 124.587 49.7331 121.199 47.782 117.633M47.782 117.633C46.7596 115.764 45.4212 113.846 43.6848 111.342C38.635 104.058 37.625 93.7934 36.9517 87.8336C36.2784 81.8738 34.2583 72.603 31.2284 65.6499C28.1985 58.6969 25.8419 56.0481 26.1786 52.406C36.6149 50.7505 39.9815 59.6902 44.358 69.9543C45.4734 72.5702 46.7551 74.8972 48.0529 76.9073M47.782 117.633C47.7629 119.288 46.3107 124.122 40.6549 130.214C34.9991 136.307 30.8919 140.258 29.5453 141.472M48.0529 76.9073C49.6268 76.6866 53.3132 75.7154 55.4678 73.5963C58.161 70.9475 58.161 70.9476 58.161 69.9543C58.161 68.9609 58.161 65.6499 57.8244 64.3256C57.4877 63.0012 49.0713 55.717 45.7048 51.0816C38.635 52.406 31.5652 53.3993 29.8819 48.7639C32.9118 45.784 36.2784 46.1151 39.3083 45.1218C42.3382 44.1285 47.7247 41.8108 50.0813 42.1419C51.9233 42.4007 59.5246 51.358 63.5602 56.0481M72.9739 62.339C69.944 63.0012 67.5874 60.3524 65.9041 58.6969C65.5366 58.3354 64.6875 57.3582 63.5602 56.0481M63.5602 56.0481C62.4338 52.1852 59.979 43.7312 59.171 40.8175C58.161 37.1754 57.4877 37.1754 55.8045 35.1888C54.1212 33.2022 43.3482 23.9314 45.0315 14.3295C45.7048 10.3563 47.7247 13.9984 49.408 15.6539C51.0913 17.3094 66.2408 33.2022 67.2508 35.5199C67.8717 36.9448 69.3835 41.2484 70.7689 45.1218M81.0537 68.2987C80.7443 67.9337 80.3213 67.2331 79.8284 66.3121M79.8284 66.3121C77.6394 62.2218 74.0731 53.7841 72.9739 51.0816C72.4552 49.8062 71.6368 47.5484 70.7689 45.1218M79.8284 66.3121C79.6757 62.0079 79.4377 52.406 79.707 48.4328C80.0437 43.4663 79.707 43.7974 78.0238 39.162M78.0238 39.162C76.3405 34.5266 74.9939 31.2156 74.6572 29.229C74.3205 27.2424 66.9141 18.3027 65.9041 16.6472C64.8942 14.9917 63.5475 14.3295 62.8742 16.6472C62.2009 18.9649 62.8742 24.2625 65.9041 27.9046C68.934 31.5467 68.2607 31.8778 68.934 35.5199C69.4727 38.4336 70.3817 43.1352 70.7689 45.1218M78.0238 39.162C77.8711 37.9479 77.792 35.1226 78.6971 33.5333C79.8284 31.5467 80.3804 32.54 81.0537 33.8644C81.727 35.1888 83.0736 39.8242 84.4202 42.473C85.7669 45.1218 86.4402 45.1218 85.7669 50.4194C85.0935 55.717 84.4202 69.292 84.4202 72.2719C84.4202 75.2518 83.0736 81.8738 81.727 87.5025C80.3804 93.1312 77.0138 108.031 76.6771 115.646C76.3405 123.261 73.3106 129.883 69.944 136.174C66.5774 142.465 60.181 154.716 59.8443 162" stroke="#C6A1EB" stroke-width="3" stroke-linecap="round" stroke-linejoin="round"/>
<path d="M117.521 2C119.88 2.11148 123.992 2.93639 121.566 5.34425C118.532 8.35408 103.703 16.7147 91.9063 19.0557C80.11 21.3967 71.347 13.3705 88.5359 10.0262C105.725 6.68196 115.499 13.3705 118.195 15.377C120.891 17.3836 131.677 27.0819 117.521 42.7999C103.365 58.5179 74.7172 68.2162 56.1801 66.8785C41.3505 65.8084 45.0579 57.1802 50.7875 57.1802M85.5025 60.19C92.2432 61.5277 97.7033 68.6844 92.5803 78.5834C86.1766 90.9572 67.6395 94.6359 54.158 93.967C40.6765 93.2982 20.7912 88.6162 14.0505 90.2883C7.30973 91.9605 -3.47548 97.6457 5.28751 108.347" stroke="#C6A1EB" stroke-width="3" stroke-linecap="round" stroke-linejoin="round"/>
<path d="M46.0244 58.6557C48.1443 59.7047 48.4535 60.8412 48.3431 61.2783C47.3493 61.6061 46.3556 61.2783 45.0307 60.2948C43.9707 59.5081 24.273 47.2914 14.5566 41.2814C24.1626 46.6358 43.9045 57.6067 46.0244 58.6557Z" fill="#C6A1EB" stroke="#C6A1EB"/>
</svg>
