<svg width="172" height="164" viewBox="0 0 172 164" fill="none" xmlns="http://www.w3.org/2000/svg">
<path d="M52.1356 32.0931L44.7708 24.0484M36.3538 14.8119L27.9369 5.87337M65.4625 28.8156L61.9554 19.2812M60.2019 14.8119L55.292 2M81.9457 30.0074V19.2812M81.9457 12.1304V2M100.884 30.0074L103.689 21.9628M106.144 16.0037L108.95 7.95903M110.353 30.0074L115.263 25.8361M121.575 20.473L130.343 13.3222M139.462 7.95903L143.67 4.68156M125.784 39.5419L130.343 36.5624M137.357 33.8808L145.073 30.0074M153.84 27.3259L163.31 24.0484M43.3679 42.5214L36.3538 38.0521M29.3397 36.5624L17.065 30.0074M43.3679 57.3894L29.3397 55.0354M22.6878 53.5456L14.61 51.7579M7.64214 49.362L2 47.7565M44.7708 67.2514L36.3538 69.933M29.3397 72.3166L14.61 77.0838M52.1356 83.4565L43.3679 87.4703M33.5482 92.2867L18.4678 98.7087M61.9554 103.601L52.1356 109.263M44.7708 112.54L33.5482 119.989M27.9369 125.352L18.4678 131.609M70.0216 122.074L61.9554 128.629M56.6948 136.078L49.33 142.931M88.2584 131.609V141.143M88.2584 150.678L89.6612 162M103.689 122.074L108.95 131.609M111.756 137.568L115.263 144.719M110.353 106.581L117.718 112.54M127.538 114.626L137.357 122.074M145.073 127.14L150.684 133.099M117.718 86.6182L127.538 89.8957M135.604 94.6629L142.618 98.5363M150.684 103.601L158.4 108.071M126.485 68.1453L131.746 69.933M140.514 72.3166L153.84 77.0838M126.485 51.7579H135.604M142.618 53.5456L156.295 55.0354M165.063 55.0354L170.324 56.2272" stroke="#FFCFCF" stroke-width="3" stroke-linecap="round" stroke-linejoin="round"/>
<path d="M63.575 44.5311C73.9822 40.436 82.1982 46.7583 84.3892 50.0196C85.6673 45.6447 96.4397 39.5199 104.382 43.338C118.627 50.1861 113.694 66.9622 109.86 77.9391C106.025 88.916 91.2362 112.779 87.1281 112.779C84.3757 112.779 71.5178 103.234 61.6584 81.9958C51.799 60.7579 55.085 47.8719 63.575 44.5311Z" fill="#FFCFCF"/>
</svg>
