<svg width="40" height="40" viewBox="0 0 40 40" fill="none" xmlns="http://www.w3.org/2000/svg">
<g clip-path="url(#clip0)">
<path d="M30.3448 0.344729C27.7696 0.373147 25.2138 0.794076 22.7655 1.593C22.6972 1.61466 22.6373 1.65679 22.5938 1.71369C21.7248 2.78639 21.0714 4.01703 20.6697 5.33783C20.5782 5.70767 20.2043 5.93338 19.8345 5.84197C19.4646 5.75056 19.2389 5.37664 19.3303 5.0068C19.4828 4.41787 19.6981 3.84701 19.9724 3.30404C20.0372 3.17497 20.0146 3.01924 19.916 2.9138C19.8173 2.80837 19.6634 2.77557 19.5303 2.83162C17.8615 3.58288 16.2637 4.48308 14.7565 5.52128C14.7093 5.55332 14.6715 5.59735 14.6469 5.64887C13.6741 7.65203 13.1475 9.84241 13.1034 12.0689C13.1034 12.4498 12.7947 12.7585 12.4138 12.7585C12.0329 12.7585 11.7241 12.4498 11.7241 12.0689C11.7314 10.8066 11.8966 9.55014 12.2159 8.32886C12.2525 8.18064 12.1872 8.02599 12.0555 7.94875C11.9238 7.87151 11.757 7.89008 11.6455 7.99438C10.9693 8.60805 10.3248 9.25578 9.71448 9.93507C9.67686 9.97771 9.65013 10.0288 9.63655 10.084C9.01468 12.5552 8.56828 15.0672 8.30068 17.6013C8.29249 17.7337 8.20815 17.8493 8.08455 17.8976C7.96095 17.9458 7.82058 17.9179 7.72482 17.8261C6.99823 17.1935 6.48772 16.3495 6.26482 15.4123C6.24414 15.2927 6.16044 15.1937 6.04598 15.1533C5.93152 15.113 5.8042 15.1376 5.7131 15.2178C4.40068 16.3916 1.07862 20.3502 2.75861 29.3102L5.68275 31.7516C7.14482 32.0785 9.32896 32.0192 12.591 31.0661C12.7325 31.0249 12.833 30.8994 12.8423 30.7524C12.8516 30.6053 12.7676 30.4682 12.6324 30.4096C11.64 29.9604 10.8886 29.1063 10.5696 28.0647C10.5211 27.9336 10.5564 27.7861 10.6592 27.6914C10.762 27.5966 10.9119 27.5733 11.0386 27.6323C13.2217 28.5739 15.6747 28.6802 17.931 27.9309C20.8932 25.7685 23.7084 23.4116 26.3579 20.8758C26.4522 20.7848 26.4855 20.6476 26.4434 20.5235C26.4014 20.3994 26.2915 20.3107 26.1614 20.2958C24.4252 20.1491 22.7735 19.483 21.4214 18.384C21.3103 18.2833 21.2771 18.1224 21.3391 17.9859C21.4011 17.8495 21.5442 17.7687 21.6931 17.7861C23.4131 18.0744 26.9345 18.4185 28.9655 16.8965C30.0234 16.0751 31.0127 15.1688 31.9234 14.1868C32.0288 14.0779 32.0507 13.913 31.9775 13.7804C31.9043 13.6478 31.7531 13.5785 31.6048 13.6096C30.0584 13.951 28.4802 14.1281 26.8965 14.1378C26.5157 14.1378 26.2069 13.8291 26.2069 13.4482C26.2069 13.0673 26.5157 12.7585 26.8965 12.7585C29.3871 12.7276 31.8551 12.2822 34.1993 11.4406C34.2545 11.4204 34.3119 11.4068 34.3703 11.3999C35.2055 10.384 35.9565 9.41369 36.5517 8.62059C37.8793 6.7698 38.9983 4.77793 39.8883 2.68128C39.9555 2.5223 39.8948 2.33812 39.7462 2.25025C38.9241 1.76059 36.0503 0.34473 30.3448 0.344729V0.344729Z" fill="#A4AABB"/>
<path d="M39.8898 2.68266C39.8794 2.70516 39.8702 2.72818 39.8622 2.75163C33.2104 4.03283 26.9498 6.85021 21.5795 10.9792C16.1601 15.1614 11.3708 20.1017 7.35877 25.6482C6.18724 27.1848 5.10499 28.7874 4.11739 30.4482L2.75877 29.3102C1.07601 20.3516 4.40015 16.393 5.71049 15.2206C5.8006 15.1381 5.92878 15.1118 6.04411 15.1521C6.15943 15.1925 6.24323 15.293 6.26222 15.4137C6.48662 16.3508 6.99771 17.1946 7.72428 17.8275C7.82042 17.918 7.96023 17.9446 8.0829 17.8958C8.20557 17.8471 8.28892 17.7317 8.2967 17.5999C8.56504 15.0658 9.01213 12.5538 9.63463 10.0827C9.64863 10.0293 9.67457 9.97975 9.71049 9.93783C10.3232 9.25727 10.97 8.60817 11.6484 7.993C11.7609 7.89199 11.926 7.87599 12.0557 7.95352C12.1855 8.03106 12.2496 8.18406 12.2139 8.33093C11.8945 9.55143 11.73 10.8073 11.7243 12.0689C11.7243 12.4498 12.0331 12.7585 12.4139 12.7585C12.7948 12.7585 13.1036 12.4498 13.1036 12.0689C13.1463 9.84187 13.6735 7.65087 14.6484 5.64818C14.6734 5.59764 14.7115 5.55476 14.7588 5.52404C16.2643 4.4839 17.8617 3.5836 19.5312 2.83438C19.6637 2.77387 19.8201 2.80454 19.92 2.91065C20.0198 3.01676 20.041 3.17471 19.9726 3.30335C19.6967 3.84583 19.4816 4.41711 19.3312 5.0068C19.261 5.24963 19.3293 5.51139 19.5092 5.68898C19.689 5.86658 19.9516 5.93155 20.1936 5.85831C20.4355 5.78508 20.6179 5.58536 20.6691 5.33783C21.0677 4.01677 21.7214 2.78668 22.5932 1.71714C22.6344 1.65685 22.6954 1.61292 22.7657 1.593C25.2145 0.796108 27.77 0.37523 30.345 0.344729C36.0484 0.34473 38.9243 1.75852 39.745 2.24818C39.8963 2.33541 39.9586 2.52206 39.8898 2.68266Z" fill="#C6CDE2"/>
<path d="M1.2139 39.3737C0.998279 39.5463 0.700492 39.5736 0.457079 39.4431C0.213666 39.3126 0.0715775 39.0495 0.0959646 38.7744C0.412937 35.4863 1.31468 32.2812 2.75872 29.3103C5.09045 24.6468 14.8132 13.0847 24.0139 8.78543C24.3355 8.63221 24.7208 8.74909 24.9031 9.05513C25.0853 9.36118 25.0046 9.75568 24.7167 9.96543C19.6353 13.5903 11.1146 20.8744 5.51734 32.0689C4.80228 33.5258 4.20542 35.0378 3.73252 36.5903C3.5302 37.2544 3.13186 37.842 2.58976 38.2758L1.2139 39.3737Z" fill="#DCDCDC"/>
</g>
<defs>
<clipPath id="clip0">
<rect width="40" height="40" fill="white"/>
</clipPath>
</defs>
</svg>
