<svg width="40" height="40" viewBox="0 0 40 40" fill="none" xmlns="http://www.w3.org/2000/svg">
<g clip-path="url(#clip0)">
<path d="M31.6262 0.000244141H8.37443C4.60451 0.000244141 1.54834 3.05642 1.54834 6.82634V33.1739C1.54834 36.9438 4.60451 40 8.37443 40H31.6261C35.396 40 38.4522 36.9438 38.4522 33.1739V6.82634C38.4522 3.05634 35.3961 0.000244141 31.6262 0.000244141Z" fill="#ECF7F7"/>
<path d="M11.6414 39.9995H8.37467C4.60451 39.9995 1.54834 36.9433 1.54834 33.174V6.82633C1.54842 3.05617 4.60451 0 8.37467 0H11.6414C7.87123 0 4.81514 3.05617 4.81514 6.82633V33.174C4.81514 36.9433 7.87123 39.9995 11.6414 39.9995Z" fill="#DAF0F4"/>
<path d="M20.0002 36.4786C27.431 36.4786 33.4549 30.4547 33.4549 23.0239C33.4549 15.593 27.431 9.56909 20.0002 9.56909C12.5693 9.56909 6.54541 15.593 6.54541 23.0239C6.54541 30.4547 12.5693 36.4786 20.0002 36.4786Z" fill="#C6CFD9"/>
<path d="M21.2256 36.4238C20.8221 36.4601 20.4139 36.4786 20.0009 36.4786C12.5695 36.4786 6.5459 30.4542 6.5459 23.0236C6.5459 15.593 12.5695 9.5686 20.0009 9.5686C20.4139 9.5686 20.8222 9.58712 21.2256 9.62345C14.3686 10.2423 8.99535 16.006 8.99535 23.0236C8.99535 30.0412 14.3686 35.8049 21.2256 36.4238Z" fill="#B7C1CB"/>
<path d="M24.0414 23.0238C24.0414 23.2214 24.0478 23.4183 24.06 23.6128C23.7307 23.7047 18.1994 26.4317 16.973 26.4317C15.7474 26.4317 13.0234 25.7313 11.2268 24.246C11.1472 24.1803 10.7139 23.7491 10.6131 23.741C10.5953 23.5038 10.5864 23.265 10.5864 23.0238C10.5864 17.8249 14.8011 13.6101 20.0002 13.6101C22.636 13.6101 25.0193 14.6936 26.7281 16.4396C25.066 18.137 24.0414 20.4606 24.0414 23.0238Z" fill="#8A7F8E"/>
<path d="M26.7279 29.608C25.0191 31.354 22.6358 32.4375 20 32.4375C15.0431 32.4375 10.98 28.6052 10.6138 23.741C10.7146 23.749 10.8163 23.7531 10.9196 23.7531C12.1451 23.7531 13.2367 23.1826 13.9467 22.2944C14.6558 23.1827 15.7474 23.7531 16.973 23.7531C18.1993 23.7531 19.2909 23.1826 20.0001 22.2944C20.7092 23.1827 21.8017 23.7531 23.0272 23.7531C23.3846 23.7531 23.7307 23.7047 24.0599 23.6127C24.2035 25.9419 25.1942 28.0412 26.7279 29.608Z" fill="#74CDF6"/>
<path d="M26.7284 29.6084C25.019 31.3541 22.6358 32.4381 20.0001 32.4381C16.557 32.4381 13.5454 30.5886 11.9043 27.8288C12.1288 27.8698 12.3623 27.8916 12.5997 27.8916C13.8255 27.8916 14.9176 27.3209 15.6266 26.4316C16.3357 27.3209 17.4278 27.8916 18.6536 27.8916C19.8794 27.8916 20.9707 27.3209 21.6805 26.4316C22.3904 27.3209 23.4817 27.8916 24.7075 27.8916C24.9305 27.8916 25.1501 27.8723 25.3634 27.836C25.7473 28.4809 26.2069 29.0748 26.7284 29.6084Z" fill="#8FD8F8"/>
<path d="M8.66988 9.16569C10.1094 9.16569 11.2763 7.99877 11.2763 6.55929C11.2763 5.11981 10.1094 3.95288 8.66988 3.95288C7.2304 3.95288 6.06348 5.11981 6.06348 6.55929C6.06348 7.99877 7.2304 9.16569 8.66988 9.16569Z" fill="#C6CFD9"/>
<path d="M31.331 9.16569C32.7705 9.16569 33.9374 7.99877 33.9374 6.55929C33.9374 5.11981 32.7705 3.95288 31.331 3.95288C29.8915 3.95288 28.7246 5.11981 28.7246 6.55929C28.7246 7.99877 29.8915 9.16569 31.331 9.16569Z" fill="#C6CFD9"/>
<path d="M9.45885 9.04325C9.21033 9.12231 8.94494 9.16513 8.66978 9.16513C7.22963 9.16513 6.06299 7.99849 6.06299 6.55911C6.06299 5.11903 7.22963 3.95239 8.66978 3.95239C8.94486 3.95239 9.21033 3.99513 9.45885 4.07419C8.40596 4.40825 7.64275 5.39411 7.64275 6.55911C7.64275 7.72333 8.40596 8.70927 9.45885 9.04325Z" fill="#B7C1CB"/>
<path d="M32.1204 9.04325C31.8711 9.12231 31.6056 9.16513 31.3306 9.16513C29.8913 9.16513 28.7246 7.99849 28.7246 6.55911C28.7246 5.11903 29.8913 3.95239 31.3306 3.95239C31.6057 3.95239 31.8711 3.99513 32.1204 4.07419C31.0667 4.40825 30.3035 5.39411 30.3035 6.55911C30.3035 7.72333 31.0667 8.70927 32.1204 9.04325Z" fill="#B7C1CB"/>
<path d="M24.2787 7.20663H15.7221C14.8236 7.20663 14.0952 6.47827 14.0952 5.57976C14.0952 4.68124 14.8236 3.95288 15.7221 3.95288H24.2787C25.1772 3.95288 25.9056 4.68124 25.9056 5.57976C25.9055 6.47827 25.1772 7.20663 24.2787 7.20663Z" fill="#8FD8F8"/>
</g>
<defs>
<clipPath id="clip0">
<rect width="40" height="40" fill="white"/>
</clipPath>
</defs>
</svg>
