<svg width="30" height="30" viewBox="0 0 30 30" fill="none" xmlns="http://www.w3.org/2000/svg">
<path d="M15.8405 2.74918L19.135 9.42448L26.5018 10.4949C26.6749 10.5201 26.8375 10.5932 26.9712 10.7059C27.105 10.8187 27.2045 10.9666 27.2586 11.133C27.3126 11.2994 27.319 11.4775 27.2771 11.6474C27.2352 11.8172 27.1466 11.9719 27.0213 12.094L21.6906 17.29L22.949 24.6269C22.9786 24.7993 22.9593 24.9766 22.8934 25.1386C22.8275 25.3007 22.7176 25.441 22.5761 25.5439C22.4345 25.6467 22.2671 25.7079 22.0926 25.7205C21.9181 25.7331 21.7436 25.6966 21.5887 25.6152L14.9998 22.1512L8.4109 25.6152C8.25606 25.6966 8.08154 25.7331 7.90706 25.7205C7.73259 25.7079 7.56512 25.6467 7.4236 25.5439C7.28208 25.441 7.17215 25.3007 7.10624 25.1386C7.04033 24.9766 7.02107 24.7993 7.05065 24.6269L8.30901 17.29L2.97844 12.094C2.85318 11.9719 2.76457 11.8172 2.72264 11.6474C2.68071 11.4776 2.68713 11.2994 2.74117 11.133C2.79521 10.9667 2.89472 10.8187 3.02845 10.706C3.16217 10.5932 3.32477 10.5201 3.49787 10.4949L10.8646 9.42448L14.1591 2.74918C14.2365 2.59231 14.3563 2.46022 14.5049 2.36787C14.6534 2.27551 14.8249 2.22656 14.9998 2.22656C15.1748 2.22656 15.3462 2.27551 15.4948 2.36787C15.6433 2.46022 15.7631 2.59231 15.8405 2.74918Z" fill="#F5871E"/>
<path d="M9.82073 16.7986L5.66105 12.7439C5.5671 12.6523 5.50065 12.5363 5.46922 12.4089C5.43778 12.2815 5.4426 12.1479 5.48315 12.0231C5.52369 11.8984 5.59834 11.7874 5.69865 11.7028C5.79895 11.6183 5.92092 11.5635 6.05075 11.5446L11.7992 10.7093L14.37 5.50036C14.4281 5.38271 14.5179 5.28365 14.6293 5.21438C14.7408 5.14511 14.8693 5.1084 15.0005 5.1084C15.1317 5.1084 15.2603 5.14511 15.3718 5.21438C15.4832 5.28365 15.573 5.38271 15.6311 5.50036L18.2019 10.7093L23.9503 11.5446C24.0802 11.5635 24.2021 11.6183 24.3024 11.7028C24.4027 11.7874 24.4774 11.8984 24.5179 12.0231C24.5585 12.1479 24.5633 12.2815 24.5319 12.4089C24.5004 12.5363 24.434 12.6523 24.34 12.7439L20.1804 16.7986L21.1623 22.5238C21.1845 22.6531 21.17 22.7861 21.1206 22.9076C21.0712 23.0291 20.9887 23.1344 20.8826 23.2115C20.7765 23.2886 20.6509 23.3345 20.52 23.344C20.3892 23.3534 20.2583 23.3261 20.1421 23.2651L15.0004 20.5619L9.85882 23.2651C9.74269 23.3261 9.61179 23.3535 9.48093 23.344C9.35007 23.3346 9.22446 23.2887 9.11831 23.2116C9.01217 23.1344 8.92971 23.0292 8.88028 22.9076C8.83085 22.7861 8.8164 22.6532 8.83859 22.5238L9.82073 16.7986Z" fill="#FABE19"/>
<path d="M6.15017 12.9446C5.97243 12.9446 5.80129 12.8772 5.67121 12.756C5.54113 12.6349 5.46176 12.469 5.44906 12.2917C5.43637 12.1144 5.49129 11.9389 5.60278 11.8005C5.71427 11.662 5.87405 11.5709 6.04998 11.5456L11.7984 10.7103L14.3692 5.50132C14.4518 5.3341 14.5974 5.20651 14.774 5.14662C14.9506 5.08673 15.1437 5.09945 15.311 5.18199C15.4782 5.26452 15.6058 5.4101 15.6657 5.58671C15.7255 5.76332 15.7128 5.95648 15.6303 6.12371L12.8959 11.6642C12.8454 11.7664 12.7709 11.8548 12.6787 11.9218C12.5865 11.9888 12.4793 12.0324 12.3665 12.0488L6.25219 12.9374C6.2184 12.9423 6.18431 12.9447 6.15017 12.9446Z" fill="#FFDB37"/>
</svg>
