<svg width="18" height="18" viewBox="0 0 18 18" fill="none" xmlns="http://www.w3.org/2000/svg">
<path d="M9.0022 0.599991H8.998C4.36645 0.599991 0.600098 4.36739 0.600098 8.99999C0.600098 10.8375 1.1923 12.5406 2.19925 13.9234L1.1524 17.044L4.38115 16.0119C5.7094 16.8918 7.29385 17.4 9.0022 17.4C13.6337 17.4 17.4001 13.6315 17.4001 8.99999C17.4001 4.36844 13.6337 0.599991 9.0022 0.599991Z" fill="#43D854"/>
<path d="M14.2391 12.7091C14.022 13.3222 13.1602 13.8307 12.4729 13.9792C12.0026 14.0794 11.3884 14.1592 9.32062 13.302C6.67575 12.2062 4.9725 9.51862 4.83975 9.34425C4.71262 9.16987 3.771 7.92113 3.771 6.62963C3.771 5.33813 4.42687 4.70925 4.69125 4.43925C4.90837 4.21763 5.26725 4.11638 5.6115 4.11638C5.72287 4.11638 5.823 4.122 5.913 4.1265C6.17737 4.13775 6.31012 4.1535 6.4845 4.57088C6.70162 5.094 7.23037 6.3855 7.29337 6.51825C7.3575 6.651 7.42162 6.831 7.33162 7.00538C7.24725 7.18538 7.173 7.26525 7.04025 7.41825C6.9075 7.57125 6.7815 7.68825 6.64875 7.8525C6.52725 7.99538 6.39 8.14838 6.543 8.41275C6.696 8.6715 7.22475 9.53437 8.00325 10.2274C9.00787 11.1217 9.82237 11.4075 10.1137 11.529C10.3309 11.619 10.5896 11.5976 10.7482 11.4289C10.9496 11.2117 11.1982 10.8517 11.4514 10.4974C11.6314 10.2431 11.8586 10.2116 12.0971 10.3016C12.3401 10.386 13.626 11.0216 13.8904 11.1532C14.1547 11.286 14.3291 11.349 14.3932 11.4604C14.4562 11.5717 14.4562 12.0949 14.2391 12.7091Z" fill="white"/>
</svg>
