<svg width="18" height="18" viewBox="0 0 18 18" fill="none" xmlns="http://www.w3.org/2000/svg">
<g clip-path="url(#clip0)">
<path d="M17.9899 7.49327C17.9833 7.13171 17.9547 6.67455 17.9046 6.12223C17.8543 5.5696 17.7823 5.07571 17.6886 4.64055C17.5814 4.15177 17.3487 3.7399 16.9905 3.40507C16.6323 3.07017 16.2154 2.87604 15.7398 2.82239C14.2531 2.6551 12.0065 2.57137 8.99995 2.57137C5.99334 2.57137 3.74669 2.6551 2.26008 2.82239C1.78457 2.876 1.36931 3.07017 1.0145 3.40507C0.659555 3.73979 0.428515 4.15166 0.321351 4.64055C0.221013 5.07585 0.145583 5.5697 0.0953781 6.12223C0.0452439 6.67455 0.0167466 7.13153 0.0100972 7.49327C0.0033071 7.85487 0 8.35705 0 8.99997C0 9.64281 0.0033071 10.1451 0.0101324 10.5067C0.0167818 10.8685 0.0452791 11.3254 0.0954132 11.8777C0.145618 12.4303 0.217635 12.9241 0.311395 13.3594C0.418559 13.8483 0.651217 14.2601 1.00947 14.5948C1.3678 14.9296 1.78474 15.1238 2.26012 15.1774C3.74673 15.3449 5.99323 15.4286 8.99998 15.4286C12.0068 15.4286 14.2532 15.3449 15.7399 15.1774C16.2155 15.1238 16.6305 14.9296 16.9855 14.5948C17.3404 14.2601 17.5713 13.8481 17.6785 13.3594C17.7789 12.9241 17.8543 12.4303 17.9046 11.8777C17.9547 11.3254 17.9831 10.8683 17.9899 10.5067C17.9966 10.1451 18 9.64281 18 8.99997C18 8.35705 17.9966 7.85487 17.9899 7.49327ZM12.5558 9.5424L7.41303 12.7566C7.31924 12.8235 7.20528 12.857 7.07142 12.857C6.97104 12.857 6.86726 12.8301 6.76013 12.7766C6.53918 12.6562 6.42875 12.4686 6.42875 12.2142V5.78579C6.42875 5.53146 6.53922 5.34387 6.76013 5.22337C6.98786 5.10266 7.20542 5.10942 7.41303 5.24346L12.5558 8.45767C12.7567 8.57131 12.8571 8.75222 12.8571 9C12.8571 9.24768 12.7566 9.42866 12.5558 9.5424Z" fill="#FF0000"/>
</g>
<defs>
<clipPath id="clip0">
<rect width="18" height="18" fill="white"/>
</clipPath>
</defs>
</svg>
