<svg width="22" height="22" viewBox="0 0 22 22" fill="none" xmlns="http://www.w3.org/2000/svg">
<path d="M3.46858 15.943H3.05923C2.72233 15.943 2.44702 16.2147 2.44702 16.5552C2.44702 16.8921 2.71874 17.1674 3.05923 17.1674H3.47222C3.80911 17.1674 4.08442 16.8958 4.08442 16.5552C4.08442 16.2147 3.80911 15.943 3.46858 15.943Z" fill="black"/>
<path d="M6.74712 15.943H6.33412C5.99723 15.943 5.72192 16.2147 5.72192 16.5552C5.72192 16.8921 5.99365 17.1674 6.33412 17.1674H6.74712C7.08401 17.1674 7.35932 16.8958 7.35932 16.5552C7.35932 16.2147 7.08401 15.943 6.74712 15.943Z" fill="black"/>
<path d="M10.0219 15.943H9.60891C9.27201 15.943 8.9967 16.2147 8.9967 16.5552C8.9967 16.8921 9.26843 17.1674 9.60891 17.1674H10.0219C10.3588 17.1674 10.6341 16.8958 10.6341 16.5552C10.6341 16.2147 10.3589 15.943 10.0219 15.943Z" fill="black"/>
<path d="M3.46858 13.2985H3.05923C2.72233 13.2985 2.44702 13.5703 2.44702 13.9107C2.44702 14.2476 2.71874 14.5229 3.05923 14.5229H3.47222C3.80911 14.5229 4.08442 14.2512 4.08442 13.9107C4.08442 13.5703 3.80911 13.2985 3.46858 13.2985Z" fill="black"/>
<path d="M6.74712 13.2985H6.33412C5.99723 13.2985 5.72192 13.5703 5.72192 13.9107C5.72192 14.2476 5.99365 14.5229 6.33412 14.5229H6.74712C7.08401 14.5229 7.35932 14.2512 7.35932 13.9107C7.35932 13.5703 7.08401 13.2985 6.74712 13.2985Z" fill="black"/>
<path d="M10.0219 13.2985H9.60891C9.27201 13.2985 8.9967 13.5703 8.9967 13.9107C8.9967 14.2476 9.26843 14.5229 9.60891 14.5229H10.0219C10.3588 14.5229 10.6341 14.2512 10.6341 13.9107C10.6342 13.5703 10.3589 13.2985 10.0219 13.2985Z" fill="black"/>
<path d="M3.46858 10.6504H3.05923C2.72233 10.6504 2.44702 10.9221 2.44702 11.2626C2.44702 11.5995 2.71874 11.8748 3.05923 11.8748H3.47222C3.80911 11.8748 4.08442 11.6032 4.08442 11.2626C4.08442 10.9221 3.80911 10.6504 3.46858 10.6504Z" fill="black"/>
<path d="M6.74712 10.6504H6.33412C5.99723 10.6504 5.72192 10.9221 5.72192 11.2626C5.72192 11.5995 5.99365 11.8748 6.33412 11.8748H6.74712C7.08401 11.8748 7.35932 11.6032 7.35932 11.2626C7.35932 10.9221 7.08401 10.6504 6.74712 10.6504Z" fill="black"/>
<path d="M10.0219 10.6504H9.60891C9.27201 10.6504 8.9967 10.9221 8.9967 11.2626C8.9967 11.5995 9.26843 11.8748 9.60891 11.8748H10.0219C10.3588 11.8748 10.6341 11.6032 10.6341 11.2626C10.6341 10.9221 10.3589 10.6504 10.0219 10.6504Z" fill="black"/>
<path d="M13.3005 10.6468H12.8875C12.5506 10.6468 12.2753 10.9185 12.2753 11.259C12.2789 11.5995 12.5506 11.8712 12.8875 11.8712H13.3005C13.6374 11.8712 13.9127 11.5995 13.9127 11.259C13.9127 10.9185 13.6409 10.6468 13.3005 10.6468Z" fill="black"/>
<path d="M3.46858 8.00595H3.05923C2.72233 8.00595 2.44702 8.27767 2.44702 8.61815C2.44702 8.95505 2.71874 9.23036 3.052 9.23036H3.46499C3.80188 9.23036 4.07719 8.95864 4.07719 8.61815C4.07719 8.27762 3.80911 8.00595 3.46858 8.00595Z" fill="black"/>
<path d="M6.74712 8.00595H6.33412C5.99723 8.00595 5.72192 8.27767 5.72192 8.61815C5.72192 8.95505 5.99365 9.23036 6.33412 9.23036H6.74712C7.08401 9.23036 7.35932 8.95864 7.35932 8.61815C7.35932 8.27762 7.08401 8.00595 6.74712 8.00595Z" fill="black"/>
<path d="M10.0219 8.00595H9.60891C9.27201 8.00595 8.9967 8.27767 8.9967 8.61815C8.9967 8.95505 9.26843 9.23036 9.60891 9.23036H10.0219C10.3588 9.23036 10.6341 8.95864 10.6341 8.61815C10.6305 8.27762 10.3589 8.00595 10.0219 8.00595Z" fill="black"/>
<path d="M16.5751 8.0023H16.1621C15.8252 8.0023 15.5499 8.27403 15.5499 8.61451C15.5499 8.95504 15.8252 9.22671 16.1621 9.22671H16.5751C16.912 9.22671 17.1873 8.95499 17.1873 8.61451C17.1873 8.27761 16.9157 8.0023 16.5751 8.0023Z" fill="black"/>
<path d="M13.3005 8.0023H12.8875C12.5506 8.0023 12.2753 8.27403 12.2753 8.61451C12.2789 8.95504 12.5506 9.22671 12.8875 9.22671H13.3005C13.6374 9.22671 13.9127 8.95499 13.9127 8.61451C13.9127 8.27761 13.6409 8.0023 13.3005 8.0023Z" fill="black"/>
<path d="M19.6291 12.737V3.34003C19.6291 2.32934 18.8067 1.507 17.796 1.507H15.934V0.612204C15.934 0.27531 15.6623 0 15.3218 0C14.9849 0 14.7096 0.271667 14.7096 0.612204V1.51059H4.91773V0.615846C4.91773 0.278952 4.64601 0.0036424 4.30553 0.0036424C3.96505 0.0036424 3.69327 0.27531 3.69327 0.615846V1.51064H1.83486C0.824173 1.51064 0.00183105 2.33299 0.00183105 3.34367V17.776C0.00183105 18.7867 0.824173 19.6091 1.83486 19.6091H12.7208C13.6047 21.0436 15.1841 22 16.9846 22C19.7486 22 21.9982 19.754 21.9982 16.9863C21.9982 15.1931 21.0491 13.621 19.6291 12.737ZM1.22265 3.34003C1.22265 3.00313 1.49432 2.72782 1.83486 2.72782H3.69685V3.72405C3.69685 4.06094 3.96858 4.33625 4.30906 4.33625C4.64595 4.33625 4.92126 4.06459 4.92126 3.72405V2.72782H14.7204V3.72405C14.7204 4.06094 14.9921 4.33625 15.3326 4.33625C15.6695 4.33625 15.9448 4.06459 15.9448 3.72405V2.72782H17.8068C18.1437 2.72782 18.419 2.99955 18.419 3.34003V5.55707H1.22265V3.34003ZM12.1774 18.3919L1.8385 18.3882C1.5016 18.3882 1.22629 18.1166 1.22629 17.776V6.78512H18.4119V12.1864C17.9627 12.0524 17.4809 11.9799 16.9882 11.9799C14.2242 11.9799 11.9745 14.2259 11.9745 16.9936C11.9745 17.479 12.047 17.9499 12.1774 18.3919ZM16.9846 20.7792C14.8943 20.7792 13.1917 19.0766 13.1917 16.9863C13.1917 14.8961 14.8943 13.1935 16.9846 13.1935C19.0748 13.1935 20.7774 14.8961 20.7774 16.9863C20.7774 19.0766 19.0748 20.7792 16.9846 20.7792Z" fill="black"/>
<path d="M19.0457 15.4721C18.803 15.233 18.4118 15.233 18.1763 15.4721L16.4447 17.2037L15.7963 16.5552C15.5571 16.3161 15.1732 16.3161 14.9304 16.5552C14.6913 16.7943 14.6913 17.1783 14.9304 17.421L16.0136 18.5042C16.3251 18.8121 16.7635 18.6165 16.8794 18.5042L19.0457 16.3379C19.2848 16.0988 19.2848 15.7148 19.0457 15.4721Z" fill="black"/>
</svg>
