<svg width="40" height="40" viewBox="0 0 40 40" fill="none" xmlns="http://www.w3.org/2000/svg">
<path d="M32.1886 12.4662C32.5569 12.2258 32.7417 12.105 33.2381 12.105C33.7346 12.105 33.9195 12.2257 34.2878 12.4662C34.7678 12.7796 35.4251 13.2088 36.6191 13.2088C37.813 13.2088 38.4702 12.7796 38.9502 12.4662C39.3186 12.2257 39.5034 12.105 40 12.105V9.76124C38.8061 9.76124 38.1488 10.1905 37.6688 10.5038C37.3005 10.7444 37.1156 10.8651 36.6191 10.8651C36.1225 10.8651 35.9376 10.7444 35.5692 10.5038C35.0892 10.1905 34.432 9.76124 33.2381 9.76124C32.0443 9.76124 31.387 10.1905 30.9071 10.5038C30.5388 10.7443 30.354 10.8651 29.8576 10.8651C29.3612 10.8651 29.1764 10.7444 28.808 10.5038C28.511 10.3098 28.1457 10.0718 27.6277 9.91827C24.7532 6.51087 20.4544 4.34229 15.6578 4.34229C7.02411 4.34236 0 11.3664 0 20.0002C0 28.634 7.02411 35.658 15.6578 35.658C20.6146 35.658 25.0402 33.3422 27.9112 29.7365C28.356 29.9924 28.9523 30.2391 29.8575 30.2391C31.0514 30.2391 31.7086 29.8099 32.1885 29.4965C32.5568 29.2561 32.7416 29.1353 33.238 29.1353C33.7345 29.1353 33.9194 29.256 34.2878 29.4965C34.7678 29.8099 35.425 30.2391 36.619 30.2391C37.8129 30.2391 38.4702 29.8099 38.9502 29.4965C39.3185 29.256 39.5034 29.1353 39.9999 29.1353V26.7916C38.806 26.7916 38.1488 27.2208 37.6688 27.5341C37.3004 27.7747 37.1156 27.8954 36.619 27.8954C36.1224 27.8954 35.9375 27.7747 35.5692 27.5341C35.0892 27.2208 34.4319 26.7916 33.238 26.7916C32.0442 26.7916 31.3869 27.2208 30.907 27.5341C30.5387 27.7746 30.3539 27.8954 29.8575 27.8954C29.5847 27.8954 29.4061 27.8587 29.2393 27.7859C29.8324 26.7553 30.3105 25.6506 30.6585 24.4903C31.3691 24.3548 31.8287 24.0548 32.1885 23.8198C32.5567 23.5793 32.7415 23.4585 33.2379 23.4585C33.7344 23.4585 33.9193 23.5792 34.2877 23.8198C34.7677 24.1331 35.4249 24.5623 36.6189 24.5623C37.8128 24.5623 38.4701 24.1331 38.9501 23.8198C39.3184 23.5792 39.5033 23.4585 39.9998 23.4585V21.1148C38.8059 21.1148 38.1487 21.544 37.6687 21.8574C37.3003 22.0979 37.1155 22.2186 36.6189 22.2186C36.1224 22.2186 35.9374 22.0979 35.5691 21.8574C35.0891 21.544 34.4318 21.1148 33.2379 21.1148C32.2889 21.1148 31.6796 21.386 31.2282 21.6547C31.2856 21.1109 31.3157 20.559 31.3157 20.0002C31.3157 19.5434 31.2948 19.0914 31.2563 18.6444C31.6465 18.496 31.9414 18.3043 32.1885 18.1429C32.5568 17.9025 32.7416 17.7817 33.238 17.7817C33.7345 17.7817 33.9194 17.9024 34.2878 18.1429C34.7678 18.4563 35.425 18.8855 36.619 18.8855C37.8129 18.8855 38.4702 18.4563 38.9502 18.1429C39.3185 17.9024 39.5034 17.7817 39.9999 17.7817V15.4379C38.806 15.4379 38.1488 15.8672 37.6688 16.1805C37.3004 16.4211 37.1156 16.5418 36.619 16.5418C36.1224 16.5418 35.9375 16.4211 35.5692 16.1805C35.0892 15.8672 34.4319 15.4379 33.238 15.4379C32.0442 15.4379 31.3869 15.8672 30.907 16.1805C30.8882 16.1928 30.8703 16.2045 30.8524 16.2161C30.5911 15.1675 30.2249 14.1602 29.7638 13.2066C29.7952 13.2072 29.8254 13.2087 29.8576 13.2087C31.0514 13.2089 31.7087 12.7796 32.1886 12.4662ZM25.4276 12.4663C25.7688 12.2434 25.953 12.1237 26.373 12.1072C27.2111 13.2421 27.8733 14.5141 28.3195 15.883C27.8864 15.6489 27.3138 15.438 26.477 15.438C26.4751 15.438 26.4733 15.4382 26.4715 15.4382C26.0664 14.4815 25.5376 13.5896 24.9058 12.7819C25.1051 12.6766 25.2754 12.5658 25.4276 12.4663ZM15.6578 33.3143C8.31645 33.3143 2.34374 27.3417 2.34374 20.0002C2.34374 12.6587 8.31645 6.6861 15.6578 6.6861C19.1234 6.6861 22.2835 8.0175 24.6547 10.1951C24.461 10.2984 24.2949 10.4067 24.1461 10.5039C23.7778 10.7444 23.593 10.8651 23.0966 10.8651C23.0687 10.8651 23.0419 10.8646 23.0158 10.8639C21.0016 9.23851 18.4416 8.26367 15.6578 8.26367C9.18629 8.26367 3.92123 13.5287 3.92123 20.0003C3.92123 26.4718 9.18629 31.7368 15.6578 31.7368C17.8918 31.7368 19.9819 31.1092 21.7614 30.0213C22.1174 30.1488 22.5504 30.2391 23.0966 30.2391C23.627 30.2391 24.0511 30.1542 24.4012 30.0326C22.0605 32.0752 19.0013 33.3143 15.6578 33.3143ZM24.146 21.8575C23.7777 22.098 23.593 22.2188 23.0965 22.2188C22.6001 22.2188 22.4154 22.0981 22.0471 21.8575C21.5672 21.5441 20.91 21.1149 19.7162 21.1149V23.4587C20.2125 23.4587 20.3973 23.5794 20.7655 23.8199C21.2455 24.1333 21.9026 24.5625 23.0965 24.5625C23.3994 24.5625 23.6675 24.5347 23.9071 24.4884C23.3243 25.5553 22.5405 26.4973 21.607 27.2633C21.1684 27.0187 20.5847 26.7916 19.7163 26.7916V28.4701C18.4872 29.0615 17.1106 29.3931 15.6578 29.3931C10.4786 29.3931 6.26498 25.1795 6.26498 20.0003C6.26498 14.8211 10.4786 10.6074 15.6578 10.6074C17.1106 10.6074 18.4872 10.9391 19.7163 11.5304V12.1051C20.2127 12.1051 20.3975 12.2258 20.7657 12.4664C21.0697 12.6649 21.4454 12.9096 21.983 13.0625C22.9216 13.919 23.6865 14.9627 24.2177 16.1341C24.1935 16.1498 24.1694 16.1655 24.1461 16.1807C23.7778 16.4212 23.593 16.542 23.0966 16.542C22.6002 16.542 22.4155 16.4213 22.0472 16.1807C21.5673 15.8673 20.9101 15.4382 19.7163 15.4382V17.7819C20.2126 17.7819 20.3974 17.9026 20.7656 18.1432C21.2455 18.4565 21.9027 18.8857 23.0966 18.8857C23.9221 18.8857 24.4908 18.6805 24.922 18.4503C25.0062 18.9547 25.0506 19.4724 25.0506 20.0003C25.0506 20.4793 25.0144 20.95 24.9448 21.4099C24.6197 21.549 24.3641 21.715 24.146 21.8575ZM27.0814 26.8317C26.8964 26.8062 26.6959 26.7916 26.477 26.7916C25.876 26.7916 25.4111 26.9004 25.0363 27.0484C25.8352 25.988 26.459 24.7888 26.8636 23.4934C27.1055 23.545 27.2724 23.6539 27.5265 23.8198C27.734 23.9552 27.9747 24.1122 28.2774 24.2469C27.9706 25.1563 27.5676 26.0217 27.0814 26.8317ZM28.839 21.8777C28.8287 21.871 28.8187 21.8645 28.8081 21.8575C28.4579 21.6288 28.0123 21.3392 27.3338 21.199C27.374 20.8048 27.3946 20.4049 27.3946 20.0003C27.3946 19.3011 27.3329 18.616 27.215 17.9502C27.311 18.0025 27.4096 18.0667 27.5268 18.1432C27.8621 18.3621 28.2848 18.6372 28.916 18.7834C28.9523 19.1842 28.972 19.5899 28.972 20.0003C28.972 20.6374 28.926 21.264 28.839 21.8777Z" fill="black"/>
</svg>
