<svg width="40" height="40" viewBox="0 0 40 40" fill="none" xmlns="http://www.w3.org/2000/svg">
<path fill-rule="evenodd" clip-rule="evenodd" d="M25 18.5H32C33.933 18.5 35.5 20.067 35.5 22V34C35.5 35.933 33.933 37.5 32 37.5H8C6.067 37.5 4.5 35.933 4.5 34V22C4.5 20.067 6.067 18.5 8 18.5H15V26C15 27.1046 15.8954 28 17 28H23C24.1046 28 25 27.1046 25 26V18.5ZM22.5 18.5H17.5V25.5H22.5V18.5ZM23 16H32C35.3137 16 38 18.6863 38 22V34C38 37.3137 35.3137 40 32 40H8C4.68629 40 2 37.3137 2 34V22C2 18.6863 4.68629 16 8 16H17H23Z" fill="black"/>
<g clip-path="url(#clip0)">
<path fill-rule="evenodd" clip-rule="evenodd" d="M2.22656 12.7275H5.2114V6.72749H8.73892V12.7275H11.7238V4.27295C11.4524 4.27295 3.31196 4.27295 2.22656 4.27295V12.7275Z" fill="black"/>
<path fill-rule="evenodd" clip-rule="evenodd" d="M13.0799 4.27293C13.0799 4.54565 13.3513 6.18202 13.3513 6.45474C13.6226 6.45474 14.4367 6.45474 14.708 6.45474C15.2507 6.45474 15.7934 6.45474 16.3361 6.45474C16.8788 6.45474 19.0496 6.45474 19.3209 6.45474C19.3209 6.72747 19.3209 7.0002 19.3209 7.27293H15.5221V9.45474C15.7934 9.72747 18.5069 9.45474 19.3209 9.45474V10.2729C18.2355 10.8184 14.4367 10.2729 13.3513 10.5457L12.8086 12.7275C15.5221 13.0002 18.5069 13.0002 20.949 12.7275C21.4917 12.7275 21.4917 12.7275 21.4917 12.7275C22.0344 12.182 22.3057 9.18202 22.3057 8.36383C22.3057 7.54565 22.0344 4.81838 21.4917 4.27293C17.6928 3.72747 16.6075 4.0002 13.0799 4.27293Z" fill="black"/>
<path fill-rule="evenodd" clip-rule="evenodd" d="M23.3916 12.7275H26.3764V9.45477H27.4618L29.6326 12.182C29.9039 12.4548 29.9039 12.7275 30.1753 12.7275H33.7028C33.4314 12.4548 30.1753 8.36386 30.1753 8.09113C30.718 7.54568 33.4314 4.54568 33.4314 4.27295C32.6174 4.27295 31.532 4.27295 30.4466 4.27295C29.9039 4.27295 29.9039 4.27295 29.3612 5.09113C29.0899 5.63659 28.5472 5.90931 28.2758 6.45477C28.0045 6.72749 27.7332 7.00022 27.7332 7.27295C27.4618 7.27295 26.9191 7.27295 26.3764 7.27295V4.27295H23.3916V12.7275Z" fill="black"/>
<path fill-rule="evenodd" clip-rule="evenodd" d="M34.7888 4.81852V6.72761C35.8742 6.72761 36.6882 6.72761 37.7736 6.72761V4.54579C37.7736 4.54579 37.7736 4.54579 37.7736 4.27307C37.2309 4.00034 36.4169 4.27307 35.8742 4.27307C34.5174 4.27307 34.7888 4.00034 34.7888 4.81852Z" fill="black"/>
<path fill-rule="evenodd" clip-rule="evenodd" d="M35.06 12.4548C36.1453 12.7275 36.688 12.4548 37.7734 12.4548C37.7734 12.182 37.7734 10.8184 37.7734 10.2729C37.2307 10.2729 35.3313 10.2729 35.06 10.2729C34.7886 10.8184 34.7886 11.9093 35.06 12.4548Z" fill="black"/>
<path fill-rule="evenodd" clip-rule="evenodd" d="M35.0604 12.4548C34.7891 11.9093 34.7891 10.8184 35.0604 10.2729C35.3318 10.2729 37.2312 10.2729 37.7739 10.2729C37.7739 10.8184 37.7739 12.182 37.7739 12.4548C36.6885 12.4548 36.1458 12.7275 35.0604 12.4548ZM37.7739 12.7275C37.7739 12.4548 37.7739 10.5457 37.7739 10.2729H34.7891V12.182C34.7891 12.7275 34.7891 12.7275 35.0604 12.7275C35.6031 12.7275 36.1458 12.7275 36.4172 12.7275C36.6885 12.7275 36.9599 12.7275 37.2312 12.7275C37.2312 12.7275 37.5025 12.7275 37.7739 12.7275Z" fill="black"/>
</g>
<defs>
<clipPath id="clip0">
<rect width="36" height="9" fill="white" transform="translate(2 4)"/>
</clipPath>
</defs>
</svg>
