<svg width="172" height="30" viewBox="0 0 172 30" fill="none" xmlns="http://www.w3.org/2000/svg">
<g clip-path="url(#clip0)">
<path d="M6.48487 16.1551L2.73533 24.5705H0L4.11835 15.5715C3.15535 15.0801 2.37677 14.3635 1.78258 13.4216C1.18838 12.4593 0.891288 11.1591 0.891288 9.52104C0.891288 8.37442 1.0552 7.37112 1.38303 6.51115C1.73135 5.63071 2.19237 4.90384 2.76607 4.33053C3.36025 3.75722 4.04665 3.32724 4.82525 3.04058C5.60384 2.75392 6.4234 2.6106 7.28396 2.6106H10.8184V24.5705H8.45186V16.1551H6.48487ZM8.45186 4.60696H7.19177C6.72051 4.60696 6.25949 4.69909 5.80874 4.88337C5.35797 5.04717 4.95842 5.3236 4.6101 5.71261C4.26178 6.08117 3.97493 6.58283 3.74955 7.21756C3.54465 7.83183 3.4422 8.59965 3.4422 9.52104C3.4422 10.4015 3.53441 11.1386 3.71882 11.7324C3.92371 12.3262 4.19008 12.8073 4.51791 13.1759C4.86623 13.5444 5.26576 13.8106 5.71653 13.9744C6.18778 14.1178 6.67953 14.1894 7.19177 14.1894H8.45186V4.60696Z" fill="black"/>
<path d="M34.5419 27.611H32.3906V24.5705H25.7519V27.611H23.6006V22.6048H24.5534C24.9017 21.7858 25.1783 20.8849 25.3831 19.9021C25.588 18.8989 25.7417 17.8751 25.8443 16.8308C25.9671 15.7661 26.0388 14.6911 26.0593 13.6059C26.1004 12.5002 26.1209 11.4355 26.1209 10.4118V9.0911H33.3125V22.6048H34.5419V27.611ZM44.9608 23.5262C44.469 23.9153 43.9056 24.2223 43.2704 24.4476C42.6353 24.6728 41.9284 24.7854 41.1498 24.7854C39.5515 24.7854 38.2915 24.1712 37.3695 22.9426C36.4474 21.6936 35.9865 19.8713 35.9865 17.4758C35.9865 16.2268 36.0683 15.0801 36.2324 14.0359C36.4167 12.9917 36.6933 12.0907 37.0621 11.3331C37.4514 10.5551 37.9432 9.95107 38.5374 9.52108C39.1315 9.0911 39.8384 8.8761 40.658 8.8761C41.2932 8.8761 41.8772 9.0092 42.4099 9.27538C42.9425 9.52108 43.3933 9.93059 43.7621 10.5039C44.1309 11.0772 44.4178 11.8246 44.6227 12.746C44.8276 13.6469 44.9301 14.7525 44.9301 16.063V17.3836H38.4759C38.4759 19.1444 38.7116 20.4754 39.1827 21.3762C39.6745 22.2772 40.4019 22.7277 41.3649 22.7277C42.0411 22.7277 42.6353 22.6151 43.1474 22.3899C43.6802 22.1441 44.1002 21.9087 44.4076 21.6835L44.9608 23.5262ZM22.2175 9.0911V24.5705H19.851V17.6294H16.2859V24.5705H13.8887V9.0911H16.2859V15.6637H19.851V9.0911H22.2175ZM49.786 16.8615V24.5705H47.3888V9.0911H49.786V16.2472L53.5048 9.0911H55.9329L52.0911 16.3701L56.486 24.5705H53.8736L49.786 16.8615ZM62.1104 24.7854C60.4507 24.7854 59.1496 24.1302 58.2072 22.8199C57.2646 21.4889 56.7933 19.4926 56.7933 16.8308C56.7933 15.6227 56.906 14.5273 57.1314 13.5445C57.3773 12.5617 57.7256 11.7324 58.1764 11.0567C58.6477 10.3606 59.2213 9.82821 59.8975 9.45966C60.5941 9.07062 61.3932 8.8761 62.2948 8.8761C62.9915 8.8761 63.5548 8.958 63.9851 9.1218C64.4154 9.26513 64.8047 9.44941 65.1531 9.67464L64.815 11.9474C64.4871 11.6608 64.0978 11.415 63.647 11.2103C63.2169 10.9851 62.7557 10.8725 62.2641 10.8725C61.4035 10.8725 60.6966 11.3536 60.1434 12.316C59.5901 13.2783 59.3135 14.7423 59.3135 16.7079C59.3135 18.6531 59.5389 20.158 59.9897 21.2228C60.461 22.2671 61.1883 22.789 62.1719 22.789C62.7661 22.789 63.2782 22.6969 63.7085 22.5126C64.1388 22.3079 64.4974 22.0826 64.7842 21.8371L65.3375 23.6184C64.9277 23.9664 64.4666 24.2531 63.9544 24.4784C63.4421 24.6831 62.8274 24.7854 62.1104 24.7854ZM30.9461 11.026H28.2722V11.3024C28.2722 12.1215 28.2517 13.0224 28.2106 14.0052C28.1903 14.9675 28.1288 15.9503 28.0263 16.9536C27.9239 17.9569 27.7805 18.95 27.596 19.9328C27.4116 20.8951 27.1555 21.7858 26.8277 22.6048H30.9461V11.026ZM40.658 10.8417C39.9205 10.8417 39.398 11.2615 39.0905 12.101C38.7833 12.92 38.5886 14.0257 38.5067 15.418H42.4714C42.4714 14.7628 42.4405 14.1588 42.3792 13.6059C42.3177 13.0326 42.2151 12.5412 42.0718 12.1317C41.9489 11.7222 41.7645 11.4048 41.5186 11.1796C41.2932 10.9544 41.0063 10.8417 40.658 10.8417Z" fill="black"/>
<path d="M108.033 9.06033C107.869 8.48702 107.726 7.95466 107.603 7.46325C107.501 6.95137 107.398 6.4395 107.296 5.92761H107.204C107.265 6.97184 107.296 8.05704 107.296 9.18319V24.5705H105.943V2.6106H107.726L111.445 16.6465C111.527 16.9331 111.609 17.3324 111.691 17.8442C111.793 18.3357 111.865 18.7862 111.906 19.1957H111.998C112.06 18.7862 112.141 18.3357 112.244 17.8442C112.346 17.3324 112.438 16.9331 112.52 16.6465L116.27 2.6106H117.991V24.5705H116.516V9.18319C116.516 8.65083 116.526 8.11846 116.547 7.5861C116.567 7.03327 116.598 6.48043 116.639 5.92761H116.516C116.372 6.54186 116.239 7.08447 116.116 7.5554C116.014 8.02633 115.901 8.49727 115.778 8.9682L112.49 21.1919H111.291L108.033 9.06033Z" fill="black"/>
<path d="M124.502 23.7105C125.219 23.7105 125.824 23.4137 126.315 22.8199C126.828 22.2261 127.227 21.5094 127.514 20.6699V16.4009H125.854C124.563 16.4009 123.611 16.7079 122.996 17.3222C122.381 17.9364 122.074 18.9192 122.074 20.2707C122.074 21.3763 122.289 22.2261 122.719 22.8199C123.17 23.4137 123.764 23.7105 124.502 23.7105ZM127.944 24.5705C127.883 24.3658 127.811 24.1097 127.729 23.8027C127.668 23.4751 127.616 23.0348 127.575 22.482C127.207 23.2191 126.745 23.8027 126.192 24.2327C125.639 24.6627 124.973 24.8776 124.195 24.8776C123.15 24.8776 122.299 24.4886 121.644 23.7105C120.988 22.912 120.66 21.8063 120.66 20.3935C120.66 18.735 121.101 17.4859 121.982 16.6466C122.863 15.7866 124.143 15.3566 125.824 15.3566H127.514V13.4217C127.514 12.2341 127.299 11.3741 126.869 10.8418C126.438 10.3094 125.793 10.0432 124.932 10.0432C124.277 10.0432 123.662 10.1968 123.088 10.5039C122.515 10.7906 122.043 11.2001 121.674 11.7324L121.275 10.3504C121.582 9.94085 122.043 9.58254 122.658 9.27541C123.293 8.9478 124.051 8.784 124.932 8.784C126.223 8.784 127.207 9.15255 127.883 9.88965C128.579 10.6063 128.928 11.7324 128.928 13.2681V21.7141C128.928 22.2466 128.958 22.7891 129.02 23.342C129.081 23.8743 129.163 24.2838 129.266 24.5705H127.944Z" fill="black"/>
<path d="M136.537 23.7105C137.521 23.7105 138.309 23.1269 138.904 21.9599C139.498 20.7723 139.795 18.95 139.795 16.493C139.795 14.4454 139.539 12.8586 139.027 11.7324C138.514 10.6063 137.808 10.0432 136.906 10.0432C136.558 10.0432 136.22 10.1354 135.892 10.3196C135.585 10.4834 135.287 10.7087 135.001 10.9953C134.734 11.282 134.488 11.6198 134.263 12.0089C134.038 12.3774 133.843 12.7665 133.679 13.1759V21.8371C133.986 22.4717 134.365 22.9427 134.816 23.2499C135.267 23.5569 135.841 23.7105 136.537 23.7105ZM136.445 24.8469C135.851 24.8469 135.308 24.724 134.816 24.4784C134.345 24.2122 133.966 23.8846 133.679 23.4955V29.3617H132.234V9.09113H133.495L133.617 11.6403C133.966 10.9032 134.427 10.248 135.001 9.67467C135.574 9.08088 136.291 8.784 137.152 8.784C137.787 8.784 138.361 8.96828 138.873 9.33683C139.385 9.70537 139.815 10.2275 140.164 10.9032C140.512 11.5584 140.779 12.3569 140.963 13.2988C141.147 14.2202 141.24 15.244 141.24 16.3701C141.24 19.2161 140.799 21.3456 139.918 22.7584C139.037 24.1507 137.879 24.8469 136.445 24.8469Z" fill="black"/>
<path d="M145.445 24.5705H144V9.09109H145.445V16.3701L150.639 9.09109H152.052L146.951 16.2779L152.421 24.5705H150.823L145.445 16.5543V24.5705Z" fill="black"/>
<path d="M154.49 17.0764C154.531 19.2059 154.828 20.8338 155.381 21.9599C155.935 23.0656 156.775 23.6184 157.901 23.6184C158.414 23.6184 158.865 23.5364 159.254 23.3727C159.643 23.2089 159.971 23.0143 160.237 22.7891C160.545 22.564 160.811 22.2874 161.036 21.9599L161.497 23.1269C161.251 23.4751 160.954 23.772 160.606 24.0176C160.299 24.2428 159.92 24.4374 159.469 24.6012C159.018 24.7855 158.485 24.8776 157.871 24.8776C156.232 24.8776 155.023 24.1712 154.244 22.7584C153.465 21.3456 153.076 19.3697 153.076 16.8309C153.076 15.5613 153.189 14.4352 153.414 13.4524C153.64 12.4491 153.947 11.5994 154.336 10.9032C154.746 10.207 155.228 9.6849 155.781 9.33683C156.334 8.96828 156.938 8.784 157.594 8.784C158.27 8.784 158.875 8.95803 159.407 9.30611C159.94 9.65419 160.381 10.1763 160.729 10.8725C161.077 11.5686 161.323 12.4388 161.467 13.4831C161.61 14.5068 161.62 15.7047 161.497 17.0764H154.49ZM157.594 9.9818C156.775 9.9818 156.068 10.4937 155.474 11.5175C154.9 12.5208 154.582 13.995 154.521 15.9401H160.145C160.268 13.8721 160.063 12.3672 159.53 11.4253C159.018 10.463 158.373 9.9818 157.594 9.9818Z" fill="black"/>
<path d="M167.863 10.2889V24.5705H166.418V10.2889H162.822V9.09109H171.428V10.2889H167.863Z" fill="black"/>
<path d="M100.331 -0.0375671H70.3594V29.9137H100.331V-0.0375671Z" fill="url(#paint0_linear)"/>
<path d="M69.7266 27.0557V17.7303L78.43 7.169L83.4034 9.65402L82.16 15.8665L91.4852 2.82025L97.7019 5.30525L95.8369 13.3815L100.81 9.03276V16.4879L93.3502 23.9428L88.3768 21.4579L90.2419 14.0028L81.5384 27.049L75.3215 24.5641L77.1866 17.109L69.7266 27.0557Z" fill="url(#paint1_linear)"/>
</g>
<defs>
<linearGradient id="paint0_linear" x1="85.3454" y1="-7.01921" x2="85.3454" y2="29.9137" gradientUnits="userSpaceOnUse">
<stop stop-color="#3E3F3A"/>
<stop offset="1"/>
</linearGradient>
<linearGradient id="paint1_linear" x1="85.2685" y1="-2.94681" x2="85.2685" y2="29.3564" gradientUnits="userSpaceOnUse">
<stop stop-color="#FFE55B"/>
<stop offset="1" stop-color="#FFCC00"/>
</linearGradient>
<clipPath id="clip0">
<rect width="171.429" height="30" fill="white"/>
</clipPath>
</defs>
</svg>
