<svg width="120" height="120" viewBox="0 0 120 120" fill="none" xmlns="http://www.w3.org/2000/svg">
<rect x="20" y="2" width="63" height="116" rx="7" fill="#DFDFDF"/>
<path fill-rule="evenodd" clip-rule="evenodd" d="M82.9291 112H61C41.67 112 26 96.33 26 77V2.07089C26.3266 2.02417 26.6605 2 27 2H76C79.866 2 83 5.134 83 9V111C83 111.34 82.9758 111.673 82.9291 112Z" fill="#EFEFEF"/>
<path d="M33 2H70L67.1056 7.78886C66.428 9.14399 65.043 10 63.5279 10H40.217C38.8378 10 37.556 9.28952 36.825 8.12L33 2Z" fill="#929292"/>
<rect x="60" y="5" width="5" height="2" rx="1" fill="white"/>
<rect x="48" y="110" width="8" height="3" rx="1.5" fill="#929292"/>
<rect x="29" y="82" width="44" height="70" rx="3" transform="rotate(-90 29 82)" fill="#FAAF42"/>
<path fill-rule="evenodd" clip-rule="evenodd" d="M98.2793 39.0493L69.2616 62.5586C66.3256 64.9373 62.1256 64.9373 59.1896 62.5586L29.916 38.842C30.4557 38.3207 31.1904 38 32 38H96C96.9121 38 97.7291 38.407 98.2793 39.0493Z" fill="#F8C460"/>
<path fill-rule="evenodd" clip-rule="evenodd" d="M53.7683 61.468L29.7207 80.9507C30.2709 81.593 31.088 82 32 82H96C96.8096 82 97.5443 81.6793 98.084 81.158L74.1611 61.7764L70.3451 64.8329C66.7375 67.7224 61.5769 67.7224 57.9693 64.8329L53.7683 61.468Z" fill="#F8C460"/>
</svg>
