<svg width="80" height="40" viewBox="0 0 80 40" fill="none" xmlns="http://www.w3.org/2000/svg">
<path opacity="0.4" d="M7.29289 0.292893C7.68342 -0.0976311 8.31658 -0.0976311 8.70711 0.292893L15.0711 6.65685C15.4616 7.04738 15.4616 7.68054 15.0711 8.07107C14.6805 8.46159 14.0474 8.46159 13.6569 8.07107L8 2.41421L2.34315 8.07107C1.95262 8.46159 1.31946 8.46159 0.928932 8.07107C0.538408 7.68054 0.538408 7.04738 0.928932 6.65685L7.29289 0.292893ZM78.9617 38C79.514 38 79.9617 38.4477 79.9617 39C79.9617 39.5523 79.514 40 78.9617 40L78.9617 38ZM28 39L28 38L28 39ZM9 1L9 2.125L7 2.125L7 1L9 1ZM9 4.375L9 6.625L7 6.625L7 4.375L9 4.375ZM9 8.875L9 11.125L7 11.125L7 8.875L9 8.875ZM9 13.375L9 15.625L7 15.625L7 13.375L9 13.375ZM9 17.875L9 19L7 19L7 17.875L9 17.875ZM9 19C9 19.3581 9.0099 19.7138 9.02942 20.0668L7.03247 20.1772C7.01091 19.7875 7 19.395 7 19L9 19ZM9.26569 22.1854C9.3849 22.8919 9.54309 23.585 9.73796 24.2625L7.81588 24.8154C7.60032 24.0659 7.42537 23.2993 7.29357 22.5182L9.26569 22.1854ZM10.4413 26.2727C10.7146 26.9318 11.024 27.5722 11.367 28.1915L9.61743 29.1605C9.23825 28.4759 8.89615 27.7677 8.59388 27.0388L10.4413 26.2727ZM12.5024 29.9949C12.9148 30.575 13.359 31.131 13.8324 31.6604L12.3415 32.9936C11.8186 32.4088 11.3279 31.7946 10.8723 31.1536L12.5024 29.9949ZM15.3396 33.1676C15.869 33.641 16.425 34.0852 17.0051 34.4976L15.8464 36.1277C15.2054 35.6721 14.5912 35.1814 14.0064 34.6585L15.3396 33.1676ZM18.8085 35.633C19.4278 35.976 20.0682 36.2854 20.7273 36.5587L19.9612 38.4061C19.2323 38.1038 18.5241 37.7617 17.8395 37.3826L18.8085 35.633ZM22.7375 37.262C23.415 37.4569 24.1081 37.6151 24.8146 37.7343L24.4818 39.7064C23.7007 39.5746 22.9341 39.3997 22.1846 39.1841L22.7375 37.262ZM26.9332 37.9706C27.2862 37.9901 27.6419 38 28 38L28 40C27.605 40 27.2125 39.9891 26.8228 39.9675L26.9332 37.9706ZM28 38L29.0617 38L29.0617 40L28 40L28 38ZM31.1851 38L33.3085 38L33.3085 40L31.1851 40L31.1851 38ZM35.4319 38L37.5553 38L37.5553 40L35.4319 40L35.4319 38ZM39.6787 38L41.8021 38L41.8021 40L39.6787 40L39.6787 38ZM43.9255 38L46.0489 38L46.0489 40L43.9255 40L43.9255 38ZM48.1723 38L50.2957 38L50.2957 40L48.1723 40L48.1723 38ZM52.4192 38L54.5426 38L54.5426 40L52.4192 40L52.4192 38ZM56.666 38L58.7894 38L58.7894 40L56.666 40L56.666 38ZM60.9128 38L63.0362 38L63.0362 40L60.9128 40L60.9128 38ZM65.1596 38L67.283 38L67.283 40L65.1596 40L65.1596 38ZM69.4064 38L71.5298 38L71.5298 40L69.4064 40L69.4064 38ZM73.6532 38L75.7766 38L75.7766 40L73.6532 40L73.6532 38ZM77.9 38L78.9617 38L78.9617 40L77.9 40L77.9 38Z" fill="black"/>
</svg>
