<svg width="30" height="30" viewBox="0 0 30 30" fill="none" xmlns="http://www.w3.org/2000/svg">
<path d="M21.2812 9.76758H8.71875C8.05664 9.76758 7.52344 9.23438 7.52344 8.57227C7.52344 7.91016 8.05664 7.37695 8.71875 7.37695H21.2812C21.9434 7.37695 22.4766 7.91016 22.4766 8.57227C22.4766 9.23438 21.9434 9.76758 21.2812 9.76758Z" fill="white"/>
<path d="M21.2812 16.0078H8.71875C8.05664 16.0078 7.52344 15.4746 7.52344 14.8125C7.52344 14.1504 8.05664 13.6172 8.71875 13.6172H21.2812C21.9434 13.6172 22.4766 14.1504 22.4766 14.8125C22.4766 15.4746 21.9434 16.0078 21.2812 16.0078Z" fill="white"/>
<path d="M5.36719 29.2031C4.93945 28.9629 4.69922 28.4883 4.76367 28.002L5.47266 22.7402H3.56836C1.95703 22.7402 0.644531 21.4277 0.644531 19.8223V3.56836C0.644531 1.95703 1.95703 0.644531 3.56836 0.644531H26.4375C28.0488 0.644531 29.3555 1.95703 29.3555 3.56836V19.8223C29.3555 21.4336 28.043 22.7402 26.4375 22.7402H14.4961L6.70898 29.0859C6.14062 29.5313 5.54883 29.3027 5.36719 29.2031ZM3.56836 3.03516C3.27539 3.03516 3.04102 3.26953 3.04102 3.5625V19.8164C3.04102 20.1094 3.27539 20.3438 3.56836 20.3438H6.84961C7.81641 20.3789 8.13281 21.2695 8.0332 21.6973L7.54688 25.3125L13.3184 20.6074C13.5293 20.4316 13.7988 20.3379 14.0742 20.3379H26.4375C26.7305 20.3379 26.9648 20.1035 26.9648 19.8105V3.56836C26.9648 3.27539 26.7305 3.04102 26.4375 3.04102H3.56836V3.03516Z" fill="white"/>
</svg>
