<svg width="30" height="33" viewBox="0 0 30 33" fill="none" xmlns="http://www.w3.org/2000/svg">
<path d="M15.0317 3.22077e-05C23.2677 0.0168582 29.9964 6.69887 30 14.8638C30.0016 18.513 28.6771 21.8552 26.4782 24.4435C25.5464 25.5403 25.3576 27.0797 25.9953 28.3668L27.628 31.6619C27.7621 31.9325 27.4934 32.2265 27.2085 32.1208L20.2667 29.5449C19.6108 29.3015 18.898 29.25 18.2138 29.3982C17.0869 29.6424 15.9128 29.7612 14.7067 29.7383C6.56214 29.5836 -0.0119026 22.9242 1.61811e-05 14.8483C0.0122211 6.63534 6.74035 -0.0168883 15.0317 3.22077e-05Z" fill="#FF5219"/>
<path d="M9.45515 16.293C10.2416 16.293 10.8791 15.661 10.8791 14.8813C10.8791 14.1017 10.2416 13.4697 9.45515 13.4697C8.66875 13.4697 8.03125 14.1017 8.03125 14.8813C8.03125 15.661 8.66875 16.293 9.45515 16.293Z" fill="white"/>
<path d="M15.1524 16.293C15.9388 16.293 16.5763 15.661 16.5763 14.8813C16.5763 14.1017 15.9388 13.4697 15.1524 13.4697C14.366 13.4697 13.7285 14.1017 13.7285 14.8813C13.7285 15.661 14.366 16.293 15.1524 16.293Z" fill="white"/>
<path d="M20.8458 16.293C21.6322 16.293 22.2697 15.661 22.2697 14.8813C22.2697 14.1017 21.6322 13.4697 20.8458 13.4697C20.0594 13.4697 19.4219 14.1017 19.4219 14.8813C19.4219 15.661 20.0594 16.293 20.8458 16.293Z" fill="white"/>
</svg>
