<svg width="30" height="30" viewBox="0 0 30 30" fill="none" xmlns="http://www.w3.org/2000/svg">
<g clip-path="url(#clip0)">
<path d="M25.3374 23.75H8.44118C7.61993 23.75 6.84118 23.3913 6.30618 22.7675C5.76993 22.1425 5.53618 21.3175 5.66243 20.505L7.51118 8.63C7.72868 7.25 8.89618 6.25 10.2912 6.25H27.1874C28.0087 6.25 28.7874 6.60875 29.3224 7.2325C29.8587 7.8575 30.0924 8.6825 29.9662 9.495L28.1174 21.37C27.8999 22.75 26.7324 23.75 25.3374 23.75ZM10.2912 8.125C9.82618 8.125 9.43618 8.45875 9.36493 8.91875L7.51618 20.7938C7.47368 21.0688 7.54868 21.3375 7.72993 21.5487C7.91118 21.7587 8.16243 21.875 8.44118 21.875H25.3374C25.8024 21.875 26.1924 21.5412 26.2637 21.0812L28.1124 9.20625C28.1549 8.93125 28.0799 8.6625 27.8987 8.45125C27.7174 8.24125 27.4662 8.125 27.1874 8.125H10.2912Z" fill="black"/>
<path d="M17.905 16.8448C17.3025 16.8448 16.7 16.6848 16.16 16.3673L7.68247 11.3698C7.23622 11.1073 7.08747 10.5323 7.34997 10.0861C7.61372 9.64106 8.18497 9.48981 8.63372 9.75481L17.1125 14.7523C17.5712 15.0223 18.1275 15.0398 18.6037 14.8036L28.4137 9.89856C28.8762 9.66731 29.4387 9.85481 29.6712 10.3173C29.9037 10.7811 29.715 11.3436 29.2512 11.5748L19.4412 16.4798C18.9562 16.7236 18.43 16.8448 17.905 16.8448Z" fill="black"/>
<path d="M5.3125 10.625H0.9375C0.42 10.625 0 10.205 0 9.6875C0 9.17 0.42 8.75 0.9375 8.75H5.3125C5.83 8.75 6.25 9.17 6.25 9.6875C6.25 10.205 5.83 10.625 5.3125 10.625Z" fill="black"/>
<path d="M4.0625 15.625H0.9375C0.42 15.625 0 15.205 0 14.6875C0 14.17 0.42 13.75 0.9375 13.75H4.0625C4.58 13.75 5 14.17 5 14.6875C5 15.205 4.58 15.625 4.0625 15.625Z" fill="black"/>
<path d="M2.8125 20.625H0.9375C0.42 20.625 0 20.205 0 19.6875C0 19.17 0.42 18.75 0.9375 18.75H2.8125C3.33 18.75 3.75 19.17 3.75 19.6875C3.75 20.205 3.33 20.625 2.8125 20.625Z" fill="black"/>
</g>
<defs>
<clipPath id="clip0">
<rect width="30" height="30" fill="white"/>
</clipPath>
</defs>
</svg>
