<svg width="20" height="20" viewBox="0 0 20 20" fill="none" xmlns="http://www.w3.org/2000/svg">
<path d="M10 0C4.48597 0 0 4.48597 0 10C0 15.514 4.48588 20 9.99992 20C15.514 20 19.9999 15.514 19.9999 10C19.9999 4.48597 15.514 0 10 0ZM10 17.5544C5.8345 17.5544 2.44565 14.1655 2.44565 10C2.44565 5.8345 5.8345 2.44565 10 2.44565C14.1655 2.44565 17.5544 5.8345 17.5544 10C17.5544 14.1655 14.1654 17.5544 10 17.5544Z" fill="#FF5219"/>
<path d="M11.223 14.1169V10.1224C11.223 9.44701 10.6755 8.89954 10.0002 8.89954C9.32482 8.89954 8.77734 9.44702 8.77734 10.1224V14.1169C8.77734 14.7922 9.32482 15.3397 10.0002 15.3397C10.6755 15.3397 11.223 14.7922 11.223 14.1169Z" fill="#FF5219"/>
<path d="M10.0409 4.6604H9.95941C9.30657 4.6604 8.77734 5.18963 8.77734 5.84246C8.77734 6.4953 9.30657 7.02452 9.95941 7.02452H10.0409C10.6938 7.02452 11.223 6.4953 11.223 5.84246C11.223 5.18963 10.6938 4.6604 10.0409 4.6604Z" fill="#FF5219"/>
</svg>
