<svg width="30" height="30" viewBox="0 0 30 30" fill="none" xmlns="http://www.w3.org/2000/svg">
<g clip-path="url(#clip0)">
<path d="M11 19.3097L12.5238 10.7383H14.9048L13.4286 19.3097H11Z" fill="#3C58BF"/>
<path d="M11 19.3097L12.9524 10.7383H14.9048L13.4286 19.3097H11Z" fill="#293688"/>
<path d="M22.0477 10.8331C21.5715 10.6426 20.8096 10.4521 19.8572 10.4521C17.4762 10.4521 15.762 11.6426 15.762 13.3569C15.762 14.6426 16.9524 15.3093 17.9048 15.7379C18.8572 16.1664 19.1429 16.4521 19.1429 16.8331C19.1429 17.4045 18.381 17.6902 17.7143 17.6902C16.762 17.6902 16.2382 17.5474 15.4286 17.2141L15.0953 17.0712L14.762 19.0236C15.3334 19.2617 16.381 19.4998 17.4762 19.4998C20.0001 19.4998 21.6667 18.3093 21.6667 16.4998C21.6667 15.4998 21.0477 14.7379 19.6191 14.1188C18.762 13.6902 18.2382 13.4521 18.2382 13.0236C18.2382 12.6426 18.6667 12.2617 19.6191 12.2617C20.4286 12.2617 21.0001 12.4045 21.4286 12.595L21.6667 12.6902L22.0477 10.8331Z" fill="#3C58BF"/>
<path d="M22.0477 10.8331C21.5715 10.6426 20.8096 10.4521 19.8572 10.4521C17.4762 10.4521 16.1905 11.6426 16.1905 13.3569C16.1905 14.6426 16.9524 15.3093 17.9048 15.7379C18.8572 16.1664 19.1429 16.4521 19.1429 16.8331C19.1429 17.4045 18.381 17.6902 17.7143 17.6902C16.762 17.6902 16.2382 17.5474 15.4286 17.2141L15.0953 17.0712L14.762 19.0236C15.3334 19.2617 16.381 19.4998 17.4762 19.4998C20.0001 19.4998 21.6667 18.3093 21.6667 16.4998C21.6667 15.4998 21.0477 14.7379 19.6191 14.1188C18.762 13.6902 18.2382 13.4521 18.2382 13.0236C18.2382 12.6426 18.6667 12.2617 19.6191 12.2617C20.4286 12.2617 21.0001 12.4045 21.4286 12.595L21.6667 12.6902L22.0477 10.8331Z" fill="#293688"/>
<path d="M26.1429 10.7383C25.5715 10.7383 25.1429 10.7859 24.9048 11.3573L21.3334 19.3097H23.9048L24.381 17.8811H27.4286L27.7143 19.3097H30L28 10.7383H26.1429ZM25.0477 16.4526C25.1905 16.024 26 13.9288 26 13.9288C26 13.9288 26.1905 13.4049 26.3334 13.0716L26.4762 13.8811C26.4762 13.8811 26.9524 16.024 27.0477 16.5002H25.0477V16.4526Z" fill="#3C58BF"/>
<path d="M26.7143 10.7383C26.1429 10.7383 25.7143 10.7859 25.4762 11.3573L21.3334 19.3097H23.9048L24.381 17.8811H27.4286L27.7143 19.3097H30L28 10.7383H26.7143ZM25.0477 16.4526C25.2381 15.9764 26 13.9288 26 13.9288C26 13.9288 26.1905 13.4049 26.3334 13.0716L26.4762 13.8811C26.4762 13.8811 26.9524 16.024 27.0477 16.5002H25.0477V16.4526Z" fill="#293688"/>
<path d="M6.61904 16.738L6.38094 15.4999C5.95237 14.0714 4.57142 12.4999 3.04761 11.738L5.19046 19.3571H7.76189L11.619 10.7856H9.04761L6.61904 16.738Z" fill="#3C58BF"/>
<path d="M6.61904 16.738L6.38094 15.4999C5.95237 14.0714 4.57142 12.4999 3.04761 11.738L5.19046 19.3571H7.76189L11.619 10.7856H9.5238L6.61904 16.738Z" fill="#293688"/>
<path d="M0 10.7383L0.428571 10.8335C3.47619 11.5478 5.57143 13.3573 6.38095 15.5002L5.52381 11.4526C5.38095 10.8811 4.95238 10.7383 4.42857 10.7383H0Z" fill="#FFBC00"/>
<path d="M0 10.7383C3.04762 11.4526 5.57143 13.3097 6.38095 15.4526L5.57143 12.0716C5.42857 11.5002 4.95238 11.1669 4.42857 11.1669L0 10.7383Z" fill="#F7981D"/>
<path d="M0 10.7383C3.04762 11.4526 5.57143 13.3097 6.38095 15.4526L5.80952 13.5954C5.66667 13.024 5.47619 12.4526 4.80952 12.2145L0 10.7383Z" fill="#ED7C00"/>
<path d="M8.99998 16.4523L7.38093 14.8333L6.61902 16.6428L6.42855 15.4523C5.99998 14.0238 4.61902 12.4523 3.09521 11.6904L5.23807 19.3095H7.8095L8.99998 16.4523Z" fill="#051244"/>
<path d="M13.4284 19.3096L11.3808 17.2144L10.9999 19.3096H13.4284Z" fill="#051244"/>
<path d="M18.9047 16.3574C19.0952 16.5479 19.1904 16.6908 19.1428 16.8812C19.1428 17.4527 18.3809 17.7384 17.7142 17.7384C16.7618 17.7384 16.238 17.5955 15.4285 17.2622L15.0952 17.1193L14.7618 19.0717C15.3333 19.3098 16.3809 19.5479 17.4761 19.5479C18.9999 19.5479 20.238 19.1193 20.9523 18.3574L18.9047 16.3574Z" fill="#051244"/>
<path d="M21.6666 19.3094H23.9047L24.3809 17.8808H27.4285L27.7142 19.3094H30L29.1904 15.8332L26.3333 13.0713L26.4761 13.8332C26.4761 13.8332 26.9523 15.9761 27.0476 16.4522H25.0476C25.2381 15.9761 26 13.9284 26 13.9284C26 13.9284 26.1904 13.4046 26.3333 13.0713" fill="#051244"/>
</g>
<defs>
<clipPath id="clip0">
<rect width="30" height="30" fill="white"/>
</clipPath>
</defs>
</svg>
