<svg width="30" height="30" viewBox="0 0 30 30" fill="none" xmlns="http://www.w3.org/2000/svg">
<path d="M25.9091 14.719C25.9091 20.5889 21.1142 25.3472 15.1983 25.3472C13.3203 25.3472 11.5559 24.8672 10.0209 24.0247L4.09094 25.9091L6.02428 20.2068C5.049 18.6053 4.48731 16.727 4.48731 14.719C4.48731 8.84922 9.2827 4.09091 15.1983 4.09091C21.1147 4.09091 25.9091 8.84922 25.9091 14.719ZM15.1983 5.78352C10.2325 5.78352 6.19325 9.792 6.19325 14.719C6.19325 16.6742 6.83058 18.4849 7.90864 19.9578L6.78355 23.2764L10.2442 22.1765C11.666 23.1101 13.3692 23.6545 15.1986 23.6545C20.1637 23.6545 24.2037 19.6465 24.2037 14.7195C24.2037 9.79249 20.1639 5.78352 15.1983 5.78352ZM20.6071 17.1668C20.5409 17.0584 20.3661 16.993 20.1038 16.8628C19.841 16.7326 18.5499 16.1021 18.3099 16.0155C18.0691 15.9287 17.8936 15.8851 17.7188 16.1457C17.544 16.4065 17.0408 16.993 16.8873 17.1668C16.7341 17.3411 16.5811 17.3629 16.3183 17.2325C16.056 17.1023 15.2102 16.8269 14.2073 15.9396C13.4269 15.2492 12.8999 14.3969 12.7467 14.1358C12.5937 13.8752 12.7307 13.7343 12.8619 13.6046C12.9802 13.4878 13.1246 13.3004 13.2558 13.1484C13.3874 12.9961 13.4311 12.8878 13.5181 12.7137C13.6061 12.5399 13.5622 12.3879 13.4963 12.2572C13.4308 12.127 12.9052 10.8451 12.6866 10.3234C12.4679 9.80219 12.2495 9.88897 12.096 9.88897C11.9431 9.88897 11.7678 9.86715 11.5928 9.86715C11.4177 9.86715 11.1331 9.93237 10.8924 10.193C10.6519 10.4538 9.97385 11.0841 9.97385 12.3658C9.97385 13.6478 10.9142 14.8863 11.0459 15.0599C11.177 15.2335 12.8616 17.9496 15.5307 18.9927C18.2 20.0354 18.2 19.6875 18.6815 19.6439C19.1625 19.6005 20.2345 19.0138 20.4541 18.4058C20.6723 17.7969 20.6723 17.2754 20.6071 17.1668Z" fill="black"/>
</svg>
