<svg width="63" height="57" viewBox="0 0 63 57" fill="none" xmlns="http://www.w3.org/2000/svg">
<path d="M31.4988 0.138672C48.8681 0.138672 62.9975 11.5897 62.9975 25.665C62.9975 32.7945 59.3977 39.4806 53.0439 44.2903C55.1453 47.555 57.8632 50.86 61.2921 51.7019C62.3765 51.9706 63.101 52.9916 62.9885 54.0978C62.876 55.2084 61.9626 56.0637 60.8421 56.113C60.7926 56.113 60.5991 56.122 60.2751 56.122C57.9487 56.122 48.9671 55.7503 38.775 50.4883C36.4396 50.9585 33.9962 51.1913 31.4988 51.1913C14.1339 51.1913 0 39.7403 0 25.665C0 11.5897 14.1339 0.138672 31.4988 0.138672Z" fill="url(#paint0_linear)"/>
<defs>
<linearGradient id="paint0_linear" x1="18.225" y1="72.2171" x2="61.1356" y2="6.81004" gradientUnits="userSpaceOnUse">
<stop stop-color="#0B0175"/>
<stop offset="1" stop-color="#0063F8"/>
</linearGradient>
</defs>
</svg>
