<svg width="24" height="24" viewBox="0 0 24 24" fill="none" xmlns="http://www.w3.org/2000/svg">
<path d="M4.95522 14.7988H2.13715C1.74809 14.7988 1.43262 14.4834 1.43262 14.0943V2.8222C1.43262 2.43314 1.74804 2.11767 2.13715 2.11767H4.95517C5.34423 2.11767 5.6597 2.43309 5.6597 2.8222V14.0943C5.6597 14.4834 5.34433 14.7988 4.95522 14.7988Z" fill="#EA0000"/>
<path d="M22.5535 12.9311C22.4293 14.024 21.4084 14.7986 20.3085 14.7986H14.8159C15.2827 15.6345 15.5332 17.9985 15.5221 18.9642C15.5037 20.5628 14.1799 21.8438 12.5813 21.8438H12C11.6106 21.8438 11.2954 21.5287 11.2954 21.1392C11.2954 19.5101 10.6611 16.5695 9.4647 15.3731C8.65943 14.5678 7.97103 14.276 7.06836 13.8249V3.25377C8.45037 2.79313 10.2051 2.11743 12.8796 2.11743H17.4882C19.0067 2.11743 20.1893 3.52382 19.6009 5.00975C20.4974 5.25397 21.1585 6.07615 21.1585 7.049C21.1585 7.32354 21.1056 7.58632 21.0099 7.82782C22.5207 8.23943 23.0767 10.1048 22.0282 11.2761C22.4134 11.7064 22.6259 12.2951 22.5535 12.9311Z" fill="#EA0000"/>
</svg>
