<svg width="24" height="24" viewBox="0 0 24 24" fill="none" xmlns="http://www.w3.org/2000/svg">
<path d="M4.95522 9.20117H2.13715C1.74809 9.20117 1.43262 9.51659 1.43262 9.9057V21.1778C1.43262 21.5669 1.74804 21.8823 2.13715 21.8823H4.95517C5.34423 21.8823 5.6597 21.5669 5.6597 21.1778V9.90566C5.6597 9.51659 5.34433 9.20117 4.95522 9.20117Z" fill="#06BD18"/>
<path d="M22.5535 11.0689C22.4293 9.97597 21.4084 9.20136 20.3085 9.20136H14.8159C15.2827 8.36554 15.5332 6.00149 15.5221 5.03578C15.5037 3.43725 14.1799 2.15625 12.5813 2.15625H12C11.6106 2.15625 11.2954 2.47134 11.2954 2.86078C11.2954 4.48992 10.6611 7.43047 9.4647 8.62691C8.65943 9.43217 7.97103 9.72397 7.06836 10.1751V20.7462C8.45037 21.2069 10.2051 21.8826 12.8796 21.8826H17.4882C19.0067 21.8826 20.1893 20.4762 19.6009 18.9903C20.4974 18.746 21.1585 17.9238 21.1585 16.951C21.1585 16.6765 21.1056 16.4137 21.0099 16.1722C22.5207 15.7606 23.0767 13.8952 22.0282 12.7239C22.4134 12.2936 22.6259 11.7049 22.5535 11.0689Z" fill="#06BD18"/>
</svg>
