<svg width="18" height="18" viewBox="0 0 18 18" fill="none" xmlns="http://www.w3.org/2000/svg">
<path d="M3.71617 6.90137H1.60262C1.31082 6.90137 1.07422 7.13793 1.07422 7.42976V15.8838C1.07422 16.1756 1.31078 16.4122 1.60262 16.4122H3.71614C4.00793 16.4122 4.24453 16.1757 4.24453 15.8838V7.42973C4.24453 7.13793 4.008 6.90137 3.71617 6.90137Z" fill="#C1C1C1"/>
<path d="M16.9156 8.30164C16.8224 7.48198 16.0568 6.90102 15.2318 6.90102H11.1124C11.4625 6.27415 11.6504 4.50112 11.6421 3.77683C11.6283 2.57794 10.6354 1.61719 9.43648 1.61719H9.00047C8.70843 1.61719 8.47207 1.85351 8.47207 2.14559C8.47207 3.36744 7.9963 5.57286 7.09901 6.47018C6.49506 7.07413 5.97876 7.29298 5.30176 7.63132V15.5597C6.33827 15.9052 7.6543 16.4119 9.66021 16.4119H13.1166C14.2555 16.4119 15.1425 15.3571 14.7012 14.2427C15.3735 14.0595 15.8694 13.4429 15.8694 12.7133C15.8694 12.5073 15.8297 12.3103 15.7579 12.1291C16.891 11.8204 17.308 10.4214 16.5216 9.54294C16.8106 9.22017 16.9699 8.77868 16.9156 8.30164Z" fill="#C1C1C1"/>
</svg>
