<svg width="90" height="90" viewBox="0 0 90 90" fill="none" xmlns="http://www.w3.org/2000/svg">
<path d="M66.0942 67.5C64.9757 67.5013 63.9034 67.9462 63.1125 68.7371C62.3216 69.5279 61.8767 70.6003 61.8755 71.7188V74.5313C62.0732 80.1141 70.1154 80.1141 70.313 74.5313V71.7188C70.3117 70.6003 69.8669 69.5279 69.076 68.7371C68.2851 67.9462 67.2127 67.5013 66.0942 67.5ZM67.5005 74.5313C67.4521 76.3847 64.7365 76.3859 64.688 74.5313V71.7188C64.688 71.3458 64.8361 70.9881 65.0999 70.7244C65.3636 70.4607 65.7213 70.3125 66.0942 70.3125C66.4672 70.3125 66.8249 70.4607 67.0886 70.7244C67.3523 70.9881 67.5005 71.3458 67.5005 71.7188V74.5313ZM42.188 37.9688C44.0423 38.0155 44.0427 40.7342 42.188 40.7813C40.3337 40.7345 40.3333 38.0159 42.188 37.9688ZM87.188 4.21877C87.188 3.84581 87.0398 3.48813 86.7761 3.2244C86.5124 2.96068 86.1547 2.81252 85.7817 2.81252C85.4088 2.81252 85.0511 2.96068 84.7874 3.2244C84.5236 3.48813 84.3755 3.84581 84.3755 4.21877V16.8789C83.1602 15.9623 81.679 15.4672 80.1567 15.4688H63.2817C54.821 15.6489 53.6923 27.5673 61.8755 29.3898V35.98L61.2929 36.5625H59.063C58.8783 36.5625 58.6954 36.5989 58.5248 36.6695C58.3542 36.7402 58.1992 36.8438 58.0686 36.9744C55.7613 39.2815 50.9642 44.0789 48.6367 46.4063H45.6899C45.7709 46.2899 45.8502 46.1721 45.9291 46.0547C46.1328 45.8776 46.2801 45.6447 46.3528 45.3848C48.2305 42.3037 49.2223 38.7645 49.2192 35.1563H52.0317C57.6592 34.917 57.6133 26.8905 51.989 26.7188C51.9308 25.7748 51.8134 24.8355 51.6375 23.9063H52.0317C52.4047 23.9063 52.7624 23.7581 53.0261 23.4944C53.2898 23.2307 53.438 22.873 53.438 22.5V14.0625C53.438 13.6896 53.2898 13.3319 53.0261 13.0682C52.7624 12.8044 52.4047 12.6563 52.0317 12.6563H47.813V8.43752C47.813 8.21921 47.7622 8.00389 47.6645 7.80863C47.5669 7.61336 47.4251 7.44351 47.2505 7.31252C47.0054 7.12883 41.1173 2.81252 29.5317 2.81252C27.5703 2.8099 25.6156 3.04158 23.7092 3.50264C22.983 2.25213 21.0083 2.83942 21.0942 4.30192C11.7404 7.74336 5.99129 16.7393 5.64799 26.9519C2.77643 27.8972 1.82827 31.7665 4.04944 33.9235C4.44066 34.3156 4.90558 34.6263 5.41742 34.8379C5.92926 35.0494 6.4779 35.1577 7.03174 35.1563H9.84424C9.80276 42.6533 14.2964 49.7695 21.0942 52.9474V59.8862L16.8755 64.105C16.8783 63.537 16.8734 61.0796 16.8755 60.4688C16.547 51.1666 3.14311 51.1617 2.81299 60.4688C2.81563 62.263 2.81106 72.508 2.81299 74.5313V80.1563C2.81299 80.5292 2.96115 80.8869 3.22487 81.1506C3.4886 81.4144 3.84628 81.5625 4.21924 81.5625H40.7817V85.7813C40.7817 86.1542 40.9299 86.5119 41.1936 86.7756C41.4573 87.0394 41.815 87.1875 42.188 87.1875H53.438C53.8109 87.1875 54.1686 87.0394 54.4324 86.7756C54.6961 86.5119 54.8442 86.1542 54.8442 85.7813V82.9688C54.8442 82.7841 54.8079 82.6012 54.7372 82.4306C54.6665 82.26 54.563 82.105 54.4324 81.9744L52.0317 79.5737V66.0938C52.0317 65.7208 51.8836 65.3631 51.6199 65.0994C51.3561 64.8357 50.9984 64.6875 50.6255 64.6875H40.7817V61.875H47.813C47.9977 61.875 48.1805 61.8387 48.3511 61.768C48.5218 61.6973 48.6768 61.5938 48.8074 61.4632C49.4963 60.775 54.8915 55.3785 55.4268 54.8438H61.8755V60.4688C61.8767 61.5873 62.3216 62.6596 63.1125 63.4505C63.9034 64.2414 64.9757 64.6863 66.0942 64.6875C68.3587 64.7362 70.362 62.7364 70.313 60.4688C70.3124 60.2844 70.3482 60.1017 70.4184 59.9312C70.4885 59.7607 70.5917 59.6057 70.7219 59.4751C71.5682 58.5879 73.1573 59.2416 73.1255 60.4688V65.3906C73.127 66.5738 73.554 67.717 74.3285 68.6114C75.1031 69.5058 76.1734 70.0918 77.3442 70.2624V73.8281C77.2634 77.364 81.229 79.8499 84.3755 78.2773V85.7813C84.3755 86.1542 84.5236 86.5119 84.7874 86.7756C85.0511 87.0394 85.4088 87.1875 85.7817 87.1875C86.1547 87.1875 86.5124 87.0394 86.7761 86.7756C87.0398 86.5119 87.188 86.1542 87.188 85.7813C87.188 66.2068 87.188 23.6602 87.188 4.21877ZM59.063 22.5C59.0642 21.3815 59.5091 20.3092 60.3 19.5183C61.0909 18.7274 62.1632 18.2825 63.2817 18.2813H74.5356C72.7778 20.4763 72.6635 24.068 74.2934 26.3746L73.9492 26.7188H63.2817C62.1632 26.7175 61.0909 26.2726 60.3 25.4817C59.5091 24.6908 59.0642 23.6185 59.063 22.5ZM71.1367 29.5313L70.313 30.355L69.9011 29.9431C69.7706 29.8125 69.6155 29.7089 69.4449 29.6383C69.2743 29.5676 69.0914 29.5312 68.9067 29.5312C68.7221 29.5312 68.5392 29.5676 68.3686 29.6383C68.198 29.7089 68.0429 29.8125 67.9123 29.9431L64.688 33.1675V29.5313H71.1367ZM45.8242 49.2188L43.0117 52.0313H39.6894C41.0047 51.2391 42.2223 50.2951 43.3172 49.2188H45.8242ZM44 43.5C42 43 39.5 40.5 38.5 43C37.947 44.3824 40 45.5 42.1182 46.4028C40.6472 48.0517 38.8665 49.3955 36.8773 50.3578L33.7505 47.2302V37.1451L35.7393 35.1563H46.4067C46.4093 37.9328 45.3104 41.0522 44 43.5ZM50.6255 20.2732C49.9925 18.5766 49.1556 16.9633 48.1331 15.4688H50.6255V20.2732ZM23.9067 6.35627C31.4724 4.08254 42.872 7.4978 45.0005 9.20393V11.7895C43.1085 9.99575 40.9199 8.54367 38.5317 7.4978C38.3619 7.41971 38.1781 7.37628 37.9913 7.37005C37.8044 7.36382 37.6182 7.3949 37.4435 7.46149C37.2688 7.52807 37.1092 7.62882 36.9739 7.75785C36.8386 7.88687 36.7304 8.04157 36.6556 8.21291C36.5808 8.38425 36.5409 8.56878 36.5383 8.75572C36.5357 8.94265 36.5703 9.12823 36.6403 9.30161C36.7102 9.47499 36.814 9.63268 36.9456 9.76546C37.0772 9.89824 37.234 10.0034 37.4067 10.0749C44.0028 12.8962 48.7446 19.5529 49.1679 26.7188H42.188C41.815 26.7188 41.4573 26.8669 41.1936 27.1307C40.9299 27.3944 40.7817 27.7521 40.7817 28.125C40.7817 28.498 40.9299 28.8557 41.1936 29.1194C41.4573 29.3831 41.815 29.5313 42.188 29.5313H52.0317C52.4047 29.5313 52.7624 29.6794 53.0261 29.9432C53.2898 30.2069 53.438 30.5646 53.438 30.9375C53.438 31.3105 53.2898 31.6682 53.0261 31.9319C52.7624 32.1956 52.4047 32.3438 52.0317 32.3438H23.9067V6.35627ZM30.938 37.1451V44.4177L27.7136 41.1931L24.9011 38.3806C24.4853 37.9623 24.2254 37.4141 24.1647 36.8274C24.1039 36.2408 24.2459 35.651 24.5672 35.1563H28.9496L30.938 37.1451ZM23.9067 41.3638L24.7305 42.1875L23.9067 43.0114V41.3638ZM23.9067 46.9888L26.7192 44.1763L33.9811 51.4382C30.663 52.336 27.1507 52.208 23.9067 51.0712V46.9888ZM23.9067 63.8638L33.1679 73.125H23.9067V63.8638ZM7.03174 32.3438C5.1783 32.3004 5.17602 29.5794 7.03174 29.5313H16.8755C18.7266 29.4859 18.7326 26.7659 16.8755 26.7188H9.89469C10.2029 22.3702 11.9486 18.2476 14.857 15.0001C15.6703 14.1516 14.9945 12.6397 13.8375 12.6575C15.821 10.3549 18.3026 8.53388 21.0942 7.33256V32.3438H7.03174ZM18.7676 48.1506C16.8589 46.5649 15.3222 44.5789 14.2662 42.3334C13.2102 40.0879 12.6607 37.6377 12.6567 35.1563H17.6992L21.0942 38.5513V45.8239L18.7676 48.1506ZM16.8755 68.0826L21.0942 63.8638V73.125H16.8755V68.0826ZM5.62549 60.4688C5.62549 59.3499 6.06997 58.2768 6.86114 57.4857C7.6523 56.6945 8.72536 56.25 9.84424 56.25C10.9631 56.25 12.0362 56.6945 12.8273 57.4857C13.6185 58.2768 14.063 59.3499 14.063 60.4688V61.875H5.62549V60.4688ZM5.62549 64.6875H14.063V66.9175L7.85545 73.125H5.62549V64.6875ZM14.063 70.8951V73.125H11.833L14.063 70.8951ZM40.7817 78.75H5.62549V75.9375H40.7817V78.75ZM52.0317 83.5513V84.375H43.5942V81.5625H50.0431L52.0317 83.5513ZM49.2192 67.5V78.75H43.5942V74.5313C43.5942 74.1583 43.4461 73.8006 43.1824 73.5369C42.9186 73.2732 42.5609 73.125 42.188 73.125H37.1455L23.9067 59.8862V54.8438H25.313V60.4688C25.313 60.8417 25.4611 61.1994 25.7249 61.4631C25.9886 61.7269 26.3463 61.875 26.7192 61.875H37.9692V66.0938C37.9692 66.4667 38.1174 66.8244 38.3811 67.0881C38.6448 67.3519 39.0025 67.5 39.3755 67.5H49.2192ZM52.4436 53.8494L47.2306 59.0625H28.1255V54.8438H43.5942C43.7789 54.8438 43.9618 54.8074 44.1324 54.7367C44.303 54.6661 44.458 54.5625 44.5886 54.4319L49.2192 49.8013L52.8554 53.4375L52.4436 53.8494ZM61.8755 52.0313H55.4268L51.208 47.8125L55.4268 43.5938H56.2505V45C56.2505 45.373 56.3986 45.7307 56.6624 45.9944C56.9261 46.2581 57.2838 46.4063 57.6567 46.4063H61.8755V52.0313ZM59.8869 43.5938H59.063V42.7699C61.8008 40.0321 66.1556 35.6775 68.9067 32.9261C69.1124 33.132 69.5248 33.5444 69.7306 33.75C66.874 36.6066 62.74 40.7405 59.8869 43.5938ZM67.5005 39.9576V47.8125H64.688V42.7701L67.5005 39.9576ZM84.3755 73.8281C84.3762 74.1052 84.3219 74.3797 84.2158 74.6357C84.1096 74.8916 83.9538 75.124 83.7573 75.3193C82.4637 76.6447 80.1362 75.6819 80.1567 73.8281V68.9063C80.1567 68.5333 80.0086 68.1756 79.7449 67.9119C79.4811 67.6482 79.1235 67.5 78.7505 67.5H78.0474C77.4881 67.4994 76.9519 67.277 76.5565 66.8815C76.161 66.4861 75.9386 65.9499 75.938 65.3906V60.4688C75.9867 58.2047 73.9868 56.2008 71.7192 56.25C69.4552 56.2017 67.4511 58.2012 67.5005 60.4688C67.5005 60.8417 67.3523 61.1994 67.0886 61.4631C66.8249 61.7269 66.4672 61.875 66.0942 61.875C65.7213 61.875 65.3636 61.7269 65.0999 61.4631C64.8361 61.1994 64.688 60.8417 64.688 60.4688C64.6897 58.5245 64.6868 52.4806 64.688 50.625H68.9067C69.2797 50.625 69.6374 50.4769 69.9011 50.2131C70.1648 49.9494 70.313 49.5917 70.313 49.2188V37.9688C70.3132 37.7388 70.2567 37.5123 70.1485 37.3094L72.7136 34.7444C72.8442 34.6138 72.9478 34.4588 73.0185 34.2882C73.0892 34.1176 73.1255 33.9347 73.1255 33.75C73.1255 33.5653 73.0892 33.3825 73.0185 33.2119C72.9478 33.0412 72.8442 32.8862 72.7136 32.7556L72.3018 32.3438L75.1143 29.5313H80.1567C81.679 29.5329 83.1602 29.0378 84.3755 28.1212V73.8281ZM78.339 26.3066L81.1515 23.4941C81.2821 23.3635 81.3857 23.2084 81.4563 23.0378C81.527 22.8672 81.5634 22.6843 81.5634 22.4997C81.5634 22.315 81.527 22.1321 81.4563 21.9615C81.3857 21.7909 81.2821 21.6359 81.1515 21.5053C81.0209 21.3747 80.8659 21.2711 80.6953 21.2004C80.5246 21.1298 80.3418 21.0934 80.1571 21.0934C79.9724 21.0934 79.7895 21.1298 79.6189 21.2004C79.4483 21.2711 79.2933 21.3747 79.1627 21.5053L76.3502 24.3178C74.9888 21.6294 77.1219 18.208 80.1567 18.2813C81.2752 18.2826 82.3475 18.7275 83.1384 19.5184C83.9293 20.3092 84.3742 21.3815 84.3755 22.5C84.449 25.5347 81.0267 27.668 78.339 26.3066Z" fill="url(#paint0_linear)"/>
<defs>
<linearGradient id="paint0_linear" x1="62.7794" y1="111.445" x2="-4.59833" y2="20.1819" gradientUnits="userSpaceOnUse">
<stop stop-color="#0B0175"/>
<stop offset="1" stop-color="#0063F8"/>
</linearGradient>
</defs>
</svg>
