<svg width="14" height="14" viewBox="0 0 14 14" fill="none" xmlns="http://www.w3.org/2000/svg">
<g opacity="0.5">
<path d="M7.00249 1.39453C10.4763 1.39453 13.3022 3.68542 13.3022 6.50132C13.3022 7.92764 12.5823 9.26526 11.3115 10.2275C11.7318 10.8806 12.2754 11.5418 12.9611 11.7102C13.178 11.764 13.3229 11.9683 13.3004 12.1896C13.2779 12.4118 13.0952 12.5829 12.8712 12.5927C12.8613 12.5927 12.8226 12.5945 12.7578 12.5945C12.2925 12.5945 10.4961 12.5202 8.45773 11.4675C7.99065 11.5615 7.50197 11.6081 7.00249 11.6081C3.52952 11.6081 0.702735 9.31722 0.702735 6.50132C0.702735 3.68542 3.52952 1.39453 7.00249 1.39453Z" fill="black"/>
</g>
</svg>
