<svg width="14" height="14" viewBox="0 0 14 14" fill="none" xmlns="http://www.w3.org/2000/svg">
<g opacity="0.5">
<path d="M14 11.6621V2.36523H10.7058C9.89013 1.19284 8.5333 0.423828 7 0.423828C5.4667 0.423828 4.10988 1.19284 3.29421 2.36523H0V11.6621H5.49609V12.7559H4.26562V13.5762H9.73438V12.7559H8.50391V11.6621H14ZM10.2971 3.27674C10.5491 3.77573 10.6914 4.33932 10.6914 4.93555C10.6914 5.53178 10.5491 6.09536 10.2971 6.59438C9.9313 6.41941 9.49594 6.27665 9.0148 6.17157C9.06369 5.77475 9.08917 5.35948 9.08917 4.93555C9.08917 4.51164 9.06369 4.09634 9.0148 3.69953C9.49597 3.59445 9.9313 3.45168 10.2971 3.27674ZM9.84271 2.58327C9.56465 2.70594 9.23716 2.80935 8.87641 2.88991C8.79498 2.52418 8.69132 2.18405 8.56682 1.87994C8.51449 1.75208 8.45884 1.63231 8.40036 1.52031C8.96449 1.75246 9.45897 2.12032 9.84271 2.58327ZM7 1.24414C7.34992 1.24414 7.80691 1.9022 8.06608 3.02537C7.72305 3.06518 7.36425 3.08626 7 3.08626C6.63573 3.08626 6.27692 3.06518 5.93392 3.02537C6.19309 1.9022 6.65008 1.24414 7 1.24414ZM3.30859 4.93555C3.30859 4.33932 3.45086 3.77573 3.70295 3.27671C4.0687 3.45168 4.50406 3.59445 4.9852 3.69953C4.93631 4.09634 4.91083 4.51164 4.91083 4.93555C4.91083 5.35948 4.93631 5.77475 4.9852 6.17157C4.50403 6.27665 4.0687 6.41941 3.70292 6.59438C3.45086 6.09536 3.30859 5.53178 3.30859 4.93555ZM4.15729 7.28782C4.43535 7.16516 4.76284 7.06174 5.12359 6.98122C5.20502 7.34694 5.30868 7.68707 5.43318 7.99118C5.48551 8.11904 5.54116 8.23881 5.59964 8.35078C5.03552 8.11863 4.54103 7.75078 4.15729 7.28782ZM5.43318 1.87991C5.30868 2.18403 5.20502 2.52418 5.12359 2.88988C4.76284 2.80935 4.43535 2.70591 4.15729 2.58325C4.54103 2.12032 5.03552 1.75246 5.59964 1.52031C5.54118 1.63229 5.48554 1.75205 5.43318 1.87991ZM7 8.62695C6.65008 8.62695 6.19309 7.9689 5.93392 6.84573C6.27695 6.80591 6.63575 6.78483 7 6.78483C7.36427 6.78483 7.72308 6.80591 8.06608 6.84573C7.80691 7.9689 7.34992 8.62695 7 8.62695ZM8.20556 6.03578C7.8184 5.98907 7.4133 5.96457 7 5.96457C6.5867 5.96457 6.1816 5.98907 5.79444 6.03578C5.75403 5.69598 5.73117 5.3282 5.73117 4.93557C5.73117 4.54295 5.75403 4.17517 5.79444 3.83537C6.1816 3.88205 6.5867 3.90657 7 3.90657C7.4133 3.90657 7.8184 3.88207 8.20556 3.83537C8.24597 4.17517 8.26883 4.54295 8.26883 4.93557C8.26883 5.3282 8.24597 5.69598 8.20556 6.03578ZM8.40036 8.35081C8.45884 8.23881 8.51446 8.11904 8.56682 7.99118C8.69132 7.68707 8.79498 7.34691 8.87641 6.98122C9.23716 7.06174 9.56465 7.16518 9.84271 7.28785C9.45897 7.75078 8.96449 8.11863 8.40036 8.35081Z" fill="black"/>
</g>
</svg>
