<svg width="148" height="203" viewBox="0 0 148 203" fill="none" xmlns="http://www.w3.org/2000/svg">
<path d="M120.288 133.054L122.45 66.652C126.465 66.652 126.774 68.1963 125.229 69.4317C123.994 70.42 125.744 74.5791 126.774 76.5351V79.9324C126.568 79.5206 125.785 78.8206 124.303 79.3147C122.82 79.8089 124.303 83.4327 125.229 85.1828L128.936 91.0509C128.421 90.742 126.774 90.1243 124.303 90.1243C121.214 90.1243 123.068 91.0509 123.068 92.2862C123.068 93.2746 125.95 95.1688 127.391 95.9924V112.67C126.671 113.905 125.044 116.747 124.303 118.229C123.376 120.082 122.45 125.024 122.45 128.112C122.45 131.201 124.921 135.216 125.229 137.069C125.477 138.551 123.891 139.951 123.068 140.466C120.288 141.187 113.37 142.999 107.934 144.481C101.14 146.334 100.213 145.408 99.2864 144.481C98.5452 143.74 98.9776 141.907 99.2864 141.084C102.993 140.26 111.578 138.304 116.273 137.069C120.967 135.834 120.906 133.877 120.288 133.054Z" fill="#FFF7CE"/>
<path d="M116.273 45.9594C117.508 52.3834 122.759 55.6365 125.229 56.4601C112.876 60.784 103.919 57.6955 100.522 54.2982C97.1245 50.9009 93.7272 48.739 93.1095 33.2967C83.5353 47.5036 65.0045 63.2548 50.1799 66.652C37.8261 74.0643 43.0765 87.3447 42.4588 86.4182C41.8411 85.4917 39.0615 82.712 35.3553 82.712C31.6492 82.712 31.958 82.712 30.4138 89.1978C28.8696 95.6836 26.09 99.6986 35.3553 112.67C44.6207 125.642 40.2969 142.319 39.0615 144.481C37.8261 146.643 29.1784 161.468 9.10341 151.585C16.8245 149.423 20.5307 140.466 20.2219 129.657C19.913 118.847 10.0299 115.759 9.10341 103.405C8.17687 91.0509 16.5157 87.0359 24.8545 83.6386C25.4722 78.0794 19.913 69.4317 11.5742 49.3567C3.23536 29.2817 20.8396 16.3102 36.5907 13.5306C68.093 -10.8683 102.684 6.11826 111.64 16.3102C120.597 26.5021 118.435 37.6205 116.273 45.9594Z" fill="#FFF7CE"/>
<path d="M42.1502 14.4569C39.0618 13.2215 30.6612 12.3567 21.7664 18.7807C10.648 26.8107 5.70644 35.1495 12.1922 51.5183C18.678 67.8872 23.9283 74.6818 25.1637 80.8587M21.7664 84.8737C14.4571 87.8592 2.67976 98.154 14.0453 115.449C25.4108 132.745 18.7809 144.893 14.0453 148.805M3.85337 148.805C10.2362 153.026 25.5343 158.935 35.6645 148.805C48.3272 136.142 39.6795 117.302 33.1937 111.126C28.0051 106.184 27.3257 96.7128 27.6345 92.5948M38.1353 83.9471C35.4586 81.9911 30.167 80.1792 30.4141 88.5798C30.723 99.0806 39.3706 103.096 42.1502 99.6983M30.4141 56.151C29.0758 61.9161 31.4642 72.0257 51.7245 66.3429C71.9848 60.6602 89.6096 38.8556 95.8894 28.6637M48.0183 69.1225C44.3122 71.7992 38.3823 79.7468 44.3122 90.1241M44.3122 7.66221C53.6805 2.92658 77.9764 -3.70331 100.213 7.66221C122.45 19.0277 119.979 37.7232 115.964 45.6503M93.4187 37.3115C94.1393 47.5033 101.51 65.5399 125.23 56.151M58.5191 22.7957C56.5631 27.6343 49.7479 38.9792 38.1353 45.6503M72.726 29.5903C70.3582 34.7377 62.1017 45.7738 48.0183 48.7388M112.766 61.8331C112.766 63.5634 112.766 66.3429 112.766 69.1225M42.1502 105.875C42.1502 106.549 45.3317 111.015 49.8714 116.281M72.726 63.5634C70.667 63.4604 65.9314 63.5634 63.4606 64.7987M94.3452 63.5634C96.4042 63.4604 101.14 63.5634 103.611 64.7987M82.6091 88.5798C82.6091 90.227 83.0414 93.9538 84.771 95.6833C86.5005 97.4129 81.9914 99.0806 79.5206 99.6983M67.4756 85.8003C68.3483 83.4507 69.4486 79.5692 69.2181 77.1526M67.4756 79.3145C66.9609 82.0941 65.6225 87.2827 64.3872 85.8003C62.8429 83.9472 63.4606 74.9907 67.4756 74.9907C68.5932 74.9907 69.0951 75.8631 69.2181 77.1526M69.2181 77.1526C70.9021 77.4614 74.7026 77.4614 76.4321 74.9907M95.8894 86.1091C96.7621 83.7596 97.8624 79.8781 97.6319 77.4614M95.8894 79.6233C95.3747 82.403 94.0363 87.5916 92.801 86.1091C91.2567 84.256 91.8744 75.2995 95.8894 75.2995C97.007 75.2995 97.5089 76.1719 97.6319 77.4614M97.6319 77.4614C99.3159 77.7703 103.116 77.7703 104.846 75.2995M112.766 69.1225C111.167 97.6664 102.676 112.57 99.2867 118.083C95.8973 123.596 86.6241 132.127 76.4321 135.216C69.944 137.182 57.8238 125.505 49.8714 116.281M112.766 69.1225L123.068 66.3429C124.509 66.3429 127.392 66.8988 127.392 69.1225M127.392 69.1225C126.98 68.4492 125.971 67.7536 125.23 70.358C124.489 72.9624 126.98 76.7965 128.318 78.388M127.392 69.1225C128.833 71.5933 132.457 77.0908 135.422 79.3145C139.128 82.0941 139.128 84.256 139.128 85.8003C139.128 87.0356 138.745 91.267 138.554 93.2283M122.141 70.358L120.288 132.127C120.494 133.363 119.918 136.08 115.964 137.069C112.011 138.057 106.081 139.539 103.611 140.157M99.2867 121.318V143.246C98.9779 144.275 99.4103 146.149 103.611 145.408C105.862 145.01 109.159 144.24 112.258 143.469M119.053 141.701C117.476 142.131 114.942 142.801 112.258 143.469M125.23 137.069C123.171 133.877 120.474 125.085 126.156 115.449C126.541 114.796 126.901 114.18 127.237 113.596M146.849 194.514C143.349 182.366 136.163 156.588 135.422 150.658C134.495 143.246 134.804 143.246 135.422 140.157C136.039 137.069 139.437 122.862 139.128 115.449C139.005 112.5 138.833 109.063 138.554 105.875M112.258 143.469C114.317 145.248 118.806 149.175 120.288 150.658C121.771 152.14 123.377 180.513 123.994 194.514M78.5941 137.069C78.5941 143.554 79.2117 157.452 81.6825 161.159C87.9624 161.159 101.943 161.529 107.626 163.012M49.8714 116.281C50.9009 121.151 52.5275 133.363 50.7979 143.246C49.0684 153.129 46.577 161.365 45.5476 164.247C33.6055 167.233 9.28906 173.451 7.55952 174.439C5.3976 175.674 0.764911 175.983 2.30914 186.175C3.54452 194.329 5.29465 199.456 6.0153 201M31.3407 174.439C42.2532 179.381 68.0315 187.658 83.8444 181.234C99.6573 174.81 103.611 169.086 103.611 167.027M128.318 88.5798C126.156 86.4179 122.265 81.6 123.994 79.6233C126.156 77.1526 132.951 85.8002 135.422 88.5798C136.92 90.2659 137.965 91.8384 138.554 93.2283M138.554 105.875C138.132 101.051 137.464 96.7992 136.348 95.6833C134.495 93.8302 128.318 90.1241 125.23 90.1241C122.141 90.1241 122.141 91.0506 123.068 92.5948C123.603 93.4864 125.579 94.3779 127.392 95.745M138.554 105.875C138.745 103.096 139.128 97.1658 139.128 95.6833C139.128 94.9543 138.937 94.1297 138.554 93.2283M127.392 95.745C128.719 96.7458 129.958 98.0014 130.48 99.6983C131.649 103.496 133.093 103.425 127.237 113.596M127.392 95.745L127.237 113.596M83.8444 105.875C81.5796 106.184 76.1851 106.616 72.726 105.875C73.6525 116.994 77.6675 115.449 78.5941 114.523C79.3353 113.782 82.4032 108.449 83.8444 105.875Z" stroke="#A59F9A" stroke-width="2.2" stroke-linecap="round" stroke-linejoin="round"/>
</svg>
