<svg width="80" height="80" viewBox="0 0 80 80" fill="none" xmlns="http://www.w3.org/2000/svg">
<path d="M63.9997 65.0937V10.5486C63.9997 8.74112 62.5344 7.27588 60.727 7.27588H19.2727C17.4652 7.27588 16 8.74112 16 10.5486V65.0937C16 66.9011 17.4652 68.3664 19.2727 68.3664H20.56C20.0669 69.7249 20.5233 71.246 21.6828 72.1087C22.8423 72.9713 24.4304 72.9713 25.5899 72.1087C26.7493 71.246 27.2057 69.7249 26.7127 68.3664H53.287C52.794 69.7249 53.2503 71.246 54.4098 72.1087C55.5693 72.9713 57.1574 72.9713 58.3169 72.1087C59.4764 71.246 59.9328 69.7249 59.4397 68.3664H60.727C62.5344 68.3664 63.9997 66.9011 63.9997 65.0937ZM60.727 66.1846H41.0907V38.912H49.818V45.3374C49.8159 46.1824 50.3018 46.9525 51.0652 47.3144C51.8287 47.6763 52.7325 47.5649 53.3852 47.0283L61.8179 40.1229V65.0937C61.8179 65.6962 61.3295 66.1846 60.727 66.1846ZM61.8179 37.3084L51.9998 45.3374L51.9998 19.2758C51.9986 18.9457 52.147 18.6329 52.4034 18.4249L61.8179 10.7886V37.3084ZM51.9998 15.8831V13.8213H54.5197L51.9998 15.8831ZM49.818 16.0031H45.4543V13.8213H49.818V16.0031ZM45.4543 18.1849H49.818V25.8212H45.4543V18.1849ZM49.818 36.7302H45.4543V34.5484H49.818V36.7302ZM57.0397 11.7595C56.5488 11.6395 56.8106 11.6395 51.9998 11.6395C51.6156 11.6435 51.2393 11.7488 50.9089 11.9449C50.2107 11.5413 50.167 11.6395 45.4543 11.6395C44.2494 11.6395 43.2725 12.6163 43.2725 13.8213V25.8212H41.0907V9.45768H59.8652L57.0397 11.7595ZM41.0907 28.003H49.818V32.3666H45.4543C44.2494 32.3666 43.2725 33.3434 43.2725 34.5484V36.7302H41.0907V28.003ZM19.2727 9.45768H38.9089V36.7302H18.1818V10.5486C18.1818 9.9461 18.6702 9.45768 19.2727 9.45768ZM18.1818 65.0937V38.912H38.9089V66.1846H19.2727C18.6702 66.1846 18.1818 65.6962 18.1818 65.0937ZM24.7272 69.4573C24.7272 70.0598 24.2388 70.5482 23.6363 70.5482C23.0338 70.5482 22.5454 70.0598 22.5454 69.4573C22.5454 68.8548 23.0338 68.3664 23.6363 68.3664C24.2388 68.3664 24.7272 68.8548 24.7272 69.4573ZM57.4543 69.4573C57.4543 70.0598 56.9659 70.5482 56.3634 70.5482C55.7609 70.5482 55.2725 70.0598 55.2725 69.4573C55.2725 68.8548 55.7609 68.3664 56.3634 68.3664C56.9659 68.3664 57.4543 68.8548 57.4543 69.4573Z" fill="#A59F9A"/>
<path d="M22.5456 22.5487H23.6365C24.239 22.5487 24.7274 22.0603 24.7274 21.4578C24.7274 20.8553 24.239 20.3669 23.6365 20.3669H22.5456V13.8215H23.6365C24.239 13.8215 24.7274 13.333 24.7274 12.7306C24.7274 12.1281 24.239 11.6396 23.6365 11.6396H22.5456C21.3406 11.6396 20.3638 12.6165 20.3638 13.8215V20.3669C20.3638 21.5718 21.3406 22.5487 22.5456 22.5487Z" fill="#A59F9A"/>
<path d="M21.4547 26.9123C22.0572 26.9123 22.5456 26.4239 22.5456 25.8214C22.5456 25.2189 22.0572 24.7305 21.4547 24.7305C20.8522 24.7305 20.3638 25.2189 20.3638 25.8214C20.3638 26.4239 20.8522 26.9123 21.4547 26.9123Z" fill="#A59F9A"/>
<path d="M46.5452 43.2756C47.1477 43.2756 47.6361 42.7871 47.6361 42.1847C47.6361 41.5822 47.1477 41.0938 46.5452 41.0938H45.4543C44.2493 41.0938 43.2725 42.0706 43.2725 43.2756V49.821C43.2725 51.0259 44.2493 52.0028 45.4543 52.0028H46.5452C47.1477 52.0028 47.6361 51.5143 47.6361 50.9119C47.6361 50.3094 47.1477 49.821 46.5452 49.821H45.4543V43.2756H46.5452Z" fill="#A59F9A"/>
<path d="M44.3634 56.3664C44.9658 56.3664 45.4543 55.878 45.4543 55.2755C45.4543 54.673 44.9658 54.1846 44.3634 54.1846C43.7609 54.1846 43.2725 54.673 43.2725 55.2755C43.2725 55.878 43.7609 56.3664 44.3634 56.3664Z" fill="#A59F9A"/>
<path d="M24.7274 50.9119C24.7274 50.3094 24.239 49.821 23.6365 49.821H22.5456V43.2756H23.6365C24.239 43.2756 24.7274 42.7871 24.7274 42.1847C24.7274 41.5822 24.239 41.0938 23.6365 41.0938H22.5456C21.3406 41.0938 20.3638 42.0706 20.3638 43.2756V49.821C20.3638 51.0259 21.3406 52.0028 22.5456 52.0028H23.6365C24.239 52.0028 24.7274 51.5143 24.7274 50.9119Z" fill="#A59F9A"/>
<path d="M21.4547 56.3664C22.0572 56.3664 22.5456 55.878 22.5456 55.2755C22.5456 54.673 22.0572 54.1846 21.4547 54.1846C20.8522 54.1846 20.3638 54.673 20.3638 55.2755C20.3638 55.878 20.8522 56.3664 21.4547 56.3664Z" fill="#A59F9A"/>
<path d="M55.2725 20.3667C54.6701 20.3667 54.1816 20.8551 54.1816 21.4576V30.1848C54.1816 30.7873 54.6701 31.2757 55.2725 31.2757C55.875 31.2757 56.3634 30.7873 56.3634 30.1848V21.4576C56.3634 20.8551 55.875 20.3667 55.2725 20.3667Z" fill="#A59F9A"/>
</svg>
