<svg width="196" height="203" viewBox="0 0 196 203" fill="none" xmlns="http://www.w3.org/2000/svg">
<path d="M19.3025 189.675L2.23486 119.295L92.3671 126.007L106.75 182.196L135.707 184.689V189.675L111.352 200.798L19.3025 193.319V189.675Z" fill="#E9E9E9"/>
<path d="M81.4311 80.7283L80.1258 40.6378C77.7017 40.6378 77.5152 41.5701 78.4476 42.316C79.1934 42.9127 78.1368 45.4238 77.5152 46.6048L77.5152 48.6559C77.6396 48.4073 78.1119 47.9846 79.007 48.283C79.902 48.5813 79.007 50.7692 78.4476 51.8258L76.21 55.3687C76.5207 55.1823 77.5152 54.8093 79.007 54.8093C80.8717 54.8093 79.7528 55.3687 79.7528 56.1146C79.7528 56.7113 78.0125 57.855 77.1423 58.3522L77.1423 68.4214C77.5774 69.1673 78.5595 70.8828 79.007 71.7779C79.5664 72.8967 80.1258 75.8801 80.1258 77.7448C80.1258 79.6095 78.634 82.0336 78.4476 83.1524C78.2984 84.0474 79.2556 84.8927 79.7528 85.2035C81.4311 85.6386 85.6079 86.7326 88.8898 87.6276C92.992 88.7464 93.5514 88.187 94.1108 87.6276C94.5584 87.1801 94.2973 86.0737 94.1108 85.5765C91.8732 85.0792 86.6894 83.8982 83.8551 83.1524C81.0208 82.4065 81.0581 81.2255 81.4311 80.7283Z" fill="#FCE1E1"/>
<path d="M83.8551 28.1445C83.1093 32.023 79.9393 33.9871 78.4476 34.4844C85.9063 37.0949 91.3138 35.2303 93.365 33.1791C95.4161 31.128 97.4673 29.8227 97.8402 20.4993C103.621 29.0768 114.809 38.5867 123.759 40.6378C131.218 45.113 128.048 53.1311 128.421 52.5717C128.794 52.0123 130.472 50.3341 132.71 50.3341C134.947 50.3341 134.761 50.3341 135.693 54.2499C136.625 58.1658 138.304 60.5898 132.71 68.4215C127.116 76.2531 129.726 86.3223 130.472 87.6276C131.218 88.9329 136.439 97.8833 148.559 91.9164C143.898 90.6111 141.66 85.2035 141.847 78.6772C142.033 72.1508 148 70.2861 148.559 62.8274C149.119 55.3687 144.084 52.9447 139.05 50.8935C138.677 47.5371 142.033 42.316 147.068 30.1956C152.102 18.0753 141.474 10.2436 131.964 8.5654C112.944 -6.16553 92.0597 4.09017 86.6521 10.2436C81.2446 16.397 82.5499 23.1099 83.8551 28.1445Z" fill="#FCE1E1"/>
<path d="M174.884 111.56C170.314 110.489 164.921 111.106 162.796 111.548C163.353 116.043 164.588 125.997 165.076 129.851C165.686 134.667 170.052 159.562 170 167.043C169.957 173.028 166.797 176.98 165.222 178.207C170.069 178.622 180.719 179.558 184.542 179.991C190.298 168.283 187.693 130.59 187.208 121.94C186.724 113.29 180.596 112.898 174.884 111.56Z" fill="#FCE0E0"/>
<path d="M128.607 9.12458C130.472 8.37871 135.544 7.8566 140.914 11.7351C147.627 16.5833 150.61 21.6179 146.695 31.5006C142.779 41.3834 139.609 45.4857 138.863 49.2151M140.914 51.6391C145.327 53.4417 152.438 59.6572 145.576 70.0994C138.714 80.5416 142.717 87.876 145.576 90.2379M151.729 90.2379C147.876 92.7863 138.639 96.354 132.523 90.2379C124.878 82.5927 130.099 71.2182 134.015 67.4889C137.147 64.5054 137.558 58.7871 137.371 56.3008M131.031 51.0797C132.647 49.8988 135.842 48.8048 135.693 53.8767C135.507 60.2166 130.285 62.6407 128.607 60.5896M135.693 34.2977C136.501 37.7784 135.059 43.8821 122.827 40.4511C110.594 37.0201 99.9534 23.8555 96.1619 17.702M125.064 42.1293C127.302 43.7453 130.882 48.5438 127.302 54.8091M127.302 5.02226C121.646 2.16309 106.977 -1.83975 93.5514 5.02226C80.1257 11.8843 81.6174 23.1718 84.0415 27.9578M97.6537 22.9232C97.2186 29.0766 92.7682 39.9662 78.4475 34.2977M118.724 14.1592C119.905 17.0805 124.02 23.9301 131.031 27.9578M110.147 18.2615C111.577 21.3693 116.561 28.0324 125.064 29.8225M85.9727 37.7282C85.9727 38.7729 85.9727 40.4511 85.9727 42.1293M128.607 64.319C128.607 64.7255 126.686 67.4223 123.946 70.6016M110.147 38.7729C111.39 38.7108 114.249 38.7729 115.741 39.5188M97.0942 38.7729C95.8511 38.7108 92.992 38.7729 91.5002 39.5188M104.18 53.8767C104.18 54.8712 103.919 57.1213 102.875 58.1655C101.831 59.2097 104.553 60.2166 106.045 60.5896M113.317 52.1986C112.79 50.78 112.126 48.4365 112.265 46.9775M113.317 48.2827C113.628 49.961 114.436 53.0936 115.182 52.1986C116.114 51.0798 115.741 45.6722 113.317 45.6722C112.642 45.6722 112.339 46.1989 112.265 46.9775M112.265 46.9775C111.248 47.1639 108.954 47.1639 107.909 45.6722M96.1619 52.385C95.635 50.9665 94.9707 48.623 95.1099 47.1639M96.1619 48.4692C96.4727 50.1474 97.2807 53.2801 98.0266 52.385C98.9589 51.2662 98.586 45.8587 96.1619 45.8587C95.4872 45.8587 95.1841 46.3854 95.1099 47.1639M95.1099 47.1639C94.0931 47.3504 91.7986 47.3504 90.7544 45.8587M85.9727 42.1293C86.9382 59.3628 92.0644 68.3608 94.1108 71.6895C96.1571 75.0182 101.756 80.1687 107.909 82.0334C111.827 83.2204 119.144 76.1708 123.946 70.6016M85.9727 42.1293L79.7528 40.4511C78.8826 40.4511 77.1422 40.7867 77.1422 42.1293M77.1422 42.1293C77.3909 41.7227 78 41.3028 78.4475 42.8752C78.895 44.4476 77.3908 46.7625 76.5828 47.7233M77.1422 42.1293C76.2721 43.621 74.0842 46.9402 72.2941 48.2827C70.0565 49.961 70.0565 51.2662 70.0565 52.1986C70.0565 52.9444 70.2873 55.4991 70.4028 56.6833M80.3122 42.8752L81.431 80.1687C81.3067 80.9146 81.6547 82.5555 84.0415 83.1522C86.4283 83.7489 90.0085 84.6439 91.5002 85.0168M94.1108 73.6423L94.1108 86.8815C94.2972 87.5031 94.0362 88.6343 91.5002 88.1868C90.1412 87.947 88.1501 87.4822 86.2791 87.0164M82.1768 85.9492C83.1287 86.2088 84.6589 86.613 86.2791 87.0164M78.4475 83.1522C79.6906 81.2253 81.3191 75.9172 77.8881 70.0994C77.6556 69.7051 77.4383 69.3327 77.2356 68.9806M64.3964 122.337C66.5097 115.002 71.8466 94.9369 72.2941 91.3567C72.8535 86.8815 72.667 86.8815 72.2941 85.0168C71.9211 83.1522 69.87 74.5747 70.0565 70.0994C70.1307 68.319 70.2343 66.2434 70.4028 64.3189M86.2791 87.0164C85.036 88.0902 82.326 90.4617 81.431 91.3567C80.5359 92.2518 79.4965 115.324 79.1235 123.778M106.604 83.1522C106.604 87.068 106.256 94.3649 104.764 96.6025C100.972 96.6025 86.0178 99.1214 82.5868 100.016M123.946 70.6016C123.324 73.542 124.401 80.1599 125.445 86.1268C126.489 92.0938 126.019 94.0357 129.566 95.8785C136.776 97.681 150.117 98.618 151.161 99.2147M138.477 101.844C132.801 104.414 93.3548 117.535 93.3548 100.834M76.5828 53.8767C77.8881 52.5715 80.2376 49.6626 79.1934 48.4692C77.8881 46.9775 73.7858 52.1985 72.2941 53.8767C71.3892 54.8947 70.7588 55.8441 70.4028 56.6833M70.4028 64.3189C70.6577 61.4061 71.061 58.8392 71.7347 58.1655C72.8535 57.0467 76.5828 54.8091 78.4475 54.8091C80.3122 54.8091 80.3122 55.3685 79.7528 56.3008C79.4298 56.8391 78.2367 57.3774 77.1422 58.2028M70.4028 64.3189C70.2873 62.6407 70.0565 59.0606 70.0565 58.1655C70.0565 57.7254 70.1719 57.2275 70.4028 56.6833M77.1422 58.2028C76.3411 58.807 75.5928 59.565 75.2775 60.5896C74.5721 62.8822 73.6999 62.8397 77.2356 68.9806M77.1422 58.2028L77.2356 68.9806M89.4099 114.328C88.2761 119.664 87.101 120.393 84.6307 125.525M147.58 125.057C145.785 131.074 142.168 143.875 142.068 146.942C141.968 150.009 141.859 153.331 141.817 154.609M110.186 196.362L19.2688 189.552M110.186 196.362L135.9 184.539M110.186 196.362L106.635 182.239M19.2688 189.552L2.00003 119.145L92.5275 126.135L101.478 161.732M19.2688 189.552L19.1434 193.385L111.185 201L135.743 189.331L135.9 184.539M135.9 184.539L106.635 182.239M155.858 100.768C158.098 100.713 162.875 104.451 164.06 119.839C165.542 139.075 169.769 156.482 169.971 162.053C170.173 167.624 169.73 175.284 165.222 178.207M165.222 178.207L150.297 176.951M165.222 178.207L194.682 180.897M150.297 176.951C150.818 161.005 141.404 157.857 136.631 158.277M150.297 176.951C142.728 177.088 126.038 177.079 119.821 175.955M116.78 175.088C114.194 176.091 108.331 178.073 105.565 177.983M105.565 177.983L101.478 161.732M105.565 177.983L106.635 182.239M101.478 161.732C103.371 162.561 108.929 164.048 116.012 163.358C123.095 162.669 133.622 160.736 138 159.856M168.374 111.154C173.755 110.883 184.922 112.041 186.542 118.848C188.566 127.356 189.948 161.363 185.372 178.098M103.434 64.3189C104.802 64.5054 108.059 64.7665 110.147 64.3189C110.873 68.2131 105.299 68.572 104.739 68.0126C104.292 67.5651 104.304 65.8728 103.434 64.3189Z" stroke="#A59F9A" stroke-width="2.2" stroke-linecap="round" stroke-linejoin="round"/>
</svg>
