<svg width="190" height="203" viewBox="0 0 190 203" fill="none" xmlns="http://www.w3.org/2000/svg">
<path d="M107.852 39.3112C108.905 44.7853 113.379 47.5575 115.484 48.2593C104.957 51.9437 97.3248 49.312 94.4299 46.417C91.5349 43.5221 88.64 41.6799 88.1136 28.521C79.9552 40.6271 64.1645 54.0492 51.532 56.9441C41.005 63.2603 45.479 74.577 44.9526 73.7874C44.4263 72.9979 42.0577 70.6293 38.8995 70.6293C35.7414 70.6293 36.0046 70.6293 34.6887 76.156C33.3728 81.6827 31.0042 85.104 38.8995 96.1575C46.7949 107.211 43.1104 121.422 42.0577 123.265C41.005 125.107 33.636 137.739 16.5295 129.318C23.1089 127.476 26.2671 119.843 26.0039 110.632C25.7407 101.421 17.319 98.7892 16.5295 88.2622C15.7399 77.7351 22.8457 74.3138 29.9515 71.4188C30.4779 66.6817 25.7407 59.3127 18.6349 42.2062C11.5291 25.0997 26.5302 14.0463 39.9522 11.6777C66.7963 -9.1133 96.2721 5.36142 103.904 14.0463C111.536 22.7311 109.694 32.2055 107.852 39.3112Z" fill="#FFF7CE"/>
<path d="M44.6912 12.4671C42.0594 11.4144 34.901 10.6775 27.3215 16.1516C17.8471 22.9942 13.6363 30.0999 19.163 44.0483C24.6897 57.9966 29.1637 63.7865 30.2164 69.0501M27.3215 72.4714C21.093 75.0154 11.0572 83.788 20.7421 98.5259C30.427 113.264 24.7775 123.615 20.7421 126.949M12.0572 126.949C17.4962 130.546 30.5323 135.581 39.1645 126.949C49.9547 116.159 42.5858 100.105 37.0591 94.8414C32.6377 90.6306 32.0587 82.5598 32.3219 79.0508M41.2699 71.6818C38.989 70.0151 34.4799 68.4711 34.6905 75.6295C34.9536 84.5775 42.3226 87.9988 44.6912 85.1039M34.6905 47.9959C33.55 52.9085 35.5853 61.5232 52.8497 56.6808C70.1141 51.8383 85.1327 33.258 90.484 24.5732M49.6916 59.0493C46.5334 61.3302 41.4804 68.1026 46.5334 76.9454M46.5334 6.67713C54.5165 2.64175 75.2197 -3.00778 94.1684 6.67713C113.117 16.362 111.012 32.2931 107.59 39.0479M88.3786 31.9422C88.9926 40.627 95.2738 55.9965 115.486 47.9959M58.6396 19.5728C56.9728 23.6959 51.1653 33.3633 41.2699 39.0479M70.7457 25.3627C68.728 29.749 61.6924 39.1532 49.6916 41.6797M104.865 52.8378C104.865 54.3122 104.865 56.6808 104.865 59.0493C103.502 83.3725 96.2672 96.0721 93.3789 100.77C90.4907 105.468 82.5887 112.737 73.9038 115.369C68.3751 117.045 58.0471 107.095 51.2706 99.2346M44.6912 90.3674C44.6912 90.9413 47.4022 94.7475 51.2706 99.2346M70.7457 54.3122C68.9912 54.2245 64.9558 54.3122 62.8504 55.3649M89.1681 54.3122C90.9226 54.2245 94.958 54.3122 97.0634 55.3649M79.1674 75.6295C79.1674 77.0331 79.5358 80.2088 81.0096 81.6826C82.4834 83.1564 78.641 84.5775 76.5356 85.1039M81.9076 90.1757C78.5077 92.3722 73.6718 92.18 70.7457 90.3674M66.2717 73.2609C67.0153 71.2589 67.9529 67.9513 67.7565 65.892M66.2717 67.7342C65.8331 70.1028 64.6926 74.5242 63.6399 73.2609C62.324 71.6819 62.8504 64.0497 66.2717 64.0497C67.224 64.0497 67.6517 64.7932 67.7565 65.892M67.7565 65.892C69.1915 66.1552 72.43 66.1552 73.9038 64.0497M90.484 73.5241C91.2276 71.522 92.1652 68.2145 91.9688 66.1552M90.484 67.9974C90.0453 70.366 88.9049 74.7874 87.8522 73.5241C86.5363 71.9451 87.0627 64.3129 90.484 64.3129C91.4363 64.3129 91.864 65.0563 91.9688 66.1552M91.9688 66.1552C93.4038 66.4183 96.6423 66.4183 98.1161 64.3129M75.7461 116.948C74.9402 121.894 73.8898 130.772 75.9953 133.93C81.7771 135.785 85.0368 136.316 88.2965 136.847M51.2706 99.2346C53.6683 110.577 52.9886 121.878 49.1203 132.709C36.737 133.922 13.7148 137.167 10.1403 138.714C8.19304 139.557 3.51784 140.069 2.5204 153.595C2.00362 160.603 1.74262 188.757 2.3567 190.073M35.8196 139.552C43.547 143.051 69.3618 154.447 85.2697 146.088M21.0844 168.484C21.3502 173.699 21.581 185.6 20.3782 191.488M85.2528 168.596C86.6123 171.454 89.0101 178.395 87.7248 183.297C87.2497 185.108 86.3515 186.904 85.2982 188.681M78.7562 201C79.4023 197.035 82.7899 192.912 85.2982 188.681M85.2982 188.681C86.8074 188.927 100.176 200.231 104.028 200.859C107.88 201.487 116.393 194.052 117.916 192.17M130.88 187.286C124.222 188.939 108.878 190.88 100.764 185.421C90.6199 178.597 93.3606 163.644 94.9721 153.753C96.7586 142.789 97.5565 128.557 97.1685 119.736C96.7805 110.915 99.701 96.7251 103.132 103.672C106.563 110.62 106.783 116.74 107.244 121.378M163.815 136.375L164.347 133.115M108.634 112.847L116.797 62.7455C117.685 57.2945 122.824 53.5957 128.275 54.4838L166.024 60.6345C171.475 61.5227 175.174 66.6616 174.286 72.1125L166.906 117.41M106.713 124.637L99.485 168.997C98.5968 174.448 102.296 179.587 107.747 180.475L145.496 186.626C150.947 187.514 156.086 183.815 156.974 178.364L157.442 175.491M159.004 136.83L169.753 72.6863C170.298 69.4383 168.122 66.3586 164.879 65.786L128.833 59.4218C125.551 58.8425 122.427 61.0476 121.873 64.3332L104.313 168.515C103.765 171.765 105.941 174.848 109.186 175.421L145.432 181.821C148.633 182.386 151.701 180.3 152.353 177.116L152.775 175.057M166.906 117.41C170.372 116.048 178.757 113.378 184.563 113.594C191.819 113.864 187.201 119.804 180.206 123.531C174.609 126.513 167.301 131.163 164.347 133.115M166.906 117.41L164.347 133.115M168.307 149.883C170.411 149.415 175.08 147.519 176.922 143.682C179.225 138.886 176.944 136.081 169.301 138.181C161.658 140.282 158.611 144.045 158.273 146.119C157.935 148.193 160.319 152.232 168.307 149.883ZM168.307 149.883C164.87 150.439 157.743 152.36 156.728 155.602C155.459 159.654 157.051 162.955 164.501 162.04M168.307 149.883C176.102 148.72 177.052 152.221 176.569 155.184C176.086 158.148 171.951 161.124 164.501 162.04M164.501 162.04C161.838 162.823 156.17 165.002 154.797 167.455C153.08 170.522 156.498 173.816 159.606 173.41C162.714 173.004 169.456 172.705 170.145 166.61C170.696 161.733 166.612 161.531 164.501 162.04Z" stroke="#A59F9A" stroke-width="2.2" stroke-linecap="round" stroke-linejoin="round"/>
<ellipse cx="128.044" cy="122.683" rx="8.79331" ry="11.4695" transform="rotate(7.47525 128.044 122.683)" stroke="#A59F9A" stroke-width="2.2"/>
<path d="M142.804 113.052C142.918 115.306 142.845 119.735 142.155 124.896M139.82 135.796C140.959 132.122 141.695 128.345 142.155 124.896M142.155 124.896C143.835 124.724 146.208 124.185 148.453 123.121M154.897 114.638C154.726 118.905 151.727 121.57 148.453 123.121M148.453 123.121C150.073 124.321 153.032 128.854 151.913 137.383" stroke="#A59F9A" stroke-width="2.2" stroke-linecap="round" stroke-linejoin="round"/>
</svg>
