<svg width="143" height="204" viewBox="0 0 143 204" fill="none" xmlns="http://www.w3.org/2000/svg">
<path d="M57.5067 9.08333C57.5067 7.41667 60.1498 5.88889 61.4714 5.33333L65.4363 4.91667L72.0442 2.83333L78.6522 2L90.1059 5.75L90.5464 8.66667L94.5112 11.1667V16.5833C94.8049 17.2778 95.5685 18.8333 96.2733 19.5C97.1544 20.3333 96.2733 25.75 96.7138 26.1667C97.0663 26.5 95.0986 28.5278 94.0707 29.5L91.4275 31.1667V26.5833C90.987 23.1111 90.1059 15.9167 90.1059 14.9167C90.1059 13.9167 87.4627 12 86.1411 11.1667L85.2601 14.0833L82.6169 13.6667L76.4495 9.08333C76.4495 9.77778 76.6257 11.3333 77.3306 12C78.0354 12.6667 76.4495 13.1111 75.5685 13.25L69.4011 9.91667V13.25L64.1147 10.75C63.0868 12.1389 60.8548 15.4167 60.15 17.4167C59.2689 19.9167 60.15 32 59.2689 30.75C58.5641 29.75 57.213 30.6111 56.6256 31.1667C56.332 30.75 55.6566 29.75 55.3041 29.0833L53.1014 24.9167C52.7489 24.25 55.304 22.1389 56.6256 21.1667C56.0382 20.8889 54.5111 19.9167 53.1014 18.25C51.3393 16.1667 55.304 13.25 56.6256 12.4167C57.9472 11.5833 57.5067 11.1667 57.5067 9.08333Z" fill="#C4C4C4"/>
<path d="M7.72705 175.75L11.6918 173.25L14.335 170.75L18.7403 171.167L25.7887 173.25L28.8724 177L27.5508 178.667H24.9077L19.6213 177.833L20.5024 181.167L22.2645 183.25L26.6698 181.167L29.7535 177H32.3967L33.7182 179.083C32.984 180.472 31.5156 183.333 31.5156 183.667C31.5156 184 26.8166 188.806 24.4671 191.167L26.6698 191.583L35.9209 186.167L37.683 187L38.1235 189.917L39.4451 192C38.4172 194.083 35.216 198.833 30.6345 201.167C24.9077 204.083 21.824 198.25 17.8592 195.333C14.6874 193 9.78285 184.083 7.72705 179.917V175.75Z" fill="#C4C4C4"/>
<path d="M113.454 173.667L118.3 177L120.062 176.583C121.237 177.139 123.674 178.25 124.027 178.25C124.379 178.25 125.348 181.861 125.789 183.667L124.027 189.083L117.419 193.667L105.965 201.167L102 202C100.972 201.722 98.7403 201.167 98.0354 201.167C97.3306 201.167 95.9796 199.5 95.3923 198.667L94.0707 194.5L93.1896 190.333L94.0707 189.083C93.9238 187.972 93.9826 185.833 95.3923 186.167C96.8019 186.5 102.441 189.083 105.084 190.333C102.734 187.833 97.683 182.25 96.2733 179.917C94.5112 177 98.0354 176.167 98.9165 176.167C99.6213 176.167 106.552 181.167 109.93 183.667L108.608 180.333L106.846 178.25L102.441 174.917V173.25L106.846 172.417L113.454 173.667Z" fill="#C4C4C4"/>
<path d="M23.5857 172L22.2642 104.083L102.44 102L107.727 106.167L109.489 172.833L102.44 173.25L102.881 175.75L106.846 178.25L109.489 182.417L105.084 180.75L102.44 179.083L97.5946 176.167L96.7135 177.417V180.75L103.762 189.083L95.8324 186.167H93.6298V188.667L40.3258 190.75L37.6827 190.333V187L36.3611 186.167L24.9073 191.583C27.8442 188.528 33.6298 181.75 33.2774 179.083C32.925 176.417 30.4874 176.861 29.3126 177.417L23.5857 172Z" fill="#FFF7CE"/>
<path d="M23.5857 172L22.2642 104.083L102.44 102L107.727 106.167L109.489 172.833L102.44 173.25L102.881 175.75L106.846 178.25L109.489 182.417L105.084 180.75L102.44 179.083L97.5946 176.167L96.7135 177.417V180.75L103.762 189.083L95.8324 186.167H93.6298V188.667L40.3258 190.75L37.6827 190.333V187L36.3611 186.167L24.9073 191.583C27.8442 188.528 33.6298 181.75 33.2774 179.083C32.925 176.417 30.4874 176.861 29.3126 177.417L23.5857 172Z" stroke="black"/>
<path d="M23.5857 172L22.2642 104.083L102.44 102L107.727 106.167L109.489 172.833L102.44 173.25L102.881 175.75L106.846 178.25L109.489 182.417L105.084 180.75L102.44 179.083L97.5946 176.167L96.7135 177.417V180.75L103.762 189.083L95.8324 186.167H93.6298V188.667L40.3258 190.75L37.6827 190.333V187L36.3611 186.167L24.9073 191.583C27.8442 188.528 33.6298 181.75 33.2774 179.083C32.925 176.417 30.4874 176.861 29.3126 177.417L23.5857 172Z" stroke="url(#paint0_linear)"/>
<path d="M55.7531 29.7405C55.6093 29.3325 54.8905 27.2928 53.7403 26.2049C52.5901 25.1171 53.1652 24.0292 54.8905 22.9413C56.6157 21.8535 56.9032 20.6296 55.3218 19.8137C53.7403 18.9978 51.2962 16.6861 53.7403 14.3744C55.6956 12.5251 57.5262 11.5188 58.1971 11.2468C57.4783 10.7029 56.6732 9.1255 59.2035 7.16735C62.3665 4.71966 65.2419 5.39957 68.2611 4.17572C71.2802 2.95188 72.7179 2 77.7499 2C82.7819 2 86.6637 4.44769 88.2451 4.71966C89.8266 4.99162 91.2643 6.21547 91.2643 7.84726C91.2643 9.47905 91.8394 9.887 93.7084 10.5669C95.5774 11.2468 95.0023 16.8221 94.8586 17.774C94.7148 18.7259 96.7276 20.4937 96.8714 22.3974C97.0151 24.3012 96.7276 26.4769 95.5774 27.9727M93.4209 30.4204C93.5167 30.1484 93.9384 29.5773 94.8586 29.4685C96.0087 29.3325 96.44 30.8283 96.2963 34.4999C96.1525 38.1714 94.4273 42.1149 92.5582 41.571M91.6956 33.548C91.4081 29.8765 90.9193 21.8807 91.2643 19.2698C91.6956 16.0062 88.1014 11.7908 85.9448 10.8389C86.3761 14.3744 85.226 16.1422 80.6253 11.6548C76.9448 8.06483 75.833 8.61783 75.7371 9.34307C76.3122 10.2496 77.3186 12.3619 76.7435 13.5585C76.0247 15.0543 72.4304 9.75102 68.2611 9.34307C69.9863 11.2468 70.5614 13.1506 70.2738 13.5585C70.0438 13.8849 65.8649 11.7001 63.8042 10.5669C62.7499 11.9721 60.4975 15.5983 59.9224 18.8619C59.3473 22.1254 59.6828 30.647 59.9224 34.4999M59.2035 31.3723C58.4847 30.5111 56.8744 29.3053 56.1844 31.3723C55.3218 33.956 55.178 36.9476 56.1844 39.2593C57.1907 41.571 58.6285 42.1149 59.9224 41.9789M59.9224 38.1714C59.6828 44.472 62.4527 57.0458 75.4496 56.937C88.4464 56.8283 91.8873 45.1065 91.9832 39.2593M71.8553 23.3493C71.5199 23.7119 70.3889 24.3828 68.5486 24.1652C66.2483 23.8932 63.6604 24.3012 63.2291 25.661M79.9065 23.3493C80.194 24.1652 83.2132 23.8932 85.226 24.1652C86.8362 24.3828 88.0055 25.0717 88.3889 25.389M82.3506 28.3807C82.2068 28.7886 82.063 29.7133 82.6381 30.1484C83.3569 30.6924 83.7883 28.6526 83.2132 27.4288M67.9735 28.2447C67.8298 28.6526 67.686 29.5773 68.2611 30.0124C68.9799 30.5564 69.4112 28.5166 68.8361 27.2928M74.2994 27.9727C74.3953 30.1031 74.5295 34.7447 74.2994 36.2677C74.0119 38.1714 74.2994 38.1714 75.162 38.4434C75.8521 38.661 77.4624 38.3527 78.1812 38.1714M71.1365 44.0187C71.424 44.0187 78.6125 46.1944 81.9192 42.9308M74.8745 47.4182C75.162 47.2823 78.0374 47.8262 78.7563 47.0103M90.833 47.9622C89.9704 51.5431 89.3378 59.004 93.7084 60.2006C99.1717 61.6964 117.718 67.6797 125.913 78.6943C134.108 89.7089 137.99 110.922 138.133 113.642C127.782 109.97 118.149 110.106 114.555 112.962C113.52 110.025 112.878 102.129 112.686 98.5478M61.0725 47.9622C61.6476 51.3617 61.7339 58.5688 57.4783 60.2006C52.1588 62.2404 28.0054 68.2236 23.836 72.4391C19.6667 76.6545 15.066 81.5499 10.7529 109.562C15.6986 108.039 20.4814 108.928 22.2546 109.562M22.2546 109.562V104.123L102.335 101.811M22.2546 109.562L23.836 170.755M57.4783 61.4245C58.9639 65.4586 64.6381 73.3094 75.4496 72.4391C86.2611 71.5688 91.7435 64.7334 93.1333 61.4245M32.1747 93.9244C32.1268 95.9641 32.146 100.397 32.606 101.811M102.335 101.811L107.942 105.891L108.939 156.612M102.335 101.811L104.204 171.706M109.236 171.706L108.939 156.612M11.4718 111.194C8.97977 120.124 3.70819 139.207 2.55803 144.102C1.12032 150.221 2.7018 163.819 4.57081 169.531C6.06602 174.1 7.01495 176.511 7.30251 177.146M7.30251 177.146C7.82967 175.877 9.63159 173.202 12.622 172.658M7.30251 177.146C6.8712 183.265 21.392 200.943 25.9927 201.895C30.5933 202.847 37.3505 197.135 39.0758 193.328C39.6529 192.054 39.6468 191.243 39.3602 190.744M12.622 172.658C12.0469 173.42 11.9032 174.245 11.9032 174.562M12.622 172.658C13.0054 172.069 14.1747 170.863 15.785 170.755C17.7977 170.619 28.4368 172.114 29.1556 177.962M29.1556 177.962C28.6764 178.415 27.7179 179.376 27.7179 179.593M29.1556 177.962C29.6348 177.599 30.8233 176.928 31.7435 177.146C32.8936 177.418 34.3313 179.05 32.6061 181.905C30.8808 184.761 26.1364 189.928 24.4112 190.744C22.6859 191.56 24.2674 192.648 25.9927 191.968C27.7179 191.288 34.3313 186.801 35.769 186.393C37.2067 185.985 38.932 186.801 37.3505 190.064M17.5102 177.962C17.7312 177.962 18.5181 177.783 19.523 177.701M27.7179 179.593C26.7594 179.276 24.4112 178.506 22.6859 177.962C21.6341 177.63 20.4797 177.622 19.523 177.701M27.7179 179.593C26.8553 180.953 24.555 183.564 22.2546 183.129C19.9543 182.694 19.4751 179.329 19.523 177.701M37.3505 190.064C36.0853 192.675 32.2227 195.594 30.4495 196.727M37.3505 190.064C38.0197 189.959 38.9615 190.05 39.3602 190.744M116.424 175.242C116.424 169.667 118.868 158.516 119.875 154.573C120.881 150.629 121.6 148.045 119.875 142.198C118.494 137.52 115.753 121.574 114.555 114.186C114.459 117.041 113.951 123.895 112.686 128.464C111.421 133.033 109.661 149.133 108.939 156.612M116.424 175.242C113.549 172.522 101.22 171.299 102.191 174.97C102.622 176.602 106.82 178.07 108.086 179.05C109.351 180.029 109.667 182.358 109.667 183.401M116.424 175.242C116.763 175.563 117.092 175.939 117.398 176.33M138.133 114.73C139.427 124.249 141.814 144.51 141.009 149.405C140.003 155.525 137.846 162.596 137.415 165.859C137.07 168.47 129.795 179.276 126.201 184.353M126.201 184.353C126.546 177.826 120.476 176.285 117.398 176.33M126.201 184.353C126.105 186.075 124.418 190.2 118.437 192.92C110.961 196.319 107.079 201.623 103.485 201.759C99.8906 201.895 94.4273 200.535 94.4273 194.28M119.156 179.05C118.944 178.648 118.261 177.432 117.398 176.33M109.667 183.401C109.379 183.401 102.622 179.458 100.322 177.282C98.0216 175.106 95.7213 176.738 96.2963 179.729C96.8714 182.721 103.054 187.752 108.086 191.832C105.354 191.56 100.897 188.16 96.7277 186.393C93.3922 184.978 93.5168 187.345 93.996 188.704M109.667 183.401C110.482 183.718 112.427 184.353 113.693 184.353M99.4593 199.855C96.2484 196.909 90.6605 190.554 93.996 188.704M93.996 188.704C94.8586 191.696 103.772 198.223 104.204 198.359M93.996 188.704L39.3602 190.744" stroke="#A59F9A" stroke-width="2.2" stroke-linecap="round" stroke-linejoin="round"/>
<defs>
<linearGradient id="paint0_linear" x1="65.8765" y1="102" x2="65.8765" y2="191.583" gradientUnits="userSpaceOnUse">
<stop stop-color="white"/>
<stop offset="1" stop-color="white" stop-opacity="0"/>
</linearGradient>
</defs>
</svg>
