<svg width="80" height="80" viewBox="0 0 80 80" fill="none" xmlns="http://www.w3.org/2000/svg">
<path d="M6.08826 51.6297C9.25458 56.4128 10.9977 59.0402 14.383 63.4191C22.3914 73.6676 26.1725 77.6002 29.2883 79.0233C30.4691 79.552 31.7503 79.8192 33.0441 79.8065C38.0546 79.8065 43.4946 76.236 47.6967 73.4823C48.7325 72.7581 49.6841 72.1181 50.5767 71.5791C52.9851 70.1391 53.5409 69.7518 55.4019 68.4886C57.4819 67.0655 61.364 64.4128 71.8146 57.5918C74.3409 55.9076 77.4651 53.9034 78.9051 50.0128C80.3451 46.1223 79.3767 42.3497 78.2398 39.1412C76.1683 33.2465 73.1872 29.4991 69.3304 24.7328C67.9409 23.0065 66.5009 21.2128 64.943 19.116C64.1514 18.0465 63.343 16.9012 62.5009 15.7476C58.7956 10.4844 54.5935 4.5223 49.1451 1.54125C41.6588 -2.52612 32.943 2.36651 26.1809 7.1244C19.4207 11.9013 13.2723 17.4897 7.87353 23.7644C2.383 30.1223 -0.640158 34.9223 0.117737 40.6065C0.244053 41.6086 0.446158 43.116 6.08826 51.6297ZM67.3683 26.3328L68.3872 27.6128C66.1304 30.0634 63.8146 32.4465 61.4819 34.7034C58.9556 37.1623 58.2651 37.6591 57.2714 38.0718C55.0314 39.0065 50.6862 39.6128 48.5556 37.2297C46.2062 34.6276 47.8398 29.6507 49.6841 27.1244C50.5262 25.9286 52.4967 24.5981 56.4714 21.9455C58.1556 20.8339 59.8398 19.756 61.524 18.7118C61.9872 19.3686 62.4504 20.0086 62.9051 20.6234C64.4967 22.737 65.9535 24.5812 67.3683 26.3328ZM9.78511 25.4149C15.0488 19.2949 21.0446 13.8449 27.6377 9.18756C33.7935 4.85072 41.6756 0.311774 47.9325 3.74756C52.6904 6.34967 56.6062 11.7897 60.0672 16.657C58.383 17.6928 56.6988 18.7623 55.0651 19.8655L54.3072 20.3623L54.1219 20.0507C54.0362 19.9086 53.9234 19.7848 53.7898 19.6863C53.6563 19.5878 53.5046 19.5166 53.3435 19.4767C53.1824 19.4368 53.0151 19.4291 52.851 19.4539C52.6869 19.4787 52.5293 19.5355 52.3872 19.6212C52.2451 19.707 52.1213 19.8198 52.0228 19.9534C51.9243 20.0869 51.8531 20.2386 51.8132 20.3997C51.7733 20.5608 51.7656 20.7281 51.7904 20.8922C51.8152 21.0563 51.872 21.2139 51.9577 21.356L52.2104 21.7855C49.9198 23.3602 48.4883 24.4718 47.6293 25.6591C45.3977 28.7328 43.1662 35.0655 46.6693 38.9476C47.4994 39.7853 48.4972 40.4382 49.5972 40.8634C50.6973 41.2886 51.8747 41.4765 53.0525 41.4149C54.8287 41.4133 56.5887 41.0761 58.2398 40.4212C59.5872 39.857 60.5641 39.0823 62.5935 37.1455C62.783 37.255 62.9978 37.313 63.2167 37.3139C63.4548 37.3124 63.6878 37.2454 63.8904 37.1202C64.167 36.9506 64.3671 36.6804 64.4487 36.3663C64.5304 36.0523 64.4872 35.7189 64.3283 35.436C66.2314 33.5581 68.1177 31.6128 69.9619 29.6086C72.4907 32.7177 74.483 36.2269 75.8567 39.9918C77.2714 43.9918 77.4651 46.6444 76.5388 49.1455C75.3851 52.2612 72.7493 53.9791 70.3914 55.5202C59.9577 62.316 56.0672 64.9939 53.9788 66.4255C52.1683 67.6633 51.6209 68.0339 49.2714 69.4402C48.3704 69.9791 47.3683 70.636 46.3156 71.3265C41.5241 74.4676 34.9556 78.7791 30.3156 76.6823C29.7207 76.4081 29.1562 76.0723 28.6314 75.6802C28.8215 75.4602 28.9298 75.1813 28.9381 74.8907C28.9464 74.6001 28.8543 74.3155 28.6772 74.085C28.5 73.8545 28.2488 73.6921 27.9659 73.6252C27.6829 73.5584 27.3856 73.5912 27.1241 73.7181L26.6272 73.9539C24.2441 71.6549 21.0441 67.8655 16.3114 61.8191C12.943 57.6086 11.2588 54.9644 8.13458 50.2402C6.11353 47.1834 4.84195 45.1034 4.02511 43.6549L4.303 43.3097C4.4776 43.0931 4.57582 42.8249 4.58241 42.5468C4.589 42.2687 4.50361 41.9962 4.33947 41.7716C4.17533 41.547 3.94164 41.3829 3.67467 41.3047C3.4077 41.2265 3.12238 41.2386 2.863 41.3391C2.71205 41.0017 2.60997 40.6444 2.55984 40.2781C1.98721 35.5034 4.64826 31.3686 9.78511 25.4149Z" fill="#A59F9A"/>
<path d="M49.5239 17.9706C49.6421 18.1101 49.7891 18.2222 49.9548 18.2992C50.1206 18.3763 50.3011 18.4164 50.4839 18.417C50.7938 18.423 51.0946 18.3117 51.326 18.1054C51.4521 17.998 51.5557 17.8666 51.6308 17.719C51.7059 17.5713 51.751 17.4102 51.7635 17.245C51.7761 17.0798 51.7557 16.9138 51.7038 16.7565C51.6518 16.5992 51.5692 16.4537 51.4607 16.3285C51.0481 15.8485 50.6186 15.3938 50.1975 14.9727C50.0807 14.85 49.9403 14.752 49.7848 14.6846C49.6292 14.6173 49.4617 14.5819 49.2922 14.5806C49.1228 14.5793 48.9547 14.6122 48.7982 14.6772C48.6417 14.7422 48.4998 14.838 48.3811 14.959C48.2624 15.08 48.1692 15.2236 48.1072 15.3813C48.0452 15.5391 48.0155 15.7077 48.02 15.8771C48.0245 16.0465 48.063 16.2133 48.1333 16.3676C48.2036 16.5218 48.3042 16.6603 48.4291 16.7749C48.7828 17.1454 49.1618 17.5496 49.5239 17.9706Z" fill="#A59F9A"/>
<path d="M32.7154 15.3686C32.9536 15.368 33.1869 15.3009 33.3891 15.1749C33.8775 14.8633 34.3575 14.5854 34.8206 14.3328C35.1166 14.1754 35.3378 13.9068 35.4357 13.5862C35.5336 13.2656 35.5002 12.9193 35.3427 12.6233C35.1853 12.3274 34.9167 12.1062 34.5961 12.0082C34.2755 11.9103 33.9292 11.9438 33.6333 12.1012C33.1196 12.3707 32.5891 12.6823 32.0417 13.0276C31.8096 13.1734 31.6312 13.3909 31.5336 13.647C31.4359 13.9032 31.4242 14.1841 31.5003 14.4475C31.5763 14.7109 31.736 14.9424 31.9552 15.107C32.1744 15.2717 32.4412 15.3605 32.7154 15.3602V15.3686Z" fill="#A59F9A"/>
<path d="M27.7894 18.9979C28.0956 19.0077 28.3948 18.9059 28.6315 18.7116C29.0863 18.3326 29.5326 17.9789 29.9705 17.6337C30.2229 17.4234 30.3835 17.1231 30.4182 16.7964C30.4529 16.4697 30.3589 16.1423 30.1562 15.8838C29.9535 15.6252 29.6581 15.4558 29.3325 15.4115C29.007 15.3671 28.677 15.4514 28.4126 15.6463C27.9578 16 27.5031 16.3705 27.0315 16.7579C26.8327 16.9206 26.6882 17.1401 26.6173 17.3871C26.5465 17.6341 26.5526 17.8968 26.635 18.1403C26.7173 18.3837 26.872 18.5962 27.0782 18.7494C27.2845 18.9026 27.5326 18.9893 27.7894 18.9979Z" fill="#A59F9A"/>
<path d="M23.1831 22.956C23.4943 22.9605 23.7956 22.8461 24.0252 22.636L25.3305 21.4991C25.5829 21.2758 25.7362 20.9613 25.7567 20.625C25.7772 20.2886 25.6633 19.9578 25.44 19.7054C25.2166 19.4531 24.9022 19.2997 24.5658 19.2792C24.2294 19.2587 23.8986 19.3726 23.6463 19.596L22.3242 20.7496C22.2002 20.8601 22.0992 20.994 22.027 21.1436C21.9548 21.2932 21.9128 21.4555 21.9034 21.6213C21.894 21.7871 21.9174 21.9532 21.9723 22.11C22.0271 22.2667 22.1124 22.4111 22.2231 22.5349C22.3429 22.6706 22.4909 22.7786 22.6567 22.8513C22.8225 22.924 23.0021 22.9597 23.1831 22.956Z" fill="#A59F9A"/>
<path d="M6.15544 40.4211C6.33955 40.4213 6.52149 40.3814 6.6887 40.3044C6.8559 40.2273 7.00438 40.1149 7.12386 39.9748C7.49439 39.5285 7.87334 39.1327 8.24386 38.6611C8.4672 38.4088 8.58114 38.078 8.56061 37.7416C8.54008 37.4052 8.38676 37.0908 8.13439 36.8674C8.00942 36.7569 7.8639 36.672 7.70613 36.6176C7.54836 36.5633 7.38143 36.5405 7.21487 36.5507C6.87849 36.5712 6.56404 36.7245 6.3407 36.9769C5.96176 37.4148 5.57439 37.8611 5.19544 38.3159C5.08745 38.4416 5.00545 38.5875 4.95416 38.7451C4.90287 38.9027 4.88332 39.0689 4.89663 39.2341C4.90994 39.3993 4.95585 39.5603 5.03171 39.7076C5.10757 39.855 5.21187 39.9859 5.3386 40.0927C5.56348 40.2953 5.85289 40.4117 6.15544 40.4211Z" fill="#A59F9A"/>
<path d="M18.6945 27.0908C19.0077 27.0812 19.3068 26.9586 19.5366 26.7455L20.7913 25.5582C21.037 25.3293 21.1816 25.0121 21.1935 24.6765C21.2053 24.3409 21.0834 24.0144 20.8545 23.7687C20.6255 23.523 20.3084 23.3784 19.9728 23.3665C19.6372 23.3547 19.3107 23.4766 19.065 23.7055L17.785 24.9182C17.6056 25.0909 17.4813 25.3127 17.4276 25.5558C17.374 25.7989 17.3933 26.0525 17.4833 26.2846C17.5733 26.5167 17.7299 26.7171 17.9334 26.8606C18.1369 27.004 18.3782 27.0841 18.6271 27.0908H18.6945Z" fill="#A59F9A"/>
<path d="M10.1807 35.832C10.3567 35.8321 10.5307 35.7954 10.6917 35.7244C10.8527 35.6533 10.997 35.5494 11.1155 35.4193L12.286 34.1393C12.4597 33.8876 12.5362 33.5814 12.5013 33.2776C12.4664 32.9738 12.3224 32.6929 12.0961 32.4872C11.8698 32.2815 11.5765 32.1648 11.2708 32.1589C10.965 32.153 10.6674 32.2583 10.4334 32.4551L9.26285 33.6846C9.09796 33.8656 8.98926 34.0907 8.94996 34.3324C8.91067 34.5741 8.94248 34.822 9.04152 35.046C9.14056 35.27 9.30256 35.4603 9.50781 35.5939C9.71306 35.7274 9.95271 35.7984 10.1976 35.7983L10.1807 35.832Z" fill="#A59F9A"/>
<path d="M14.3576 31.3857C14.5267 31.3858 14.6942 31.3523 14.8503 31.2873C15.0064 31.2222 15.148 31.1269 15.2671 31.0068C15.6713 30.5857 16.0755 30.1731 16.4797 29.7689C16.6032 29.6526 16.702 29.5127 16.7703 29.3575C16.8385 29.2022 16.8748 29.0348 16.877 28.8652C16.8792 28.6956 16.8472 28.5274 16.7829 28.3704C16.7186 28.2135 16.6234 28.0711 16.5029 27.9517C16.3824 27.8323 16.2391 27.7385 16.0816 27.6757C15.924 27.6129 15.7555 27.5825 15.5859 27.5862C15.4163 27.59 15.2493 27.6279 15.0947 27.6976C14.9401 27.7673 14.8011 27.8675 14.686 27.992L13.4734 29.2384C13.2993 29.4159 13.1815 29.641 13.1348 29.8852C13.0881 30.1294 13.1145 30.382 13.2107 30.6113C13.3069 30.8406 13.4687 31.0364 13.6757 31.1742C13.8827 31.3119 14.1258 31.3855 14.3744 31.3857H14.3576Z" fill="#A59F9A"/>
<path d="M38.3073 13.0193C38.3772 13.0273 38.4478 13.0273 38.5178 13.0193C39.0214 12.9348 39.5313 12.8925 40.042 12.893C40.377 12.893 40.6983 12.7599 40.9352 12.523C41.1721 12.2862 41.3051 11.9649 41.3051 11.6299C41.3051 11.2948 41.1721 10.9736 40.9352 10.7367C40.6983 10.4998 40.377 10.3667 40.042 10.3667C39.3928 10.368 38.7448 10.4244 38.1051 10.5351C37.7701 10.563 37.4599 10.7229 37.2428 10.9795C37.0256 11.2362 36.9193 11.5685 36.9473 11.9035C36.9752 12.2386 37.135 12.5487 37.3917 12.7659C37.6483 12.983 37.9807 13.0894 38.3157 13.0614L38.3073 13.0193Z" fill="#A59F9A"/>
<path d="M43.7892 13.634C44.2752 13.8333 44.7478 14.0639 45.2039 14.3245C45.3945 14.4304 45.6091 14.4855 45.8271 14.4845C46.1047 14.483 46.374 14.39 46.5935 14.22C46.813 14.0501 46.9704 13.8125 47.0413 13.5441C47.1122 13.2757 47.0928 12.9914 46.9859 12.7352C46.8791 12.479 46.6908 12.2651 46.4502 12.1266C45.9075 11.81 45.3449 11.5288 44.766 11.2845C44.6118 11.2204 44.4464 11.1872 44.2793 11.187C44.1122 11.1868 43.9467 11.2195 43.7923 11.2832C43.6379 11.3469 43.4975 11.4405 43.3792 11.5584C43.2609 11.6764 43.167 11.8165 43.1029 11.9708C43.0387 12.1251 43.0056 12.2905 43.0054 12.4575C43.0052 12.6246 43.0378 12.7901 43.1016 12.9445C43.1653 13.099 43.2588 13.2394 43.3768 13.3576C43.4948 13.4759 43.6349 13.5698 43.7892 13.634Z" fill="#A59F9A"/>
<path d="M51.8568 61.1709C52.1343 61.1722 52.4042 61.0803 52.6231 60.9098L53.9958 59.8488C54.2604 59.6422 54.4322 59.3389 54.4732 59.0057C54.5143 58.6725 54.4213 58.3366 54.2147 58.0719C54.0081 57.8073 53.7048 57.6355 53.3716 57.5945C53.0384 57.5534 52.7025 57.6464 52.4379 57.853L51.0821 58.9477C50.8723 59.1087 50.7183 59.3314 50.6419 59.5846C50.5654 59.8377 50.5703 60.1084 50.6559 60.3586C50.7414 60.6088 50.9033 60.8258 51.1188 60.9791C51.3343 61.1324 51.5924 61.2142 51.8568 61.213V61.1709Z" fill="#A59F9A"/>
<path d="M61.0103 53.3478C61.1816 53.3488 61.3513 53.315 61.5091 53.2484C61.6669 53.1818 61.8095 53.0838 61.9282 52.9604C62.3408 52.5225 62.7703 52.1183 63.124 51.6299C63.3473 51.3752 63.4604 51.0423 63.4383 50.7044C63.4162 50.3664 63.2607 50.0511 63.0061 49.8277C62.7515 49.6044 62.4186 49.4914 62.0806 49.5135C61.7427 49.5356 61.4273 49.691 61.204 49.9456C60.8503 50.3667 60.4798 50.7878 60.0924 51.1751C59.8625 51.4186 59.7386 51.7434 59.7481 52.0782C59.7575 52.413 59.8996 52.7303 60.1429 52.9604C60.2549 53.0789 60.3892 53.1741 60.538 53.2406C60.6868 53.3071 60.8474 53.3435 61.0103 53.3478Z" fill="#A59F9A"/>
<path d="M46.9895 64.7243C47.2484 64.7241 47.5011 64.6447 47.7137 64.497L49.1369 63.4949C49.3551 63.2828 49.4895 62.9992 49.5153 62.696C49.5411 62.3928 49.4566 62.0905 49.2773 61.8446C49.098 61.5988 48.8361 61.4259 48.5395 61.3578C48.2429 61.2896 47.9318 61.3308 47.6632 61.4738C47.2 61.8022 46.7368 62.1391 46.2653 62.4591C46.0448 62.613 45.8791 62.8332 45.7925 63.0878C45.7058 63.3424 45.7027 63.6179 45.7835 63.8744C45.8643 64.1309 46.0248 64.3549 46.2417 64.5138C46.4586 64.6727 46.7206 64.7583 46.9895 64.758V64.7243Z" fill="#A59F9A"/>
<path d="M56.5726 57.4149C56.8643 57.4147 57.147 57.3135 57.3726 57.1286C57.8273 56.758 58.2736 56.3791 58.7115 56.0001C58.965 55.7768 59.1194 55.4619 59.1407 55.1247C59.162 54.7876 59.0485 54.4557 58.8252 54.2022C58.6019 53.9488 58.287 53.7944 57.9498 53.773C57.6126 53.7517 57.2808 53.8652 57.0273 54.0886L55.7305 55.1833C55.5295 55.3515 55.3857 55.578 55.3192 55.8315C55.2527 56.085 55.2667 56.3529 55.3592 56.5981C55.4517 56.8433 55.6182 57.0536 55.8356 57.2C56.053 57.3463 56.3106 57.4214 56.5726 57.4149Z" fill="#A59F9A"/>
<path d="M64.0422 48.4129C64.2293 48.5111 64.4372 48.5631 64.6485 48.5645C64.8755 48.5642 65.0984 48.5031 65.2938 48.3876C65.4893 48.2721 65.6503 48.1064 65.7601 47.9076C66.0603 47.3444 66.3165 46.7588 66.5264 46.156C66.5817 45.9996 66.6056 45.8337 66.5968 45.668C66.588 45.5023 66.5466 45.3399 66.4751 45.1901C66.4035 45.0404 66.3032 44.9062 66.1798 44.7952C66.0564 44.6843 65.9123 44.5987 65.7558 44.5434C65.5994 44.4881 65.4335 44.4642 65.2678 44.473C65.1021 44.4818 64.9397 44.5231 64.7899 44.5947C64.6402 44.6662 64.506 44.7666 64.3951 44.89C64.2841 45.0134 64.1985 45.1574 64.1432 45.3139C63.9728 45.7902 63.7644 46.252 63.5201 46.695C63.4407 46.8419 63.3912 47.003 63.3745 47.1692C63.3578 47.3353 63.3742 47.5031 63.4227 47.6628C63.4713 47.8226 63.551 47.9711 63.6574 48.0999C63.7637 48.2286 63.8945 48.335 64.0422 48.4129Z" fill="#A59F9A"/>
<path d="M64.4461 41.735C64.5024 42.0227 64.6563 42.2821 64.8819 42.4693C65.1075 42.6565 65.3908 42.76 65.684 42.7624C65.7652 42.7706 65.847 42.7706 65.9282 42.7624C66.0937 42.7323 66.2514 42.6692 66.3921 42.5769C66.5327 42.4847 66.6533 42.365 66.7468 42.2252C66.8403 42.0854 66.9047 41.9282 66.9362 41.7629C66.9678 41.5977 66.9657 41.4278 66.9303 41.2634C66.8027 40.6301 66.6253 40.0078 66.3998 39.4024C66.3411 39.2448 66.2521 39.1003 66.1376 38.9771C66.0232 38.8539 65.8856 38.7545 65.7327 38.6846C65.5798 38.6146 65.4146 38.5754 65.2466 38.5692C65.0786 38.5631 64.911 38.5901 64.7534 38.6487C64.5958 38.7073 64.4513 38.7964 64.3282 38.9108C64.205 39.0253 64.1056 39.1629 64.0356 39.3157C63.9656 39.4686 63.9264 39.6338 63.9203 39.8018C63.9141 39.9698 63.9411 40.1374 63.9997 40.295C64.1897 40.7613 64.339 41.243 64.4461 41.735Z" fill="#A59F9A"/>
<path d="M40.9179 67.4948C41.0069 67.6348 41.1227 67.7558 41.2588 67.8508C41.3948 67.9457 41.5483 68.0128 41.7104 68.048C41.8725 68.0833 42.04 68.086 42.2032 68.0561C42.3664 68.0262 42.522 67.9642 42.6611 67.8737C43.1495 67.5622 43.6379 67.2506 44.1179 66.9306C44.2674 66.8457 44.3978 66.7309 44.5011 66.5935C44.6043 66.4561 44.6783 66.2989 44.7183 66.1317C44.7583 65.9645 44.7635 65.7909 44.7336 65.6216C44.7037 65.4523 44.6394 65.291 44.5446 65.1476C44.4498 65.0042 44.3265 64.8818 44.1824 64.7881C44.0383 64.6943 43.8765 64.6311 43.707 64.6025C43.5375 64.5739 43.3639 64.5804 43.197 64.6216C43.0302 64.6628 42.8735 64.7379 42.7369 64.8422L41.3053 65.7685C41.0258 65.9467 40.8281 66.2283 40.7555 66.5518C40.683 66.8752 40.7413 67.2142 40.9179 67.4948Z" fill="#A59F9A"/>
<path d="M36.8421 71.2171C37.0666 71.2192 37.2877 71.161 37.4821 71.0486L38.9726 70.1644C39.2607 69.9925 39.4687 69.7131 39.5508 69.3878C39.633 69.0624 39.5825 68.7178 39.4105 68.4297C39.2385 68.1416 38.9592 67.9336 38.6338 67.8515C38.3085 67.7693 37.9639 67.8198 37.6758 67.9918C37.1874 68.2865 36.6989 68.5813 36.2021 68.8339C35.9644 68.9749 35.7795 69.19 35.6758 69.4462C35.5721 69.7024 35.5553 69.9855 35.6279 70.2522C35.7005 70.5189 35.8586 70.7544 36.078 70.9226C36.2973 71.0908 36.5657 71.1824 36.8421 71.1834V71.2171Z" fill="#A59F9A"/>
<path d="M30.4588 73.4738C30.5663 73.6776 30.7275 73.8481 30.9249 73.9668C31.1223 74.0855 31.3484 74.148 31.5788 74.1475C31.7835 74.1441 31.9848 74.0952 32.1683 74.0044L33.6925 73.1623C33.8494 73.0898 33.9897 72.9859 34.1048 72.857C34.2199 72.7281 34.3074 72.577 34.3617 72.4129C34.4161 72.2489 34.4362 72.0754 34.4208 71.9033C34.4055 71.7312 34.355 71.564 34.2724 71.4122C34.1899 71.2604 34.077 71.1271 33.9409 71.0207C33.8048 70.9142 33.6483 70.8368 33.481 70.7932C33.3138 70.7497 33.1394 70.7409 32.9687 70.7674C32.7979 70.794 32.6344 70.8553 32.4883 70.9475L30.9809 71.7896C30.6899 71.9453 30.4719 72.2093 30.3741 72.5246C30.2764 72.8398 30.3068 73.1809 30.4588 73.4738Z" fill="#A59F9A"/>
<path d="M53.0523 28.6992C52.6127 28.7304 52.1845 28.8537 51.7957 29.0612C51.4069 29.2687 51.0661 29.5556 50.7954 29.9034C50.5131 29.9952 50.2718 30.1829 50.1133 30.434C49.6106 31.1475 49.3154 31.9863 49.2604 32.8573C49.2054 33.7284 49.3928 34.5977 49.8017 35.3687C50.143 36.0186 50.6515 36.5656 51.2747 36.9534C51.8979 37.3413 52.6132 37.5558 53.347 37.575C54.1134 37.5488 54.8581 37.3137 55.5007 36.8952C56.1433 36.4767 56.6594 35.8906 56.9933 35.2003C57.3751 34.5375 57.5647 33.7815 57.5409 33.0169C57.5171 32.2524 57.2808 31.5097 56.8586 30.8719C56.4696 30.2084 55.9134 29.6586 55.2455 29.2774C54.5776 28.8961 53.8213 28.6968 53.0523 28.6992ZM54.8123 33.9203C54.6888 34.2119 54.4908 34.4659 54.238 34.6566C53.9852 34.8473 53.6866 34.968 53.3723 35.0066C53.0906 34.9877 52.8188 34.8953 52.5838 34.7387C52.3489 34.5821 52.1591 34.3667 52.0333 34.114C51.8967 33.8566 51.8183 33.5723 51.8037 33.2812C51.7892 32.9902 51.8388 32.6995 51.9491 32.4298C52.2476 32.3097 52.4867 32.0767 52.6144 31.7813C52.8502 31.2761 53.1196 31.2508 53.2375 31.2424C53.5434 31.2689 53.8387 31.3673 54.0992 31.5298C54.3597 31.6923 54.5781 31.9141 54.7365 32.1771C54.9135 32.4304 55.0147 32.7289 55.0281 33.0377C55.0415 33.3464 54.9667 33.6526 54.8123 33.9203Z" fill="#A59F9A"/>
</svg>
