<svg width="80" height="80" viewBox="0 0 80 80" fill="none" xmlns="http://www.w3.org/2000/svg">
<path d="M77.2707 45.7567V45.6077C77.2899 45.4121 77.2899 45.2151 77.2707 45.0195C76.9256 42.7685 74.1726 41.5528 71.7805 40.9175L70.8393 25.9214C71.3216 25.4958 71.7627 25.0258 72.1569 24.5175C72.7594 23.6902 73.0686 22.6855 73.0354 21.6626C72.9237 20.6705 72.472 19.7476 71.7569 19.0508C61.6785 8.31359 58.9805 6.08614 53.6001 1.65477C53.1813 1.30762 52.7201 1.01509 52.2275 0.784179C49.4118 -0.674644 46.5962 0.148885 42.306 1.39594C39.8667 2.10967 37.804 2.79202 36.2981 3.29398C35.5138 3.56065 34.855 3.77241 34.3373 3.92928C29.1373 5.74104 24.4393 8.76065 19.8903 11.6861C17.2001 13.4195 14.4001 15.2077 11.5922 16.6979C11.3694 16.812 11.1895 16.9951 11.0792 17.2198C10.969 17.4446 10.9343 17.6989 10.9805 17.945C10.9144 18.1212 10.8747 18.3062 10.8628 18.494C10.7216 20.3371 12.8785 21.4116 15.1138 22.4156L15.6864 42.5175C15.5805 42.5344 15.4775 42.5661 15.3805 42.6116C12.8785 43.8116 11.255 44.9646 10.455 46.0312C10.233 46.0598 10.025 46.1556 9.8589 46.3057C6.31913 49.3468 3.30833 52.9539 0.949099 56.9803C0.866337 57.1194 0.813171 57.2741 0.792928 57.4347C0.772685 57.5952 0.785799 57.7583 0.831452 57.9136C0.877566 58.0677 0.955008 58.2107 1.05893 58.3335C1.16285 58.4563 1.291 58.5563 1.43537 58.6273C10.6589 63.2312 20.0942 67.7254 29.4746 71.9607C34.6511 74.3136 39.9687 76.6665 45.2707 78.9567C45.4171 79.0186 45.5744 79.0506 45.7334 79.0508C45.975 79.0532 46.2111 78.979 46.4079 78.8391C52.1099 74.8469 57.8432 70.7528 63.4511 66.6901C68.0158 63.3724 72.5962 59.9999 77.0589 56.6665C77.2093 56.5538 77.3306 56.4067 77.4124 56.2375C77.4943 56.0683 77.5345 55.8819 77.5295 55.694L77.2707 45.7567ZM69.4981 42.4077C69.5094 42.5513 69.5094 42.6955 69.4981 42.8391C69.3721 42.9662 69.2328 43.0793 69.0824 43.1763C63.2942 47.2234 57.4746 51.2548 51.7491 55.192C51.655 50.1175 51.3883 44.9959 50.9648 39.9685C51.1373 40.0156 51.3099 40.0469 51.4746 40.0783C51.6946 40.2609 51.973 40.3583 52.2589 40.3528C52.5109 40.3517 52.7557 40.2691 52.9569 40.1175C55.9295 37.9136 63.8903 31.9528 68.6432 27.9136L69.4981 42.4077ZM49.4118 58.0391C49.4623 58.4623 49.3944 58.8913 49.2158 59.2783C48.9962 59.4703 48.7218 59.5883 48.4315 59.6156C47.3962 59.8352 46.0785 59.6156 45.5766 58.8312C45.3475 58.2587 45.2458 57.6431 45.2785 57.0273L44.7373 37.3097L47.506 38.6273L48.4942 39.0901C48.4823 39.1838 48.4823 39.2787 48.4942 39.3724C49.1138 45.545 49.4118 51.8352 49.4118 58.0391ZM42.8158 52.1332C41.2672 51.3208 39.6782 50.5878 38.055 49.9371C37.9922 44.5332 37.7256 39.0822 37.2707 33.6861L42.3922 36.141L42.8158 52.1332ZM35.7177 51.3881C35.7682 51.8114 35.7003 52.2403 35.5217 52.6273C35.3021 52.8193 35.0277 52.9373 34.7373 52.9646C33.702 53.1842 32.3844 52.9646 31.8824 52.1803C31.6524 51.608 31.5507 50.9922 31.5844 50.3763L31.0432 30.5567L34.0628 32.1254L34.7922 32.5018C34.7847 32.5643 34.7847 32.6275 34.7922 32.6901C35.4197 38.894 35.7256 45.1842 35.7491 51.4038L35.7177 51.3881ZM29.1373 45.8979L24.9962 43.7881C24.8309 43.707 24.6533 43.6539 24.4707 43.6312C24.4707 37.9842 24.1569 32.2901 23.6864 26.6587C25.1217 27.3959 26.8236 28.2273 28.6903 29.2626L29.1373 45.8979ZM22.1256 44.1724C22.1795 44.5954 22.1228 45.0251 21.9609 45.4195C21.7389 45.6076 21.4658 45.725 21.1766 45.7567C20.1413 45.9842 18.8236 45.7567 18.3295 44.9332C18.0964 44.3647 17.9971 43.7501 18.0393 43.1371L17.4981 23.5293C18.3687 23.9528 19.5922 24.5567 21.2393 25.3959V25.4587C21.8197 31.6705 22.1256 37.9607 22.1569 44.1803L22.1256 44.1724ZM52.102 3.47438C57.404 7.843 60.0628 10.0312 70.0315 20.6665C70.367 20.9759 70.5928 21.3861 70.6746 21.8352C70.6597 22.32 70.4954 22.7885 70.204 23.1763C69.4197 24.3136 63.9922 28.894 53.6001 36.6744C53.0096 35.4576 52.3307 34.2858 51.5687 33.1685C48.7952 28.7694 45.7157 24.5708 42.353 20.6038C38.5569 16.3293 36.5491 14.0626 34.8471 13.0979C39.8197 9.41163 44.9491 5.81947 50.1413 2.48614C50.5082 2.57189 50.8636 2.7009 51.2001 2.87045C51.5266 3.03018 51.83 3.23333 52.102 3.47438ZM35.0589 6.17241C35.5452 6.02339 36.2118 5.80379 37.0354 5.52928C38.5256 5.03516 40.5648 4.36065 42.9648 3.65477L44.8942 3.13712C40.502 6.0783 36.1648 9.16065 31.9452 12.3528C29.3256 12.1567 25.8903 12.9175 20.3922 14.1881L21.1766 13.694C25.5922 10.8156 30.1805 7.843 35.0589 6.17241ZM20.2511 16.6038C27.3099 14.9646 30.9099 14.141 33.2942 14.9646C34.604 15.4195 36.855 17.9607 40.5962 22.1724C43.8758 26.0476 46.8818 30.1464 49.5922 34.4391C50.2866 35.4812 50.9153 36.5657 51.4746 37.6861C50.4811 37.3495 49.5116 36.9459 48.5726 36.4783C40.6118 32.6979 36.6197 30.7999 35.2393 30.0548C21.2628 22.6038 16.8864 20.643 16.706 20.5489L16.4707 20.4626C15.3595 20.0187 14.306 19.442 13.3334 18.745C13.8354 18.4234 15.3962 17.7332 20.2511 16.6038ZM15.8746 44.9881C15.9597 45.3722 16.0997 45.742 16.2903 46.0861C16.7266 46.7684 17.3363 47.3225 18.057 47.6918C18.7778 48.0611 19.5836 48.2324 20.3922 48.1881C20.8245 48.1885 21.2556 48.1438 21.6785 48.0548C22.4669 47.9234 23.1895 47.5345 23.7334 46.9489C23.9518 46.6884 24.1218 46.3909 24.2354 46.0705H24.3138L28.8236 48.3763C28.9577 48.4438 29.1049 48.4813 29.255 48.4861L29.302 50.4312C29.2526 51.4325 29.4548 52.4302 29.8903 53.3332C30.3267 54.019 30.9387 54.5755 31.6627 54.9451C32.3868 55.3147 33.1965 55.4839 34.0079 55.4352C34.4409 55.4274 34.872 55.3748 35.2942 55.2783C36.0846 55.1477 36.8082 54.7555 37.3491 54.1646C37.7394 53.6815 37.9818 53.0959 38.0471 52.4783C39.7166 53.1694 41.3454 53.955 42.9256 54.8312L42.9805 57.043C42.9379 58.0404 43.1455 59.0326 43.5844 59.9293C44.0209 60.6151 44.6328 61.1716 45.3569 61.5412C46.0809 61.9108 46.8906 62.08 47.702 62.0312C48.1321 62.0519 48.5631 62.0282 48.9883 61.9607C49.7759 61.827 50.4979 61.4385 51.0432 60.8548C51.62 60.036 51.8767 59.0343 51.7648 58.0391C57.9138 53.8195 64.1805 49.4744 70.4079 45.1214C70.9379 44.8068 71.3634 44.3431 71.6315 43.7881C71.6839 43.661 71.7259 43.5299 71.7569 43.3959C73.7805 44.0312 74.7766 44.8312 74.8942 45.3959C74.8744 45.8074 74.7106 46.1989 74.4315 46.5018C72.4393 49.043 59.7413 57.8822 49.2079 64.8469C47.4824 63.8273 45.7256 62.8783 43.9844 62.0077C38.706 59.3803 22.6354 51.9842 13.255 48.2744C12.8608 48.1585 12.4967 47.9577 12.1883 47.6861C12.1883 47.6861 12.4001 46.7293 15.8746 44.9881ZM10.2981 49.0508C10.8545 49.7035 11.5786 50.1916 12.3922 50.4626C21.7099 54.1175 37.6864 61.4979 42.9334 64.1175C44.3844 64.8391 45.8432 65.6391 47.2864 66.4705C47.0667 66.9959 46.855 67.5293 46.6432 68.0391L46.5334 67.9842C40.2118 65.3489 33.8746 62.5646 27.7099 59.7018C21.3805 56.7685 15.0354 53.6783 8.82361 50.5018C9.28636 50.0234 9.78832 49.5293 10.2981 49.0508ZM7.16086 52.3214C13.5687 55.6156 20.1491 58.8234 26.6667 61.8587C32.9413 64.7371 39.2864 67.5293 45.6315 70.1724C45.6963 70.2041 45.7648 70.2278 45.8354 70.243C45.6158 70.8626 45.3962 71.4822 45.1922 72.1097C38.9177 69.3018 32.5256 66.3999 26.2824 63.4822C19.5138 60.345 12.706 57.0195 6.03145 53.7097C6.39224 53.2312 6.76086 52.7685 7.15302 52.3214H7.16086ZM3.63145 57.0979C3.94518 56.5959 4.27459 56.1018 4.61184 55.6156C11.4197 58.9959 18.3687 62.3528 25.2785 65.592C31.6236 68.5724 38.0707 71.5214 44.4785 74.3685C44.3217 74.8783 44.1805 75.3803 44.0393 75.8901C39.4668 73.9058 34.9099 71.8822 30.4471 69.8508C21.4824 65.7724 12.4628 61.4822 3.63145 57.0979ZM62.0707 64.8156C56.9334 68.541 51.6942 72.2822 46.4707 75.9528C47.3021 73.0405 48.2998 70.1783 49.4589 67.3803C49.6116 67.3523 49.7578 67.2965 49.8903 67.2156C54.8236 63.9606 69.9844 53.8822 74.9883 49.2469L75.1452 55.1763C70.8628 58.3842 66.455 61.6234 62.0707 64.8156Z" fill="#A59F9A"/>
</svg>
