<svg width="170" height="127" viewBox="0 0 170 127" fill="none" xmlns="http://www.w3.org/2000/svg">
<path d="M46.0736 15.2362L73.0969 3.93701L104.946 2M46.0736 15.2362L18.7287 37.5118M46.0736 15.2362L39.9612 26.8583M18.7287 37.5118L2 66.5669M18.7287 37.5118L39.9612 26.8583M2 66.5669L19.6938 73.3465M2 66.5669L26.4496 54.2992M2 66.5669L50.4167 95.7835M98.8333 125L115.24 91.4252M98.8333 125L82.4264 99.8189M98.8333 125L53.8941 97.8819M98.8333 125L142.209 65.2756M168 29.7638L137.116 11.3622M168 29.7638L160.922 39.5089M168 29.7638L146.767 26.8583M137.116 11.3622L104.946 2M137.116 11.3622L118.136 9.74803M104.946 2L118.136 9.74803M118.136 9.74803L112.988 20.7244M118.136 9.74803L146.767 26.8583M112.988 20.7244L86.6085 31.378M112.988 20.7244L146.767 26.8583M112.988 20.7244L113.953 48.4882M86.6085 31.378L55.4031 33.9606M86.6085 31.378L71.8101 58.1732M86.6085 31.378L113.953 48.4882M55.4031 33.9606L39.9612 26.8583M55.4031 33.9606L26.4496 54.2992M55.4031 33.9606L71.8101 58.1732M39.9612 26.8583L26.4496 54.2992M146.767 26.8583L160.922 39.5089M146.767 26.8583L144.194 53.3307M160.922 39.5089L144.194 53.3307M160.922 39.5089L142.209 65.2756M26.4496 54.2992L19.6938 73.3465M26.4496 54.2992L44.4651 77.2205M19.6938 73.3465L50.4167 95.7835M19.6938 73.3465L44.4651 77.2205M50.4167 95.7835L53.8941 97.8819M113.953 48.4882L124.57 65.2756M113.953 48.4882L144.194 53.3307M113.953 48.4882L99.7985 77.2205M124.57 65.2756L115.24 91.4252M124.57 65.2756L99.7985 77.2205M124.57 65.2756L144.194 53.3307M115.24 91.4252L144.194 53.3307M115.24 91.4252L99.7985 77.2205M82.4264 99.8189L71.8101 78.189M82.4264 99.8189L44.4651 77.2205M82.4264 99.8189L99.7985 77.2205M71.8101 78.189V58.1732M71.8101 78.189L44.4651 77.2205M71.8101 78.189L99.7985 77.2205M71.8101 58.1732L44.4651 77.2205M71.8101 58.1732L99.7985 77.2205M44.4651 77.2205L53.8941 97.8819M144.194 53.3307L142.209 65.2756" stroke="#92F2F9" stroke-width="3" stroke-linecap="round" stroke-linejoin="round"/>
</svg>
