<svg width="153" height="130" viewBox="0 0 153 130" fill="none" xmlns="http://www.w3.org/2000/svg">
<path d="M113.428 90.809C115.803 87.8984 116.772 84.5306 116.938 82.3326M113.428 90.809C113.998 92.3848 115.759 95.8949 118.248 97.3294M113.428 90.809C111.442 93.2442 108.471 95.3592 104.166 96.2015M104.166 96.2015C103.44 96.3435 102.676 96.4493 101.873 96.5143C100.348 96.6379 98.9516 96.6294 97.6755 96.5143M104.166 96.2015C104.493 98.9139 105.639 104.991 107.604 107.599M85.6621 87.8749C86.2756 90.6937 89.5251 95.7791 97.6755 96.5143M97.6755 96.5143C97.5464 98.5791 96.9279 103.393 95.4869 106.132M64.0474 100.803C67.2553 99.4532 70.0642 96.8373 71.7436 92.6021M64.0474 100.803C64.4295 102.307 65.5539 105.773 66.9949 107.599M64.0474 100.803C61.7603 101.765 59.2704 102.083 56.8426 101.885M56.8426 101.885C57.2246 104.333 57.7595 109.979 56.8426 112.978M56.8426 101.885C54.3969 101.686 52.0142 100.963 49.9652 99.8478M43.9065 92.6021C44.5609 95.6087 46.8865 98.1717 49.9652 99.8478M49.9652 99.8478C49.3102 102.431 47.7055 107.599 46.5265 107.599M18.6894 62.2826C18.6894 64.1732 17.1499 65.7058 15.2507 65.7058C14.9093 65.7058 14.5796 65.6563 14.2683 65.564M18.6894 62.2826C18.6894 60.9822 17.961 59.8511 16.8882 59.2717M18.6894 62.2826C21.8552 64.8907 26.6475 72.5521 20.4907 82.3326M20.4907 82.3326C22.028 82.3326 23.2744 83.5733 23.2744 85.1038C23.2744 85.5105 23.1863 85.8968 23.0282 86.2448M20.4907 82.3326C19.3619 82.3326 18.39 83.0014 17.9531 83.9627M16.8882 59.2717C16.4014 59.0088 15.8436 58.8594 15.2507 58.8594C14.6579 58.8594 14.1001 59.0088 13.6133 59.2717M16.8882 59.2717C21.0365 52.5053 27.4335 38.2226 19.8357 35.2233C12.2378 32.2239 12.5216 50.0058 13.6133 59.2717M13.6133 59.2717C12.5405 59.8511 11.812 60.9822 11.812 62.2826C11.812 63.8333 12.8478 65.1432 14.2683 65.564M14.2683 65.564C11.212 69.4691 7.67026 78.616 17.9531 83.9627M17.9531 83.9627C17.795 84.3107 17.7069 84.697 17.7069 85.1038C17.7069 86.2274 18.3788 87.1949 19.3444 87.6298M19.3444 87.6298C19.694 87.7873 20.082 87.8749 20.4907 87.8749C21.6194 87.8749 22.5913 87.2061 23.0282 86.2448M19.3444 87.6298C18.6348 92.5418 18.5257 102.27 23.7656 101.885C30.3155 101.405 25.5657 87.3859 23.0282 86.2448M16.0696 24.6277C12.6309 26.5838 7.71846 22.9976 3.29728 24.6277C-1.12389 26.2578 7.22722 33.1041 6.57223 37.6684C5.91724 42.2326 1.33222 61.1416 4.44342 79.2355C7.55462 97.3294 12.1395 100.753 10.9933 104.665C9.84708 108.577 2.80594 115.423 5.09841 116.727C7.39087 118.031 13.777 115.423 17.8707 116.075C21.9644 116.727 19.1807 119.172 35.0642 124.878C50.9476 130.583 78.1297 127.16 89.2645 124.878C100.399 122.596 125.289 112.815 131.184 108.251C137.079 103.687 136.424 106.947 142.81 107.599C149.196 108.251 144.775 101.242 143.792 96.5143C142.81 91.7871 150.833 80.2135 150.997 64.8907C151.161 49.568 143.956 35.2233 142.81 30.985C141.664 26.7468 144.611 25.1167 144.775 19.5745C144.939 14.0322 141.664 13.7062 135.114 16.1513C128.564 18.5964 127.581 17.7814 119.885 10.772C113.695 5.13416 82.2918 -3.8784 48.0002 7.40037C35.854 11.3953 26.8031 18.522 16.0696 24.6277Z" stroke="#7BA3C8" stroke-width="3" stroke-linecap="round" stroke-linejoin="round"/>
</svg>
