<svg width="18" height="18" viewBox="0 0 18 18" fill="none" xmlns="http://www.w3.org/2000/svg">
<g clip-path="url(#clip0)">
<path d="M17.6918 3.21954C17.528 1.68448 16.3157 0.471863 14.7805 0.308167C10.9306 -0.102722 7.06943 -0.102722 3.21968 0.308167C1.68448 0.472 0.472 1.68448 0.308167 3.21954C-0.102722 7.06929 -0.102722 10.9306 0.308167 14.7803C0.472 16.3155 1.68448 17.528 3.21954 17.6918C7.06929 18.1027 10.9306 18.1027 14.7805 17.6918C16.3157 17.528 17.528 16.3155 17.6918 14.7803C18.1027 10.9306 18.1027 7.06943 17.6918 3.21954Z" fill="url(#paint0_radial)"/>
<path d="M16.7128 3.87066C16.5675 2.50849 15.4917 1.43252 14.1294 1.28709C10.7132 0.922615 7.2868 0.922615 3.8706 1.28709C2.50843 1.43252 1.43246 2.50849 1.28703 3.87066C0.922554 7.28686 0.922554 10.7132 1.28703 14.1293C1.43246 15.4916 2.50843 16.5676 3.8706 16.7129C7.2868 17.0775 10.7132 17.0775 14.1292 16.7129C15.4915 16.5676 16.5675 15.4916 16.7128 14.1293C17.0774 10.7132 17.0774 7.28686 16.7128 3.87066Z" fill="url(#paint1_linear)"/>
<path d="M0.269531 14.4073C0.281891 14.5317 0.294662 14.6561 0.307983 14.7805C0.471817 16.3156 1.6843 17.5281 3.2195 17.6919C7.06924 18.1028 10.9305 18.1028 14.7803 17.6919C16.3155 17.5281 17.5278 16.3156 17.6917 14.7805C17.705 14.6561 17.7177 14.5317 17.7302 14.4073H0.269531Z" fill="url(#paint2_linear)"/>
<path d="M17.6921 14.7804C17.9129 12.7118 18.0148 10.6399 17.9983 8.56827L13.884 4.45389C13.3699 3.86709 12.6192 3.50083 11.737 3.46911C9.9227 3.40374 8.10268 3.40703 6.28815 3.46938C4.7811 3.52129 3.72723 4.53423 3.45697 6.02302C3.40932 6.28586 3.38075 6.55214 3.34326 6.81692V11.1815C3.364 11.323 3.39449 11.4637 3.40396 11.606C3.46439 12.5115 3.83655 13.2872 4.43242 13.8119L8.61931 17.9987C10.674 18.0131 12.7289 17.9109 14.7807 17.6919C16.3159 17.528 17.5283 16.3156 17.6921 14.7804Z" fill="url(#paint3_linear)"/>
<path d="M17.6917 14.7805C17.528 16.3154 16.3152 17.5282 14.7803 17.6919C12.7288 17.9108 10.6735 18.0131 8.61905 17.9987L4.43848 13.8181C4.92311 14.2423 5.55482 14.5006 6.28789 14.5282C8.10201 14.5963 9.92244 14.5946 11.7366 14.5292C13.3774 14.4699 14.5647 13.2555 14.6159 11.6147C14.6706 9.8725 14.6706 8.12581 14.6159 6.38365C14.5926 5.62669 14.3269 4.96065 13.8863 4.45665L17.9981 8.56842C18.0143 10.6398 17.9124 12.7119 17.6917 14.7805Z" fill="url(#paint4_linear)"/>
<path d="M11.1242 7.05096C10.5971 6.47707 9.84087 6.11699 9.00027 6.11699C7.40808 6.11699 6.11719 7.40788 6.11719 9.00008C6.11719 9.84067 6.47726 10.5969 7.05116 11.124L13.7216 17.7945C14.0747 17.7637 14.4278 17.7295 14.7806 17.6919C16.3158 17.5281 17.5283 16.3156 17.6921 14.7804C17.7297 14.4276 17.7639 14.0745 17.7947 13.7214L11.1242 7.05096Z" fill="url(#paint5_linear)"/>
<path d="M17.9649 10.939L12.5964 5.57069C12.4711 5.40631 12.2738 5.29961 12.0512 5.29961C11.6724 5.29961 11.3652 5.60667 11.3652 5.98557C11.3652 6.20818 11.4719 6.40552 11.6363 6.53076L17.8689 12.7634C17.9112 12.1555 17.9432 11.5473 17.9649 10.939Z" fill="url(#paint6_linear)"/>
<path d="M3.34326 6.81692C3.38075 6.55214 3.40932 6.28586 3.45697 6.02302C3.7271 4.53423 4.7811 3.52129 6.28815 3.46938C8.10268 3.40703 9.9227 3.40374 11.737 3.46911C13.3772 3.52816 14.5651 4.7427 14.6163 6.3835C14.6709 8.1258 14.6709 9.87235 14.6163 11.6146C14.5651 13.2555 13.3776 14.4699 11.7371 14.529C9.92284 14.5945 8.1024 14.5962 6.28828 14.5281C4.64775 14.4664 3.51369 13.2491 3.40396 11.6059C3.39449 11.4637 3.364 11.3228 3.34326 11.1814C3.34326 9.72651 3.34326 8.27164 3.34326 6.81692ZM9.00177 13.5566C9.83206 13.5566 10.6632 13.5815 11.4924 13.5508C12.7925 13.5026 13.5921 12.7267 13.6225 11.4279C13.6601 9.80945 13.6601 8.18883 13.6225 6.57027C13.5921 5.27169 12.7919 4.47765 11.4924 4.45005C9.84291 4.41517 8.19167 4.41544 6.54221 4.45005C5.25255 4.4771 4.45055 5.25507 4.41553 6.53937C4.37103 8.17826 4.37103 9.82003 4.41553 11.4589C4.45055 12.7431 5.25255 13.5031 6.54234 13.5508C7.3611 13.5813 8.18192 13.5566 9.00177 13.5566Z" fill="url(#paint7_linear)"/>
<path d="M3.34326 6.81692C3.38075 6.55214 3.40932 6.28586 3.45697 6.02302C3.7271 4.53423 4.7811 3.52129 6.28815 3.46938C8.10268 3.40703 9.9227 3.40374 11.737 3.46911C13.3772 3.52816 14.5651 4.7427 14.6163 6.3835C14.6709 8.1258 14.6709 9.87235 14.6163 11.6146C14.5651 13.2555 13.3776 14.4699 11.7371 14.529C9.92284 14.5945 8.1024 14.5962 6.28828 14.5281C4.64775 14.4664 3.51369 13.2491 3.40396 11.6059C3.39449 11.4637 3.364 11.3228 3.34326 11.1814C3.34326 9.72651 3.34326 8.27164 3.34326 6.81692ZM9.00177 13.5566C9.83206 13.5566 10.6632 13.5815 11.4924 13.5508C12.7925 13.5026 13.5921 12.7267 13.6225 11.4279C13.6601 9.80945 13.6601 8.18883 13.6225 6.57027C13.5921 5.27169 12.7919 4.47765 11.4924 4.45005C9.84291 4.41517 8.19167 4.41544 6.54221 4.45005C5.25255 4.4771 4.45055 5.25507 4.41553 6.53937C4.37103 8.17826 4.37103 9.82003 4.41553 11.4589C4.45055 12.7431 5.25255 13.5031 6.54234 13.5508C7.3611 13.5813 8.18192 13.5566 9.00177 13.5566Z" fill="white"/>
<path d="M9.00027 6.11707C7.40808 6.11707 6.11719 7.40782 6.11719 9.00001C6.11719 10.5923 7.40808 11.8831 9.00027 11.8831C10.5926 11.8831 11.8834 10.5923 11.8834 9.00001C11.8834 7.40782 10.5926 6.11707 9.00027 6.11707ZM9.00027 10.8905C7.95616 10.8905 7.1098 10.0441 7.1098 9.00001C7.1098 7.9559 7.95616 7.10954 9.00027 7.10954C10.0444 7.10954 10.8907 7.9559 10.8907 9.00001C10.8907 10.0441 10.0444 10.8905 9.00027 10.8905Z" fill="white"/>
<path d="M12.7375 5.98555C12.7375 6.3643 12.4304 6.67137 12.0517 6.67137C11.6729 6.67137 11.3657 6.3643 11.3657 5.98555C11.3657 5.60666 11.6729 5.29959 12.0517 5.29959C12.4304 5.29959 12.7375 5.60666 12.7375 5.98555Z" fill="white"/>
</g>
<defs>
<radialGradient id="paint0_radial" cx="0" cy="0" r="1" gradientUnits="userSpaceOnUse" gradientTransform="translate(3.6899 15.7306) scale(19.8508)">
<stop stop-color="#FAE100"/>
<stop offset="0.0544" stop-color="#FADC04"/>
<stop offset="0.1167" stop-color="#FBCE0E"/>
<stop offset="0.1829" stop-color="#FCB720"/>
<stop offset="0.2514" stop-color="#FE9838"/>
<stop offset="0.3054" stop-color="#FF7950"/>
<stop offset="0.4922" stop-color="#FF1C74"/>
<stop offset="1" stop-color="#6C1CD1"/>
</radialGradient>
<linearGradient id="paint1_linear" x1="6.9037" y1="7.82089" x2="-23.5904" y2="-9.33206" gradientUnits="userSpaceOnUse">
<stop stop-color="#A1B5D8" stop-opacity="0"/>
<stop offset="0.3094" stop-color="#90A2BD" stop-opacity="0.309804"/>
<stop offset="0.7554" stop-color="#7C8B9C" stop-opacity="0.756863"/>
<stop offset="1" stop-color="#748290"/>
</linearGradient>
<linearGradient id="paint2_linear" x1="8.99983" y1="15.8895" x2="8.99983" y2="18.6953" gradientUnits="userSpaceOnUse">
<stop stop-color="#FAE100" stop-opacity="0"/>
<stop offset="0.3068" stop-color="#FCA800" stop-opacity="0.305882"/>
<stop offset="0.6275" stop-color="#FE7300" stop-opacity="0.627451"/>
<stop offset="0.8685" stop-color="#FF5200" stop-opacity="0.866667"/>
<stop offset="1" stop-color="#FF4500"/>
</linearGradient>
<linearGradient id="paint3_linear" x1="7.97624" y1="7.95055" x2="3.52153" y2="3.49584" gradientUnits="userSpaceOnUse">
<stop stop-color="#833AB4" stop-opacity="0"/>
<stop offset="1" stop-color="#833AB4"/>
</linearGradient>
<linearGradient id="paint4_linear" x1="12.3362" y1="16.4633" x2="10.1128" y2="5.98145" gradientUnits="userSpaceOnUse">
<stop stop-color="#833AB4" stop-opacity="0"/>
<stop offset="1" stop-color="#833AB4"/>
</linearGradient>
<linearGradient id="paint5_linear" x1="13.1826" y1="13.1824" x2="4.25211" y2="4.2519" gradientUnits="userSpaceOnUse">
<stop stop-color="#833AB4" stop-opacity="0"/>
<stop offset="1" stop-color="#833AB4"/>
</linearGradient>
<linearGradient id="paint6_linear" x1="13.8445" y1="7.77886" x2="10.8914" y2="4.8257" gradientUnits="userSpaceOnUse">
<stop stop-color="#833AB4" stop-opacity="0"/>
<stop offset="1" stop-color="#833AB4"/>
</linearGradient>
<linearGradient id="paint7_linear" x1="12.5742" y1="5.451" x2="5.29277" y2="12.7324" gradientUnits="userSpaceOnUse">
<stop stop-color="#833AB4"/>
<stop offset="0.0922" stop-color="#9C3495"/>
<stop offset="0.2927" stop-color="#DC2546"/>
<stop offset="0.392" stop-color="#FD1D1D"/>
<stop offset="0.5589" stop-color="#FC6831"/>
<stop offset="0.6887" stop-color="#FC9B40"/>
<stop offset="0.7521" stop-color="#FCAF45"/>
<stop offset="0.7806" stop-color="#FDB750"/>
<stop offset="0.8656" stop-color="#FECB6A"/>
<stop offset="0.9415" stop-color="#FFD87A"/>
<stop offset="1" stop-color="#FFDC80"/>
</linearGradient>
<clipPath id="clip0">
<rect width="18" height="18" fill="white"/>
</clipPath>
</defs>
</svg>
