<svg width="134" height="160" viewBox="0 0 134 160" fill="none" xmlns="http://www.w3.org/2000/svg">
<path d="M23.0629 62.4817C25.2136 60.5182 32.1056 58.9365 35.2828 58.3911C33.0017 65.9996 32.5944 73.3627 35.2828 82.6074C38.0663 92.1794 54.5901 95.0428 60.3742 92.4249C62.4109 94.7156 68.1135 99.7716 74.6307 101.67C82.7773 104.042 85.7101 91.4431 86.6062 87.2707C87.5023 83.0983 84.814 80.1531 83.429 79.9076C82.0441 79.6622 80.1704 79.9076 75.2825 83.7528C73.7183 75.8988 67.0816 71.6446 63.9587 70.4992C64.1488 68.6176 65.2133 63.3489 67.9505 57.3275C81.7183 58.3911 86.0359 57.2457 89.376 54.8731C92.7161 52.5006 91.3312 48.1646 90.598 47.5101C89.8648 46.8556 86.4433 45.3011 86.0359 44.7285C85.6286 44.1558 86.1989 41.0469 85.0583 41.456C83.9178 41.865 82.6958 42.765 81.2295 43.7467C79.7631 44.7285 78.704 45.3011 73.8161 45.3011C80.9036 34.2565 86.1989 32.7021 97.6041 30.0023C100.276 26.7299 103.823 26.7299 105.262 27.1389C105.506 27.5752 105.995 29.3642 105.995 33.0294C110.476 46.3647 112.512 58.8002 106.402 66.4087C113.897 71.7265 114.956 99.6243 114.956 103.633C116.977 105.531 117.427 108.678 117.4 110.014C117.074 110.287 114.761 110.947 108.113 111.405C74.8751 118.605 66.3212 111.323 56.8712 107.478C41.3112 116.641 21.7594 112.469 20.7004 112.387C19.8531 112.322 16.7629 112.142 15.3236 112.06C15.1607 111.842 15.3236 110.293 17.2788 105.842C18.4193 85.3072 20.7004 84.0801 24.0405 77.7805C20.7818 75.6534 20.2116 72.2991 18.7452 67.145C15.9428 65.4433 16.4913 62.509 17.1159 61.2545C17.9305 61.3091 20.2605 61.6309 23.0629 62.4817Z" fill="white"/>
<path d="M90.5902 27.5701C92.1543 28.1591 92.5453 29.9972 92.5453 30.8426C83.2257 33.1988 75.8449 41.8054 73.3194 45.8142C74.6772 45.6778 77.7837 45.2742 79.3479 44.7506C81.3031 44.0961 84.3173 41.3145 85.3764 41.0691C86.4354 40.8236 85.7837 43.1962 86.1095 44.7506C86.4354 46.305 89.1238 46.0596 90.8346 47.8595C92.5453 49.6593 91.8936 51.9501 89.9384 54.2408C87.9833 56.5315 83.4212 57.3497 80.6513 57.5951C78.4355 57.7914 71.3642 57.5133 68.1056 57.3497C67.128 59.1223 64.961 64.2546 64.1138 70.6032C71.8693 73.483 74.6772 81.0206 75.1117 84.4294C75.872 83.3113 78.1585 80.8788 81.2216 80.0934C85.0505 79.1117 86.5169 82.7114 86.2725 86.3111C86.0281 89.9108 84.3988 97.4375 80.9772 100.137C77.5556 102.837 74.8673 101.61 70.794 100.137C67.5353 98.9592 62.4302 94.4105 60.2849 92.2834C58.8185 92.6925 54.5334 93.3797 49.1241 92.8561C42.3624 92.2016 37.6374 86.8838 36.171 84.184C34.7046 81.4842 33.7271 77.1482 33.7271 70.0305C33.7271 62.9129 36.6598 55.877 37.4745 53.0954C38.2891 50.3138 42.118 44.996 45.8655 42.7871C48.8634 41.02 53.9577 41.5054 56.1301 41.969C60.5293 40.6873 69.963 37.813 72.5048 36.5694C75.6819 35.015 77.8 32.6424 78.4518 31.7425C79.1035 30.8426 79.7552 27.5701 80.9772 26.2611C82.1992 24.9521 81.9548 25.6066 82.688 26.6702C83.4212 27.7337 84.5617 28.5518 85.5393 28.3882C86.5169 28.2246 88.635 26.8338 90.5902 27.5701Z" fill="#FFF06B"/>
<path d="M19.3969 88.6617C21.7431 79.2369 27.6521 74.3173 30.3133 73.0356C21.1891 83.0985 18.7452 100.606 25.4254 106.579C32.1056 112.551 44.8957 107.969 49.8651 102.406C76.7814 112.485 102.03 106.224 111.29 101.833C111.942 102.133 113.522 102.864 114.63 103.388C116.015 104.042 117.645 109.36 116.667 110.424C115.885 111.275 111.073 111.433 108.765 111.405C107.38 111.651 103.323 112.387 98.1743 113.369C91.7385 114.596 76.5859 113.369 72.5941 112.714C69.4006 112.191 60.6729 109.333 56.7082 107.969C56.3281 108.187 54.4272 109.082 49.8651 110.915C44.1625 113.205 29.5801 113.533 27.3806 113.369C25.181 113.205 21.5965 112.305 20.7818 112.469C19.9672 112.633 15.7309 112.551 15.3236 111.487C14.9977 110.636 16.4913 107.588 17.2788 106.169C17.0072 104.261 17.0507 98.0864 19.3969 88.6617Z" fill="#DBDBDB"/>
<path d="M18.5008 67.0633C17.0018 66.2125 16.79 62.7273 16.8715 61.091C17.8491 65.018 19.3969 64.9362 20.7818 65.4271C21.7594 71.1539 27.815 73.7446 30.0689 73.1174C29.0099 73.8537 25.9468 75.5881 23.7961 77.6171C21.1892 76.0626 19.8857 73.1174 18.5008 67.0633Z" fill="#DBDBDB"/>
<path d="M45.6207 93.0196C35.0301 88.8472 28.0512 88.9563 25.743 90.238C27.1116 87.8164 31.69 84.5112 35.4374 83.2022C36.8224 86.5565 41.4496 90.6634 45.6207 93.0196Z" fill="#DBDBDB"/>
<path d="M81.1397 58.4131C71.038 58.904 66.0686 67.5761 64.8466 70.2759C64.8466 67.3307 65.8242 59.5585 68.6755 57.3496C71.9341 57.3496 75.9259 57.5951 81.1397 58.4131Z" fill="#DBDBDB"/>
<path d="M35.438 81.2388C40.0001 89.6654 52.9531 88.3564 56.945 83.2023C59.7148 92.6925 80.6049 105.541 86.1912 88.8473C85.5938 91.4926 84.4152 95.9486 82.1993 99.1556C79.4295 103.164 75.0304 101.692 74.1342 101.528C73.2381 101.365 65.5803 98.8284 60.2036 92.6925C54.0122 94.4923 45.6212 92.2016 44.1548 91.7107C42.6884 91.2199 36.3341 88.111 35.438 81.2388Z" fill="#E4D659"/>
<path d="M62.8105 69.8669C62.8105 61.1131 52.8988 61.9312 49.8574 62.8311C50.2648 61.6039 52.1385 58.4951 55.1527 57.5133C57.5641 56.7279 64.4127 57.1861 67.5355 57.5133C67.3997 58.2496 64.1791 67.838 62.8105 69.8669Z" fill="#E4D659"/>
<path d="M81.0588 36.9785C74.0854 41.8218 62.9463 42.5417 58.2484 42.2963C62.6801 44.7834 70.414 45.7869 73.7269 45.9778C74.7588 44.7507 77.6698 41.2327 81.0588 36.9785Z" fill="#E4D659"/>
<path d="M29.3358 14.1311C31.291 10.0732 36.0703 7.58614 38.2156 6.84983C38.3785 6.52258 40.8225 5.36085 49.295 3.33191C59.8855 0.795743 69.9873 6.52258 74.142 10.7768C77.2377 10.1223 79.03 12.0858 79.9261 14.5402C80.8222 16.9945 80.1705 19.3671 77.4007 21.6578C77.645 24.7667 75.1196 30.9026 71.861 34.9113C69.2541 38.1184 61.1618 40.9927 57.4415 42.029C55.1062 41.2927 49.1646 40.5236 44.0811 43.338C37.3684 43.2071 31.8884 37.1203 29.9876 34.0932C28.5483 34.3659 25.3277 34.1096 23.9591 30.9026C22.5905 27.6955 25.344 25.203 26.8919 24.3576C26.8919 22.6395 27.3807 18.189 29.3358 14.1311Z" fill="#FFEDD5"/>
<path d="M23.959 30.9024C26.9732 31.6387 26.7288 30.4388 28.2767 29.5934C44.4884 39.4927 74.1419 39.6563 76.1785 16.3756C77.773 16.1717 79.0551 15.6089 79.926 14.54C80.8221 16.9944 80.1704 19.3669 77.4005 21.6577C77.6449 24.7665 75.1195 30.9024 71.8609 34.9112C69.254 38.1182 61.1617 40.9926 57.4414 42.0289C55.1061 41.2925 49.1645 40.5235 44.081 43.3378C37.3682 43.2069 31.8883 37.1201 29.9874 34.0931C28.5482 34.3658 25.3276 34.1095 23.959 30.9024Z" fill="#FFE2BA"/>
<path d="M46.9326 19.3674C49.4743 17.6658 55.7581 17.0222 58.5822 16.9131C60.293 22.0672 56.0568 24.0307 54.346 24.2762C52.6352 24.5216 47.5843 23.7035 46.9326 19.3674Z" fill="#FF999A"/>
<path fill-rule="evenodd" clip-rule="evenodd" d="M47.8493 19.6717C48.9909 21.6737 50.3848 22.6534 51.6212 23.1141C53.0345 23.6407 54.3004 23.5103 54.8559 23.3501C55.4604 23.1758 56.519 22.6993 57.2703 21.731C57.924 20.8884 58.4146 19.5855 58.0413 17.558C53.704 17.725 49.8362 18.8814 47.8493 19.6717ZM46.3767 18.5285C48.1961 17.6714 53.1301 15.9846 58.6849 15.9032C59.0595 15.8977 59.3879 16.1501 59.4806 16.5146C60.1981 19.3377 59.6186 21.3581 58.5516 22.7333C57.517 24.0669 56.1049 24.6906 55.2959 24.9239C54.4377 25.1714 52.8145 25.3084 51.0474 24.6499C49.2505 23.9804 47.3597 22.5085 45.9841 19.6276C45.8901 19.4306 45.8786 19.2034 45.9524 18.9969C46.0262 18.7903 46.179 18.6217 46.3767 18.5285Z" fill="#887A6F"/>
<path fill-rule="evenodd" clip-rule="evenodd" d="M45.8671 12.301C46.5007 12.6589 47.1001 13.1975 47.3824 13.8621C47.5589 14.2777 47.3666 14.7583 46.9527 14.9356C46.5389 15.1129 46.0603 14.9197 45.8837 14.5041C45.7915 14.2869 45.5193 13.9819 45.0683 13.7271C44.6302 13.4797 44.1279 13.3406 43.6908 13.3557C43.2722 13.3701 42.9481 13.5191 42.7238 13.8221C42.4831 14.1472 42.2659 14.773 42.3529 15.9181C42.3872 16.3686 42.0512 16.7617 41.6026 16.7961C41.154 16.8305 40.7626 16.4931 40.7283 16.0426C40.6246 14.6779 40.8551 13.6037 41.4164 12.8457C41.994 12.0655 42.8264 11.7483 43.635 11.7204C44.425 11.6932 45.2205 11.9358 45.8671 12.301Z" fill="#887A6F"/>
<path fill-rule="evenodd" clip-rule="evenodd" d="M60.9236 9.3653C61.384 9.7056 61.7779 10.1254 62.0575 10.5237C62.3192 10.8964 62.235 11.4062 61.8695 11.6623C61.5041 11.9185 60.9956 11.8239 60.734 11.4512C60.5533 11.1938 60.2847 10.9065 59.9764 10.6786C59.6633 10.4471 59.3618 10.3153 59.1104 10.2868C58.8916 10.2621 58.6771 10.3083 58.4491 10.5194C58.1952 10.7544 57.8898 11.2299 57.6411 12.1401C57.5226 12.574 57.075 12.8222 56.6414 12.6945C56.2078 12.5669 55.9524 12.1117 56.071 11.6778C56.3626 10.6102 56.7798 9.81778 57.3346 9.30428C57.9152 8.76682 58.5954 8.58399 59.2614 8.65936C59.8947 8.73104 60.4681 9.02855 60.9236 9.3653Z" fill="#887A6F"/>
<path fill-rule="evenodd" clip-rule="evenodd" d="M45.9371 1.22513C45.981 0.775455 46.3797 0.446727 46.8274 0.490892C49.2817 0.732966 51.5172 1.86694 52.5985 2.87851C52.8686 3.13115 53.1229 3.4274 53.268 3.75196C53.4149 4.08052 53.5167 4.6348 53.0983 5.08791C52.7611 5.4531 52.2678 5.52482 51.9053 5.53276C51.4979 5.54167 50.9996 5.4735 50.4161 5.33755C49.495 5.12293 48.6174 4.90676 47.7912 4.70324C46.6548 4.4233 45.6155 4.16731 44.6938 3.97224C45.0633 4.1444 45.4153 4.32967 45.6853 4.52285C45.8951 4.67296 46.2398 4.95176 46.3574 5.37965C46.4273 5.63404 46.4072 5.90789 46.2824 6.15929C46.1681 6.3895 45.9921 6.54917 45.8334 6.65868C45.4632 6.91404 45.0162 6.98319 44.636 6.99486C44.2384 7.00706 43.7975 6.95861 43.3516 6.88265C42.4696 6.73238 41.4348 6.4497 40.4511 6.18098L40.4241 6.1736C39.4085 5.89618 38.4469 5.63435 37.6517 5.49887C37.3934 5.45487 37.1671 5.42688 36.9733 5.41476C37.2624 5.62219 37.6364 5.853 38.0577 6.10219C38.1634 6.16466 38.2723 6.22848 38.3826 6.29307C38.8867 6.58828 39.4184 6.89968 39.7852 7.17291C39.9028 7.26045 40.0209 7.35657 40.1252 7.45946C40.2228 7.55579 40.3463 7.69469 40.4326 7.87295C40.5239 8.06128 40.6041 8.36533 40.47 8.6971C40.3443 9.00825 40.0976 9.17106 39.9309 9.25174C39.371 9.52254 38.7452 9.44316 38.2672 9.32864C37.764 9.20811 37.2266 8.99628 36.7514 8.80598C36.7159 8.79174 36.6806 8.77761 36.6457 8.76361C36.1884 8.58025 35.7857 8.41877 35.426 8.31652C35.0107 8.19847 34.8309 8.21553 34.7848 8.23146C34.3593 8.37835 33.8958 8.15104 33.7495 7.72375C33.6032 7.29646 33.8296 6.83099 34.2551 6.6841C34.8064 6.49378 35.4096 6.61132 35.8698 6.74214C35.9579 6.76719 36.0474 6.79484 36.1377 6.82443C35.8905 6.65254 35.662 6.4758 35.4764 6.2991C35.2669 6.09967 34.9844 5.78499 34.8991 5.37208C34.8508 5.13799 34.868 4.88026 34.9844 4.63329C35.0955 4.39737 35.27 4.22862 35.4424 4.10965C35.8126 3.85429 36.2596 3.78514 36.6399 3.77347C37.0374 3.76127 37.4783 3.80971 37.9242 3.88568C38.8063 4.03595 39.8411 4.31863 40.8247 4.58734L40.8517 4.59473C41.8416 4.86513 42.7802 5.12072 43.5634 5.25893C43.4545 5.21212 43.3411 5.16433 43.2239 5.11559C43.1063 5.06671 42.9849 5.01685 42.862 4.96638C42.34 4.75204 41.7912 4.52672 41.4012 4.31935C41.1898 4.20691 40.8722 4.02487 40.6754 3.76084C40.5632 3.6102 40.4087 3.32074 40.4888 2.9527C40.5659 2.59825 40.8129 2.39826 40.9664 2.30308C41.4593 1.99739 42.1193 1.97367 42.6981 2.00864C43.3249 2.04651 44.076 2.17262 44.8978 2.34347C45.8698 2.54558 47.0098 2.82612 48.2302 3.12647C49.0539 3.32918 49.9142 3.54091 50.7844 3.74365C50.9354 3.77885 51.0723 3.80695 51.1957 3.82899C50.2803 3.12241 48.5663 2.30651 46.6682 2.1193C46.2204 2.07513 45.8931 1.6748 45.9371 1.22513ZM52.0359 3.87932C52.036 3.87937 52.0346 3.87989 52.0315 3.88072C52.0343 3.87968 52.0359 3.87927 52.0359 3.87932ZM44.8466 5.9437C44.8466 5.9437 44.8464 5.94342 44.8459 5.94287C44.8464 5.94342 44.8467 5.9437 44.8466 5.9437ZM44.9131 5.30842C44.9145 5.30725 44.9153 5.30668 44.9154 5.30669C44.9154 5.3067 44.9147 5.30729 44.9131 5.30842ZM39.003 8.64761C39.003 8.64761 39.0023 8.64687 39.0012 8.64539C39.0025 8.64688 39.0031 8.64762 39.003 8.64761Z" fill="#887A6F"/>
<path fill-rule="evenodd" clip-rule="evenodd" d="M43.4932 3.90583C52.3673 1.38885 60.0457 1.07989 68.8809 5.44275C71.2036 6.58968 72.9742 8.178 74.3048 9.98138C76.7545 9.63349 78.5904 10.3254 79.8449 12.5775C81.3112 15.2098 81.1928 18.5727 79.4187 20.9528C79.0191 21.4889 78.5322 21.9688 77.9674 22.2735C77.9411 28.0965 75.3896 32.6221 71.5716 36.0062C67.6529 39.4796 62.4025 41.7541 57.1509 43.0748L54.672 41.048C60.619 40.0663 66.8352 38.022 70.4934 34.7795C74.1303 31.5559 76.4612 27.2898 76.3333 21.7493C76.2591 18.5362 75.4911 14.5728 73.2713 11.3425C72.0542 9.57148 70.3978 8.01511 68.162 6.91108C59.8013 2.78254 52.5678 3.03613 43.9642 5.47249C43.933 5.48382 43.9016 5.49525 43.8699 5.50677C42.318 6.07065 40.1481 6.8591 37.9676 7.895C35.7192 8.96316 33.5254 10.2646 32.0056 11.7997C29.0968 14.7381 27.1196 19.009 27.8086 24.5263C28.0298 26.2979 28.527 28.2082 29.3656 30.2538C29.855 31.4478 30.406 32.6153 31.0362 33.729C33.7008 38.4375 38.9231 41.4006 45.8737 42.1116L44.5692 44.5425C37.2311 43.7919 32.7845 39.8687 29.9111 35.0396C28.7953 35.2017 27.4489 35.1703 26.2039 34.6357C24.678 33.9806 23.4153 32.6154 22.9121 30.2458C22.4967 28.2898 23.0334 26.7011 23.913 25.5944C24.5305 24.8175 25.3374 24.2561 26.1132 23.9867C25.6166 18.2739 27.7573 13.7703 30.8502 10.6461C32.5682 8.91069 34.9628 7.51241 37.2709 6.41591C39.5223 5.34629 41.7542 4.53541 43.3016 3.97321C43.3475 3.95654 43.3927 3.94009 43.4374 3.92386L43.465 3.91383L43.4932 3.90583ZM26.3311 25.6681C25.9595 25.8559 25.5435 26.1658 25.1864 26.6151C24.595 27.3593 24.1972 28.4527 24.5056 29.9045C24.907 31.7946 25.8425 32.7011 26.8444 33.1313C27.5382 33.4291 28.3132 33.5186 29.0515 33.4817C28.6146 32.6283 28.2194 31.7561 27.8589 30.8766C27.1132 29.0575 26.6145 27.3201 26.3311 25.6681ZM77.8855 20.255C77.9613 20.1692 78.0377 20.075 78.1143 19.9722C79.5116 18.0978 79.5802 15.4537 78.423 13.3763C77.6464 11.9821 76.8635 11.4988 75.3188 11.5371C76.9381 14.3582 77.6593 17.5037 77.8855 20.255Z" fill="#887A6F"/>
<path fill-rule="evenodd" clip-rule="evenodd" d="M101.778 28.2293C99.229 28.9008 97.3597 31.9602 95.7303 35.3963C95.1805 35.4614 96.0563 31.9184 96.5451 30.6571C91.463 31.4764 87.0776 33.6858 83.7192 36.085C80.0022 38.7404 77.3674 41.6896 74.4679 45.7923C74.2075 46.1608 73.699 46.2475 73.3321 45.986C72.9651 45.7245 72.8788 45.2138 73.1392 44.8453C76.0852 40.6768 78.8439 37.5599 82.7747 34.7517C86.6382 31.9916 91.2517 30.0909 97.196 29.3344C98.327 27.8036 99.895 27.0338 101.365 26.6466C102.911 26.2392 104.412 26.2392 105.289 26.2393L105.308 26.2393C105.649 26.2393 105.954 26.4527 106.073 26.7742C106.85 28.8892 106.812 30.3414 106.776 31.7584C106.77 31.9726 106.765 32.1861 106.762 32.4008C107.031 32.8306 107.313 33.4643 107.592 34.1977C107.946 35.1283 108.332 36.3191 108.715 37.6929C109.48 40.4409 110.24 43.9553 110.7 47.6434C111.158 51.3269 111.321 55.2155 110.873 58.6997C110.468 61.8514 109.552 64.7632 107.816 66.8735C109.262 68.4009 110.436 70.5023 111.396 72.9301C112.485 75.6868 113.32 78.9269 113.952 82.3654C115.191 89.1165 115.658 96.7137 115.674 103.097C115.975 103.411 116.249 103.805 116.491 104.218C116.822 104.782 117.13 105.443 117.393 106.127C117.912 107.477 118.296 109.022 118.296 110.193C118.296 110.47 118.156 110.729 117.924 110.879C116.661 111.701 114.739 112.038 113.007 112.146C111.349 112.25 109.697 112.152 108.64 111.96C89.9658 116.768 70.0854 114.925 57.36 108.945C53.3492 111.058 47.4562 112.556 40.6965 113.517C33.7952 114.498 26.421 114.468 20.8006 113.03C19.9679 113.171 18.8108 113.369 17.729 113.293C17.1429 113.251 16.5525 113.17 16.0308 113.03C15.5296 112.897 14.997 112.686 14.6146 112.327C14.4691 112.19 14.3786 112.005 14.36 111.806C14.1641 109.701 15.2962 107.561 16.6272 106.002C16.6972 98.6897 16.9726 86.8423 22.8789 78.184C19.6004 75.3692 18.8896 71.5899 18.1933 67.7971C16.8335 67.1347 16.202 65.7423 15.9742 64.4625C15.7213 63.0424 15.9053 61.4898 16.3451 60.5303C16.4517 60.2978 16.6606 60.1287 16.9095 60.0735C17.1585 60.0184 17.4188 60.0834 17.613 60.2493C18.2876 60.8257 18.8343 60.8372 19.7252 60.8372H19.7343C20.5747 60.8372 21.6137 60.8372 22.8789 61.4867C24.6867 60.3608 26.9047 59.2307 29.0849 58.3594C31.4132 57.4288 33.7915 56.7551 35.6086 56.7551C36.0585 56.7551 36.4233 57.1214 36.4233 57.5733C36.4233 58.0251 36.0585 59.2095 35.6086 59.2095C31.9964 59.2095 26.3614 61.1794 23.3443 63.1265C23.0816 63.2961 22.7455 63.2999 22.479 63.1363C21.4039 62.4764 20.5992 62.4735 19.7252 62.4735L19.6936 62.4735C19.0527 62.4736 18.3335 62.4737 17.567 62.1384C17.4697 62.7352 17.4517 63.4648 17.578 64.1745C17.783 65.3256 18.3077 66.1529 19.1671 66.4301C19.4578 66.5239 19.6718 66.773 19.7217 67.0755C20.3248 70.7358 21.0906 73.8002 24.0406 76.39C27.0548 72.9539 31.5354 72.3787 30.2308 73.2431C27.9509 74.7538 26.6765 76.2419 25.0996 78.4353C19.0504 86.8497 17.937 98.6557 17.8997 106.002C17.8989 106.168 17.8476 106.33 17.7527 106.466C17.1346 107.354 16.6631 108.427 16.3596 109.418C16.1254 110.183 16.0088 110.84 15.9815 111.287C17.2569 111.87 19.4951 112.063 20.8006 111.806C20.9211 111.782 21.0454 111.786 21.1642 111.817C26.507 113.224 33.5921 112.874 40.4681 111.897C46.5334 111.035 51.0127 109.65 54.8345 107.882C51.5759 106.164 48.1707 101.164 50.3642 102.525C52.9846 104.151 55.5362 105.393 58.5005 106.818C70.8788 112.769 88.5553 115.58 107.136 110.751C107.256 110.72 108.657 110.296 108.778 110.321C111.362 110.854 113.755 110.563 116.097 109.436C115.662 104.892 114.057 104.666 111.209 101.828C111.209 101.294 112.838 101.5 114.036 101.828C113.964 95.7905 113.485 88.848 112.349 82.6621C111.73 79.2873 110.918 76.1586 109.881 73.5335C108.907 71.0673 107.754 69.0995 106.42 67.7806C103.225 69.1846 99.7236 68.4841 96.3821 67.2212C91.474 65.3661 87.3394 59.6871 88.6671 59.6871C94.9232 67.1719 107.719 70.4572 109.257 58.4903C109.681 55.1913 109.532 51.4517 109.083 47.8464C108.635 44.2458 107.891 40.8109 107.146 38.1336C106.773 36.7948 106.402 35.6538 106.07 34.7818C105.751 35.3963 104.876 36.2733 104.728 36.085C105.751 31.4752 105.109 29.089 104.728 27.8787C103.898 27.8908 102.842 27.9491 101.778 28.2293ZM68.0409 56.8274C68.4511 57.0131 68.8687 57.4886 68.6838 57.9005C66.6707 62.3859 65.9955 65.6726 65.1808 70.6387C65.0717 71.0771 63.7903 70.7483 63.3538 70.6387C62.9173 70.5292 62.6519 70.085 62.761 69.6466C64.0739 64.3727 64.9033 61.8272 66.9634 57.2371C67.1483 56.8251 67.6307 56.6417 68.0409 56.8274Z" fill="#887A6F"/>
<path fill-rule="evenodd" clip-rule="evenodd" d="M36.7698 17.5287C37.0007 17.2514 37.4117 17.2146 37.6878 17.4465C38.5186 18.1443 39.0603 18.7554 39.2718 19.2928C39.3831 19.5756 39.4357 19.9249 39.2802 20.2609C39.1235 20.5993 38.8266 20.7716 38.5688 20.8527C38.0835 21.0054 37.4599 20.9318 36.8907 20.7781C36.3079 20.6208 35.6713 20.3494 35.0855 19.982C35.0108 19.9504 34.943 19.9231 34.8816 19.8998C34.9098 20.0038 34.9394 20.1199 34.9603 20.2313C34.9924 20.402 35.0273 20.668 34.9468 20.9339C34.847 21.2636 34.5974 21.5078 34.2472 21.6033C33.9549 21.6831 33.6263 21.651 33.2989 21.5777C32.7167 21.4474 32.3594 21.184 31.7001 20.698C31.6893 20.69 31.6784 20.682 31.6674 20.6739C31.3772 20.46 31.3146 20.0504 31.5276 19.759C31.7406 19.4676 32.1484 19.4047 32.4386 19.6186C33.1645 20.1536 33.3044 20.2378 33.5825 20.3001C33.6036 20.3048 33.6235 20.309 33.6423 20.3127C33.6293 20.2629 33.6143 20.209 33.5975 20.1487C33.5908 20.1243 33.5837 20.0988 33.5763 20.0721C33.5365 19.9277 33.4813 19.724 33.4656 19.5289C33.4516 19.3555 33.4501 18.9843 33.7475 18.7074C34.0421 18.433 34.423 18.444 34.6693 18.4825C34.9418 18.5252 35.2663 18.6352 35.6459 18.7989C35.678 18.8127 35.7091 18.8292 35.7386 18.8481C36.2252 19.159 36.7583 19.3869 37.229 19.514C37.5592 19.6031 37.8137 19.6306 37.9841 19.6277C37.8373 19.3882 37.5059 19.0002 36.8516 18.4506C36.5755 18.2187 36.5389 17.8059 36.7698 17.5287ZM38.0746 19.8213C38.0746 19.8213 38.0744 19.8205 38.0742 19.8191C38.0745 19.8206 38.0746 19.8213 38.0746 19.8213ZM34.7642 19.4052C34.7644 19.4054 34.7647 19.4093 34.7643 19.4162C34.7639 19.4084 34.764 19.405 34.7642 19.4052ZM34.4242 19.7708C34.4175 19.7712 34.4137 19.771 34.4135 19.7708C34.4133 19.7706 34.4167 19.7704 34.4242 19.7708Z" fill="#FB9A99"/>
<path fill-rule="evenodd" clip-rule="evenodd" d="M69.9677 12.3601C70.1977 12.0821 70.6086 12.0439 70.8854 12.2748C71.3175 12.6352 71.6546 12.96 71.9024 13.2525C72.1427 13.5363 72.3346 13.8308 72.4203 14.1317C72.514 14.461 72.4865 14.8461 72.2086 15.1493C71.9711 15.4085 71.6447 15.4983 71.3953 15.5317C70.8827 15.6002 70.2287 15.4904 69.6037 15.3012C68.985 15.114 68.3227 14.827 67.7359 14.4644C67.8019 14.6221 67.8776 14.8042 67.9366 14.9774C68.002 15.1697 68.0779 15.4349 68.0641 15.7009C68.0567 15.8435 68.0223 16.0172 67.9202 16.1843C67.8132 16.3594 67.6576 16.485 67.4788 16.5601C67.1597 16.6942 66.7941 16.658 66.4681 16.5856C66.1298 16.5106 65.8141 16.3129 65.5903 16.1676C65.5252 16.1254 65.4649 16.0855 65.4079 16.0477C65.2335 15.9324 65.0907 15.8379 64.943 15.7632C64.7494 15.6653 64.6743 15.6714 64.6617 15.6739C64.6616 15.6739 64.6616 15.6739 64.6616 15.6739C64.6601 15.6741 64.6477 15.676 64.6203 15.6987C64.5877 15.7257 64.5311 15.7851 64.4608 15.9073C64.2807 16.2203 63.8821 16.3274 63.5704 16.1465C63.2588 15.9657 63.1521 15.5654 63.3322 15.2524C63.5884 14.8071 63.9404 14.4819 64.4111 14.3893C64.8508 14.3028 65.2479 14.4518 65.5293 14.5941C65.7519 14.7067 65.9817 14.8591 66.1668 14.9819C66.2136 15.013 66.2576 15.0422 66.2979 15.0683C66.4624 15.1751 66.5767 15.2398 66.6577 15.2755C66.6197 15.1759 66.5751 15.0694 66.5259 14.9518C66.5171 14.9307 66.5081 14.9092 66.499 14.8873C66.424 14.7076 66.3347 14.4906 66.279 14.289C66.2506 14.1865 66.2241 14.0644 66.2173 13.9358C66.2107 13.8106 66.2203 13.634 66.306 13.4551C66.5245 12.9988 66.9861 12.9434 67.2684 12.968C67.5535 12.9927 67.8909 13.1038 68.2721 13.2668C68.3042 13.2806 68.3352 13.2969 68.3647 13.3156C68.8584 13.6287 69.4384 13.8841 69.9797 14.0479C70.4081 14.1775 70.7689 14.2368 71.0225 14.2429C70.9915 14.2008 70.9542 14.1534 70.9095 14.1006C70.7265 13.8846 70.4498 13.6131 70.0526 13.2818C69.7757 13.0508 69.7377 12.6382 69.9677 12.3601ZM71.3087 14.2154C71.3088 14.2154 71.3083 14.2156 71.3074 14.216C71.3083 14.2155 71.3087 14.2153 71.3087 14.2154Z" fill="#FB9A99"/>
<path fill-rule="evenodd" clip-rule="evenodd" d="M84.896 42.1104C83.0047 42.7631 81.5433 44.6548 79.7637 45.3829C75.1267 47.28 70.1965 46.6689 65.6655 45.626C63.3888 45.102 61.2629 44.4414 59.4611 43.872C59.3495 43.8368 59.2394 43.8019 59.1307 43.7676C57.4559 43.2378 56.1332 42.8194 55.2087 42.6563C52.3043 42.144 48.6756 42.1586 45.2283 44.2767C41.7834 46.3933 38.3733 50.7005 36.0949 59.0828C34.5927 64.6095 33.9719 70.7304 34.6781 76.1341C35.3859 81.5502 37.4069 86.1249 41.0663 88.752C47.9387 93.686 54.9965 92.4889 58.7455 91.5248C57.4414 89.435 55.9199 86.5958 56.816 83.1054C56.9315 82.6554 57.8011 84.6526 58.5011 86.6161C61.056 93.7825 67.9599 99.6356 75.912 101.214C78.03 101.635 79.8325 100.788 81.3115 99.1334C85.4398 94.5144 89.3589 77.0747 79.1934 82.1983C76.5325 83.5394 74.2493 86.5951 72.5853 88.9595C72.3256 89.3285 71.9287 90.3745 71.5613 90.1138C71.9148 87.5161 73.8141 84.2641 74.3311 83.8142C73.6876 81.6776 72.64 78.7968 70.632 76.2216C68.4606 73.4368 65.553 71.2374 61.8738 71.0092C57.046 70.7096 53.4263 72.3079 51.0748 74.0652C48.8323 75.9603 47.9198 77.2498 47.4474 78.0056C46.5303 79.4729 47.207 75.6012 48.7509 74.0652C47.9678 74.1143 46.8839 74.4316 46.1439 74.7304C44.922 75.224 44.0521 75.983 44.5705 75.0806C45.7924 72.9535 48.7371 72.3984 50.3661 72.5593C52.9855 70.6828 56.8868 69.0604 61.9743 69.376C66.2919 69.6439 69.5845 72.2243 71.9148 75.2128C73.8907 77.7469 74.9429 79.9626 75.6848 82.1983C78.6232 78.9258 81.8818 78.1077 85.059 79.4985C89.8654 82.1983 86.0834 95.587 82.2968 99.8236C80.5455 101.783 78.1973 102.978 75.3688 102.417C67.7174 100.898 62.3909 96.3273 60.2956 93.7825C56.3969 94.9538 47.8273 95.6174 40.1187 90.0831C38.4408 88.8785 36.2645 86.3532 35.2019 84.5708C30.0695 85.9616 25.2174 91.2264 25.7518 90.1138C27.707 86.0434 32.595 83.4198 34.3873 82.5255C31.9466 75.1648 32.5265 65.9975 34.5231 58.652C36.87 50.0174 40.466 45.2845 44.378 42.881C48.2875 40.4789 52.3664 40.4936 55.4905 41.0447C56.5264 41.2275 57.9498 41.6781 59.5602 42.1879C59.689 42.2286 59.819 42.2698 59.9502 42.3112C61.7504 42.8801 63.8219 43.523 66.0295 44.0312C70.4291 45.0438 75.2374 45.4876 79.3747 43.8361C80.8285 43.2558 83.4164 40.8261 84.4533 40.4682C84.9734 40.2887 85.5887 40.2006 86.1072 40.5482C86.6115 40.8863 86.7418 41.4535 86.7887 41.8194C86.8372 42.1973 86.8262 42.6348 86.8167 43.0125L86.8155 43.0589C86.8051 43.4774 86.7973 43.8565 86.832 44.2011C86.8669 44.548 86.9388 44.7799 87.0334 44.9283C87.1095 45.0477 87.2231 45.1527 87.4709 45.2113C89.3268 45.6502 91.1621 46.4972 92.0757 48.0203C93.0451 49.6366 92.8037 51.6854 91.2207 54.07C90.0104 55.8932 87.9498 56.9931 85.7916 57.6416C83.6185 58.2946 81.2337 58.5246 79.2191 58.5246C77.7705 58.5246 75.9153 58.471 73.8306 58.4107C68.2591 58.2498 61.0482 58.0414 55.5772 58.6823C53.8017 58.8903 52.4983 59.5161 50.3846 62.229C50.0657 62.5477 49.5057 63.4327 49.8099 62.1341C50.0615 61.0601 50.7561 59.9676 51.3578 59.5161C50.9726 59.6449 47.5321 61.4547 47.7733 60.8251C48.1806 59.7615 50.0917 57.316 55.2087 56.5093C60.8268 55.8338 68.391 56.6149 74.0275 56.7778C76.0631 56.8366 77.8531 56.8883 79.2191 56.8883C81.1282 56.8883 83.3462 56.6685 85.3245 56.074C87.3178 55.4751 88.9572 54.5299 89.865 53.1624C91.2691 51.0474 91.1906 49.7158 90.68 48.8646C90.1136 47.9203 88.8261 47.2128 87.0975 46.804C86.4492 46.6507 85.9721 46.2981 85.6613 45.8106C85.369 45.3522 85.2575 44.8279 85.211 44.3657C85.1646 43.9055 85.1765 43.4271 85.1864 43.0292L85.1867 43.018C85.1927 42.7788 85.2823 41.9771 84.896 42.1104Z" fill="#887A6F"/>
<path fill-rule="evenodd" clip-rule="evenodd" d="M81.6185 26.5682C81.1574 27.1617 80.4909 28.5975 79.5142 31.555C79.5048 31.5833 79.4939 31.6111 79.4815 31.6383C78.9592 32.7826 78.0147 33.8459 76.8758 34.8028C75.7291 35.7662 74.339 36.6604 72.8626 37.4547C69.9134 39.0414 66.5443 40.2701 63.913 40.8625C63.474 40.9613 63.0383 40.684 62.9399 40.2431C62.8415 39.8022 63.1176 39.3647 63.5566 39.2659C66.0388 38.707 69.2694 37.5316 72.0932 36.0124C73.5033 35.2537 74.793 34.4194 75.8303 33.5478C76.8593 32.6833 77.5962 31.8185 77.9825 30.9952C78.9402 28.1008 79.6767 26.4075 80.334 25.5617C80.6617 25.1398 81.1151 24.7393 81.7218 24.7361C82.3178 24.733 82.7318 25.1187 82.9675 25.3882C83.2108 25.6663 83.4357 26.0244 83.6271 26.3292L83.6467 26.3605C83.8587 26.6979 84.0498 26.9999 84.2564 27.2529C84.4643 27.5075 84.639 27.6496 84.7861 27.7152C84.9025 27.7672 85.0404 27.791 85.2614 27.7111C85.6595 27.5672 86.0471 27.4125 86.4317 27.2574C86.4715 27.2414 86.5113 27.2254 86.5511 27.2093C86.8918 27.0718 87.2336 26.9339 87.5635 26.8114C88.2853 26.5435 89.0536 26.3079 89.7937 26.3142C90.5889 26.321 91.331 26.6068 91.9364 27.3047C92.5049 27.9599 92.9099 28.9292 93.2079 30.2247C93.3091 30.6649 92.9397 30.6451 92.5013 30.7468C92.0629 30.8485 91.7216 31.0332 91.6204 30.593C91.3465 29.4026 91.0194 28.7386 90.7079 28.3795C90.4333 28.063 90.1477 27.9535 89.7799 27.9504C89.3572 27.9468 88.8273 28.0867 88.1284 28.3461C87.8214 28.4601 87.5016 28.5891 87.1572 28.7281C87.118 28.7439 87.0785 28.7598 87.0387 28.7759C86.6533 28.9313 86.2417 29.0958 85.8132 29.2507C85.2075 29.4696 84.6344 29.4381 84.1243 29.2104C83.6448 28.9964 83.2775 28.6345 82.9966 28.2905C82.7199 27.9517 82.4795 27.5689 82.2804 27.2521L82.2688 27.2336C82.0511 26.8871 81.8919 26.6378 81.7434 26.468C81.7026 26.4213 81.6473 26.5311 81.6185 26.5682Z" fill="#887A6F"/>
<path d="M115.656 129.426C115.61 128.31 115.534 126.807 115.463 125.485C115.409 124.467 116.281 123.645 117.292 123.732C121.658 124.106 126.433 124.064 129.428 123.947C130.368 123.911 131.16 124.66 131.16 125.604V128.865C131.16 129.689 130.549 130.385 129.735 130.488L127.005 130.836C126.393 130.914 125.914 131.342 125.825 131.956C125.703 132.787 125.532 134.195 125.319 136.426C124.983 139.951 125.391 149.682 125.697 155.235C125.741 156.044 125.192 156.76 124.391 156.861C123.958 156.916 123.459 156.968 122.917 157.008C121.943 157.078 121.166 156.222 121.218 155.242C121.469 150.469 121.599 139.585 121.644 132.932C121.651 132.025 120.92 131.287 120.018 131.243C119.198 131.204 118.189 131.135 117.112 131.023C116.301 130.938 115.69 130.244 115.656 129.426Z" fill="#8379C0"/>
<path d="M112.032 136.199L110.484 135.886C109.683 135.724 109.132 134.988 109.157 134.167C109.265 130.61 108.553 129.708 105.58 129.997C102.241 130.321 101.404 132.761 102.158 136.541C102.912 140.322 111.808 143.02 112.993 147.341C114.178 151.662 111.683 156.776 104.25 156.992C98.5616 157.157 97.2834 152.194 97.3407 149.368C97.3456 149.123 97.3827 148.861 97.5922 148.736C97.8971 148.554 98.4993 148.356 99.4327 148.356C100.251 148.355 100.82 149.129 101.17 149.872C102.24 152.147 105.742 154.054 107.266 151.268C109.097 147.919 106.62 145.865 103.496 143.813C100.372 141.76 98.3258 139.492 98.2181 135.603C98.1104 131.714 99.8338 125.232 107.266 125.016C112.385 124.868 113.851 130.848 113.839 134.812C113.836 135.754 112.951 136.385 112.032 136.199Z" fill="#91DF76"/>
<path d="M80.7598 151.436C80.7868 144.481 80.5898 130.479 80.4553 122.391C80.4383 121.367 81.3523 120.58 82.3664 120.692C85.4782 121.036 89.1836 121.113 91.6358 121.098C92.5127 121.092 93.2499 121.769 93.3065 122.647L93.4165 124.356C93.4773 125.299 92.7318 126.097 91.7906 126.097H90.277C89.3878 126.097 88.6628 126.813 88.6479 127.706L88.486 137.422C88.4717 138.285 89.2118 138.965 90.066 138.875C90.8694 138.791 91.5832 139.39 91.6423 140.2L91.7339 141.453C91.8009 142.37 91.0786 143.15 90.1637 143.15C89.3283 143.15 88.6383 143.806 88.5917 144.643L88.5666 145.094C88.5104 146.106 89.3743 146.925 90.377 146.811L93.1752 146.493C94.1781 146.378 95.0422 147.198 94.9855 148.21L94.8498 150.633C94.8042 151.448 94.17 152.104 93.3601 152.171L93.0506 152.196C90.5719 152.4 86.5903 152.727 82.5438 153.082C81.5818 153.167 80.756 152.406 80.7598 151.436Z" fill="#F5D45E"/>
<path d="M53.0097 130.709C53.9692 130.193 55.1796 129.528 56.1782 128.949C56.9994 128.474 58.0735 128.741 58.4484 129.616C59.6059 132.315 60.7311 136.291 61.6436 139.664C62.037 141.118 64.0047 141.246 64.6102 139.867C65.1154 138.717 66.6923 138.569 67.3853 139.617C68.1837 140.823 70.0412 140.418 70.27 138.988L71.9588 128.43C72.0857 127.637 72.7674 127.054 73.5675 127.054H75.6143C76.7283 127.054 77.5226 128.154 77.2014 129.225C76.4521 131.724 75.3247 135.765 74.1503 140.744C73.1107 145.152 71.8929 149.231 70.9325 152.173C70.4789 153.563 68.6141 153.626 68.026 152.288L66.7974 149.494C66.3208 148.41 64.9855 148.255 64.3558 149.257C63.9264 149.941 63.4047 150.805 62.7872 151.875C62.0865 153.09 60.2803 152.957 59.7938 151.641C58.0969 147.051 55.9719 141.468 52.2627 132.845C51.9204 132.049 52.2488 131.117 53.0097 130.709Z" fill="#70D0E6"/>
<path d="M31.3315 156.205L30.6645 125.831C30.6456 124.974 31.2909 124.242 32.1439 124.208C43.5431 123.755 52.4056 130.784 51.5981 143.532C50.9779 153.323 39.8502 156.956 33.0408 157.749C32.1265 157.856 31.3518 157.129 31.3315 156.205Z" fill="#FF999A"/>
<path d="M20.545 151.162L20.7368 124.008C20.7438 123.014 21.6274 122.262 22.6174 122.277C23.495 122.291 24.3038 122.225 25.0032 122.123C26.1195 121.959 27.2933 122.763 27.3354 123.895L28.3021 149.897C28.3304 150.659 27.8306 151.34 27.0972 151.538L22.5976 152.754C21.5578 153.035 20.5373 152.244 20.545 151.162Z" fill="#E08EDD"/>
<path d="M2.48749 127.483L5.69031 126.228C6.65232 125.851 7.70861 126.458 7.81215 127.49C7.96203 128.983 8.06008 130.69 8.12163 132.278C8.18014 133.788 10.0781 134.491 11.0685 133.353L14.0513 129.927C14.5496 129.354 15.3763 129.201 16.0172 129.606C16.2593 129.759 16.5177 129.929 16.7806 130.11C17.651 130.713 17.5606 131.967 16.7397 132.636C14.8221 134.197 12.9963 136.135 11.8324 137.489C11.3652 138.032 11.3389 138.82 11.7421 139.413L17.7036 148.177C18.1208 148.79 18.0743 149.609 17.5903 150.171L17.5588 150.207C16.8395 151.042 15.5203 150.937 14.9415 149.998L10.1871 142.289C9.79211 141.648 8.89371 141.573 8.46189 142.189C8.34001 142.363 8.21282 142.648 8.21067 142.86C8.19308 144.595 8.0573 149.252 7.95126 152.655C7.91775 153.731 6.86916 154.501 5.81513 154.308C5.03221 154.164 4.22356 154.046 3.51434 153.955C2.64802 153.845 1.99357 153.094 2.02784 152.218C2.11043 150.105 2.22384 146.668 2.29064 142.87C2.36741 138.504 1.83396 132.569 1.45453 129.214C1.37022 128.469 1.79158 127.756 2.48749 127.483Z" fill="#83D2B6"/>
<path fill-rule="evenodd" clip-rule="evenodd" d="M19.2252 152.858C17.4524 154.272 14.7402 153.875 13.4899 151.86L11.482 148.625C11.4363 150.132 11.3839 151.638 11.3367 153.14C11.2588 155.611 8.94432 157.394 6.54329 156.934C5.71634 156.776 4.87807 156.653 4.04244 156.55C2.00936 156.301 0.48849 154.525 0.570871 152.466C0.691261 149.457 0.775294 146.443 0.82859 143.431C0.902212 139.27 0.502041 134.741 0.0260988 130.608C-0.178408 128.832 0.8352 127.138 2.49588 126.491L5.95241 125.145C8.30543 124.229 10.9015 125.77 11.1725 128.303C11.2677 129.193 11.3393 130.09 11.3951 130.988L12.8456 129.332C14.0745 127.929 16.1306 127.591 17.7221 128.573C18.1335 128.827 18.5382 129.093 18.933 129.372C19.0128 129.429 19.0897 129.487 19.1634 129.548L19.1948 125.187C19.2111 122.915 21.1452 121.151 23.3852 121.227C24.1858 121.254 24.9985 121.201 25.7887 121.068C28.2053 120.662 30.5808 122.439 30.6755 124.937L30.6803 125.063C31.3442 124.206 32.3588 123.635 33.5221 123.581C39.0989 123.325 44.8144 124.812 48.9669 128.71C49.8531 129.542 50.6245 130.441 51.2877 131.393C51.6209 130.745 52.1304 130.181 52.7868 129.783C53.6342 129.271 54.4698 128.731 55.2985 128.189C57.2317 126.922 59.865 127.612 60.8615 129.723C62.1955 132.549 63.3116 135.741 64.3015 138.824C65.5217 137.565 67.4286 137.323 68.9123 138.102L70.5725 128.687C70.93 126.66 72.7989 125.252 74.8368 125.475L76.9215 125.703C77.7135 125.79 78.4167 126.108 78.9812 126.578C78.9625 125.484 78.9438 124.392 78.9255 123.3C78.8852 120.904 80.9962 119.029 83.3562 119.308C86.3494 119.661 89.5134 119.745 92.5244 119.718C94.5919 119.7 96.3265 121.295 96.4751 123.368L96.5954 125.047C96.7571 127.305 94.958 129.246 92.7042 129.246H91.8969L91.7672 137.391C93.3288 137.789 94.5525 139.152 94.6874 140.856L94.7804 142.03C94.8719 143.186 94.4484 144.262 93.7111 145.039C95.3293 144.882 96.7963 145.752 97.5174 147.083C97.6609 147.019 97.8135 146.967 97.9752 146.925C98.7271 146.732 99.6001 146.787 100.365 146.873C101.965 147.053 103.086 148.171 103.803 149.54C104.033 149.979 104.683 150.436 105.11 150.659C105.4 150.81 106.286 151.161 106.631 151.026C106.638 151.016 106.645 151.004 106.649 150.995C106.783 150.751 106.898 150.473 106.84 150.19C106.597 148.992 104.059 147.317 103.044 146.652C99.277 144.187 96.834 141.244 96.7034 136.546C96.5083 129.529 100.708 123.77 108.065 123.557C110.955 123.473 113 124.609 114.368 126.377C114.365 126.331 114.363 126.284 114.361 126.238C114.236 123.839 116.291 121.886 118.667 122.107C122.355 122.45 126.203 122.474 129.901 122.317C132.127 122.222 134 124.008 134 126.248V129.853C134 131.817 132.551 133.479 130.612 133.737L128.908 133.964C128.778 135.044 128.678 136.135 128.58 137.212C128.457 138.568 128.468 140.019 128.475 141.381C128.485 143.367 128.537 145.354 128.603 147.339C128.691 149.99 128.807 152.643 128.948 155.292C129.053 157.273 127.649 159.036 125.682 159.31C125.062 159.397 124.437 159.461 123.812 159.503C121.476 159.663 119.565 157.677 119.691 155.351C119.913 151.212 119.945 146.997 120.002 142.851C120.041 140.051 120.07 137.252 120.09 134.452C119.398 134.404 118.707 134.342 118.019 134.265C117.526 134.209 117.062 134.062 116.645 133.84C116.658 134.324 116.651 134.808 116.626 135.286C116.511 137.505 114.529 139.116 112.348 138.859L111.348 138.742C109.325 138.504 107.837 136.743 107.874 134.708C107.881 134.341 107.875 133.234 107.712 132.772C107.447 132.73 106.984 132.763 106.795 132.781C104.774 132.976 104.606 135.464 104.919 137.028C105.106 137.962 108.667 140.299 109.466 140.853C111.854 142.508 114.753 144.577 115.566 147.53C116.112 149.511 116.157 151.64 115.499 153.601C113.991 158.099 109.651 159.838 105.248 159.966C100.91 160.092 97.8491 157.716 96.5435 154.236C95.9298 154.789 95.1399 155.149 94.2655 155.222C90.6697 155.525 87.0744 155.835 83.48 156.153C81.1978 156.355 79.2166 154.526 79.2279 152.225C79.2564 146.381 79.1985 140.519 79.1123 134.661C78.4229 137.136 77.7896 139.632 77.1966 142.121C76.2621 146.044 75.1362 149.954 73.857 153.779C72.7343 157.135 68.1249 157.318 66.6957 154.099L66.2091 153.003C66.0383 153.293 65.8693 153.584 65.7014 153.875C64.0487 156.74 59.7921 156.406 58.6337 153.296C57.3316 149.802 55.9802 146.346 54.5767 142.908C54.5726 143.376 54.5554 143.845 54.5255 144.316C53.8855 154.395 43.4449 159.018 34.7386 159.976C32.4958 160.223 30.5435 158.456 30.4939 156.202L30.4259 153.114C29.961 153.56 29.3825 153.896 28.7276 154.07L23.9016 155.349C21.8791 155.885 19.8774 154.709 19.2252 152.858ZM116.277 129.566C116.233 128.396 116.15 126.698 116.077 125.275C116.033 124.427 116.763 123.744 117.606 123.823C121.775 124.211 126.381 124.161 129.183 124.041C129.966 124.008 130.628 124.631 130.628 125.419V129.023C130.628 129.706 130.124 130.283 129.451 130.373L126.693 130.74C126.18 130.808 125.779 131.171 125.705 131.686C125.592 132.472 125.426 133.866 125.218 136.15C124.903 139.613 125.295 149.252 125.579 154.599C125.615 155.265 125.165 155.856 124.506 155.948C124.026 156.015 123.448 156.079 122.813 156.123C122.005 156.178 121.363 155.471 121.406 154.659C121.65 150.127 121.775 139.088 121.816 132.536C121.821 131.782 121.214 131.167 120.463 131.131C119.643 131.092 118.596 131.02 117.476 130.894C116.805 130.819 116.303 130.243 116.277 129.566ZM111.818 135.49L110.817 135.373C110.099 135.288 109.58 134.651 109.593 133.925C109.659 130.292 108.678 129.121 105.724 129.406C102.444 129.724 100.856 133.001 101.597 136.702C102.338 140.403 111.122 143.152 112.286 147.381C113.45 151.611 111.651 156.369 104.349 156.58C98.7237 156.743 97.4878 151.822 97.5611 149.065C97.5665 148.861 97.582 148.623 97.7791 148.572C98.0093 148.513 98.4569 148.494 99.2551 148.584C99.9317 148.66 100.407 149.295 100.724 149.9C101.927 152.198 106.509 154.212 108.053 151.399C109.852 148.122 106.677 145.69 103.608 143.681C100.539 141.672 98.5278 139.451 98.422 135.645C98.3161 131.838 100.009 125.494 107.312 125.283C112.489 125.133 113.45 130.619 113.257 134.323C113.219 135.061 112.549 135.576 111.818 135.49ZM80.9475 151.407C80.9807 144.616 80.7787 130.398 80.6447 122.427C80.6305 121.575 81.3899 120.918 82.2326 121.017C85.4212 121.394 89.2736 121.466 91.7205 121.445C92.4461 121.439 93.0574 121.995 93.1095 122.722L93.2298 124.401C93.2862 125.189 92.6647 125.86 91.8779 125.86H89.8989C89.159 125.86 88.5557 126.456 88.5437 127.199L88.3773 137.659C88.3645 138.463 89.0566 139.095 89.8523 139.007C90.5979 138.925 91.2638 139.477 91.3233 140.228L91.4162 141.402C91.4789 142.194 90.8561 142.872 90.0652 142.872H89.857C89.1338 142.872 88.5379 143.442 88.5032 144.167L88.4297 145.708C88.3897 146.547 89.1086 147.222 89.9393 147.125L93.1036 146.757C93.942 146.659 94.6643 147.347 94.6123 148.193L94.4662 150.572C94.4247 151.246 93.898 151.788 93.2269 151.845C90.8649 152.043 86.7439 152.395 82.4302 152.776C81.6301 152.847 80.9436 152.214 80.9475 151.407ZM53.2747 131.143C54.0676 130.663 55.0364 130.042 55.8629 129.5C56.5192 129.07 57.3991 129.277 57.7348 129.988C59.1039 132.888 60.6879 137.574 61.8058 141.171C62.1661 142.33 63.7515 142.502 64.3341 141.438L65.075 140.085C65.5868 139.151 66.921 139.144 67.4429 140.072L67.6683 140.474C68.2931 141.586 69.9615 141.299 70.1832 140.042L72.2531 128.303C72.3775 127.597 73.0253 127.109 73.7346 127.187L75.8193 127.415C76.6813 127.51 77.2394 128.381 76.9836 129.213C76.2649 131.55 75.1055 135.612 73.8943 140.696C72.8283 145.171 71.5681 149.292 70.6174 152.135C70.2331 153.283 68.6861 153.335 68.1946 152.228L66.6531 148.757C66.2553 147.861 65.1459 147.728 64.6152 148.552C64.1166 149.325 63.4712 150.379 62.6721 151.764C62.0916 152.77 60.5978 152.66 60.1918 151.571C58.5129 147.064 56.4271 141.6 52.673 132.968C52.3841 132.304 52.6565 131.518 53.2747 131.143ZM32.2129 155.316L31.5821 126.66C31.5664 125.947 32.1028 125.338 32.8123 125.306C43.5458 124.812 51.9172 131.374 51.1584 143.323C50.5733 152.54 39.9846 155.906 33.635 156.605C32.8741 156.688 32.2298 156.084 32.2129 155.316ZM20.7245 150.721L20.9143 124.376C20.9201 123.55 21.652 122.924 22.4736 122.952C23.5714 122.989 24.568 122.897 25.3831 122.76C26.3045 122.605 27.2696 123.267 27.3051 124.204L28.2601 149.4C28.2842 150.037 27.8652 150.605 27.2516 150.768L22.4256 152.047C21.5621 152.276 20.718 151.618 20.7245 150.721ZM2.59015 128.045L6.04669 126.699C6.84587 126.388 7.72331 126.891 7.81486 127.747C7.99128 129.396 8.09729 131.352 8.15719 133.099C8.20016 134.353 9.77193 134.939 10.5974 133.997L13.9308 130.191C14.345 129.718 15.0284 129.592 15.5626 129.921C15.8951 130.127 16.2671 130.369 16.6414 130.633C17.3632 131.143 17.2855 132.192 16.5927 132.741C14.6323 134.295 12.7497 136.29 11.6018 137.627C11.2117 138.082 11.1893 138.741 11.5278 139.236L17.406 147.824C17.7563 148.336 17.7173 149.021 17.3113 149.489L16.9967 149.852C16.3984 150.542 15.3061 150.455 14.8243 149.678L10.1158 142.091C9.73665 141.48 8.87987 141.407 8.46565 141.995C8.34774 142.162 8.2247 142.436 8.22264 142.641C8.20512 144.341 8.06845 148.971 7.96574 152.229C7.93765 153.123 7.06831 153.76 6.19393 153.593C5.29005 153.42 4.3285 153.281 3.52527 153.183C2.80375 153.094 2.25923 152.469 2.28839 151.739C2.36813 149.747 2.48175 146.38 2.54777 142.647C2.62255 138.42 2.09339 132.651 1.72883 129.485C1.65727 128.864 2.00944 128.271 2.59015 128.045ZM19.0496 145.335L19.1206 135.475C19.08 135.51 19.0385 135.544 18.9961 135.578C17.5814 136.699 16.2171 138.039 14.9906 139.404L19.0496 145.335Z" fill="#887A6F"/>
</svg>
