<svg width="232" height="93" viewBox="0 0 232 93" fill="none" xmlns="http://www.w3.org/2000/svg">
<path d="M211.76 43.018C211.711 41.8374 211.629 40.2485 211.553 38.851C211.495 37.7749 212.429 36.9054 213.512 36.9972C218.188 37.3932 223.301 37.348 226.509 37.2248C227.515 37.1862 228.363 37.9782 228.363 38.9766V42.4247C228.363 43.2961 227.71 44.0314 226.838 44.1409L223.914 44.5081C223.258 44.5904 222.746 45.0439 222.65 45.6923C222.52 46.5712 222.336 48.0593 222.108 50.4185C221.749 54.1457 222.186 64.4339 222.513 70.3052C222.561 71.1606 221.972 71.9176 221.115 72.0249C220.651 72.083 220.116 72.1382 219.536 72.1796C218.493 72.2542 217.661 71.3488 217.716 70.3129C217.985 65.2666 218.125 53.7589 218.173 46.7245C218.179 45.7655 217.397 44.9852 216.431 44.939C215.553 44.8969 214.473 44.8242 213.319 44.7057C212.451 44.6165 211.796 43.8828 211.76 43.018Z" fill="#8379C0"/>
<path d="M207.878 50.1783L206.221 49.8477C205.362 49.6763 204.773 48.8979 204.799 48.0298C204.915 44.269 204.153 43.3154 200.968 43.6205C197.392 43.9632 196.496 46.543 197.304 50.5405C198.112 54.5381 207.639 57.3899 208.908 61.9585C210.177 66.5272 207.504 71.9345 199.544 72.1629C193.452 72.3377 192.083 67.0902 192.145 64.1019C192.15 63.8432 192.19 63.5657 192.414 63.4335C192.74 63.2413 193.385 63.0323 194.385 63.0315C195.261 63.0308 195.871 63.8498 196.245 64.635C197.392 67.0403 201.142 69.0569 202.774 66.1105C204.735 62.5698 202.082 60.3987 198.737 58.2286C195.391 56.0585 193.2 53.66 193.084 49.5482C192.969 45.4364 194.815 38.5835 202.774 38.3551C208.256 38.1977 209.826 44.5207 209.813 48.712C209.81 49.7078 208.862 50.3748 207.878 50.1783Z" fill="#91DF76"/>
<path d="M174.387 66.2881C174.416 58.9348 174.205 44.1308 174.061 35.5789C174.043 34.4957 175.021 33.6642 176.108 33.7828C179.44 34.1467 183.408 34.2271 186.034 34.2115C186.974 34.2059 187.763 34.9208 187.824 35.85L187.942 37.656C188.007 38.6533 187.208 39.4976 186.2 39.4976H184.579C183.627 39.4976 182.851 40.2546 182.835 41.1987L182.661 51.4714C182.646 52.3832 183.439 53.103 184.353 53.0079C185.214 52.9184 185.978 53.5524 186.042 54.4078L186.14 55.7335C186.211 56.7024 185.438 57.5276 184.458 57.5276C183.563 57.5276 182.824 58.2204 182.774 59.1061L182.748 59.5829C182.687 60.6528 183.613 61.5191 184.686 61.3984L187.683 61.0614C188.757 60.9406 189.683 61.8074 189.622 62.8775L189.477 65.4396C189.428 66.3011 188.749 66.9947 187.881 67.0651L187.55 67.092C184.895 67.3073 180.631 67.6533 176.297 68.0289C175.267 68.1182 174.383 67.3134 174.387 66.2881Z" fill="#F5D45E"/>
<path d="M144.668 44.3736C145.696 43.8285 146.992 43.1249 148.061 42.5135C148.941 42.0108 150.091 42.2937 150.493 43.2181C151.732 46.0726 152.937 50.2759 153.914 53.8418C154.336 55.3794 156.443 55.5149 157.091 54.057C157.633 52.8406 159.321 52.6848 160.064 53.7921C160.919 55.0675 162.908 54.6396 163.153 53.1275L164.961 41.9649C165.097 41.1261 165.827 40.5093 166.684 40.5093H168.876C170.069 40.5093 170.92 41.6723 170.576 42.805C169.774 45.4473 168.566 49.7202 167.308 54.9845C166.195 59.6445 164.891 63.9573 163.862 67.0682C163.377 68.5372 161.379 68.604 160.75 67.1897L159.434 64.2353C158.923 63.0891 157.493 62.9255 156.819 63.9851C156.359 64.7077 155.8 65.6213 155.139 66.753C154.389 68.0373 152.454 67.8967 151.933 66.5052C150.116 61.6526 147.84 55.7493 143.868 46.6325C143.501 45.7913 143.853 44.8059 144.668 44.3736Z" fill="#70D0E6"/>
<path d="M121.453 71.331L120.738 39.2172C120.718 38.311 121.409 37.5368 122.323 37.5009C134.531 37.0213 144.022 44.4533 143.157 57.9315C142.493 68.2844 130.576 72.1249 123.283 72.9638C122.304 73.0764 121.474 72.308 121.453 71.331Z" fill="#FF999A"/>
<path d="M109.9 65.9994L110.105 37.2893C110.113 36.2381 111.059 35.4424 112.119 35.4589C113.059 35.4735 113.925 35.404 114.675 35.2956C115.87 35.1226 117.127 35.9726 117.172 37.1696L118.207 64.6615C118.238 65.4674 117.703 66.1871 116.917 66.3967L112.098 67.6822C110.985 67.9793 109.892 67.1427 109.9 65.9994Z" fill="#E08EDD"/>
<path d="M90.5625 40.9629L93.9926 39.6356C95.0228 39.237 96.1541 39.8788 96.2649 40.9697C96.4255 42.549 96.5305 44.353 96.5964 46.0323C96.659 47.6288 98.6916 48.3719 99.7523 47.1691L102.947 43.5465C103.48 42.9413 104.366 42.7792 105.052 43.2073C105.311 43.369 105.588 43.5484 105.87 43.7407C106.802 44.3772 106.705 45.7038 105.826 46.4106C103.772 48.0616 101.817 50.1106 100.57 51.5417C100.07 52.1162 100.042 52.949 100.474 53.5758L106.858 62.8425C107.305 63.491 107.255 64.3565 106.737 64.9504L106.703 64.9891C105.933 65.8717 104.52 65.7603 103.9 64.768L98.8084 56.617C98.3854 55.9398 97.4232 55.8601 96.9608 56.5115C96.8303 56.6954 96.694 56.9965 96.6917 57.2213C96.6729 59.0551 96.5275 63.979 96.4139 67.5776C96.378 68.7146 95.255 69.5287 94.1262 69.3246C93.2878 69.1729 92.4217 69.0477 91.6622 68.952C90.7344 68.8351 90.0336 68.0411 90.0702 67.1145C90.1587 64.8813 90.2802 61.2474 90.3517 57.2313C90.4339 52.6154 89.8626 46.3404 89.4563 42.7932C89.366 42.0051 89.8172 41.2512 90.5625 40.9629Z" fill="#83D2B6"/>
<path fill-rule="evenodd" clip-rule="evenodd" d="M108.487 67.7913C106.589 69.2859 103.684 68.8663 102.345 66.7361L100.195 63.3149C100.146 64.9082 100.09 66.5012 100.039 68.0888C99.9555 70.7021 97.4768 72.5867 94.9055 72.1005C94.0198 71.933 93.1221 71.8034 92.2272 71.6948C90.0499 71.4308 88.4211 69.5537 88.5093 67.3768C88.6383 64.1945 88.7282 61.0078 88.7853 57.8236C88.8642 53.4243 88.4356 48.6362 87.9259 44.2662C87.7069 42.3885 88.7924 40.5972 90.5709 39.9133L94.2727 38.4899C96.7926 37.5208 99.5728 39.1506 99.8631 41.8292C99.965 42.7703 100.042 43.7184 100.101 44.6678L101.655 42.9171C102.971 41.4338 105.173 41.0756 106.877 42.1144C107.318 42.3828 107.751 42.6642 108.174 42.9593C108.26 43.0189 108.342 43.081 108.421 43.1452L108.455 38.5344C108.472 36.1319 110.543 34.2672 112.942 34.3469C113.8 34.3755 114.67 34.3201 115.516 34.1795C118.104 33.7496 120.648 35.6287 120.75 38.2698L120.755 38.4028C121.466 37.497 122.552 36.8932 123.798 36.8366C129.771 36.5654 135.892 38.1379 140.339 42.2593C141.288 43.1389 142.114 44.0889 142.824 45.0963C143.181 44.4106 143.727 43.8142 144.43 43.3941C145.337 42.8519 146.232 42.2817 147.12 41.7078C149.19 40.3692 152.01 41.0983 153.077 43.3302C154.506 46.3178 155.701 49.6934 156.761 52.9526C158.068 51.6216 160.11 51.3652 161.699 52.1898L163.477 42.2346C163.86 40.0913 165.862 38.6031 168.044 38.839L170.277 39.0802C171.125 39.1719 171.878 39.5078 172.483 40.0046C172.463 38.8488 172.443 37.6935 172.423 36.5388C172.38 34.0059 174.641 32.0235 177.168 32.3182C180.374 32.6919 183.762 32.78 186.987 32.752C189.201 32.7328 191.059 34.4191 191.218 36.6112L191.347 38.3867C191.52 40.7737 189.593 42.8262 187.179 42.8262H186.315L186.176 51.4374C187.848 51.8586 189.159 53.2993 189.303 55.1007L189.403 56.342C189.501 57.5642 189.047 58.7019 188.258 59.5238C189.991 59.3575 191.562 60.2774 192.334 61.6847C192.488 61.6178 192.651 61.5618 192.824 61.5179C193.629 61.3139 194.564 61.3721 195.383 61.4632C197.097 61.6535 198.298 62.8354 199.066 64.2825C199.312 64.7473 200.008 65.2304 200.465 65.4657C200.776 65.6252 201.725 65.9964 202.094 65.8541C202.101 65.8433 202.109 65.8304 202.114 65.821C202.257 65.5632 202.38 65.2689 202.318 64.9702C202.058 63.7034 199.339 61.932 198.253 61.2296C194.218 58.6227 191.602 55.5118 191.462 50.544C191.253 43.1251 195.751 37.0359 203.63 36.8106C206.725 36.7221 208.915 37.9234 210.38 39.7927C210.377 39.7434 210.375 39.6942 210.372 39.645C210.239 37.1085 212.44 35.0437 214.984 35.2775C218.933 35.6404 223.055 35.6663 227.016 35.4994C229.399 35.399 231.405 37.2873 231.405 39.6564V43.4679C231.405 45.5444 229.853 47.301 227.776 47.574L225.952 47.814C225.812 48.9563 225.705 50.1098 225.6 51.2484C225.468 52.6824 225.481 54.2164 225.488 55.6567C225.499 57.7559 225.554 59.8572 225.625 61.9552C225.719 64.7589 225.843 67.5632 225.994 70.3645C226.107 72.4588 224.603 74.3228 222.497 74.6126C221.832 74.7041 221.163 74.7719 220.494 74.817C217.993 74.9854 215.946 72.8856 216.08 70.4264C216.319 66.0501 216.353 61.5939 216.414 57.2101C216.455 54.2503 216.486 51.2902 216.507 48.3301C215.767 48.2796 215.027 48.2137 214.29 48.132C213.762 48.0734 213.266 47.9173 212.819 47.6832C212.832 48.1953 212.825 48.7064 212.798 49.2117C212.675 51.5578 210.552 53.2611 208.217 52.99L207.145 52.8657C204.98 52.6143 203.386 50.7529 203.425 48.6009C203.433 48.2125 203.427 47.0427 203.252 46.5543C202.968 46.5094 202.472 46.5441 202.269 46.5634C200.106 46.7699 199.926 49.4004 200.261 51.0537C200.461 52.0418 204.274 54.5121 205.13 55.0978C207.688 56.848 210.793 59.0353 211.663 62.1576C212.247 64.2525 212.296 66.5028 211.592 68.5762C209.976 73.3317 205.328 75.1712 200.613 75.306C195.967 75.4389 192.689 72.9267 191.291 69.2476C190.634 69.832 189.788 70.2131 188.851 70.2908C185 70.6103 181.15 70.9383 177.301 71.2748C174.857 71.4884 172.735 69.5539 172.747 67.1211C172.777 60.9427 172.715 54.7451 172.623 48.5512C171.885 51.1681 171.206 53.8067 170.571 56.4382C169.571 60.5861 168.365 64.721 166.995 68.7644C165.793 72.3133 160.856 72.5059 159.326 69.1032L158.804 67.9445C158.621 68.2512 158.44 68.5586 158.261 68.8663C156.491 71.8957 151.932 71.5416 150.692 68.2545C149.297 64.5594 147.85 60.9052 146.347 57.2708C146.342 57.7652 146.324 58.2617 146.292 58.7593C145.606 69.4157 134.425 74.304 125.101 75.3168C122.699 75.5776 120.608 73.7091 120.555 71.3264L120.483 68.061C119.985 68.5336 119.365 68.8883 118.664 69.0718L113.495 70.4243C111.329 70.991 109.186 69.7483 108.487 67.7913ZM212.425 43.1643C212.377 41.9267 212.289 40.1317 212.21 38.6274C212.163 37.7305 212.945 37.0089 213.847 37.0918C218.313 37.5022 223.246 37.4493 226.246 37.3228C227.085 37.2875 227.793 37.9468 227.793 38.779V42.5905C227.793 43.312 227.254 43.9222 226.533 44.017L223.579 44.4054C223.03 44.4776 222.601 44.8614 222.521 45.4052C222.4 46.2364 222.223 47.7103 222 50.125C221.663 53.7867 222.083 63.9778 222.387 69.6312C222.425 70.3362 221.943 70.9606 221.238 71.0577C220.723 71.1283 220.104 71.1969 219.424 71.2427C218.559 71.3009 217.871 70.5536 217.918 69.695C218.179 64.9031 218.313 53.2318 218.357 46.3044C218.362 45.5068 217.711 44.8565 216.908 44.819C216.03 44.778 214.908 44.7012 213.708 44.5682C212.99 44.4886 212.452 43.8803 212.425 43.1643ZM207.649 49.4278L206.577 49.3035C205.808 49.2142 205.253 48.5404 205.267 47.7727C205.337 43.9322 204.287 42.6933 201.123 42.9953C197.61 43.3307 195.91 46.7964 196.703 50.7091C197.496 54.622 206.904 57.5287 208.15 62.0005C209.397 66.4722 207.47 71.503 199.65 71.7266C193.626 71.8988 192.302 66.6953 192.381 63.7805C192.386 63.5646 192.403 63.3131 192.614 63.2596C192.861 63.1972 193.34 63.1772 194.195 63.2722C194.92 63.3526 195.428 64.0236 195.768 64.6635C197.057 67.0932 201.964 69.222 203.617 66.2486C205.544 62.7831 202.143 60.2117 198.856 58.0877C195.569 55.9636 193.416 53.6159 193.303 49.5912C193.189 45.5667 195.003 38.859 202.823 38.6353C208.368 38.4768 209.396 44.2778 209.19 48.1935C209.149 48.9742 208.432 49.5188 207.649 49.4278ZM174.588 66.257C174.624 59.0769 174.408 44.044 174.264 35.6158C174.249 34.7151 175.062 34.0202 175.965 34.1255C179.38 34.5235 183.505 34.6005 186.126 34.5778C186.903 34.571 187.558 35.1594 187.613 35.9278L187.742 37.7033C187.803 38.5366 187.137 39.2456 186.294 39.2456H184.175C183.382 39.2456 182.736 39.876 182.724 40.6617L182.545 51.7207C182.532 52.5705 183.273 53.2396 184.125 53.1465C184.923 53.0591 185.637 53.6436 185.7 54.4376L185.8 55.6789C185.867 56.5161 185.2 57.2322 184.353 57.2322H184.13C183.355 57.2322 182.717 57.8352 182.68 58.6023L182.601 60.2308C182.559 61.1179 183.329 61.8314 184.218 61.7292L187.607 61.3401C188.505 61.2369 189.278 61.9636 189.223 62.8582L189.066 65.3735C189.022 66.087 188.458 66.6599 187.739 66.7197C185.209 66.9294 180.796 67.301 176.176 67.7046C175.32 67.7797 174.584 67.1098 174.588 66.257ZM144.952 44.832C145.802 44.3245 146.839 43.6669 147.724 43.0947C148.427 42.6402 149.369 42.859 149.729 43.6109C151.195 46.677 152.892 51.6307 154.089 55.4339C154.475 56.6595 156.172 56.8414 156.796 55.7165L157.59 54.2862C158.138 53.2983 159.567 53.2907 160.126 54.2725L160.367 54.6968C161.036 55.8726 162.823 55.57 163.06 54.2406L165.277 41.8285C165.41 41.0825 166.104 40.5668 166.864 40.6489L169.096 40.8902C170.02 40.9901 170.617 41.9115 170.343 42.7913C169.574 45.262 168.332 49.5566 167.035 54.9319C165.893 59.6635 164.544 64.0208 163.525 67.0263C163.114 68.2407 161.457 68.2948 160.931 67.1249L159.28 63.4545C158.854 62.5076 157.666 62.3672 157.097 63.2376C156.563 64.0558 155.872 65.1693 155.016 66.634C154.395 67.6981 152.795 67.5815 152.36 66.4298C150.562 61.6651 148.328 55.888 144.308 46.7615C143.999 46.0591 144.29 45.2276 144.952 44.832ZM122.396 70.3893L121.721 40.0916C121.704 39.3376 122.278 38.6941 123.038 38.6596C134.533 38.1376 143.499 45.0762 142.686 57.7099C142.059 67.4544 130.719 71.0137 123.919 71.7523C123.104 71.8408 122.414 71.2018 122.396 70.3893ZM110.093 65.5314L110.296 37.6767C110.302 36.8039 111.086 36.142 111.966 36.1713C113.142 36.2103 114.209 36.1132 115.082 35.9682C116.069 35.8043 117.102 36.5042 117.14 37.4953L118.163 64.1346C118.189 64.808 117.74 65.4088 117.083 65.5808L111.915 66.9332C110.99 67.1753 110.086 66.4797 110.093 65.5314ZM90.6719 41.5562L94.3736 40.1328C95.2295 39.8036 96.1692 40.3356 96.2673 41.2406C96.4562 42.9839 96.5697 45.0521 96.6339 46.8992C96.6799 48.2253 98.3632 48.845 99.2472 47.8486L102.817 43.8252C103.261 43.3254 103.993 43.1913 104.565 43.5399C104.921 43.7569 105.319 44.0127 105.72 44.2925C106.493 44.8318 106.41 45.9408 105.668 46.5214C103.568 48.1641 101.552 50.2739 100.323 51.6875C99.905 52.1682 99.8811 52.8652 100.244 53.3881L106.539 62.4689C106.914 63.0099 106.872 63.734 106.437 64.229L106.101 64.6127C105.46 65.3423 104.29 65.2499 103.774 64.429L98.7315 56.4067C98.3254 55.7605 97.4078 55.684 96.9642 56.3053C96.8379 56.482 96.7062 56.7721 96.704 56.9886C96.6852 58.786 96.5388 63.6808 96.4288 67.126C96.3988 68.0706 95.4677 68.7448 94.5313 68.5678C93.5633 68.3848 92.5335 68.2386 91.6733 68.1343C90.9006 68.0406 90.3175 67.3791 90.3487 66.608C90.4341 64.5014 90.5558 60.9416 90.6265 56.9942C90.7066 52.526 90.1399 46.4259 89.7494 43.0784C89.6728 42.4214 90.05 41.7954 90.6719 41.5562ZM108.299 59.8365L108.375 49.4122C108.332 49.4491 108.287 49.4853 108.242 49.5208C106.727 50.7063 105.266 52.1222 103.952 53.5661L108.299 59.8365Z" fill="#79736E"/>
<path d="M7.10428 50.6614C8.8555 49.0694 14.4673 47.7869 17.0544 47.3447C15.197 53.5137 14.8653 59.4838 17.0544 66.9795C19.3209 74.7406 32.7755 77.0622 37.4852 74.9396C39.1436 76.7969 43.7869 80.8963 49.0936 82.4353C55.727 84.359 58.1151 74.1435 58.8447 70.7605C59.5744 67.3775 57.3854 64.9895 56.2577 64.7905C55.13 64.5915 53.6043 64.7905 49.6243 67.9082C48.3507 61.5401 42.9467 58.0907 40.4039 57.1621C40.5587 55.6364 41.4254 51.3645 43.6543 46.4823C54.8647 47.3447 58.3804 46.416 61.1001 44.4923C63.8198 42.5686 62.6921 39.0529 62.0951 38.5222C61.4981 37.9916 58.7121 36.7312 58.3804 36.2669C58.0487 35.8026 58.5131 33.2819 57.5844 33.6135C56.6557 33.9452 55.6607 34.6749 54.4667 35.4709C53.2727 36.2669 52.4103 36.7312 48.4303 36.7312C54.2014 27.7762 58.5131 26.5158 67.7998 24.3268C69.9756 21.6735 72.8633 21.6735 74.0352 22.0051C74.2342 22.3589 74.6322 23.8094 74.6322 26.7812C78.2806 37.5936 79.9389 47.6763 74.9639 53.8454C81.0666 58.1571 81.9289 80.777 81.9289 84.0273C83.574 85.5663 83.941 88.1179 83.9189 89.2014C83.6536 89.4225 81.7697 89.9576 76.3569 90.329C49.2926 96.1664 42.3276 90.2627 34.6329 87.145C21.9631 94.5744 6.04294 91.1914 5.1806 91.125C4.49073 91.072 1.97446 90.926 0.802562 90.8597C0.669894 90.6828 0.802562 89.4269 2.39458 85.8183C3.32325 69.1685 5.1806 68.1735 7.90029 63.0658C5.24693 61.3411 4.7826 58.6214 3.58859 54.4424C1.3067 53.0627 1.75335 50.6835 2.26191 49.6664C2.92525 49.7106 4.8224 49.9715 7.10428 50.6614Z" fill="white"/>
<path d="M62.0887 22.3545C63.3623 22.8321 63.6807 24.3224 63.6807 25.0079C56.0921 26.9183 50.0822 33.8966 48.0259 37.147C49.1314 37.0364 51.661 36.7092 52.9346 36.2846C54.5266 35.754 56.9809 33.4986 57.8433 33.2996C58.7056 33.1006 58.175 35.0243 58.4403 36.2846C58.7056 37.545 60.8946 37.346 62.2877 38.8053C63.6807 40.2647 63.15 42.122 61.558 43.9794C59.966 45.8367 56.2513 46.5001 53.9959 46.6991C52.1916 46.8583 46.4339 46.6327 43.7805 46.5001C42.9845 47.9373 41.22 52.0986 40.5301 57.2462C46.8451 59.5811 49.1314 65.6927 49.4852 68.4566C50.1043 67.55 51.9661 65.5777 54.4603 64.9409C57.5779 64.1449 58.772 67.0636 58.573 69.9823C58.374 72.901 57.0473 79.0037 54.2613 81.1927C51.4752 83.3817 49.2862 82.3867 45.9695 81.1927C43.3162 80.2375 39.1592 76.5493 37.4124 74.8246C36.2184 75.1563 32.7293 75.7135 28.3247 75.289C22.819 74.7583 18.9716 70.4466 17.7776 68.2576C16.5836 66.0686 15.7876 62.5529 15.7876 56.7818C15.7876 51.0108 18.1756 45.3061 18.839 43.0507C19.5023 40.7954 22.62 36.4837 25.6713 34.6926C28.1124 33.2598 32.2605 33.6534 34.0294 34.0293C37.6114 32.9901 45.2929 30.6595 47.3625 29.6513C49.9496 28.3909 51.6742 26.4672 52.2049 25.7376C52.7356 25.0079 53.2662 22.3545 54.2613 21.2932C55.2563 20.2318 55.0573 20.7625 55.6543 21.6249C56.2513 22.4872 57.1799 23.1505 57.976 23.0179C58.772 22.8852 60.4966 21.7575 62.0887 22.3545Z" fill="#FFF06B"/>
<path d="M4.1196 71.8882C6.03001 64.2465 10.8414 60.2576 13.0083 59.2184C5.57894 67.3775 3.58893 81.5729 9.02831 86.4153C14.4677 91.2577 24.8821 87.543 28.9285 83.0323C50.8452 91.2046 71.4043 86.1279 78.9442 82.5679C79.4749 82.8112 80.7618 83.4038 81.6639 83.8283C82.7916 84.359 84.1183 88.6707 83.3223 89.533C82.6855 90.2229 78.7673 90.3511 76.8879 90.329C75.7602 90.528 72.4568 91.125 68.2645 91.921C63.0241 92.916 50.686 91.921 47.4356 91.3904C44.8353 90.9658 37.7288 88.6485 34.5005 87.543C34.191 87.7199 32.6432 88.4451 28.9285 89.931C24.2851 91.7884 12.4113 92.0537 10.6203 91.921C8.82931 91.7884 5.91061 91.0587 5.24728 91.1913C4.58394 91.324 1.13457 91.2577 0.802902 90.3953C0.537566 89.7055 1.75369 87.2334 2.39492 86.0836C2.1738 84.5358 2.20918 79.5299 4.1196 71.8882Z" fill="#DBDBDB"/>
<path d="M3.38993 54.376C2.16939 53.6862 1.99692 50.8603 2.06325 49.5337C2.85926 52.7177 4.1196 52.6514 5.24728 53.0494C6.04328 57.6927 10.9741 59.7933 12.8093 59.2847C11.947 59.8818 9.45284 61.288 7.70163 62.9331C5.57895 61.6728 4.5176 59.2847 3.38993 54.376Z" fill="#DBDBDB"/>
<path d="M25.4724 75.4216C16.849 72.0386 11.1664 72.1271 9.28694 73.1663C10.4013 71.2028 14.1293 68.5229 17.1807 67.4616C18.3083 70.1813 22.0761 73.5112 25.4724 75.4216Z" fill="#DBDBDB"/>
<path d="M54.394 47.3624C46.1686 47.7604 42.1222 54.7918 41.1272 56.9808C41.1272 54.5928 41.9232 48.2911 44.2449 46.5001C46.8983 46.5001 50.1486 46.6991 54.394 47.3624Z" fill="#DBDBDB"/>
<path d="M17.1807 65.8696C20.8954 72.702 31.4425 71.6406 34.6928 67.4616C36.9482 75.1563 53.958 85.5736 58.5067 72.0386C58.0202 74.1834 57.0606 77.7964 55.2563 80.3967C53.001 83.6471 49.4189 82.453 48.6893 82.3204C47.9596 82.1877 41.7242 80.1314 37.3462 75.1563C32.3048 76.6157 25.4724 74.7583 24.2784 74.3603C23.0844 73.9623 17.9103 71.4416 17.1807 65.8696Z" fill="#E4D659"/>
<path d="M39.4689 56.6492C39.4689 49.5514 31.3982 50.2148 28.9218 50.9445C29.2534 49.9494 30.7791 47.4288 33.2335 46.6328C35.1969 45.996 40.7734 46.3674 43.3162 46.6328C43.2057 47.2298 40.5833 55.0041 39.4689 56.6492Z" fill="#E4D659"/>
<path d="M54.3276 29.9829C48.6495 33.9099 39.5794 34.4936 35.7542 34.2946C39.3627 36.3112 45.66 37.1249 48.3576 37.2797C49.1978 36.2847 51.5682 33.4323 54.3276 29.9829Z" fill="#E4D659"/>
<path d="M12.2122 11.458C13.8042 8.16789 17.6958 6.15134 19.4426 5.55433C19.5753 5.289 21.5653 4.34705 28.464 2.70197C37.0874 0.645623 45.3128 5.289 48.6959 8.73836C51.2165 8.20769 52.6759 9.7997 53.4056 11.7897C54.1352 13.7797 53.6046 15.7034 51.3492 17.5608C51.5482 20.0815 49.4919 25.0565 46.8385 28.3069C44.7158 30.9071 38.1267 33.2377 35.0974 34.0779C33.1958 33.4809 28.3579 32.8574 24.2187 35.1392C18.7527 35.0331 14.2907 30.0979 12.7429 27.6435C11.571 27.8646 8.94859 27.6568 7.83418 25.0565C6.71977 22.4562 8.96186 20.4352 10.2222 19.7498C10.2222 18.3568 10.6202 14.7482 12.2122 11.458Z" fill="#FFEDD5"/>
<path d="M7.83398 25.0564C10.2883 25.6534 10.0893 24.6806 11.3497 23.9951C24.5501 32.0215 48.6957 32.1542 50.354 13.278C51.6523 13.1127 52.6963 12.6563 53.4054 11.7897C54.135 13.7797 53.6044 15.7034 51.349 17.5607C51.548 20.0814 49.4917 25.0564 46.8383 28.3068C44.7156 30.9071 38.1265 33.2376 35.0972 34.0778C33.1956 33.4808 28.3577 32.8573 24.2185 35.1392C18.7525 35.0331 14.2905 30.0978 12.7427 27.6435C11.5708 27.8646 8.94839 27.6567 7.83398 25.0564Z" fill="#FFE2BA"/>
<path d="M26.5405 15.7034C28.6101 14.3237 33.7267 13.8018 36.0263 13.7134C37.4193 17.8924 33.9699 19.4844 32.5769 19.6834C31.1839 19.8824 27.0712 19.2191 26.5405 15.7034Z" fill="#FF999A"/>
<path fill-rule="evenodd" clip-rule="evenodd" d="M27.287 15.9503C28.2165 17.5736 29.3516 18.368 30.3582 18.7415C31.5091 19.1685 32.5398 19.0627 32.9921 18.9328C33.4844 18.7915 34.3463 18.4052 34.9581 17.62C35.4903 16.9369 35.8898 15.8805 35.5858 14.2365C32.0542 14.372 28.9048 15.3096 27.287 15.9503ZM26.0879 15.0234C27.5694 14.3285 31.5869 12.9608 36.1099 12.8948C36.4149 12.8904 36.6824 13.095 36.7578 13.3905C37.342 15.6795 36.8702 17.3177 36.0014 18.4328C35.159 19.514 34.0092 20.0197 33.3504 20.2089C32.6516 20.4095 31.3299 20.5206 29.891 19.9867C28.4279 19.4439 26.8883 18.2505 25.7682 15.9146C25.6917 15.7548 25.6824 15.5707 25.7424 15.4032C25.8025 15.2357 25.927 15.099 26.0879 15.0234Z" fill="#79736E"/>
<path fill-rule="evenodd" clip-rule="evenodd" d="M25.6724 9.97409C26.1884 10.2643 26.6764 10.701 26.9062 11.2398C27.05 11.5768 26.8934 11.9665 26.5564 12.1103C26.2194 12.254 25.8297 12.0974 25.686 11.7604C25.6108 11.5843 25.3892 11.3369 25.022 11.1304C24.6653 10.9298 24.2563 10.817 23.9004 10.8292C23.5595 10.8409 23.2956 10.9617 23.113 11.2074C22.9169 11.471 22.7402 11.9784 22.811 12.9069C22.8389 13.2722 22.5653 13.5909 22.2 13.6187C21.8347 13.6466 21.516 13.3731 21.4882 13.0078C21.4037 11.9013 21.5914 11.0303 22.0484 10.4157C22.5188 9.78318 23.1965 9.52594 23.8549 9.50335C24.4982 9.48127 25.1459 9.67797 25.6724 9.97409Z" fill="#79736E"/>
<path fill-rule="evenodd" clip-rule="evenodd" d="M37.933 7.59376C38.3078 7.86968 38.6285 8.21002 38.8562 8.53298C39.0693 8.8352 39.0008 9.24855 38.7032 9.45622C38.4056 9.6639 37.9916 9.58725 37.7785 9.28503C37.6314 9.07634 37.4127 8.84335 37.1617 8.65857C36.9067 8.4709 36.6613 8.36403 36.4565 8.34095C36.2784 8.32088 36.1037 8.35835 35.9181 8.52948C35.7113 8.72004 35.4627 9.10561 35.2602 9.84361C35.1637 10.1954 34.7992 10.3967 34.4462 10.2931C34.0931 10.1896 33.8852 9.82054 33.9817 9.46876C34.2192 8.60317 34.5588 7.96063 35.0106 7.54429C35.4833 7.10851 36.0372 6.96027 36.5795 7.02138C37.0952 7.0795 37.562 7.32072 37.933 7.59376Z" fill="#79736E"/>
<path fill-rule="evenodd" clip-rule="evenodd" d="M25.7297 0.993318C25.7655 0.62872 26.0901 0.362184 26.4547 0.397994C28.4531 0.594269 30.2733 1.5137 31.1538 2.3339C31.3737 2.53873 31.5808 2.77894 31.6989 3.0421C31.8185 3.30849 31.9014 3.75791 31.5608 4.12529C31.2862 4.4214 30.8845 4.47955 30.5893 4.48598C30.2576 4.49321 29.8519 4.43793 29.3768 4.32771C28.6267 4.15369 27.9122 3.97842 27.2395 3.81341C26.3141 3.58643 25.4679 3.37887 24.7174 3.2207C25.0182 3.36029 25.3049 3.51051 25.5247 3.66714C25.6955 3.78885 25.9762 4.01491 26.072 4.36184C26.1289 4.56811 26.1125 4.79014 26.0109 4.99398C25.9178 5.18064 25.7745 5.3101 25.6453 5.39889C25.3439 5.60594 24.9799 5.66201 24.6703 5.67147C24.3466 5.68136 23.9876 5.64208 23.6245 5.58049C22.9063 5.45865 22.0637 5.22944 21.2627 5.01157L21.2407 5.00558C20.4138 4.78065 19.6308 4.56835 18.9833 4.45851C18.773 4.42283 18.5887 4.40014 18.4309 4.39031C18.6663 4.5585 18.9708 4.74564 19.3139 4.94769C19.3999 4.99834 19.4886 5.05008 19.5784 5.10245C19.9889 5.34181 20.4219 5.59429 20.7205 5.81584C20.8162 5.88681 20.9124 5.96474 20.9973 6.04817C21.0768 6.12627 21.1774 6.2389 21.2477 6.38343C21.322 6.53613 21.3873 6.78266 21.2782 7.05166C21.1757 7.30394 20.9749 7.43595 20.8391 7.50136C20.3832 7.72094 19.8737 7.65657 19.4844 7.56372C19.0747 7.46599 18.6372 7.29423 18.2503 7.13994C18.2213 7.1284 18.1926 7.11694 18.1642 7.10559C17.7918 6.95691 17.4639 6.82599 17.171 6.74308C16.8329 6.64736 16.6865 6.6612 16.6489 6.67412C16.3024 6.79322 15.925 6.60891 15.8059 6.26246C15.6868 5.91601 15.8711 5.53861 16.2176 5.4195C16.6665 5.26519 17.1577 5.36049 17.5324 5.46656C17.6041 5.48688 17.677 5.50929 17.7505 5.53329C17.5493 5.39391 17.3632 5.25061 17.212 5.10734C17.0414 4.94564 16.8115 4.69049 16.742 4.3557C16.7026 4.16591 16.7167 3.95693 16.8114 3.75668C16.9019 3.5654 17.044 3.42858 17.1844 3.33211C17.4858 3.12507 17.8498 3.069 18.1594 3.05953C18.4831 3.04964 18.8421 3.08892 19.2052 3.15052C19.9234 3.27235 20.766 3.50156 21.5669 3.71943L21.589 3.72542C22.395 3.94467 23.1592 4.1519 23.797 4.26396C23.7082 4.226 23.6159 4.18726 23.5205 4.14774C23.4248 4.10811 23.3259 4.06768 23.2258 4.02676C22.8007 3.85297 22.3539 3.67028 22.0364 3.50214C21.8642 3.41097 21.6056 3.26338 21.4454 3.04929C21.354 2.92715 21.2282 2.69246 21.2934 2.39405C21.3562 2.10666 21.5573 1.9445 21.6823 1.86734C22.0836 1.61948 22.6211 1.60024 23.0924 1.6286C23.6027 1.6593 24.2144 1.76155 24.8835 1.90008C25.6749 2.06395 26.6031 2.29142 27.5969 2.53495C28.2676 2.6993 28.9681 2.87098 29.6766 3.03536C29.7997 3.0639 29.9111 3.08668 30.0116 3.10455C29.2662 2.53165 27.8706 1.87011 26.325 1.71832C25.9604 1.68251 25.6939 1.35792 25.7297 0.993318ZM30.6957 3.14536C30.6958 3.1454 30.6946 3.14582 30.6921 3.1465C30.6944 3.14566 30.6957 3.14532 30.6957 3.14536ZM24.8418 4.81918C24.8418 4.81918 24.8416 4.81895 24.8412 4.8185C24.8416 4.81895 24.8418 4.81918 24.8418 4.81918ZM24.8959 4.30408C24.8971 4.30314 24.8978 4.30268 24.8978 4.30269C24.8978 4.3027 24.8972 4.30317 24.8959 4.30408ZM20.0836 7.01153C20.0836 7.01153 20.0831 7.01093 20.0821 7.00974C20.0832 7.01094 20.0837 7.01154 20.0836 7.01153Z" fill="#79736E"/>
<path fill-rule="evenodd" clip-rule="evenodd" d="M23.7397 3.16663C30.9655 1.12584 37.2177 0.875333 44.4118 4.41278C46.303 5.34272 47.7448 6.63054 48.8282 8.09274C50.8229 7.81067 52.3178 8.37164 53.3393 10.1977C54.5332 12.332 54.4368 15.0586 52.9922 16.9884C52.6668 17.4231 52.2704 17.8122 51.8105 18.0593C51.7891 22.7806 49.7115 26.45 46.6027 29.1939C43.4119 32.0101 39.1367 33.8543 34.8606 34.9252L32.8421 33.2819C37.6845 32.4859 42.746 30.8283 45.7248 28.1993C48.6861 25.5855 50.5841 22.1266 50.4799 17.6342C50.4195 15.0291 49.7942 11.8155 47.9866 9.19635C46.9957 7.76039 45.6469 6.49847 43.8264 5.60332C37.0187 2.25586 31.1287 2.46147 24.1232 4.4369C24.0978 4.44608 24.0722 4.45535 24.0464 4.46468C22.7828 4.92189 21.0159 5.56117 19.2405 6.40108C17.4097 7.26716 15.6233 8.32238 14.3859 9.56708C12.0173 11.9495 10.4074 15.4124 10.9684 19.8859C11.1486 21.3224 11.5534 22.8712 12.2362 24.5298C12.6347 25.4979 13.0834 26.4445 13.5966 27.3475C15.7662 31.1652 20.0185 33.5677 25.678 34.1442L24.6158 36.1152C18.6408 35.5066 15.0201 32.3256 12.6804 28.4102C11.7719 28.5416 10.6756 28.5162 9.6618 28.0827C8.41935 27.5515 7.3912 26.4446 6.98143 24.5233C6.64318 22.9374 7.08023 21.6492 7.79643 20.7519C8.29921 20.122 8.95629 19.6668 9.58794 19.4484C9.18359 14.8164 10.9267 11.1648 13.4451 8.63172C14.844 7.22462 16.7938 6.09088 18.6731 5.20183C20.5064 4.33457 22.3237 3.6771 23.5837 3.22127C23.621 3.20775 23.6579 3.19441 23.6943 3.18125L23.7167 3.17312L23.7397 3.16663ZM9.76538 20.8117C9.46281 20.9639 9.12407 21.2152 8.83333 21.5795C8.35173 22.1829 8.02788 23.0695 8.27893 24.2466C8.60579 25.7791 9.36758 26.5141 10.1834 26.8629C10.7482 27.1044 11.3793 27.1769 11.9805 27.147C11.6247 26.4551 11.303 25.7479 11.0094 25.0348C10.4022 23.5598 9.99614 22.1512 9.76538 20.8117ZM51.7438 16.4227C51.8055 16.3531 51.8677 16.2768 51.9301 16.1934C53.0678 14.6736 53.1237 12.5298 52.1814 10.8454C51.5491 9.71498 50.9116 9.32311 49.6539 9.35416C50.9724 11.6415 51.5596 14.1919 51.7438 16.4227Z" fill="#79736E"/>
<path fill-rule="evenodd" clip-rule="evenodd" d="M71.1986 22.889C69.123 23.4334 67.6009 25.914 66.2742 28.7C65.8265 28.7528 66.5396 25.8801 66.9376 24.8575C62.7995 25.5217 59.2286 27.3131 56.494 29.2584C53.4675 31.4115 51.3221 33.8027 48.9611 37.1292C48.7491 37.428 48.335 37.4983 48.0363 37.2862C47.7375 37.0742 47.6672 36.6601 47.8793 36.3614C50.278 32.9815 52.5243 30.4543 55.725 28.1774C58.8708 25.9395 62.6274 24.3983 67.4676 23.785C68.3885 22.5438 69.6652 21.9196 70.862 21.6057C72.1215 21.2754 73.3435 21.2754 74.0574 21.2754L74.073 21.2754C74.3508 21.2754 74.5992 21.4485 74.6954 21.7091C75.3282 23.424 75.2978 24.6015 75.2681 25.7504C75.2636 25.9241 75.2592 26.0971 75.257 26.2713C75.4761 26.6197 75.7053 27.1336 75.9325 27.7282C76.2209 28.4827 76.5354 29.4482 76.8469 30.5621C77.4701 32.7902 78.089 35.6398 78.4629 38.6301C78.8363 41.6167 78.9687 44.7696 78.6041 47.5947C78.2743 50.1501 77.5284 52.5109 76.1154 54.222C77.2923 55.4605 78.2487 57.1643 79.0297 59.1327C79.9166 61.368 80.5969 63.995 81.1109 66.783C82.1201 72.2569 82.5 78.4167 82.5136 83.592C82.7585 83.8468 82.9815 84.1665 83.179 84.5016C83.4484 84.9589 83.6989 85.4945 83.9131 86.0493C84.3354 87.1433 84.6487 88.396 84.6487 89.3456C84.6487 89.5706 84.5346 89.7802 84.3458 89.9025C83.3172 90.5682 81.7525 90.8419 80.342 90.9297C78.9914 91.0137 77.6468 90.9339 76.7863 90.7788C61.5804 94.6773 45.3927 93.1823 35.0309 88.3342C31.7651 90.0473 26.9667 91.2618 21.4626 92.041C15.8432 92.8365 9.83872 92.8118 5.26232 91.6465C4.58428 91.7607 3.64206 91.9213 2.76124 91.8593C2.28403 91.8256 1.80327 91.7593 1.37842 91.6465C0.970383 91.5382 0.53666 91.3676 0.225286 91.0762C0.106859 90.9654 0.0331319 90.8151 0.01804 90.6536C-0.141492 88.9466 0.780289 87.2118 1.86408 85.9474C1.92106 80.0189 2.14536 70.4129 6.95452 63.3926C4.28504 61.1104 3.70626 58.0461 3.13932 54.9708C2.03203 54.4338 1.51788 53.3048 1.33234 52.2671C1.12648 51.1157 1.27624 49.8569 1.63438 49.0789C1.72119 48.8904 1.89126 48.7533 2.09397 48.7086C2.29667 48.6638 2.50864 48.7166 2.66675 48.8511C3.21611 49.3184 3.66122 49.3278 4.38662 49.3278H4.39406C5.07836 49.3278 5.92433 49.3278 6.95452 49.8544C8.4266 48.9414 10.2326 48.0252 12.0078 47.3187C13.9036 46.5642 15.8402 46.018 17.3198 46.018C17.6861 46.018 17.9831 46.3149 17.9831 46.6813C17.9831 47.0477 17.6861 48.008 17.3198 48.008C14.3786 48.008 9.79019 49.6052 7.33351 51.184C7.11959 51.3214 6.84591 51.3245 6.62895 51.1919C5.75356 50.6568 5.09829 50.6544 4.38662 50.6544L4.36093 50.6545C3.83907 50.6545 3.25342 50.6546 2.62929 50.3828C2.55011 50.8667 2.53544 51.4583 2.63831 52.0336C2.8052 52.967 3.23241 53.6377 3.9322 53.8625C4.16888 53.9385 4.34318 54.1405 4.38377 54.3858C4.87489 57.3536 5.49842 59.8382 7.90046 61.9381C10.3548 59.1521 14.0032 58.6857 12.9409 59.3866C11.0845 60.6114 10.0468 61.818 8.7628 63.5964C3.83717 70.4189 2.93056 79.9913 2.90026 85.9474C2.89957 86.0823 2.8578 86.2137 2.78051 86.3242C2.27724 87.0438 1.89328 87.9142 1.6462 88.7175C1.45551 89.3375 1.36057 89.8706 1.33834 90.2332C2.37682 90.7059 4.19932 90.8624 5.26232 90.6536C5.36043 90.6343 5.46163 90.6375 5.55835 90.6628C9.90872 91.8031 15.6778 91.52 21.2767 90.7274C26.2154 90.0283 29.8626 88.9054 32.9746 87.4718C30.3212 86.0788 27.5485 82.0251 29.3346 83.1287C31.4683 84.447 33.5459 85.4541 35.9596 86.6095C46.0387 91.4343 60.4319 93.7138 75.561 89.7983C75.6591 89.773 76.7995 89.4291 76.8987 89.4495C79.0021 89.8819 80.9507 89.6456 82.8577 88.7322C82.5035 85.0479 81.1967 84.8647 78.8776 82.5631C78.8776 82.1305 80.2043 82.2978 81.1794 82.5631C81.1207 77.6682 80.731 72.0392 79.8062 67.0236C79.3018 64.2872 78.6411 61.7505 77.7966 59.622C77.0032 57.6224 76.0646 56.0269 74.9785 54.9575C72.3769 56.0959 69.5257 55.5279 66.8049 54.5039C62.8084 52.9998 59.4418 48.3953 60.5229 48.3953C65.617 54.464 76.0361 57.1278 77.2883 47.4249C77.6335 44.75 77.512 41.7179 77.1465 38.7947C76.7815 35.8753 76.1764 33.0903 75.5693 30.9195C75.2657 29.8339 74.9634 28.9088 74.6932 28.2018C74.4334 28.7 73.7211 29.4111 73.6004 29.2584C74.4334 25.5208 73.9107 23.586 73.6004 22.6047C72.9245 22.6145 72.065 22.6618 71.1986 22.889ZM43.7279 46.0766C44.0619 46.2271 44.402 46.6126 44.2514 46.9466C42.6122 50.5834 42.0624 53.2484 41.3991 57.2749C41.3102 57.6303 40.2668 57.3638 39.9114 57.2749C39.556 57.1861 39.3399 56.8259 39.4288 56.4705C40.4978 52.1944 41.1731 50.1305 42.8506 46.4087C43.0011 46.0747 43.3939 45.926 43.7279 46.0766Z" fill="#79736E"/>
<path fill-rule="evenodd" clip-rule="evenodd" d="M18.2649 14.2128C18.4529 13.9879 18.7876 13.9581 19.0124 14.1461C19.6889 14.7119 20.1299 15.2074 20.3022 15.6431C20.3928 15.8725 20.4356 16.1556 20.309 16.4281C20.1814 16.7025 19.9397 16.8421 19.7297 16.9079C19.3346 17.0317 18.8268 16.972 18.3633 16.8474C17.8888 16.7199 17.3705 16.4998 16.8935 16.2019C16.8326 16.1763 16.7774 16.1542 16.7274 16.1353C16.7504 16.2196 16.7745 16.3138 16.7915 16.4041C16.8176 16.5425 16.8461 16.7582 16.7806 16.9738C16.6993 17.2411 16.4961 17.4391 16.2109 17.5165C15.9728 17.5812 15.7053 17.5552 15.4387 17.4958C14.9647 17.3901 14.6737 17.1765 14.1369 16.7825C14.1281 16.776 14.1192 16.7695 14.1103 16.7629C13.874 16.5895 13.823 16.2574 13.9964 16.0211C14.1698 15.7849 14.5019 15.7339 14.7382 15.9073C15.3293 16.3411 15.4432 16.4094 15.6696 16.4599C15.6868 16.4637 15.703 16.4671 15.7183 16.4701C15.7077 16.4297 15.6955 16.386 15.6819 16.3371C15.6763 16.3173 15.6706 16.2966 15.6646 16.275C15.6322 16.158 15.5872 15.9927 15.5744 15.8346C15.563 15.694 15.5619 15.393 15.804 15.1685C16.0439 14.946 16.354 14.9549 16.5546 14.9862C16.7764 15.0207 17.0407 15.11 17.3497 15.2427C17.3759 15.2539 17.4012 15.2672 17.4252 15.2825C17.8215 15.5346 18.2555 15.7195 18.6388 15.8225C18.9077 15.8947 19.1149 15.917 19.2537 15.9147C19.1341 15.7205 18.8643 15.4059 18.3315 14.9603C18.1067 14.7723 18.0769 14.4376 18.2649 14.2128ZM19.3273 16.0716C19.3273 16.0716 19.3272 16.071 19.3271 16.0698C19.3273 16.0711 19.3274 16.0716 19.3273 16.0716ZM16.6319 15.7343C16.632 15.7345 16.6322 15.7376 16.6319 15.7432C16.6316 15.7369 16.6317 15.7341 16.6319 15.7343ZM16.355 16.0307C16.3495 16.0311 16.3464 16.0309 16.3463 16.0307C16.3461 16.0305 16.3489 16.0303 16.355 16.0307Z" fill="#FB9A99"/>
<path fill-rule="evenodd" clip-rule="evenodd" d="M45.297 10.0228C45.4842 9.79731 45.8188 9.76635 46.0443 9.95361C46.3961 10.2458 46.6705 10.5092 46.8723 10.7463C47.068 10.9764 47.2243 11.2152 47.294 11.4592C47.3703 11.7262 47.348 12.0384 47.1216 12.2843C46.9282 12.4944 46.6624 12.5673 46.4594 12.5943C46.042 12.6499 45.5095 12.5608 45.0006 12.4074C44.4968 12.2556 43.9575 12.023 43.4797 11.729C43.5335 11.8568 43.5951 12.0044 43.6431 12.1449C43.6964 12.3008 43.7582 12.5159 43.7469 12.7315C43.7409 12.8471 43.7129 12.988 43.6298 13.1235C43.5427 13.2654 43.4159 13.3672 43.2704 13.4281C43.0106 13.5369 42.7129 13.5075 42.4474 13.4489C42.172 13.388 41.9149 13.2278 41.7326 13.1099C41.6797 13.0757 41.6305 13.0433 41.5841 13.0127C41.4421 12.9192 41.3258 12.8426 41.2056 12.782C41.048 12.7026 40.9868 12.7076 40.9765 12.7096C40.9765 12.7096 40.9765 12.7096 40.9764 12.7096C40.9753 12.7098 40.9651 12.7113 40.9428 12.7297C40.9162 12.7516 40.8702 12.7997 40.8129 12.8989C40.6663 13.1526 40.3417 13.2395 40.088 13.0928C39.8342 12.9462 39.7474 12.6216 39.894 12.3679C40.1026 12.0068 40.3892 11.7431 40.7725 11.6681C41.1305 11.5979 41.4538 11.7187 41.683 11.8341C41.8643 11.9254 42.0514 12.049 42.202 12.1485C42.2402 12.1737 42.276 12.1974 42.3088 12.2186C42.4428 12.3052 42.5358 12.3576 42.6018 12.3866C42.5708 12.3059 42.5346 12.2195 42.4945 12.1241C42.4873 12.107 42.48 12.0896 42.4726 12.0719C42.4115 11.9261 42.3388 11.7502 42.2934 11.5867C42.2703 11.5036 42.2487 11.4046 42.2432 11.3003C42.2378 11.1988 42.2456 11.0557 42.3154 10.9106C42.4933 10.5406 42.8692 10.4957 43.0991 10.5156C43.3312 10.5357 43.606 10.6257 43.9163 10.7579C43.9425 10.7691 43.9677 10.7823 43.9917 10.7975C44.3937 11.0514 44.866 11.2584 45.3068 11.3912C45.6555 11.4963 45.9494 11.5444 46.1559 11.5493C46.1306 11.5152 46.1003 11.4768 46.0639 11.434C45.9149 11.2588 45.6895 11.0387 45.3661 10.7701C45.1407 10.5828 45.1097 10.2482 45.297 10.0228ZM46.3889 11.527C46.3889 11.527 46.3886 11.5272 46.3878 11.5275C46.3885 11.5272 46.3889 11.527 46.3889 11.527Z" fill="#FB9A99"/>
<path fill-rule="evenodd" clip-rule="evenodd" d="M57.4521 34.1442C55.9121 34.6734 54.7221 36.2072 53.2731 36.7975C49.4973 38.3358 45.4829 37.8403 41.7935 36.9947C39.9397 36.5698 38.2087 36.0342 36.7416 35.5725C36.6507 35.5439 36.561 35.5157 36.4726 35.4878C35.1088 35.0583 34.0318 34.7191 33.279 34.5868C30.9142 34.1714 27.9594 34.1833 25.1524 35.9006C22.3474 37.6168 19.5707 41.1091 17.7155 47.9056C16.4924 52.3867 15.9869 57.3495 16.5619 61.7309C17.1383 66.1223 18.7839 69.8315 21.7635 71.9616C27.3594 75.9622 33.1062 74.9916 36.1589 74.2099C35.097 72.5154 33.8581 70.2134 34.5878 67.3833C34.6819 67.0184 35.3899 68.6378 35.9599 70.2298C38.0402 76.0404 43.6617 80.7861 50.1368 82.066C51.8614 82.4069 53.329 81.7207 54.5334 80.3789C57.8949 76.6338 61.086 62.4936 52.8087 66.6478C50.6421 67.7352 48.7829 70.2128 47.428 72.1299C47.2166 72.429 46.8934 73.2772 46.5942 73.0657C46.882 70.9595 48.4286 68.3228 48.8496 67.958C48.3256 66.2256 47.4726 63.8898 45.8375 61.8018C44.0695 59.5439 41.7019 57.7606 38.7061 57.5756C34.7751 57.3327 31.8277 58.6286 29.913 60.0534C28.087 61.59 27.344 62.6355 26.9594 63.2483C26.2126 64.438 26.7636 61.2988 28.0207 60.0534C27.3831 60.0932 26.5005 60.3505 25.898 60.5928C24.903 60.993 24.1947 61.6084 24.6168 60.8767C25.6118 59.1521 28.0095 58.702 29.3359 58.8325C31.4688 57.311 34.6454 55.9955 38.7879 56.2514C42.3036 56.4686 44.9846 58.5608 46.882 60.9839C48.491 63.0385 49.3477 64.8351 49.9518 66.6478C52.3444 63.9944 54.9977 63.3311 57.5848 64.4588C61.4985 66.6478 58.4189 77.5034 55.3357 80.9386C53.9097 82.5273 51.9976 83.4963 49.6945 83.041C43.4643 81.8095 39.1272 78.1038 37.4211 76.0404C34.2465 76.9901 27.2687 77.5281 20.9919 73.0409C19.6257 72.0642 17.8536 70.0167 16.9884 68.5715C12.8093 69.6992 8.85847 73.9679 9.29365 73.0657C10.8857 69.7655 14.8657 67.6382 16.3251 66.9131C14.3378 60.945 14.81 53.512 16.4357 47.5562C18.3467 40.5552 21.2747 36.7178 24.4601 34.769C27.6434 32.8214 30.9647 32.8333 33.5085 33.2801C34.352 33.4283 35.511 33.7937 36.8222 34.207C36.9271 34.2401 37.033 34.2734 37.1398 34.307C38.6056 34.7683 40.2924 35.2896 42.0899 35.7016C45.6723 36.5226 49.5875 36.8824 52.9563 35.5434C54.1401 35.0729 56.2473 33.1028 57.0916 32.8127C57.5151 32.6672 58.0161 32.5957 58.4383 32.8776C58.8489 33.1517 58.955 33.6116 58.9932 33.9082C59.0327 34.2146 59.0237 34.5694 59.016 34.8756L59.015 34.9132C59.0066 35.2526 59.0002 35.5599 59.0285 35.8393C59.0569 36.1206 59.1154 36.3086 59.1925 36.429C59.2544 36.5257 59.3469 36.6109 59.5487 36.6584C61.0599 37.0143 62.5543 37.7011 63.2982 38.936C64.0875 40.2465 63.8909 41.9077 62.602 43.8412C61.6165 45.3194 59.9386 46.2112 58.1813 46.737C56.4118 47.2665 54.47 47.4529 52.8296 47.4529C51.6501 47.4529 50.1395 47.4095 48.442 47.3606C43.9054 47.2301 38.0339 47.0612 33.5791 47.5808C32.1334 47.7495 31.0721 48.2569 29.351 50.4565C29.0913 50.7149 28.6354 51.4325 28.883 50.3795C29.0879 49.5088 29.6535 48.623 30.1434 48.2569C29.8297 48.3613 27.0283 49.8287 27.2247 49.3182C27.5564 48.4559 29.1125 46.473 33.279 45.819C37.8536 45.2712 44.0128 45.9046 48.6023 46.0366C50.2598 46.0843 51.7173 46.1262 52.8296 46.1262C54.3841 46.1262 56.1901 45.948 57.801 45.466C59.424 44.9804 60.7589 44.2141 61.4981 43.1053C62.6413 41.3904 62.5774 40.3107 62.1617 39.6205C61.7005 38.8549 60.6522 38.2813 59.2446 37.9498C58.7167 37.8255 58.3283 37.5396 58.0752 37.1444C57.8372 36.7727 57.7464 36.3475 57.7085 35.9728C57.6708 35.5996 57.6805 35.2118 57.6885 34.8892L57.6888 34.8801C57.6936 34.6861 57.7666 34.0361 57.4521 34.1442Z" fill="#79736E"/>
<path fill-rule="evenodd" clip-rule="evenodd" d="M54.7834 21.5415C54.4079 22.0227 53.8653 23.1868 53.07 25.5847C53.0623 25.6077 53.0535 25.6303 53.0434 25.6523C52.618 26.5802 51.849 27.4422 50.9217 28.2181C49.988 28.9993 48.856 29.7243 47.6539 30.3683C45.2525 31.6548 42.5092 32.6511 40.3666 33.1314C40.0092 33.2115 39.6544 32.9867 39.5743 32.6292C39.4941 32.2717 39.719 31.917 40.0764 31.8368C42.0976 31.3837 44.7281 30.4307 47.0274 29.1989C48.1756 28.5837 49.2257 27.9073 50.0704 27.2006C50.9082 26.4996 51.5083 25.7984 51.8228 25.1309C52.6026 22.7841 53.2023 21.4112 53.7375 20.7253C54.0044 20.3833 54.3736 20.0586 54.8676 20.056C55.3528 20.0534 55.6899 20.3661 55.8819 20.5847C56.08 20.8102 56.2631 21.1005 56.4189 21.3476L56.4349 21.373C56.6075 21.6466 56.7631 21.8914 56.9314 22.0966C57.1006 22.303 57.2429 22.4182 57.3626 22.4714C57.4574 22.5136 57.5697 22.5329 57.7497 22.4681C58.0738 22.3515 58.3894 22.226 58.7026 22.1003C58.735 22.0873 58.7674 22.0743 58.7998 22.0613C59.0772 21.9498 59.3555 21.8379 59.6241 21.7386C60.2119 21.5214 60.8375 21.3304 61.4401 21.3355C62.0876 21.341 62.6919 21.5728 63.1848 22.1386C63.6477 22.6699 63.9775 23.4558 64.2201 24.5062C64.3026 24.8631 64.0018 24.8471 63.6448 24.9295C63.2878 25.012 63.0099 25.1617 62.9275 24.8047C62.7045 23.8396 62.4382 23.3012 62.1845 23.01C61.9609 22.7534 61.7283 22.6647 61.4289 22.6621C61.0846 22.6592 60.6532 22.7726 60.0841 22.983C59.8341 23.0754 59.5738 23.18 59.2933 23.2927C59.2614 23.3055 59.2293 23.3184 59.1968 23.3315C58.883 23.4574 58.5479 23.5908 58.199 23.7164C57.7058 23.8939 57.2391 23.8684 56.8238 23.6838C56.4334 23.5102 56.1343 23.2168 55.9055 22.9379C55.6802 22.6632 55.4845 22.3528 55.3224 22.0959L55.3129 22.0809C55.1357 21.8 55.006 21.5979 54.8851 21.4602C54.8519 21.4223 54.8069 21.5114 54.7834 21.5415Z" fill="#79736E"/>
</svg>
