<svg width="40" height="40" viewBox="0 0 40 40" fill="none" xmlns="http://www.w3.org/2000/svg">
<path d="M19.9999 36.2598C28.9788 36.2598 36.2576 28.981 36.2576 20.0021C36.2576 11.0232 28.9788 3.74438 19.9999 3.74438C11.021 3.74438 3.74219 11.0232 3.74219 20.0021C3.74219 28.981 11.021 36.2598 19.9999 36.2598Z" fill="white"/>
<path d="M23.3802 34.3283C14.4013 34.3283 7.12247 27.0495 7.12247 18.0706C7.12247 12.7214 9.70621 7.976 13.6934 5.01318C7.84673 7.47612 3.74219 13.2597 3.74219 20.0022C3.74219 28.9811 11.021 36.2599 19.9999 36.2599C23.6296 36.2599 26.9811 35.07 29.6867 33.0595C27.7474 33.8765 25.6166 34.3283 23.3802 34.3283Z" fill="#E5E5E5"/>
<path d="M29.5141 17.7098C28.5953 17.09 28.1358 15.9811 28.3471 14.8933L28.3477 14.8903C28.7209 12.9683 27.0314 11.2789 25.1094 11.6521L25.1065 11.6526C24.0185 11.8639 22.9096 11.4045 22.2899 10.4857C21.1948 8.86219 18.8049 8.86219 17.7098 10.4857C17.0901 11.4045 15.9811 11.864 14.8933 11.6526L14.8903 11.6521C12.9683 11.2789 11.2789 12.9683 11.6521 14.8903L11.6526 14.8933C11.8639 15.9812 11.4045 17.0901 10.4857 17.7098C8.86219 18.8049 8.86219 21.1948 10.4857 22.2899C11.4045 22.9096 11.864 24.0186 11.6526 25.1065L11.6521 25.1094C11.2789 27.0314 12.9683 28.7209 14.8903 28.3477L14.8933 28.3471C15.9812 28.1358 17.0901 28.5952 17.7098 29.514C18.8049 31.1375 21.1948 31.1375 22.2899 29.514C22.9096 28.5952 24.0186 28.1357 25.1065 28.3471L25.1094 28.3477C27.0314 28.7209 28.7209 27.0314 28.3477 25.1094L28.3471 25.1065C28.1358 24.0185 28.5952 22.9096 29.514 22.2899C31.1375 21.1948 31.1375 18.805 29.5141 17.7098Z" fill="#80DFB5"/>
<path d="M13.2171 16.2526C13.2171 14.653 13.4789 13.1033 13.9671 11.6284C12.4677 11.8432 11.3404 13.2851 11.6521 14.8902L11.6527 14.8932C11.864 15.9812 11.4046 17.0901 10.4857 17.7099C8.86219 18.8049 8.86219 21.1949 10.4857 22.2899C11.4045 22.9097 11.864 24.0186 11.6526 25.1066L11.652 25.1095C11.2788 27.0316 12.9683 28.721 14.8903 28.3478L14.8932 28.3472C15.9812 28.1359 17.0901 28.5953 17.7098 29.5142C18.6069 30.8441 20.3724 31.0838 21.5837 30.2349C16.4878 26.9725 13.2171 21.9221 13.2171 16.2526Z" fill="#36D39A"/>
<path d="M20 0C8.95429 0 0 8.95429 0 20C0 31.0457 8.95429 40 20 40C31.0457 40 40 31.0457 40 20C40 8.95429 31.0457 0 20 0ZM4.82897 20C4.82897 11.6347 11.6347 4.82897 20 4.82897C23.3132 4.82897 26.381 5.8973 28.879 7.70648L7.70648 28.879C5.8973 26.381 4.82897 23.3132 4.82897 20ZM20 35.171C16.6868 35.171 13.619 34.1027 11.121 32.2935L32.2935 11.121C34.1027 13.619 35.171 16.6868 35.171 20C35.171 28.3653 28.3653 35.171 20 35.171Z" fill="#FF748F"/>
<path d="M15.6542 16.944C16.3667 16.944 16.9442 16.3664 16.9442 15.654C16.9442 14.9416 16.3667 14.364 15.6542 14.364C14.9418 14.364 14.3643 14.9416 14.3643 15.654C14.3643 16.3664 14.9418 16.944 15.6542 16.944Z" fill="#36D39A"/>
<path d="M24.3461 25.6361C25.0586 25.6361 25.6361 25.0586 25.6361 24.3461C25.6361 23.6337 25.0586 23.0562 24.3461 23.0562C23.6337 23.0562 23.0562 23.6337 23.0562 24.3461C23.0562 25.0586 23.6337 25.6361 24.3461 25.6361Z" fill="#36D39A"/>
</svg>
