<svg width="40" height="40" viewBox="0 0 40 40" fill="none" xmlns="http://www.w3.org/2000/svg">
<g clip-path="url(#clip0)">
<path d="M10.3228 30.3225C8.71742 31.5266 6.86242 31.9816 5.68961 32.1535C5.34 32.2048 5.26586 32.6815 5.58367 32.836C9.52383 34.7523 13.7509 34.5227 16.313 34.0995C17.5697 33.8919 18.71 34.8552 18.71 36.129V30.3225H10.3228Z" fill="#91C84B"/>
<path d="M29.6777 30.3225C31.2831 31.5266 33.1381 31.9816 34.3109 32.1535C34.6605 32.2048 34.7347 32.6815 34.4169 32.836C30.4767 34.7523 26.2496 34.5227 23.6875 34.0995C22.4308 33.8919 21.2905 34.8552 21.2905 36.129V30.3225H29.6777Z" fill="#A0D755"/>
<path d="M27.097 31.6124C34.2232 31.6124 40.0001 25.8355 40.0001 18.7093C40.0001 11.5831 34.2232 5.80615 27.097 5.80615C19.9708 5.80615 14.1938 11.5831 14.1938 18.7093C14.1938 25.8355 19.9708 31.6124 27.097 31.6124Z" fill="#E4EAF8"/>
<path d="M27.0967 5.8064C28.8346 5.8064 30.4898 6.15499 32.003 6.77788C33.9764 9.19507 35.1612 12.2813 35.1612 15.6452C35.1612 23.395 28.8787 29.6774 21.1289 29.6774C20.8428 29.6774 20.5594 29.6662 20.2775 29.6493C16.6287 27.3698 14.1934 23.329 14.1934 18.7097C14.1934 11.5834 19.9704 5.8064 27.0967 5.8064Z" fill="#D5DCED"/>
<path d="M12.9031 31.6124C20.0293 31.6124 25.8063 25.8355 25.8063 18.7093C25.8063 11.5831 20.0293 5.80615 12.9031 5.80615C5.77693 5.80615 0 11.5831 0 18.7093C0 25.8355 5.77693 31.6124 12.9031 31.6124Z" fill="#D5DCED"/>
<path d="M12.9033 5.80615C11.1654 5.80615 9.51028 6.15475 7.99707 6.77764C6.02363 9.19482 4.83887 12.2811 4.83887 15.6449C4.83887 23.3947 11.1213 29.6772 18.8711 29.6772C19.1572 29.6772 19.4407 29.6659 19.7225 29.649C23.3714 27.3696 25.8066 23.3287 25.8066 18.7094C25.8066 11.5831 20.0297 5.80615 12.9033 5.80615Z" fill="#C7CFE2"/>
<path d="M20.0003 27.0968C27.1265 27.0968 32.9034 21.3199 32.9034 14.1937C32.9034 7.06745 27.1265 1.29053 20.0003 1.29053C12.8741 1.29053 7.09717 7.06745 7.09717 14.1937C7.09717 21.3199 12.8741 27.0968 20.0003 27.0968Z" fill="#E4EAF8"/>
<path d="M26.4515 23.2257C19.3253 23.2257 13.5483 17.4486 13.5483 10.3225C13.5483 6.9955 14.8182 3.97261 16.886 1.68433C11.2669 3.07956 7.09668 8.14292 7.09668 14.1934C7.09668 21.3196 12.8736 27.0966 19.9999 27.0966C23.7992 27.0966 27.2042 25.4446 29.5655 22.8314C28.5664 23.0796 27.5272 23.2257 26.4515 23.2257Z" fill="#D5DCED"/>
<path d="M34.8172 19.1743C34.8422 18.7727 34.3655 18.5451 34.0666 18.8145C32.8723 19.8909 31.0923 21.0077 26.4551 21.9352C22.9957 22.627 21.393 24.8019 20.6491 26.6712C20.5453 26.9321 20.2844 27.0965 20.0035 27.0965C19.7226 27.0965 19.4617 26.9322 19.3579 26.6712C18.614 24.8019 17.0112 22.627 13.5519 21.9352C8.91476 21.0077 7.13483 19.8909 5.94054 18.8145C5.64155 18.5451 5.16491 18.7727 5.18991 19.1743C5.38257 22.2685 6.79725 30.8465 16.5085 32.1168C17.7774 32.2828 18.7133 33.3892 18.7133 34.6689V38.0641C18.7133 38.4205 19.0021 38.7093 19.3584 38.7093H20.6487C21.0051 38.7093 21.2939 38.4205 21.2939 38.0641L21.294 34.6689C21.294 33.3892 22.2298 32.2827 23.4987 32.1168C33.2098 30.8465 34.6245 22.2685 34.8172 19.1743Z" fill="#B4E66E"/>
<path d="M26.4515 25.8064C30.9736 23.5453 34.0093 20.7892 34.6919 18.8395C34.5349 18.678 34.2636 18.6373 34.0667 18.8147C32.8724 19.891 31.0923 21.0079 26.4552 21.9354C22.9958 22.6273 21.3932 24.8021 20.6492 26.6714C20.5454 26.9324 20.2844 27.0967 20.0036 27.0967C19.7227 27.0967 19.4618 26.9324 19.358 26.6714C18.6141 24.8021 17.0113 22.6273 13.5519 21.9354C8.91483 21.008 7.13483 19.8911 5.94054 18.8148C5.64155 18.5453 5.16491 18.7729 5.18991 19.1746C5.38257 22.2688 6.79733 30.8467 16.5085 32.1171C17.7773 32.283 18.7133 33.3895 18.7133 34.6692V38.0644C18.7133 38.4207 19.0021 38.7096 19.3584 38.7096H19.9998C19.9998 38.7096 19.9998 36.1289 19.9998 33.5482C19.9998 29.6773 22.0568 28.0037 26.4515 25.8064Z" fill="#A0D755"/>
<path d="M17.4196 29.6772C15.5603 28.4377 8.34516 28.9777 5.49219 18.7275C5.3157 18.7896 5.17664 18.9537 5.19039 19.1744C5.38305 22.2686 6.79781 30.8466 16.509 32.1169C17.7778 32.2829 18.7138 33.3893 18.7138 34.669C18.7137 32.903 18.6199 30.4775 17.4196 29.6772Z" fill="#91C84B"/>
</g>
<defs>
<clipPath id="clip0">
<rect width="40" height="40" fill="white"/>
</clipPath>
</defs>
</svg>
