<svg width="40" height="40" viewBox="0 0 40 40" fill="none" xmlns="http://www.w3.org/2000/svg">
<g clip-path="url(#clip0)">
<path d="M35.7542 10.033C35.7261 10.033 35.6985 10.0345 35.6705 10.0351C35.1788 7.00575 32.5518 4.69263 29.3836 4.69263C27.306 4.69263 25.4607 5.68739 24.2978 7.22653C24.1769 7.38653 23.9693 7.4588 23.7791 7.39536C23.1749 7.19388 22.5214 7.10052 21.8407 7.14083C20.0999 7.24372 18.5871 8.22411 17.7349 9.63935C20.3988 10.0658 22.7198 11.519 24.2781 13.5815C24.4724 13.8386 24.806 13.9547 25.1117 13.8527C26.0826 13.5289 27.1329 13.3789 28.227 13.4436C31.0144 13.6083 33.4383 15.1728 34.8108 17.4339H35.6933C37.7225 17.4339 39.4202 15.8257 39.4541 13.7968C39.4887 11.724 37.8189 10.033 35.7542 10.033Z" fill="#B7E5FF"/>
<path d="M36.501 17.3464C35.1278 15.0889 32.7052 13.5277 29.9205 13.3631C29.3262 13.3279 28.7449 13.3566 28.1821 13.4417C28.1971 13.4424 28.2119 13.4429 28.2268 13.4438C31.0142 13.6085 33.4381 15.173 34.8106 17.4341H35.6931C35.9699 17.434 36.24 17.4031 36.501 17.3464Z" fill="#92D8FF"/>
<path d="M25.9717 13.5009C24.116 11.0448 21.179 9.45203 17.8688 9.42969C17.8227 9.49852 17.7778 9.56828 17.7349 9.63938C20.3988 10.0658 22.7198 11.5191 24.2781 13.5815C24.4724 13.8387 24.806 13.9548 25.1117 13.8528C25.42 13.75 25.7363 13.6648 26.0595 13.5984C26.028 13.5686 25.9985 13.5362 25.9717 13.5009Z" fill="#92D8FF"/>
<path d="M16.9403 26.2561C16.975 26.2561 17.0092 26.258 17.0436 26.2587C17.6504 22.5209 20.8916 19.6667 24.8009 19.6667C27.3645 19.6667 29.6412 20.8942 31.0761 22.7932C31.2252 22.9907 31.4814 23.0798 31.7162 23.0015C32.4616 22.7528 33.268 22.6378 34.1079 22.6874C34.7556 22.7257 35.3771 22.8639 35.9592 23.0839C36.0637 22.4955 36.1066 21.8857 36.0799 21.2614C35.8988 17.0494 32.5163 13.6116 28.3079 13.3628C27.2138 13.2981 26.1635 13.448 25.1927 13.7719C24.8869 13.8739 24.5533 13.7578 24.359 13.5007C22.4901 11.0271 19.5247 9.42847 16.1856 9.42847C11.0939 9.42847 6.8722 13.146 6.08196 18.0144C6.03712 18.0134 5.99251 18.011 5.94743 18.011C2.62915 18.011 -0.0542873 20.7287 0.00133772 24.0597C0.0557908 27.3204 2.78415 29.905 6.04532 29.905H12.4679C12.8924 27.823 14.7328 26.2561 16.9403 26.2561Z" fill="#C9F0FF"/>
<path d="M1.61381 24.0597C1.55818 20.7288 4.24162 18.011 7.55998 18.011C7.56045 18.011 7.56092 18.011 7.56131 18.011C7.63803 18.0111 7.70357 17.9577 7.71693 17.8821C8.516 13.3382 12.3101 9.82675 16.9888 9.46065C16.7236 9.44003 16.4558 9.42847 16.1852 9.42847C11.0936 9.42847 6.87185 13.146 6.08154 18.0144C6.03662 18.0134 5.99209 18.011 5.94701 18.011C2.64896 18.011 -0.0219731 20.6957 0.000136278 23.9988C0.0219332 27.2478 2.77701 29.905 6.02607 29.905H7.65787C4.39662 29.9051 1.66826 27.3205 1.61381 24.0597Z" fill="#AAE7FF"/>
<path d="M34.0269 22.6068C33.1869 22.5571 32.3806 22.6723 31.6352 22.921C31.4004 22.9992 31.1443 22.9101 30.9951 22.7127C29.5603 20.8136 27.2835 19.5862 24.7199 19.5862C20.8107 19.5862 17.5694 22.4403 16.9626 26.1781C16.9282 26.1774 16.8939 26.1756 16.8593 26.1756C14.3117 26.1756 12.2515 28.2621 12.2941 30.8195C12.3359 33.3229 14.4307 35.3073 16.9345 35.3073H33.6441C37.2474 35.3073 40.1502 32.3088 39.9939 28.671C39.8549 25.4371 37.258 22.7978 34.0269 22.6068Z" fill="#B7E5FF"/>
<path d="M13.9883 30.8194C13.9455 28.262 16.0058 26.1755 18.5535 26.1755C18.5882 26.1755 18.6223 26.1774 18.6568 26.1781C19.2194 22.7126 22.0471 20.0084 25.5717 19.6326C25.292 19.6024 25.0081 19.5862 24.7204 19.5862C20.8112 19.5862 17.5699 22.4403 16.9631 26.1782C16.9287 26.1774 16.8944 26.1756 16.8598 26.1756C14.3122 26.1756 12.2519 28.2621 12.2946 30.8195C12.3364 33.3229 14.4311 35.3073 16.9349 35.3073H18.6286C16.1248 35.3072 14.0301 33.3228 13.9883 30.8194Z" fill="#92D8FF"/>
</g>
<defs>
<clipPath id="clip0">
<rect width="40" height="40" fill="white"/>
</clipPath>
</defs>
</svg>
