<svg width="18" height="18" viewBox="0 0 18 18" fill="none" xmlns="http://www.w3.org/2000/svg">
<g clip-path="url(#clip0)">
<path d="M10.8002 0H7.19974C3.72542 0 0.898926 2.82649 0.898926 6.30081V9.00116C0.898926 11.4403 2.30567 13.6539 4.49939 14.6951V17.7023C4.49939 17.9634 4.82602 18.0999 5.01158 17.9144L7.624 15.302H10.8002C14.2744 15.302 17.101 12.4755 17.101 9.00116V6.30081C17.101 2.82649 14.2744 0 10.8002 0Z" fill="#7360F2"/>
<path d="M7.36771 6.46311L7.66105 6.16973L7.66137 6.16942L7.36768 6.46308L7.36771 6.46311Z" fill="white"/>
<path d="M10.6312 9.13963L10.335 9.43585L10.335 9.4359L10.6312 9.13968L10.6312 9.13963Z" fill="white"/>
<path d="M9.60032 5.10059C9.43462 5.10059 9.30029 5.23492 9.30029 5.40061C9.30029 5.5663 9.43462 5.70063 9.60032 5.70063C10.2621 5.70063 10.8005 6.23901 10.8005 6.9008C10.8005 7.06427 10.937 7.20082 11.1005 7.20082C11.264 7.20082 11.4005 7.06427 11.4005 6.9008C11.4006 5.90812 10.593 5.10059 9.60032 5.10059Z" fill="white"/>
<path d="M9.60013 3.90045C9.48914 3.90045 9.37713 3.9066 9.26716 3.91873C9.10245 3.93691 8.98366 4.08516 9.00184 4.2499C9.02001 4.41465 9.16858 4.53312 9.33301 4.51523C9.42118 4.50549 9.51104 4.50053 9.60013 4.50053C10.9237 4.50053 12.0004 5.5773 12.0004 6.90083C12.0004 6.98995 11.9955 7.07981 11.9857 7.16798C11.9678 7.33044 12.0885 7.48126 12.2511 7.49915C12.4135 7.51704 12.5643 7.39635 12.5822 7.23383C12.5944 7.12386 12.6005 7.01185 12.6005 6.90083C12.6005 5.24644 11.2545 3.90045 9.60013 3.90045Z" fill="white"/>
<path d="M9.6006 2.7003C9.49337 2.7003 9.38477 2.70438 9.2779 2.7125C9.11267 2.72502 8.98884 2.86916 9.00136 3.03436C9.01384 3.19959 9.15847 3.32341 9.32321 3.3109C9.41508 3.3039 9.50842 3.30038 9.6006 3.30038C11.5859 3.30038 13.2011 4.91553 13.2011 6.90084C13.2011 7.18174 13.1686 7.46137 13.1047 7.73194C13.0681 7.88698 13.1635 8.04813 13.3173 8.09025C13.479 8.13455 13.6502 8.03312 13.6887 7.86996C13.7633 7.55422 13.8011 7.22818 13.8011 6.90084C13.8011 4.58464 11.9168 2.7003 9.6006 2.7003Z" fill="white"/>
<path d="M14.0623 11.4431C13.8484 12.0455 12.9995 12.5452 12.3224 12.6911C11.8591 12.7895 11.254 12.8679 9.21703 12.0256C6.61152 10.949 4.93362 8.30815 4.80284 8.13681C4.67761 7.96548 3.75 6.73848 3.75 5.46947C3.75 4.20047 4.39611 3.58255 4.65655 3.31725C4.87045 3.09949 5.22398 3 5.56311 3C5.67282 3 5.77146 3.00553 5.86012 3.00995C6.12056 3.021 6.25133 3.03648 6.42311 3.44658C6.63701 3.9606 7.15789 5.2296 7.21995 5.36004C7.28312 5.49048 7.34629 5.66734 7.25763 5.83868C7.17451 6.01554 7.10137 6.09403 6.97059 6.24436C6.83982 6.3947 6.71569 6.50966 6.58492 6.67105C6.46523 6.81143 6.33002 6.96177 6.48074 7.22154C6.63147 7.47578 7.15235 8.32363 7.91926 9.00456C8.90893 9.88335 9.71131 10.1641 9.99835 10.2835C10.2122 10.3719 10.4671 10.3509 10.6234 10.1851C10.8218 9.97179 11.0667 9.61806 11.3161 9.26985C11.4934 9.02003 11.7173 8.98908 11.9522 9.07751C12.1916 9.16042 13.4583 9.78497 13.7188 9.9143C13.9792 10.0447 14.151 10.1066 14.2142 10.2161C14.2762 10.3255 14.2762 10.8395 14.0623 11.4431Z" fill="white"/>
</g>
<defs>
<clipPath id="clip0">
<rect width="18" height="18" fill="white"/>
</clipPath>
</defs>
</svg>
