<svg width="100" height="100" viewBox="0 0 100 100" fill="none" xmlns="http://www.w3.org/2000/svg">
<path d="M70 34.7812V10.533H46.25C46.25 1.28088 31.25 1.03129 31.25 10.533H7.5V96.283H70V68.0312M28.25 21.7812H52M57.75 21.7812H64.5M64.5 43.5312H59.25M55.25 43.5312H39.25M35 43.5312H28.25M28.25 64.2812H43M28.25 86.0312H50M55.25 86.0312H64.5M50 65.5312L76.75 36.7812L84.25 43.5312L57.75 72.2812M50 65.5312L45.5 78.0312L57.75 72.2812M50 65.5312L57.75 72.2812M78.75 34.7812L86 41.5312L88.8175 38.7137C90.8304 36.7008 90.7739 33.4202 88.6928 31.4779V31.4779C86.6557 29.5766 83.4613 29.6931 81.5681 31.7377L78.75 34.7812Z" stroke="#D60808" stroke-width="2" stroke-linecap="round" stroke-linejoin="round"/>
<rect x="12.5" y="16.7812" width="10" height="10" rx="1" stroke="#D60808" stroke-width="2"/>
<rect x="12.5" y="38.2812" width="10" height="10" rx="1" stroke="#D60808" stroke-width="2"/>
<rect x="12.5" y="59.7812" width="10" height="10" rx="1" stroke="#D60808" stroke-width="2"/>
<rect x="12.5" y="81.2812" width="10" height="10" rx="1" stroke="#D60808" stroke-width="2"/>
</svg>
