<svg width="100" height="101" viewBox="0 0 100 101" fill="none" xmlns="http://www.w3.org/2000/svg">
<path d="M1.5 13.5C0.947715 13.5 0.5 13.9477 0.5 14.5C0.5 15.0523 0.947715 15.5 1.5 15.5V13.5ZM13.25 14.5L14.2028 14.1963C14.0706 13.7816 13.6853 13.5 13.25 13.5V14.5ZM30.5472 72.0537C30.715 72.5799 31.2775 72.8705 31.8037 72.7028C32.3299 72.535 32.6205 71.9725 32.4528 71.4463L30.5472 72.0537ZM43.25 79.75C42.6977 79.75 42.25 80.1977 42.25 80.75C42.25 81.3023 42.6977 81.75 43.25 81.75V79.75ZM74 81.75C74.5523 81.75 75 81.3023 75 80.75C75 80.1977 74.5523 79.75 74 79.75V81.75ZM37.75 68.25L36.7962 68.5503C36.9397 69.0064 37.3861 69.297 37.8613 69.2438L37.75 68.25ZM25 27.75L24.9898 26.7501C24.6731 26.7533 24.3767 26.9063 24.1907 27.1626C24.0047 27.4189 23.951 27.7482 24.0462 28.0503L25 27.75ZM98.75 27L99.7498 27.0217C99.7556 26.751 99.6515 26.4895 99.4612 26.297C99.2708 26.1044 99.0106 25.9973 98.7398 26.0001L98.75 27ZM98 61.5L98.1113 62.4938C98.6091 62.438 98.9889 62.0225 98.9998 61.5217L98 61.5ZM1.5 15.5H13.25V13.5H1.5V15.5ZM12.2972 14.8037L30.5472 72.0537L32.4528 71.4463L14.2028 14.1963L12.2972 14.8037ZM43.25 81.75H74V79.75H43.25V81.75ZM38.7038 67.9497L25.9538 27.4497L24.0462 28.0503L36.7962 68.5503L38.7038 67.9497ZM25.0102 28.7499L98.7602 27.9999L98.7398 26.0001L24.9898 26.7501L25.0102 28.7499ZM97.7502 26.9783L97.0002 61.4783L98.9998 61.5217L99.7498 27.0217L97.7502 26.9783ZM97.8887 60.5062L37.6387 67.2562L37.8613 69.2438L98.1113 62.4938L97.8887 60.5062ZM38.5 80.5C38.5 82.9853 36.4853 85 34 85V87C37.5899 87 40.5 84.0899 40.5 80.5H38.5ZM34 85C31.5147 85 29.5 82.9853 29.5 80.5H27.5C27.5 84.0899 30.4101 87 34 87V85ZM29.5 80.5C29.5 78.0147 31.5147 76 34 76V74C30.4101 74 27.5 76.9101 27.5 80.5H29.5ZM34 76C36.4853 76 38.5 78.0147 38.5 80.5H40.5C40.5 76.9101 37.5899 74 34 74V76ZM88 80.5C88 82.9853 85.9853 85 83.5 85V87C87.0899 87 90 84.0899 90 80.5H88ZM83.5 85C81.0147 85 79 82.9853 79 80.5H77C77 84.0899 79.9101 87 83.5 87V85ZM79 80.5C79 78.0147 81.0147 76 83.5 76V74C79.9101 74 77 76.9101 77 80.5H79ZM83.5 76C85.9853 76 88 78.0147 88 80.5H90C90 76.9101 87.0899 74 83.5 74V76Z" fill="#D60808"/>
</svg>
