<svg width="100" height="100" viewBox="0 0 100 100" fill="none" xmlns="http://www.w3.org/2000/svg">
<path d="M45.2498 35.25C43.4165 38.6667 41.4498 46.65 48.2498 51.25C56.7498 57 79.25 62.75 79.75 78C80.25 93.25 58 105.25 30.5 90" stroke="#D60808" stroke-width="2" stroke-linecap="round" stroke-linejoin="round" stroke-dasharray="15 15"/>
<path d="M45.1693 30.029C38.7203 22.1206 31.1511 2.32605 46.4947 2.50119C61.888 2.32378 54.2387 22.1003 47.8145 30.0241C47.123 30.877 45.8632 30.88 45.1693 30.029Z" stroke="#D60808" stroke-width="2"/>
<path d="M27.1693 84.029C20.7203 76.1206 13.1511 56.326 28.4947 56.5012C43.888 56.3238 36.2387 76.1003 29.8145 84.0241C29.123 84.877 27.8632 84.88 27.1693 84.029Z" stroke="#D60808" stroke-width="2"/>
<path d="M71.1766 59.5055C65.4762 52.3024 58.9679 34.8453 72.4953 35.0011C86.0665 34.8433 79.4884 52.2845 73.8085 59.5007C73.1252 60.3688 71.8622 60.3718 71.1766 59.5055Z" stroke="#D60808" stroke-width="2"/>
<ellipse cx="46.25" cy="13" rx="4.75" ry="5" stroke="#D60808" stroke-width="2"/>
<ellipse cx="28.25" cy="67" rx="4.75" ry="5" stroke="#D60808" stroke-width="2"/>
<ellipse cx="72.25" cy="44.5" rx="4.25" ry="4.5" stroke="#D60808" stroke-width="2"/>
</svg>
