<svg width="100" height="100" viewBox="0 0 100 100" fill="none" xmlns="http://www.w3.org/2000/svg">
<path d="M71.1371 94.5678C59.4939 81.4363 44.413 44.182 72.4906 44.5021C100.66 44.1778 85.424 81.3998 73.838 94.5622C73.113 95.3858 71.865 95.3887 71.1371 94.5678Z" stroke="#D60808" stroke-width="2"/>
<path d="M61.5 87.9258C57.8424 88.9515 53.9852 89.5 50 89.5C28.2195 89.5 10.2657 73.1159 7.79102 52M15.627 22C10.5157 29.0155 7.5 37.6556 7.5 47C7.5 48.6916 7.59882 50.3601 7.79102 52M15.627 22C23.3547 11.3933 35.8723 4.5 50 4.5C58.7968 4.5 66.9693 7.1726 73.75 11.7501M15.627 22C18.668 18.75 25.7 12.95 29.5 15.75C34.25 19.25 29.75 22.5 31 25.5C32.25 28.5 35.5 28.5 36.25 27.5C37 26.5 36 22.75 39.25 22.75C42.5 22.75 54.25 25.75 54 29.75C53.75 33.75 47 38 45.75 41C44.5 44 42.25 58.75 38 59.25C33.75 59.75 28.5 55 26.75 57.75C25 60.5 24 67.25 27.5 67.5C31 67.75 33 65.25 35 65C37 64.75 36.75 69.5 39.25 70.25C41.75 71 43.75 68.25 45.25 68.75C46.75 69.25 48.5 71.75 50.75 70.25M56.5 79.25C57.0833 79.8333 57.5 81.3 54.5 82.5C50.75 84 48.75 86.0742 47 87C45.25 87.9258 43.75 86.5 41.75 84.25C39.75 82 40.25 80.25 41.75 79.25C43.25 78.25 46.25 78 44.75 77C43.25 76 41 76 38 76.5C35 77 36.75 74.75 35 73.75C33.25 72.75 32.5 74.5 31 73C29.5 71.5 28 71.75 25.5 71.5C23 71.25 23.5 70 20.75 68.75C18 67.5 17.25 68.5 16.75 65.75C16.25 63 17.504 63.25 15.627 61.25C13.75 59.25 15.5 58 13.25 55.75C11 53.5 8.08203 55.25 7.79102 52M73.75 11.7501C70.75 12.7501 65.2 15.2 67 17C69.25 19.25 74 19.25 70.5 21.5C67 23.75 58.5 25.75 60 28.75C61.5 31.75 64.5 32.75 67 31.25C69.5 29.75 70.25 25.25 73.75 27C77.25 28.75 77.5 29.75 81.25 29.75C85 29.75 84 31.75 86.5 32C88.5 32.2 89.1188 31.0833 89.1783 30.5M73.75 11.7501C80.5515 16.3417 85.9525 22.8499 89.1783 30.5M89.1783 30.5C91.3174 35.5732 92.5 41.1485 92.5 47C91.9522 44 90.5209 37.65 89.1783 36.25C87.5 34.5 84.75 34.75 83 35.5C81.25 36.25 80.75 33.75 79.75 35.5C78.75 37.25 78.75 37 77.25 36.25C75.75 35.5 75.75 34.75 75.25 33C74.75 31.25 74 33 70.5 34.25C67 35.5 61.5 35.75 62.25 37.75C63 39.75 63.75 42.5 63 43.75M41.25 11.25C39.8333 10.5 36.6 9.35 35 10.75C33 12.5 32.75 14.75 37 15.25C41.25 15.75 39.5 16.5 41.75 17.75C44 19 43.75 18.75 45.75 20.75C47.75 22.75 53 20.25 50 18.75C47 17.25 47.5 15.25 47 14C46.6 13 43 11.75 41.25 11.25Z" stroke="#D60808" stroke-width="2" stroke-linecap="round"/>
<ellipse cx="72.75" cy="62.75" rx="8.75" ry="8.75" stroke="#D60808" stroke-width="2"/>
</svg>
