<svg width="100" height="100" viewBox="0 0 100 100" fill="none" xmlns="http://www.w3.org/2000/svg">
<path d="M71.6396 41.75V30.1115L88.802 45.5744L99 34.4257C93.1134 29.1047 79.9472 17.7465 74.3756 12.8817C67.4112 6.80058 64.115 10.267 60.9442 12.8817C54.2207 18.4259 45.7793 18.4259 39.0558 12.8817C35.885 10.267 32.5888 6.80058 25.6244 12.8817C20.0528 17.7465 6.88663 29.1047 1 34.4257L11.198 45.5744L28.3604 30.1115V77.5H56.25" stroke="#D60808" stroke-width="2" stroke-linecap="round" stroke-linejoin="round"/>
<path d="M70.8092 47.1105C71.1268 46.2292 72.3732 46.2292 72.6908 47.1105L77.1875 59.588C77.3294 59.9817 77.7014 60.2454 78.1199 60.2489L92.118 60.3661C93.0956 60.3743 93.4818 61.6358 92.6765 62.1899L81.5531 69.8432C81.1845 70.0968 81.0292 70.5644 81.1728 70.9881L85.3588 83.3374C85.6648 84.2402 84.6541 85.0186 83.8594 84.4921L72.3023 76.8359C71.9675 76.6141 71.5325 76.6141 71.1977 76.8359L59.6406 84.4921C58.8459 85.0186 57.8352 84.2402 58.1412 83.3374L62.3272 70.9881C62.4708 70.5644 62.3155 70.0968 61.9469 69.8432L50.8235 62.1899C50.0182 61.6358 50.4044 60.3743 51.382 60.3661L65.3801 60.2489C65.7986 60.2454 66.1706 59.9817 66.3125 59.588L70.8092 47.1105Z" stroke="#D60808" stroke-width="2"/>
</svg>
