<svg width="100" height="100" viewBox="0 0 100 100" fill="none" xmlns="http://www.w3.org/2000/svg">
<path d="M1.5 48.75C0.947715 48.75 0.5 49.1977 0.5 49.75C0.5 50.3023 0.947715 50.75 1.5 50.75V48.75ZM57.25 50.75C57.8023 50.75 58.25 50.3023 58.25 49.75C58.25 49.1977 57.8023 48.75 57.25 48.75V50.75ZM1.5 57C0.947715 57 0.5 57.4477 0.5 58C0.5 58.5523 0.947715 59 1.5 59V57ZM53.75 59C54.3023 59 54.75 58.5523 54.75 58C54.75 57.4477 54.3023 57 53.75 57V59ZM69.0973 52.7189C68.8039 52.2509 68.1868 52.1094 67.7189 52.4027C67.2509 52.6961 67.1094 53.3132 67.4027 53.7811L69.0973 52.7189ZM78.75 70L77.9027 70.5311C78.0719 70.8011 78.3597 70.9743 78.6775 70.9974C78.9953 71.0205 79.305 70.8908 79.5115 70.6481L78.75 70ZM99.5115 47.1481C99.8695 46.7275 99.8187 46.0964 99.3981 45.7385C98.9775 45.3805 98.3464 45.4313 97.9885 45.8519L99.5115 47.1481ZM56.5 72C57.0523 72 57.5 71.5523 57.5 71C57.5 70.4477 57.0523 70 56.5 70V72ZM80.5 39C80.5 39.5523 80.9477 40 81.5 40C82.0523 40 82.5 39.5523 82.5 39H80.5ZM95.5 61.5C95.5 60.9477 95.0523 60.5 94.5 60.5C93.9477 60.5 93.5 60.9477 93.5 61.5H95.5ZM88.7834 49.95C89.17 50.3444 89.8032 50.3507 90.1975 49.9641C90.5919 49.5775 90.5982 48.9443 90.2116 48.55L88.7834 49.95ZM1.5 50.75H57.25V48.75H1.5V50.75ZM1.5 59H53.75V57H1.5V59ZM67.4027 53.7811L77.9027 70.5311L79.5973 69.4689L69.0973 52.7189L67.4027 53.7811ZM79.5115 70.6481L99.5115 47.1481L97.9885 45.8519L77.9885 69.3519L79.5115 70.6481ZM6.5 22H76.5V20H6.5V22ZM2.5 66V26H0.5V66H2.5ZM56.5 70H6.5V72H56.5V70ZM80.5 26V39H82.5V26H80.5ZM0.5 66C0.5 69.3137 3.18629 72 6.5 72V70C4.29086 70 2.5 68.2091 2.5 66H0.5ZM76.5 22C78.7091 22 80.5 23.7909 80.5 26H82.5C82.5 22.6863 79.8137 20 76.5 20V22ZM6.5 20C3.18629 20 0.5 22.6863 0.5 26H2.5C2.5 23.7909 4.29086 22 6.5 22V20ZM93.5 61.5C93.5 70.6127 86.1127 78 77 78V80C87.2173 80 95.5 71.7173 95.5 61.5H93.5ZM77 78C67.8873 78 60.5 70.6127 60.5 61.5H58.5C58.5 71.7173 66.7827 80 77 80V78ZM60.5 61.5C60.5 52.3873 67.8873 45 77 45V43C66.7827 43 58.5 51.2827 58.5 61.5H60.5ZM77 45C81.6159 45 85.7876 46.8941 88.7834 49.95L90.2116 48.55C86.8552 45.1261 82.175 43 77 43V45Z" fill="#D60808"/>
</svg>
