<svg width="148" height="40" viewBox="0 0 148 40" fill="none" xmlns="http://www.w3.org/2000/svg">
<path d="M25.4665 9.87294C23.6019 8.12327 19.8235 7.27344 14.1315 7.27344C8.43947 7.27344 4.66114 8.12327 2.79651 9.87294C0.931885 11.6226 -0.000431409 15.2219 -0.000431644 20.5709C-0.000431878 25.9199 0.931884 29.4692 2.79651 31.2189C4.06126 32.4056 6.20644 33.2015 9.23205 33.5907C12.1323 33.9638 12.5081 38.934 14.1315 38.934C15.7549 38.934 16.1302 33.9637 19.0304 33.5907C22.0563 33.2015 24.2017 32.4057 25.4665 31.2189C27.3802 29.4692 28.3125 25.9199 28.3125 20.5709C28.3125 15.2219 27.3802 11.6226 25.4665 9.87294Z" fill="url(#paint0_linear)"/>
<path d="M42.5259 9.45813C39.9575 9.45813 36.9545 9.73399 33.5958 10.2857C32.9636 10.4039 32.6475 10.798 32.6475 11.4286V39.4089C32.6475 39.803 32.845 40 33.2402 40H38.9696C39.3648 40 39.5624 39.803 39.5624 39.4089V31.9606C40.9453 32.1182 42.4864 32.197 44.225 32.197C47.7417 32.197 50.152 31.3695 51.456 29.7143C52.7599 28.0591 53.3921 24.9458 53.3921 20.3744C53.3921 16.0788 52.6414 13.202 51.1794 11.7044C49.7174 10.2069 46.8329 9.45813 42.5259 9.45813ZM42.921 15.3695C44.5016 15.3695 45.4894 15.7241 45.8845 16.4729C46.2797 17.2217 46.4772 18.6404 46.4772 20.8079C46.4772 23.0936 46.2402 24.5911 45.7265 25.2611C45.2128 25.931 44.1064 26.2463 42.3678 26.2463C41.2614 26.2463 40.3131 26.1675 39.5624 26.0493V15.3695H42.921Z" fill="black"/>
<path d="M60.4743 0C57.906 0 56.4439 1.3399 56.4439 3.58621C56.4439 5.91133 57.906 7.21182 60.4743 7.21182C62.9637 7.21182 64.4257 5.83251 64.4257 3.58621C64.4257 1.3399 62.9637 0 60.4743 0ZM57.5898 9.65517C57.1947 9.65517 56.9971 9.85222 56.9971 10.2857V31.3695C56.9971 31.803 57.1947 32 57.5898 32H63.2798C63.6749 32 63.8725 31.803 63.8725 31.3695V10.2857C63.8725 9.85222 63.6749 9.65517 63.2798 9.65517H57.5898Z" fill="black"/>
<path d="M78.7781 9.45813C73.997 9.45813 70.5988 9.69458 68.6626 10.1675C68.307 10.2463 68.1094 10.2857 68.1094 10.7586V31.3695C68.1094 31.803 68.307 32 68.6626 32H74.4711C74.8663 32 75.0638 31.803 75.0638 31.3695V15.3695H77.7113C79.6474 15.3695 80.3192 15.33 80.9514 16.2365C81.5836 17.1429 81.5836 18.2069 81.5836 21.1626V31.3695C81.5836 31.803 81.7812 32 82.1368 32H87.8663C88.2614 32 88.459 31.803 88.459 31.3695V19.0345C88.459 14.936 88.0638 12.7685 86.5228 11.3103C84.9818 9.85222 82.848 9.45813 78.7781 9.45813Z" fill="black"/>
<path d="M96.0521 0C93.4837 0 92.0217 1.3399 92.0217 3.58621C92.0217 5.91133 93.4837 7.21182 96.0521 7.21182C98.5414 7.21182 100.003 5.83251 100.003 3.58621C100.003 1.3399 98.5414 0 96.0521 0ZM93.1676 9.65517C92.7724 9.65517 92.5749 9.85222 92.5749 10.2857V31.3695C92.5749 31.803 92.7724 32 93.1676 32H98.8575C99.2527 32 99.4502 31.803 99.4502 31.3695V10.2857C99.4502 9.85222 99.2527 9.65517 98.8575 9.65517H93.1676Z" fill="black"/>
<path d="M105.11 11.7438C103.727 13.2414 103.055 16.2759 103.055 20.8473C103.055 25.4187 103.727 28.4532 105.11 29.9507C106.493 31.4483 109.338 32.197 113.566 32.197C117.794 32.197 120.599 31.4483 121.982 29.9507C123.365 28.4532 124.076 25.4187 124.076 20.8473C124.076 16.2759 123.365 13.2414 121.982 11.7438C120.599 10.2069 117.794 9.45813 113.566 9.45813C109.338 9.45813 106.493 10.2069 105.11 11.7438ZM116.45 16.4335C116.924 17.1823 117.161 18.6404 117.161 20.8473C117.161 23.0542 116.924 24.5123 116.45 25.2217C116.015 25.931 115.028 26.2857 113.566 26.2857C112.104 26.2857 111.116 25.931 110.642 25.2217C110.207 24.5123 109.97 23.0542 109.97 20.8473C109.97 18.6404 110.207 17.1823 110.642 16.4729C111.116 15.7241 112.104 15.3695 113.566 15.3695C115.028 15.3695 116.015 15.7241 116.45 16.4335Z" fill="black"/>
<path d="M138.319 9.45813C133.538 9.45813 130.139 9.69458 128.203 10.1675C127.848 10.2463 127.65 10.2857 127.65 10.7586V31.3695C127.65 31.803 127.848 32 128.203 32H134.012C134.407 32 134.604 31.803 134.604 31.3695V15.3695H137.252C139.188 15.3695 139.86 15.33 140.492 16.2365C141.124 17.1429 141.124 18.2069 141.124 21.1626V31.3695C141.124 31.803 141.322 32 141.677 32H147.407C147.802 32 148 31.803 148 31.3695V19.0345C148 14.936 147.604 12.7685 146.063 11.3103C144.522 9.85222 142.389 9.45813 138.319 9.45813Z" fill="black"/>
<defs>
<linearGradient id="paint0_linear" x1="4.17532" y1="9.03307" x2="24.4746" y2="38.6225" gradientUnits="userSpaceOnUse">
<stop stop-color="#0B0175"/>
<stop offset="1" stop-color="#0063F8"/>
</linearGradient>
</defs>
</svg>
