<svg width="50" height="50" viewBox="0 0 50 50" fill="none" xmlns="http://www.w3.org/2000/svg">
<path d="M0 25C0 4.4125 4.4125 0 25 0C45.5875 0 50 4.4125 50 25C50 45.5875 45.5875 50 25 50C4.4125 50 0 45.5875 0 25Z" fill="url(#paint0_linear)"/>
<path d="M25.25 13C32.0047 13 37.5 18.4953 37.5 25.25C37.5 31.0419 33.4595 35.9074 28.0492 37.177L28.0492 50L22.4508 50L22.4508 37.177C17.0405 35.9074 13 31.0419 13 25.25C13 18.4953 18.4953 13 25.25 13ZM25.25 32.903C29.4699 32.903 32.903 29.4699 32.903 25.25C32.903 21.0301 29.4699 17.597 25.25 17.597C21.0301 17.597 17.597 21.0301 17.597 25.25C17.597 29.4699 21.0301 32.903 25.25 32.903Z" fill="white"/>
<path d="M30.5141 25.2506L28.2027 25.2506C28.2027 23.6221 26.8779 22.2973 25.2494 22.2973L25.2494 19.9859C28.1524 19.9859 30.5141 22.3476 30.5141 25.2506Z" fill="white"/>
<defs>
<linearGradient id="paint0_linear" x1="35.5357" y1="64.375" x2="-4.39186" y2="10.2932" gradientUnits="userSpaceOnUse">
<stop stop-color="#0B0175"/>
<stop offset="1" stop-color="#0063F8"/>
</linearGradient>
</defs>
</svg>
