<svg width="16" height="16" viewBox="0 0 16 16" fill="none" xmlns="http://www.w3.org/2000/svg">
<path d="M8.00284 1.59375C11.973 1.59375 15.2026 4.21191 15.2026 7.43008C15.2026 9.06016 14.3797 10.5889 12.9274 11.6886C13.4078 12.435 14.029 13.1906 14.8127 13.3831C15.0606 13.4446 15.2262 13.678 15.2005 13.9309C15.1748 14.1849 14.966 14.3804 14.7099 14.3917C14.6986 14.3917 14.6543 14.3937 14.5803 14.3937C14.0485 14.3937 11.9956 14.3088 9.66597 13.1057C9.13217 13.2132 8.57368 13.2664 8.00284 13.2664C4.03374 13.2664 0.803126 10.6483 0.803126 7.43008C0.803126 4.21191 4.03374 1.59375 8.00284 1.59375Z" fill="black"/>
</svg>
