<svg width="16" height="16" viewBox="0 0 16 16" fill="none" xmlns="http://www.w3.org/2000/svg">
<g clip-path="url(#clip0)">
<path d="M13.9809 0.503757C13.3093 -0.167872 12.2221 -0.167966 11.5504 0.503757L9.39801 2.65613C8.84288 3.21131 8.74816 4.05476 9.11291 4.70886L7.90336 5.91842C7.81546 6.00628 7.76606 6.12552 7.76606 6.24983V8.11801C7.17658 8.71946 7.49108 8.40233 6.56238 9.331C6.47086 9.42252 6.3509 9.4683 6.23097 9.4683C5.8171 9.4683 5.60347 8.96425 5.89957 8.66818L7.1079 7.45985L5.81645 6.1684C5.57675 5.92867 5.17 6.01553 5.04798 6.33048L1.54828 15.3609C1.40117 15.7406 1.77704 16.1154 2.15651 15.9666L11.1557 12.4357C11.4698 12.3124 11.5547 11.9067 11.316 11.668L8.70351 9.05549V6.44403L9.77576 5.37178C10.43 5.73659 11.2725 5.6426 11.8285 5.08668L13.9809 2.93427C14.6542 2.26086 14.6509 1.17376 13.9809 0.503757Z" fill="black"/>
</g>
<defs>
<clipPath id="clip0">
<rect width="16" height="16" fill="white"/>
</clipPath>
</defs>
</svg>
