<svg width="16" height="16" viewBox="0 0 16 16" fill="none" xmlns="http://www.w3.org/2000/svg">
<path d="M13.0851 0H3.40625C2.63084 0 2 0.630844 2 1.40625V14.5938C2 15.3692 2.63084 16 3.40625 16H13.0851C13.8605 16 14.4913 15.3692 14.4913 14.5938V1.40625C14.4913 0.630844 13.8605 0 13.0851 0ZM4.19494 9.18091C4.19494 8.92203 4.40481 8.71216 4.66369 8.71216H9.08366C9.34253 8.71216 9.55241 8.92203 9.55241 9.18091C9.55241 9.43978 9.34253 9.64966 9.08366 9.64966H4.66369C4.40481 9.64966 4.19494 9.43978 4.19494 9.18091ZM10.6891 13.7936C9.80247 13.7936 9.08366 13.0884 9.08366 12.2185C9.08366 11.3485 9.80247 10.6433 10.6891 10.6433C11.5758 10.6433 12.2946 11.3485 12.2946 12.2185C12.2946 13.0884 11.5758 13.7936 10.6891 13.7936ZM11.8285 7.62769H4.66369C4.40481 7.62769 4.19494 7.41781 4.19494 7.15894C4.19494 6.90006 4.40481 6.69019 4.66369 6.69019H11.8285C12.0873 6.69019 12.2972 6.90006 12.2972 7.15894C12.2972 7.41781 12.0873 7.62769 11.8285 7.62769ZM11.8285 5.60572H4.66369C4.40481 5.60572 4.19494 5.39584 4.19494 5.13697C4.19494 4.87809 4.40481 4.66822 4.66369 4.66822H11.8285C12.0873 4.66822 12.2972 4.87809 12.2972 5.13697C12.2972 5.39584 12.0873 5.60572 11.8285 5.60572ZM11.8285 3.58375H4.66369C4.40481 3.58375 4.19494 3.37388 4.19494 3.115C4.19494 2.85612 4.40481 2.64625 4.66369 2.64625H11.8285C12.0873 2.64625 12.2972 2.85612 12.2972 3.115C12.2972 3.37388 12.0873 3.58375 11.8285 3.58375Z" fill="black"/>
</svg>
